<svg id="_160Currencies" data-name="160Currencies" xmlns="http://www.w3.org/2000/svg" width="147.821" height="65.118" viewBox="0 0 147.821 65.118">
  <g id="Layer_1" data-name="Layer 1">
    <path id="Path_1" data-name="Path 1" d="M131.12,12c-6.55,0-11.5-2.58-11.5-6s4.95-6,11.5-6,11.5,2.58,11.5,6S137.68,12,131.12,12Zm0-10c-5.6,0-9.5,2.11-9.5,4s3.9,4,9.5,4,9.5-2.11,9.5-4S136.72,2,131.12,2Z" fill="#fff"/>
    <path id="Path_2" data-name="Path 2" d="M131.12,19c-6.55,0-11.5-2.58-11.5-6h2c0,1.89,3.9,4,9.5,4s9.5-2.11,9.5-4h2C142.62,16.42,137.68,19,131.12,19Z" fill="#fff"/>
    <path id="Path_3" data-name="Path 3" d="M131.12,26c-6.55,0-11.5-2.58-11.5-6h2c0,1.89,3.9,4,9.5,4s9.5-2.11,9.5-4h2C142.62,23.42,137.68,26,131.12,26Z" fill="#fff"/>
    <path id="Path_4" data-name="Path 4" d="M131.12,33c-6.55,0-11.5-2.58-11.5-6V6h2V27c0,1.89,3.9,4,9.5,4s9.5-2.11,9.5-4V6h2V27C142.62,30.42,137.68,33,131.12,33Z" fill="#fff"/>
    <path id="Path_5" data-name="Path 5" d="M110.12,27c-6.55,0-11.5-2.58-11.5-6s4.95-6,11.5-6,11.5,2.58,11.5,6S116.68,27,110.12,27Zm0-10c-5.6,0-9.5,2.11-9.5,4s3.9,4,9.5,4,9.5-2.11,9.5-4S115.72,17,110.12,17Z" fill="#fff"/>
    <path id="Path_6" data-name="Path 6" d="M110.12,34c-6.55,0-11.5-2.58-11.5-6h2c0,1.89,3.9,4,9.5,4s9.5-2.11,9.5-4h2C121.62,31.42,116.68,34,110.12,34Z" fill="#fff"/>
    <path id="Path_7" data-name="Path 7" d="M110.12,41c-6.55,0-11.5-2.58-11.5-6h2c0,1.89,3.9,4,9.5,4s9.5-2.11,9.5-4h2C121.62,38.42,116.68,41,110.12,41Z" fill="#fff"/>
    <rect id="Rectangle_2" data-name="Rectangle 2" width="2" height="14" transform="translate(98.62 21)" fill="#fff"/>
    <rect id="Rectangle_3" data-name="Rectangle 3" width="2" height="15" transform="translate(119.62 20)" fill="#fff"/>
    <path id="Path_8" data-name="Path 8" d="M15.61,40.15H9.31V9.66L0,12.84V7.52L14.81,2.07h.8Z" fill="#fff"/>
    <path id="Path_9" data-name="Path 9" d="M48.51,2V7.26h-.78a12.53,12.53,0,0,0-8.5,2.92,12.21,12.21,0,0,0-3.78,8.05,10.27,10.27,0,0,1,7.8-3.2,9.7,9.7,0,0,1,7.93,3.54,13.94,13.94,0,0,1,2.91,9.15,13,13,0,0,1-3.4,9.37,11.76,11.76,0,0,1-8.93,3.59,11.48,11.48,0,0,1-9.22-4.2Q29,32.28,29,25.48V23.31q0-10,4.86-15.64T47.86,2Zm-6.8,18.11a6.68,6.68,0,0,0-3.82,1.18,6.8,6.8,0,0,0-2.54,3.13v1.93a11.38,11.38,0,0,0,1.77,6.71,5.61,5.61,0,0,0,9.05.38,8.84,8.84,0,0,0,1.64-5.56,8.92,8.92,0,0,0-1.67-5.6,5.33,5.33,0,0,0-4.43-2.15Z" fill="#fff"/>
    <path id="Path_10" data-name="Path 10" d="M83.88,24.17q0,8.19-3.06,12.35T71.5,40.68q-6.15,0-9.26-4.06t-3.2-12V18.05q0-8.19,3.07-12.28t9.34-4.09q6.22,0,9.29,4t3.14,11.94Zm-6.33-7.09q0-5.34-1.46-7.83a5.58,5.58,0,0,0-9.2-.13c-1,1.57-1.49,4-1.54,7.37v8.6q0,5.31,1.49,7.92a5,5,0,0,0,4.66,2.61A4.89,4.89,0,0,0,76,33.21q1.47-2.41,1.54-7.55Z" fill="#fff"/>
    <path id="Path_11" data-name="Path 11" d="M14.26,59.81a5.89,5.89,0,0,1-1.87,3.92,6.18,6.18,0,0,1-4.2,1.38,5.64,5.64,0,0,1-4.55-2,8.2,8.2,0,0,1-1.71-5.45V56.09a9.15,9.15,0,0,1,.8-3.92A5.88,5.88,0,0,1,5,49.57a6.23,6.23,0,0,1,3.39-.91,5.79,5.79,0,0,1,4.09,1.42,6,6,0,0,1,1.79,4H12.14a4.53,4.53,0,0,0-1.2-2.78,3.56,3.56,0,0,0-2.56-.86A3.78,3.78,0,0,0,5.2,51.88a6.92,6.92,0,0,0-1.15,4.26V57.7a7.11,7.11,0,0,0,1.09,4.15,3.54,3.54,0,0,0,3.05,1.54,4.08,4.08,0,0,0,2.7-.8,4.44,4.44,0,0,0,1.25-2.78Z" fill="#fff"/>
    <path id="Path_12" data-name="Path 12" d="M30.11,48.88V59.77a5.16,5.16,0,0,1-1.43,3.71,5.7,5.7,0,0,1-3.83,1.61h-.56A6,6,0,0,1,20.1,63.7a5.12,5.12,0,0,1-1.59-3.91V48.88H20.6V59.72a3.35,3.35,0,0,0,3.69,3.67,3.69,3.69,0,0,0,2.74-1A3.64,3.64,0,0,0,28,59.74V48.88Z" fill="#fff"/>
    <path id="Path_13" data-name="Path 13" d="M41,58.42H37.24v6.47H35.12v-16h5.3a6.26,6.26,0,0,1,4.16,1.23A4.41,4.41,0,0,1,46,53.7a4.3,4.3,0,0,1-.81,2.6A4.7,4.7,0,0,1,43,58l3.77,6.8v.13H44.48Zm-3.76-1.73h3.25a3.62,3.62,0,0,0,2.5-.82,2.75,2.75,0,0,0,.93-2.18A2.91,2.91,0,0,0,43,51.41a3.69,3.69,0,0,0-2.55-.8H37.24Z" fill="#fff"/>
    <path id="Path_14" data-name="Path 14" d="M56.57,58.42H52.8v6.47H50.68v-16H56a6.31,6.31,0,0,1,4.17,1.23A4.44,4.44,0,0,1,61.6,53.7a4.3,4.3,0,0,1-.81,2.6A4.7,4.7,0,0,1,58.54,58l3.77,6.8v.13H60ZM52.8,56.69h3.25a3.62,3.62,0,0,0,2.5-.82,2.75,2.75,0,0,0,.93-2.18,2.91,2.91,0,0,0-.89-2.28,3.69,3.69,0,0,0-2.55-.8H52.8Z" fill="#fff"/>
    <path id="Path_15" data-name="Path 15" d="M75.3,57.49H68.36v5.68h8.07v1.72H66.25v-16H76.32v1.73h-8v5.15H75.3Z" fill="#fff"/>
    <path id="Path_16" data-name="Path 16" d="M93.05,64.89H90.93L82.87,52.55V64.89H80.75v-16h2.12L91,61.28V48.88h2.1Z" fill="#fff"/>
    <path id="Path_17" data-name="Path 17" d="M110.28,59.81a5.9,5.9,0,0,1-1.88,3.92,6.14,6.14,0,0,1-4.2,1.38,5.62,5.62,0,0,1-4.54-2,8.15,8.15,0,0,1-1.72-5.45V56.09a9.15,9.15,0,0,1,.8-3.92,5.94,5.94,0,0,1,2.26-2.6,6.28,6.28,0,0,1,3.39-.91,5.77,5.77,0,0,1,4.09,1.42,6,6,0,0,1,1.8,4h-2.13A4.58,4.58,0,0,0,107,51.25a3.58,3.58,0,0,0-2.57-.86,3.75,3.75,0,0,0-3.17,1.49,6.86,6.86,0,0,0-1.15,4.26V57.7a7,7,0,0,0,1.09,4.15,3.52,3.52,0,0,0,3,1.54,4,4,0,0,0,2.7-.8,4.39,4.39,0,0,0,1.25-2.78Z" fill="#fff"/>
    <path id="Path_18" data-name="Path 18" d="M117.11,64.89H115v-16h2.11Z" fill="#fff"/>
    <path id="Path_19" data-name="Path 19" d="M131.72,57.49h-6.94v5.68h8.06v1.72H122.66v-16h10.07v1.73h-7.95v5.15h6.94Z" fill="#fff"/>
    <path id="Path_20" data-name="Path 20" d="M141.88,57.76a10,10,0,0,1-4-1.92,3.69,3.69,0,0,1-1.2-2.84,3.86,3.86,0,0,1,1.52-3.13,6,6,0,0,1,3.93-1.24,6.48,6.48,0,0,1,2.94.64,4.77,4.77,0,0,1,2,1.76,4.41,4.41,0,0,1,.71,2.45h-2.12a2.94,2.94,0,0,0-.92-2.29,3.75,3.75,0,0,0-2.61-.83,3.93,3.93,0,0,0-2.44.68,2.31,2.31,0,0,0-.87,1.92,2,2,0,0,0,.83,1.65,7.82,7.82,0,0,0,2.83,1.24,13.33,13.33,0,0,1,3.12,1.24,4.73,4.73,0,0,1,1.67,1.58,4.05,4.05,0,0,1,.55,2.12,3.75,3.75,0,0,1-1.52,3.12,6.49,6.49,0,0,1-4.06,1.17,7.54,7.54,0,0,1-3.08-.63,5.24,5.24,0,0,1-2.16-1.7,4.28,4.28,0,0,1-.77-2.5h2.12a2.78,2.78,0,0,0,1.07,2.3,4.54,4.54,0,0,0,2.87.84,4.17,4.17,0,0,0,2.56-.68,2.21,2.21,0,0,0,.89-1.86,2.16,2.16,0,0,0-.82-1.82A9.34,9.34,0,0,0,141.88,57.76Z" fill="#fff"/>
    <path id="Path_21" data-name="Path 21" d="M96,6.47h5.19v3H96v5.91H92.77V9.51H87.55v-3h5.22V.94H96Z" fill="#fff"/>
  </g>
</svg>
