<svg id="_600_Airlines" data-name="600 Airlines" xmlns="http://www.w3.org/2000/svg" width="134.591" height="64.19" viewBox="0 0 134.591 64.19">
  <g id="Layer_1" data-name="Layer 1">
    <path id="Path_22" data-name="Path 22" d="M19.5,1.08V6.32h-.78a12.53,12.53,0,0,0-8.5,2.92,12.21,12.21,0,0,0-3.78,8,10.3,10.3,0,0,1,7.79-3.2,9.72,9.72,0,0,1,7.94,3.54,14,14,0,0,1,2.91,9.15,13,13,0,0,1-3.41,9.37,11.72,11.72,0,0,1-8.92,3.59,11.48,11.48,0,0,1-9.22-4.2Q0,31.34,0,24.54V22.38q0-10,4.86-15.64t14-5.66ZM12.69,19.2a6.64,6.64,0,0,0-3.81,1.17A6.82,6.82,0,0,0,6.33,23.5v1.93a11.31,11.31,0,0,0,1.78,6.71,5.4,5.4,0,0,0,4.58,2.49,5.36,5.36,0,0,0,4.46-2.11A8.78,8.78,0,0,0,18.79,27a8.92,8.92,0,0,0-1.66-5.6,5.34,5.34,0,0,0-4.44-2.2Z" fill="#fff"/>
    <path id="Path_23" data-name="Path 23" d="M54.87,23.24q0,8.18-3.06,12.34t-9.32,4.16q-6.15,0-9.27-4.06T30,23.68V17.11q0-8.19,3.06-12.28T42.44.74q6.23,0,9.29,4t3.14,11.94Zm-6.33-7.09q0-5.35-1.46-7.84a5,5,0,0,0-4.64-2.49,5,5,0,0,0-4.56,2.36c-1,1.58-1.49,4-1.54,7.37v8.6c0,3.54.49,6.19,1.48,7.92a5,5,0,0,0,4.67,2.61A4.9,4.9,0,0,0,47,32.27c1-1.61,1.48-4.12,1.54-7.55Z" fill="#fff"/>
    <path id="Path_24" data-name="Path 24" d="M85.21,23.24q0,8.18-3.06,12.34t-9.32,4.16q-6.15,0-9.26-4.06t-3.2-12V17.11q0-8.19,3.06-12.28T72.78.74q6.23,0,9.29,4t3.14,11.94Zm-6.33-7.09q0-5.35-1.46-7.84a5.58,5.58,0,0,0-9.2-.13c-1,1.58-1.49,4-1.54,7.37v8.6c0,3.54.5,6.19,1.49,7.92a5,5,0,0,0,4.66,2.61,4.89,4.89,0,0,0,4.51-2.41c1-1.61,1.49-4.12,1.54-7.55Z" fill="#fff"/>
    <path id="Path_25" data-name="Path 25" d="M12.65,59.76H5.94L4.44,64H2.26L8.37,48h1.85l6.13,16H14.18ZM6.58,58H12L9.3,50.55Z" fill="#fff"/>
    <path id="Path_26" data-name="Path 26" d="M26.25,64H24.13V48h2.12Z" fill="#fff"/>
    <path id="Path_27" data-name="Path 27" d="M41.46,57.48H37.69V64H35.57V48h5.3A6.31,6.31,0,0,1,45,49.17a4.44,4.44,0,0,1,1.45,3.59,4.33,4.33,0,0,1-.81,2.61A4.76,4.76,0,0,1,43.43,57l3.77,6.79V64H44.93Zm-3.77-1.73h3.25a3.62,3.62,0,0,0,2.5-.82,2.75,2.75,0,0,0,.93-2.18,2.91,2.91,0,0,0-.89-2.28,3.69,3.69,0,0,0-2.55-.8H37.69Z" fill="#fff"/>
    <path id="Path_28" data-name="Path 28" d="M57.05,62.23h7.59V64H54.93V48h2.12Z" fill="#fff"/>
    <path id="Path_29" data-name="Path 29" d="M74.79,64H72.68V48h2.11Z" fill="#fff"/>
    <path id="Path_30" data-name="Path 30" d="M96.43,64H94.31L86.25,51.61V64H84.12V48h2.13l8.08,12.4V47.94h2.1Z" fill="#fff"/>
    <path id="Path_31" data-name="Path 31" d="M114.71,56.55h-6.94v5.68h8.06V64H105.66V48h10.06v1.73h-8v5.16h6.94Z" fill="#fff"/>
    <path id="Path_32" data-name="Path 32" d="M128.66,56.82a9.91,9.91,0,0,1-4-1.92,3.69,3.69,0,0,1-1.24-2.81A3.87,3.87,0,0,1,125,49a6,6,0,0,1,3.93-1.24,6.48,6.48,0,0,1,2.94.64,4.77,4.77,0,0,1,2,1.76,4.43,4.43,0,0,1,.71,2.45h-2.12a2.93,2.93,0,0,0-.93-2.29,3.71,3.71,0,0,0-2.6-.83,3.85,3.85,0,0,0-2.44.69,2.28,2.28,0,0,0-.87,1.91,2.07,2.07,0,0,0,.83,1.66,8.21,8.21,0,0,0,2.8,1.25,12.87,12.87,0,0,1,3.13,1.23,4.82,4.82,0,0,1,1.67,1.58,4.06,4.06,0,0,1,.54,2.13A3.73,3.73,0,0,1,133.08,63,6.43,6.43,0,0,1,129,64.18a7.55,7.55,0,0,1-3.08-.64,5.18,5.18,0,0,1-2.21-1.73,4.26,4.26,0,0,1-.77-2.5h2.12a2.78,2.78,0,0,0,1.07,2.3,4.54,4.54,0,0,0,2.87.84,4.17,4.17,0,0,0,2.56-.68,2.24,2.24,0,0,0,.89-1.86,2.16,2.16,0,0,0-.82-1.82A9.57,9.57,0,0,0,128.66,56.82Z" fill="#fff"/>
    <path id="Path_33" data-name="Path 33" d="M97.32,5.53h5.2v3h-5.2v5.91H94.1V8.57H88.88v-3H94.1V0h3.22Z" fill="#fff"/>
    <g id="Mask_Group_119" data-name="Mask Group 119">
      <g id="Your_upcoming_flights" data-name="Your upcoming flights">
        <g id="Path_1074-2" data-name="Path 1074-2">
          <path id="Path_34" data-name="Path 34" d="M124.93,13.05a5.24,5.24,0,0,0,1.18-2.74,1.08,1.08,0,0,0-.14-.56l-.08-.1-.1-.08a1,1,0,0,0-.57-.14,5.09,5.09,0,0,0-2.74,1.18,24.37,24.37,0,0,0-2.69,2.59l-.59.62-2.13-.64h0a.48.48,0,0,0,0-.68l-.39-.38a.48.48,0,0,0-.34-.14.43.43,0,0,0-.33.14l-.58.57-.31-.09a.47.47,0,0,0,0-.63l-.38-.39a.49.49,0,0,0-.34-.14.48.48,0,0,0-.34.14l-.53.53-2.17-.65h-.15a.59.59,0,0,0-.4.16l-.76.77a.41.41,0,0,0-.14.31.43.43,0,0,0,.23.39l4.57,2.56.11.08,1.3,1.3c-1.22,1.28-2.3,2.52-3.15,3.6l-.23.3-3.53-.32h0a.65.65,0,0,0-.44.18l-.36.36a.5.5,0,0,0-.14.31.44.44,0,0,0,.26.4l2.4,1.14.1.06.2.2a1.65,1.65,0,0,0-.1.48.61.61,0,0,0,.18.46h0a.66.66,0,0,0,.46.17,1.65,1.65,0,0,0,.48-.1l.21.21.06.09,1.18,2.48a.43.43,0,0,0,.4.26h0a.44.44,0,0,0,.31-.13l.37-.37a.61.61,0,0,0,.17-.43v-.05l-.33-3.53.3-.23c1.08-.85,2.32-1.93,3.6-3.15l1.3,1.3a.76.76,0,0,1,.08.11l2.55,4.57a.45.45,0,0,0,.6.18l.11-.08.77-.77a.59.59,0,0,0,.16-.4.771.771,0,0,0,0-.15L123.42,22l.52-.53a.48.48,0,0,0,0-.68l-.38-.39a.49.49,0,0,0-.64,0l-.09-.3.58-.58a.49.49,0,0,0,.14-.34.48.48,0,0,0-.14-.34l-.38-.39a.5.5,0,0,0-.68,0h0l-.64-2.13.63-.6a22.609,22.609,0,0,0,2.59-2.68Z" fill="#fff"/>
        </g>
      </g>
    </g>
  </g>
</svg>
