<svg viewBox="0 0 611.1 117" xmlns="http://www.w3.org/2000/svg"><path d="m237.6 86a174.6 174.6 0 0 1 -16 6 173.8 173.8 0 0 1 -22 5.8l-1.3.3a5.6 5.6 0 0 0 -.8.2 212.9 212.9 0 0 1 -33.7 3.7 224.6 224.6 0 0 1 -48.3-4.9 181.9 181.9 0 0 1 -22.8-6.3c-7-2.5-12.5-4.6-12.7-4.8a45.9 45.9 0 0 0 -5.4-2.4c-2.4-1-7.2-3.4-9.5-4.7-7.6-4.1-8.6-4.6-9.6-4.2-2.8 1-1.2 3.4 5.9 9a195.1 195.1 0 0 1 6.1 4.7 176.5 176.5 0 0 0 14.5 9.3 114 114 0 0 0 14.1 6.9.3.3 0 0 1 .3.3.3.3 0 0 0 .3.2 4.2 4.2 0 0 1 1 .4 89.5 89.5 0 0 0 9.5 3.5l6 2a44 44 0 0 0 5.1 1.5 182.5 182.5 0 0 0 23.5 4c5.3.5 24 .6 29 .1a156.2 156.2 0 0 0 36.5-7.8 74.9 74.9 0 0 0 11-4.2l3-1.3a107.5 107.5 0 0 0 12.7-6.8c8.3-4.8 10.2-7.3 7.7-9.8-1-1-3.3-1.4-4-.7z" fill="#fc9c04"/><path d="m241.8 70.6c-11.8 1.4-22.6 6.4-19.5 9.4a2.7 2.7 0 0 0 2.6.3 33.3 33.3 0 0 1 4.7-.7c12.6-1.1 18.8-.6 20.5 1.8.6.8.8 5 .3 6.1a8.8 8.8 0 0 0 -.6 2.2c-.7 3.1-5 15.8-5.8 17a1.5 1.5 0 0 0 1.3 2.4c3 0 9.5-8.9 12.7-17.2 2.3-6.2 3.5-15.4 2.2-18-1-2.2-11.5-4-18.4-3.2z" fill="#fc9c04"/><path d="m54.8 53.4c-2.1-2.1-2.3-3.9-2.4-20.8 0-20-.3-21.4-4.8-26.2s-15.1-7.4-25-6a30 30 0 0 0 -11.2 3.8.4.4 0 0 1 -.4.3h-.4a47.7 47.7 0 0 0 -5.3 5.2c-2.7 3-4.4 10-2.7 11.1a49 49 0 0 0 13.9 1.3 8.5 8.5 0 0 0 1.7-3.9 17.2 17.2 0 0 1 2.3-2.6c2.3-2.3 7.4-3 10.7-1.5 2.6 1.3 3.6 3.5 3.8 8.6l.2 3.4-1.5.1c-12.8 1.4-20 2.7-21.4 4a14 14 0 0 1 -2 1.2c-1.8.9-5.2 3.6-5.1 4.1 0 .2 0 .3-.2.2-.6-.4-3.5 4.6-4.4 7.6-.8 2.7-.8 10.5-.1 13.1.8 3.1 4.3 9 5 8.4 0 0 .5.2.9.6 3.7 3.5 15 5 20.2 2.6a38.8 38.8 0 0 0 5.8-2.8c1.6-1.2 3.9-3.2 3.8-3.4s.1-.4.4-.6.4-.2.2 0 0 .1.4-.3l.6-.6.6 1.1c.3.6.7 1.1.8 1.1s.2.1.2.2c-.4.4 2.8 3.8 4.3 4.6.3.2.5.4.4.6-.2.3.8.7 1.8.7.7 0 .9 0 .8-.2s0-.3 0-.2a.8.8 0 0 0 .8 0c.3-.2.4-.3.2-.3s.3-.4 1-.9a61.3 61.3 0 0 0 6.3-5.4c.6-.7 1-1 1-.8s.1 0 .7-.5c1.5-1.5.8-4.2-1.9-6.9zm-19.8-12.8c-.2 7.4-1.7 11.4-5 13.8l-.9.8c.1 0-.4.3-1.3.6-3.6 1.4-7.4.2-8.8-2.9-.2-.4-.4-.7-.5-.6s-.1 0 0-.3 0-.4-.1-.4c-.8 0-.8-6.3-.1-7.2a5.5 5.5 0 0 0 .5-1.3c.7-2 3.4-4.4 6.3-5.4a4.6 4.6 0 0 0 1.5-.7l.3-.1 2.3-.4a35.8 35.8 0 0 1 4-.4l2-.1zm478.5-40a71.3 71.3 0 0 0 -10.6 1.6l-2.5.6a18 18 0 0 0 -5.9 2.6l-.8.8v3.5c0 5 0 5.1 5.6 3.6a9 9 0 0 0 2.3-.7c0-.1.2-.2.4 0a2.1 2.1 0 0 0 1.2-.3 7.9 7.9 0 0 1 1.8-.6c12.3-1.7 18.8-1 21.9 2.4 1.2 1.4 1.5 1.8 1.4 1.9a11.3 11.3 0 0 0 .5 1.4c.3 1.2.4 2.7.5 7.5l.1 6-.8-.1a3.8 3.8 0 0 1 -1.2-.4 1 1 0 0 0 -.8-.1l-.5-.1a28.3 28.3 0 0 0 -7-1c0-.4-5-.6-8.3-.3-3 .2-7.7 1-7.7 1.5l-1 .5c-7.8 2.4-12.5 9.4-12.5 18.2 0 4 1.2 9.8 2 9.8.2 0 .3.2.3.4 0 1.8 5.9 6.7 9 7.5l2.2.6a10.3 10.3 0 0 1 1.6.5 23.1 23.1 0 0 0 7.5.2c.8 0 1.4 0 1.3-.2s.4-.3 1.2-.4c1.8-.1 8.4-2.3 8.8-3a15.5 15.5 0 0 1 1.9-1 18.5 18.5 0 0 0 3-2c1.5-1.3 1.6-1.3 2 1.3.4 3.3 1 3.7 6.1 3.7 3.6 0 4.6-.3 5-1.5.4-1 .4-43 .1-47.2-1-13-9.9-18.4-28.1-17.2zm14.3 52.5a20.8 20.8 0 0 1 -2 1.2c-.3 0-.4.3-.3.4s0 .1-.2.1a10.4 10.4 0 0 0 -2.3 1c-6 3-13.8 3.2-17.2.7-4.2-3.2-4.5-11.7-.5-15.3 3.1-2.9 9.5-3.8 18-2.7l4.6.7 1.4.3v12.5zm-462 13.1.8.6.8.6h14l.7-.6.6-.7.1-20.7c.1-17.8.2-21 .6-22.4.5-2.2 1.6-4.7 2.2-5 .3-.2.4-.5.3-.6s0-.3 0-.2.5 0 .9-.3c3-2.4 8.3-1.2 9.8 2.3a6.6 6.6 0 0 0 .7 1.3c.7.5.8 3.7.8 24.4v21.3l.8.6.7.6h7c6.8 0 7 0 7.6-.6l.6-.5.2-20.8c.1-21.4.2-23.4 1.2-24.6a.7.7 0 0 0 .1-.7c-.1-.2 0-.3 0-.2s.6-.3 1-1c3-4.3 10.3-4.1 12 .3 1 2.4 1 4 1 25.7v21.3l.7.6c1.5 1.3 15.6.7 16-.7.5-1.8.1-53.5-.4-53.2-.1 0-.3-.2-.3-.7a11.5 11.5 0 0 0 -2.4-5.6l-.4-.7s-.3-.5-.9-1c-5-5.5-15.6-6.6-22.6-2.3-1 .6-2 1.5-4.4 4.2a15.3 15.3 0 0 0 -1.3 2.2l-.9 1.5-.7-1.3a22.6 22.6 0 0 0 -2.7-4.3v.3c0 .2 0 .2-.1.1s-.3-.3-.2-.4c.3-.5-4-3.6-5.4-4l-1.7-.5a28.3 28.3 0 0 0 -9.1 0l-2 .5c-2.8.7-6.5 4-8.5 7.8l-.9 1.8v-4c0-4 0-4.1-.7-4.7l-.6-.6h-6.5c-7.7 0-8 0-8.4 2.2v31.9zm92.5-9.4c.1-.1.2 0 0 .1-.6 1 4.7 9 6 9a4.3 4.3 0 0 1 1.3.6 15.3 15.3 0 0 0 1.8 1 3.7 3.7 0 0 1 1 .4c.8 1 9.7 1.5 13.5.7 4.4-1 9.7-4 12.3-7 1.2-1.5 1.2-1.6 2.1.3a24.8 24.8 0 0 0 5.7 6.2c1 1 2.3.8 3.8-.6a32.1 32.1 0 0 1 2.5-2.1l3-2.7a25.1 25.1 0 0 1 2.8-2.3c1.5-1 1.6-2.7.2-4.3-4-4.7-4.3-6.2-4.3-25 0-8.5 0-14.2-.3-15.2a16.4 16.4 0 0 0 -1.8-5.7 2.7 2.7 0 0 1 -.5-.8 24 24 0 0 0 -3.6-4.5 27.3 27.3 0 0 0 -7.7-3.7 50.7 50.7 0 0 0 -15.3-1l-4.9 1c-4.8 1.1-10.5 4.8-13.1 8.5-1.9 2.7-3.9 8.7-3.3 10.1s.8 1.4 7.8 2.1l3.4.4 2.6.2c.8 0 1.7-1.2 2.1-2.8 2-7.3 13.4-9 16.5-2.3.6 1.3 1.1 8.7.5 8.7a85.7 85.7 0 0 0 -22.5 4.4v.1c-.5-.4-5.3 2.7-7 4.5-2 2.1-4.8 7.2-4.5 8 0 .2 0 .3-.1.2-.4-.2-1 3.4-1 6.9s.5 6.9 1 6.6zm19.5-16c1.4-1.5 4.8-3.5 6-3.5a.8.8 0 0 0 .5-.3 5.7 5.7 0 0 1 1.9-.5 28.1 28.1 0 0 1 4.9-.5h1.6l-.1 4.8a29.8 29.8 0 0 1 -.6 6.3 31 31 0 0 0 -.5 1.8c-.3 1.9-3.6 5.7-6 6.9a7 7 0 0 1 -7.5-1 5 5 0 0 0 -.8-.7 4.4 4.4 0 0 1 -.8-1.2c-2-4-1.3-9.2 1.4-12zm88.8 9.1a9.6 9.6 0 0 1 -1.6-.9c-.3-.4-5.5-2-8-2.5a50.7 50.7 0 0 0 -8.3-1 23.4 23.4 0 0 1 -2.8-.1 63.7 63.7 0 0 1 4.6-7l3-4.3c1.2-1.8 2.5-3.7 3-4.2s2-2.8 3.4-5 2.8-4 3-4.3c.7-.7 3.6-5 4.7-6.7l.8-1.4v-5.2c0-5.1 0-5.2-.6-5.7s-1.3-.5-21.5-.5h-20.8l-.7.6-.7.7v11l.7.7.7.7 10.7.1c5.8 0 10.5.2 10.3.3a.4.4 0 0 0 -.2.5v.2a4.4 4.4 0 0 0 -1.2 1.4 12.2 12.2 0 0 1 -1.1 1.5 45 45 0 0 0 -4 6l-.1.3-.7.7a13.3 13.3 0 0 1 -1.2 1.6c-.4.5-.7 1-.6 1.1s0 .2 0 .1a27 27 0 0 0 -3.5 4.8 2.8 2.8 0 0 1 -.4.6c-1.3 1.6-2.4 3.2-2.2 3.4s0 .2-.1.1a15.5 15.5 0 0 0 -2.6 3.3l-2.9 4.2c-.9 1-2 2.8-1.8 2.8s0 .1-.3.2c-1.2.8-1.5 2.8-1.6 9.7-.1 9.1 0 9.4 5.8 7a52.3 52.3 0 0 1 5.3-2 46.3 46.3 0 0 1 22.6-.8 1.1 1.1 0 0 0 1 0h.3a10.6 10.6 0 0 0 2.7 1 46.3 46.3 0 0 1 4.8 1.8c4.8 2.3 5.3 1.8 5.3-6.1 0-7 0-7-3.2-8.7zm211.3-33.6c-.1 0-.2 0-.1-.2a2.2 2.2 0 0 0 -.7-1.7 12.8 12.8 0 0 1 -1.1-2c-1.6-2.9-4.3-6.2-5.2-6.2-.2 0-.3 0-.2-.1.3-.3-3.5-3-4-2.8h-.2c0-.6-4.6-2.2-7.4-2.5a43 43 0 0 0 -7.8-.2 23.9 23.9 0 0 0 -2.5.4l-1.5.3a34.1 34.1 0 0 0 -10.4 4.6c-3.8 3-3.5 3-3.9.2-.4-3.4-.8-3.8-5-4-3.9 0-5.2.2-6 1l-.6.7v43.7c0 25.3 0 43.6.2 43.5s.3.1.4.4a1 1 0 0 0 .6.6c.3.1.5.3.4.4a23.6 23.6 0 0 0 4.8.2h4.8l.8-.6.7-.7v-15.3c0-8.4.1-15.3.2-15.3a3.1 3.1 0 0 1 1 .8c2.7 2.9 9.2 5.6 14.5 6a6.9 6.9 0 0 1 2 .4 8.8 8.8 0 0 0 4 0 7.5 7.5 0 0 1 1.8-.3 22.4 22.4 0 0 0 8.6-2.7 15.5 15.5 0 0 0 5-3.8c0 .2.4-.1.9-.6a19.3 19.3 0 0 0 3.1-4.2.5.5 0 0 1 .2-.3 5.8 5.8 0 0 0 .8-1.4 9.8 9.8 0 0 1 1-1.7 41.5 41.5 0 0 0 2.7-7.5l.6-3.1a76 76 0 0 0 -.2-18.3c-.6-3.5-2-8-2.3-7.7zm-10.7 25.4c-.6 3.6-.6 3.5-1.4 5.5a12 12 0 0 0 -.7 2c0 1.2-6.1 6.9-7.7 7.2l-1.7.5c-3.3 1-9 .6-13.3-1a6 6 0 0 0 -2.1-.5c-.1.1-.1 0 0-.2s0-.3-.3-.2-.3.1-.3 0 0-.3-.3-.4a23.5 23.5 0 0 1 -2.7-1.6 18.8 18.8 0 0 0 -2.4-1.4c-.2 0-.2-7.4-.2-17.4v-17.4l1.4-1a28.4 28.4 0 0 1 5.2-2.7l2.2-.9a28.4 28.4 0 0 1 5.4-1.2 28.8 28.8 0 0 1 7.4.5l1.7.4a16.6 16.6 0 0 1 2.7 1.7 18.2 18.2 0 0 1 3.7 3.7c.3.4.6.6.7.5s.1 0 .1.4.2.5.3.5.2.1.1.3 0 .4.3.6.4.4.3.5a16.7 16.7 0 0 0 .6 2.2c1.6 4.8 2 13.5 1 19.4zm132.4-38.9c-1 .5-2 2.7-1.8 3.2.2.2.1.2 0 .2s-1.2 2.9-2.5 6.6l-2.5 7.3c-.1.3-1.6 4.3-3 8.8s-3 8.4-3 8.6a.6.6 0 0 0 -.1.6v.2a61.2 61.2 0 0 0 -3 7.8l-2.7 8-1-2.8a207 207 0 0 0 -5.8-16.3l-4.4-12.5a11.3 11.3 0 0 0 -.8-2 3.8 3.8 0 0 1 -.5-1.1l-3-8.6a5.8 5.8 0 0 1 -.3-.6c-1-4.7-2.8-7.5-4.8-7.8s-8.8-.2-9.8.1a1.4 1.4 0 0 0 -1 1c-.2.7.2 2.8.5 2.6.1 0 .2 0 .2.3a33.7 33.7 0 0 0 2.1 5.3 1 1 0 0 1 .3.7c0 .7 3 7.9 3.2 7.7s0 0 0 .1 0 .7.3 1.1a2.8 2.8 0 0 1 .5 1 5.9 5.9 0 0 0 .5 1.3 6 6 0 0 1 .6 1.4c0 .3 3.7 10 4.3 11 .5 1 1.6 3.7 4.6 11.5a20.2 20.2 0 0 0 1.8 4 86.4 86.4 0 0 0 3 7.8l2 4.8a12.9 12.9 0 0 0 1.2 2.6c.1.1.1.3-.1.6a.6.6 0 0 0 -.2.6.2.2 0 0 1 0 .3 24 24 0 0 0 -1.7 4 38.1 38.1 0 0 1 -4.1 8.6l-.2.2c0-.2-.3 0-.9.5-2.1 2-6 2.6-11.4 2-2.9-.4-3-.2-3 4.2 0 4.5 1 5.8 4.2 5.9.7 0 1.2 0 1.1.2a27.6 27.6 0 0 0 5.4.4c2.3 0 7.8-1.2 7.8-1.7 0-.1.4-.4.9-.6a15.4 15.4 0 0 0 5.9-5.4 72.4 72.4 0 0 0 4.6-9l1-2.8a31 31 0 0 0 1.2-3.2 6.8 6.8 0 0 1 .3-.7l.2-.5c-.1 0 0-.2 0-.4a11.7 11.7 0 0 0 .9-2 7.7 7.7 0 0 1 .8-1.7c.2-.2 1.5-3.7 4.2-10.9l1.8-4.4a3.2 3.2 0 0 0 .4-1.6v-.1s1-1.3 1-2.2l.7-1.3a13.4 13.4 0 0 0 .5-1.4l1.3-3.5 1.4-3.6a8.2 8.2 0 0 1 .8-2.2 29.7 29.7 0 0 0 1.4-3.3c2.2-6 3.5-9.3 3.5-9.6a16.3 16.3 0 0 1 .8-1.6c.8-1.9 4.8-12.1 5.1-13.2a10.4 10.4 0 0 1 .4-1c.5-1.2.6-3 .2-3.5a28 28 0 0 0 -11.3 0zm-273 13.2c-.7-4.2-10-13.5-14.3-14.4l-.9-.2c-3-1.2-10.7-1.7-14.6-.9s-10.3 3.8-9.7 4.6c.2.1.1.1 0 0-.4-.2-1.4.5-1.4 1 0 .2-.1.3-.2.2a23 23 0 0 0 -5.5 7c-.3 0-1.8 3.5-2.2 4.9l-.6 2a9 9 0 0 0 -.4 1.1l-.3 1.2c-2.8 10.7-.5 27.8 4.7 34.8 4.5 6 7.5 8.5 12.6 10a4.3 4.3 0 0 1 1.3.6c.9 1.2 13.2 1.2 14.7 0a9.4 9.4 0 0 1 1.6-.7c2.7-.8 7.6-3.7 7.2-4.2 0-.2 0-.2.1-.1.7.4 5.6-5.6 7.3-9 5-10 5.4-28.7.9-37.1a3.9 3.9 0 0 1 -.3-.8zm-14.8 26.7-.2 2c0 .2 0 .3-.2.2s-.8 3.2-.6 3.5c.1.2 0 .2 0 .1s-.4 0-.4.2c0 1.4-2.8 5.4-4.3 6l-.7.5c0 .1 0 .3-2.3.4a4.8 4.8 0 0 1 -3-.4 4.4 4.4 0 0 0 -1.3-.4c-.1.2-2.2-2.6-2.8-3.8a26.8 26.8 0 0 1 -2-7.7 30 30 0 0 0 -.5-3.4 103.8 103.8 0 0 1 .9-18.6 5.8 5.8 0 0 0 .6-1.6 12.1 12.1 0 0 1 1.2-2.9 4.7 4.7 0 0 0 .8-1.4c0-.1 0-.2.2 0s.2 0 .2 0c0-.4 1.6-1.4 2.7-1.8s5.5-.4 5.5-.1l.7.5c2.3 1 4.9 6.2 4.9 10a89.7 89.7 0 0 1 .6 18.7zm75.7-30.3a13 13 0 0 0 -2.1-5.2c-1-1.1-1.3-1.4-1.2-1.5.4-.4-3-3.1-4.8-4a23 23 0 0 0 -12.6-1.2 10.7 10.7 0 0 0 -1.6.4 5.3 5.3 0 0 1 -.7.2c-3 .7-7.2 5-9.1 9.7-.2.3-.3-1-.3-3.3-.1-6.3 0-6.2-8.3-6.3-6.1 0-7.2.2-7.8 1.3-.4.7-.4 63 0 63.8.6 1.2.7 1.2 8.1 1.2h7l.8-.7.8-.8v-18.9c0-22.2.2-23.8 2.4-27.7 2.6-4.3 9-5.1 11.4-1.3 1.9 3 2 5.2 2 28.7 0 19.2 0 19.5.5 20l.5.2.3.1c.2.1 2.2.3 7.3.3h6.9l.7-.6.7-.6v-23.4c.1-24 0-26.2-.9-30.4zm-32.8-2.4v-2.1-2.4 4.6z" fill="#343c4c"/></svg>