<svg xmlns="http://www.w3.org/2000/svg" viewBox="0 0 601 220"><g fill="#fff"><path d="M251 65h-38V51h37V37h-37V25h38V11h-54v68h54zM145 79l23-53v53h17V11h-27l-19 46-21-46H91v64L64 11H40L11 79h18l6-15h33l7 15h32V26l24 53zM41 49l11-26 11 26zM296 127h-52l-20 22-20-22h-65v67h64l21-22 20 22h31v-22h20c14 0 28-4 28-23s-14-22-27-22zm-101 53h-40v-13h36v-14h-36v-12h41l17 20zm64 8l-25-27 25-27zm37-30h-21v-17h21c6 0 10 2 10 8s-4 9-10 9zM336 11h16v68h-16zM392 79h19l6-15h33l7 15h33V28l30 51h23V11h-17v47l-28-47h-24v64l-28-64h-24l-23 53h-7c-4 0-9-1-11-3-3-4-4-9-4-16s1-13 4-15c3-4 7-4 13-4h15V11h-16c-11 0-19 3-24 8-7 7-9 16-9 26 0 13 3 20 9 26s15 7 23 7zm42-56l11 26h-22zM278 79V54h17c6 0 10 1 12 3 3 3 2 9 2 13l1 9h16V65c0-6-1-9-3-12a19 19 0 0 0-8-6c4-1 11-7 11-18 0-7-3-12-8-15s-11-3-19-3h-37v68h16zm0-54h20l7 1c2 1 4 3 4 6s-1 6-4 7l-8 1h-19zM387 130c-5-3-11-3-19-3h-37v68h16v-25h17c6 0 10 0 12 3 3 3 2 9 2 13v9h17v-14c0-6-1-9-3-12a17 17 0 0 0-8-6 19 19 0 0 0 12-18c0-7-4-12-9-15zm-13 25l-8 1h-19v-15h20l7 1c2 1 4 3 4 6a7 7 0 0 1-4 7z"/><path d="M388 45l1 8a13 13 0 0 0 3 0l7-16h-5l-5 1-1 7z"/><path d="M121 83l-3-5a11 11 0 0 1-11 12H75a11 11 0 0 1-11-7l-3-8H42l-3 8a11 11 0 0 1-10 7H11A11 11 0 0 1 1 74L30 7a11 11 0 0 1 10-7h24a11 11 0 0 1 10 7l6 14V11A11 11 0 0 1 91 0h27a11 11 0 0 1 10 6l10 23 10-22a11 11 0 0 1 10-7h27a11 11 0 0 1 6 2 11 11 0 0 1 6-2h54a11 11 0 0 1 5 2 11 11 0 0 1 6-2h37c9 0 17 0 25 5a24 24 0 0 1 2 1 11 11 0 0 1 10-6h16a11 11 0 0 1 11 9c7-6 17-9 30-9h16a11 11 0 0 1 7 2 11 11 0 0 1 6-2h24a11 11 0 0 1 11 7l5 14V11a11 11 0 0 1 12-11h24a11 11 0 0 1 10 5l7 13v-7a11 11 0 0 1 11-11h17a11 11 0 0 1 11 11v68a11 11 0 0 1-11 11h-23a11 11 0 0 1-9-6l-10-16v11a11 11 0 0 1-11 11h-33a11 11 0 0 1-11-7l-3-8h-18l-4 8a11 11 0 0 1-10 7h-19c-7 0-20-2-29-9a11 11 0 0 1-11 9h-16a11 11 0 0 1-5-2 11 11 0 0 1-5 2h-16a11 11 0 0 1-12-11V69v-4h-9v14a11 11 0 0 1-11 11h-16a11 11 0 0 1-6-2 11 11 0 0 1-5 2h-54a11 11 0 0 1-6-2 11 11 0 0 1-6 2h-17a11 11 0 0 1-11-11v-1l-2 5a11 11 0 0 1-10 7h-14a11 11 0 0 1-10-7zm444 123h-31a11 11 0 0 1-11-7c-6 4-14 7-24 7h-31a11 11 0 0 1-5-2 11 11 0 0 1-5 2h-54a11 11 0 0 1-4-2 11 11 0 0 1-5 2h-17a11 11 0 0 1-11-12v-9-4h-9v14a11 11 0 0 1-11 11h-16a11 11 0 0 1-11-11v-18c-6 4-14 6-25 6h-9v12a11 11 0 0 1-11 11h-31a11 11 0 0 1-9-4l-11-13-13 13a11 11 0 0 1-8 4h-64a11 11 0 0 1-11-11v-68a11 11 0 0 1 11-11h65a11 11 0 0 1 8 4l12 13 12-13a11 11 0 0 1 9-4h51c11 0 19 3 25 6a11 11 0 0 1 10-6h37c8 0 17 0 25 5l2 1a11 11 0 0 1 9-6h54a11 11 0 0 1 10 6c5-4 12-6 21-6h32a11 11 0 0 1 11 7c5-4 13-7 23-7h32a11 11 0 0 1 11 11v14a11 11 0 0 1-5 10c6 6 8 13 8 22 0 21-13 33-36 33z"/><path d="M501 154l-8-1a19 19 0 0 1-7-1 6 6 0 0 1-1-9c2-2 4-2 7-2h29v-14h-32c-17 0-23 10-23 20 0 21 19 20 34 21l6 1a6 6 0 0 1 2 5 6 6 0 0 1-2 4c-2 2-4 2-7 2h-31v14h31c16 0 25-6 25-21 0-7-1-11-4-14-4-4-10-5-19-6zM567 154l-9-1a19 19 0 0 1-6-1 6 6 0 0 1-1-9c2-2 4-2 7-2h29v-14h-32c-17 0-23 10-23 20 0 21 19 20 34 21l5 1a6 6 0 0 1 2 5 6 6 0 0 1-1 4c-2 2-4 2-7 2h-31v14h31c16 1 25-6 25-21 0-7-1-11-5-14-3-4-9-5-18-5zM404 195h54v-14l-38-1v-13h37v-14h-37v-12h38v-14h-54z"/></g><path fill="#005aab" d="M593 151a11 11 0 0 0 5-10v-14a11 11 0 0 0-11-11h-32c-10 0-18 3-23 7a11 11 0 0 0-11-7h-32c-9 0-16 2-21 6a11 11 0 0 0-10-6h-54a11 11 0 0 0-9 6l-3-2c-7-4-16-4-24-4h-37a11 11 0 0 0-10 6c-6-4-14-6-25-6h-51a11 11 0 0 0-9 4l-12 13-12-13a11 11 0 0 0-8-4h-65a11 11 0 0 0-11 11v68a11 11 0 0 0 11 11h64a11 11 0 0 0 8-4l13-13 11 13a11 11 0 0 0 9 4h31a11 11 0 0 0 11-11v-12h9c11 0 19-2 24-6v18a11 11 0 0 0 12 11h16a11 11 0 0 0 11-11v-14h9v14a11 11 0 0 0 11 11h17a11 11 0 0 0 5-2 11 11 0 0 0 4 2h54a11 11 0 0 0 5-2 11 11 0 0 0 5 2h31c10 0 18-3 24-7a11 11 0 0 0 11 7h31c23 0 36-12 36-33 0-9-2-16-8-22zm-298 21h-20v22h-31l-20-22-21 22h-64v-67h65l20 22 20-22h52c13 0 27 4 27 22s-14 23-28 23zm89-9a17 17 0 0 1 8 6c2 3 3 6 3 12v13h-17v-8c0-4 1-10-2-13-2-3-6-3-12-3h-17v24h-16v-67h37c8 0 14 0 19 3s9 8 9 15a19 19 0 0 1-12 18zm74-22h-38v12h37v14h-37v13h38v14h-54v-67h54zm41 53h-31v-14h31c3 0 5 0 7-2a6 6 0 0 0 2-4 6 6 0 0 0-2-5l-6-1c-15-1-34 0-34-21 0-10 6-20 23-20h32v14h-29l-7 2a6 6 0 0 0 1 10 19 19 0 0 0 7 0l8 1c9 0 15 1 19 5 3 3 4 7 4 14 0 15-9 22-25 21zm66 0h-31v-14h31c3 0 5 0 7-2a6 6 0 0 0 1-4 6 6 0 0 0-2-5l-5-1c-15-1-34 0-34-21 0-10 6-20 23-20h32v14h-29l-7 2a6 6 0 0 0 1 10 19 19 0 0 0 6 0l9 1c9 0 15 1 18 5 4 3 5 7 5 14 0 15-9 22-25 21zM305 39c3-1 4-4 4-7s-2-5-4-6l-7-1h-20v15h19l8-1zM434 23l-11 26h22zM41 49h22L52 23z"/><path fill="#005aab" d="M259 188v-54l-25 27zM155 141v12h36v14h-36v13h40l18-19-17-20zM296 141h-21v17h21c6 0 10-3 10-9s-4-8-10-8zM374 142l-7-1h-20v15h19l8-1a7 7 0 0 0 4-7c0-3-2-5-4-6zM155 141zM145 90a11 11 0 0 0 10-7l2-5v1a11 11 0 0 0 11 11h17a11 11 0 0 0 6-2 11 11 0 0 0 6 2h54a11 11 0 0 0 5-2 11 11 0 0 0 6 2h16a11 11 0 0 0 11-11V65h9v14a11 11 0 0 0 12 11h16a11 11 0 0 0 5-2 11 11 0 0 0 5 2h16a11 11 0 0 0 11-9c9 7 22 9 29 9h19a11 11 0 0 0 10-7l4-8h18l3 8a11 11 0 0 0 11 7h33a11 11 0 0 0 11-12V68l10 16a11 11 0 0 0 9 6h23a11 11 0 0 0 11-11V11a11 11 0 0 0-11-11h-17a11 11 0 0 0-11 11v7l-7-13a11 11 0 0 0-10-5h-24a11 11 0 0 0-12 11v10l-5-14a11 11 0 0 0-11-7h-24a11 11 0 0 0-6 2 11 11 0 0 0-7-2h-16c-13 0-23 3-30 9a11 11 0 0 0-11-9h-16a11 11 0 0 0-10 6 24 24 0 0 0-2-1c-8-5-16-5-25-5h-37a11 11 0 0 0-6 2 11 11 0 0 0-5-2h-54a11 11 0 0 0-6 2 11 11 0 0 0-6-2h-27a11 11 0 0 0-10 7l-10 22-10-23a11 11 0 0 0-10-6H91a11 11 0 0 0-11 11v10L74 7a11 11 0 0 0-10-7H40a11 11 0 0 0-10 7L1 74a11 11 0 0 0 10 16h18a11 11 0 0 0 10-7l3-8h19l3 8a11 11 0 0 0 11 7h32a11 11 0 0 0 11-11v-1l3 5a11 11 0 0 0 10 7zm224-71c5-5 13-8 24-8h16v15h-15c-6 0-10 0-13 4-3 2-4 8-4 15s1 12 4 16c3 2 7 3 11 3h7l23-53h24l28 64V11h24l28 47V11h17v68h-23l-30-51v51h-33l-7-15h-33l-6 15h-19c-8 0-18-2-23-8s-9-13-9-26c0-10 2-19 9-26zm30 18l-7 16a13 13 0 0 1-3 0l-1-8 1-7 5-1zm-63-26h16v68h-16zm-74 0h37c8 0 14 0 19 3s8 8 8 15c0 11-7 17-11 18a19 19 0 0 1 8 6c2 3 3 6 3 12v13h-16l-1-8c0-4 1-10-2-13-2-2-6-3-12-3h-17v25h-16zm-65 0h54v14h-38v12h37v14h-37v14h38v14h-54zm-90 15v53H75l-7-15H35l-6 15H11l29-68h24l27 64V11h27l21 46 19-46h27v68h-17V26l-23 53h-14z"/></svg>