<svg xmlns="http://www.w3.org/2000/svg" width="167.338" height="67.056" viewBox="0 0 167.338 67.056">
  <g id="feefo_logo" data-name="feefo logo" transform="translate(-1318.001 -801.5)">
    <g id="Layer_1-4" data-name="Layer 1-4">
      <g id="Path_47" data-name="Path 47">
        <path id="Path_131" data-name="Path 131" d="M1354.528,822.55h-13.277c.583-2.692,3.061-4.484,6.542-4.484,3.326,0,5.7,1.586,6.7,4.484m8.386,5.9v-.885c0-10.555-6.173-17.045-15.194-17.045a14.812,14.812,0,0,0-10.451,4.425,14.531,14.531,0,0,0-4.322,10.4,14.921,14.921,0,0,0,4.234,10.5,14.017,14.017,0,0,0,10.711,4.539c6.336,0,11.064-3,13.77-8.917h-9.22a6.145,6.145,0,0,1-4.322,1.586c-3.644,0-5.8-1.586-6.542-4.588Z" fill="#fff"/>
      </g>
      <g id="Path_48" data-name="Path 48">
        <path id="Path_132" data-name="Path 132" d="M1386.074,822.55H1372.8c.583-2.692,3.061-4.484,6.542-4.484,3.326,0,5.7,1.586,6.7,4.484m8.394,5.9v-.885c0-10.554-6.176-17.045-15.2-17.045a14.831,14.831,0,0,0-10.451,4.425,14.531,14.531,0,0,0-4.322,10.4,14.923,14.923,0,0,0,4.167,10.5,14.012,14.012,0,0,0,10.71,4.536c6.336,0,11.064-3,13.778-8.917h-9.151a6.171,6.171,0,0,1-4.33,1.586c-3.636,0-5.8-1.586-6.542-4.588Z" fill="#fff"/>
      </g>
      <g id="Path_49" data-name="Path 49">
        <path id="Path_133" data-name="Path 133" d="M1321.13,817.727V839.7h8.18V817.727h3.319v-6.358h-3.319v-.686c0-2.589.575-3.43,3.113-3.43h.207v-5.7c-.473,0-.891-.052-1.314-.052-6.97,0-10.238,2.744-10.238,8.851,0,.317.052.686.052,1.055h-3.061v6.321Z" fill="#fff"/>
      </g>
      <g id="Path_50" data-name="Path 50">
        <path id="Path_134" data-name="Path 134" d="M1397.631,817.727V839.7h8.18V817.727h3.319v-6.358h-3.319v-.686c0-2.589.575-3.43,3.113-3.43h.207v-5.7c-.435,0-.892-.052-1.32-.052-6.963,0-10.23,2.744-10.23,8.851,0,.317.052.686.052,1.055h-3.063v6.321Z" fill="#fff"/>
      </g>
      <g id="Path_51" data-name="Path 51">
        <path id="Path_135" data-name="Path 135" d="M1430.756,825.56a6.7,6.7,0,0,1-13.4.012v-.012a6.7,6.7,0,0,1,13.4-.012v.012m8.283-.207a14.973,14.973,0,0,0-25.6-10.326,14.539,14.539,0,0,0-4.322,10.4,14.8,14.8,0,0,0,4.167,10.444,14.012,14.012,0,0,0,10.71,4.543,14.75,14.75,0,0,0,10.769-4.425,14.456,14.456,0,0,0,4.276-10.658" fill="#fff"/>
      </g>
      <g id="Path_52" data-name="Path 52">
        <path id="Path_136" data-name="Path 136" d="M1451.832,820.751a7.979,7.979,0,0,1-7.464-7.449h17.554v-.192c0-6.9-4.425-11.491-10.5-11.491a10.4,10.4,0,0,0-10.8,9.984q-.016.408,0,.816A10.755,10.755,0,0,0,1451.25,823.3h.052c4.484,0,8.047-2.493,9.965-7.088h-1.778a7.957,7.957,0,0,1-7.191,4.558h-.466" fill="#fff"/>
      </g>
      <g id="Path_53" data-name="Path 53">
        <path id="Path_137" data-name="Path 137" d="M1474.125,820.75a7.981,7.981,0,0,0,7.464-7.449h-17.576v-.192c0-6.933,4.425-11.528,10.518-11.528a10.442,10.442,0,0,1,10.8,10.07q.013.383,0,.765a10.753,10.753,0,0,1-10.628,10.878h-.059c-4.477,0-8.04-2.493-9.957-7.088h1.778a7.943,7.943,0,0,0,7.191,4.558h.472" fill="#fff"/>
      </g>
      <g id="Path_54" data-name="Path 54">
        <path id="Path_138" data-name="Path 138" d="M1338.293,856.258l-7.044-.229a.28.28,0,0,1-.243-.177l-2.471-6.719a.266.266,0,0,0-.5,0l-2.471,6.719a.281.281,0,0,1-.243.177l-7.067.229a.266.266,0,0,0-.155.472l5.753,4.425a.26.26,0,0,1,.089.288l-2.11,6.763a.266.266,0,0,0,.406.3l5.9-4.079a.3.3,0,0,1,.31,0l5.9,4.079a.266.266,0,0,0,.406-.3l-2.089-6.763a.258.258,0,0,1,.089-.288l5.753-4.425a.266.266,0,0,0-.214-.472Z" fill="#fff"/>
      </g>
      <g id="Path_55" data-name="Path 55">
        <path id="Path_139" data-name="Path 139" d="M1363.416,856.258l-7.088-.229a.28.28,0,0,1-.243-.177l-2.471-6.719a.266.266,0,0,0-.5,0l-2.478,6.719a.273.273,0,0,1-.236.177l-7.066.229a.266.266,0,0,0-.155.472l5.753,4.425a.259.259,0,0,1,.089.288l-2.09,6.763a.266.266,0,0,0,.406.3l5.9-4.079a.3.3,0,0,1,.31,0l5.9,4.079a.266.266,0,0,0,.406-.3l-2.124-6.764a.258.258,0,0,1,.089-.288l5.753-4.425a.266.266,0,0,0-.155-.472Z" fill="#fff"/>
      </g>
      <g id="Path_56" data-name="Path 56">
        <path id="Path_140" data-name="Path 140" d="M1388.537,856.258l-7.066-.229a.28.28,0,0,1-.243-.177l-2.471-6.719a.266.266,0,0,0-.5,0l-2.478,6.719a.273.273,0,0,1-.236.177l-7.066.229a.266.266,0,0,0-.155.472l5.753,4.425a.259.259,0,0,1,.089.288l-2.09,6.763a.266.266,0,0,0,.406.3l5.9-4.079a.3.3,0,0,1,.31,0l5.9,4.079a.266.266,0,0,0,.406-.3l-2.117-6.764a.258.258,0,0,1,.089-.288l5.753-4.425a.266.266,0,0,0-.184-.472Z" fill="#fff"/>
      </g>
      <g id="Path_57" data-name="Path 57">
        <path id="Path_141" data-name="Path 141" d="M1413.657,856.258l-7.066-.229a.28.28,0,0,1-.243-.177l-2.471-6.719a.266.266,0,0,0-.5,0l-2.478,6.719a.273.273,0,0,1-.236.177l-7.066.229a.266.266,0,0,0-.155.472l5.753,4.425a.26.26,0,0,1,.089.288l-2.087,6.764a.266.266,0,0,0,.406.3l5.9-4.079a.3.3,0,0,1,.31,0l5.9,4.079a.266.266,0,0,0,.406-.3l-2.162-6.764a.258.258,0,0,1,.089-.288l5.753-4.425a.266.266,0,0,0-.14-.472Z" fill="#fff"/>
      </g>
      <g id="Path_58" data-name="Path 58">
        <path id="Path_142" data-name="Path 142" d="M1438.781,856.258l-7.066-.229a.281.281,0,0,1-.243-.177L1429,849.133a.266.266,0,0,0-.5,0l-2.482,6.719a.273.273,0,0,1-.236.177l-7.066.229a.266.266,0,0,0-.155.472l5.753,4.425a.258.258,0,0,1,.089.288l-2.085,6.763a.266.266,0,0,0,.406.3l5.9-4.079a.281.281,0,0,1,.3,0l5.9,4.079a.266.266,0,0,0,.406-.3l-2.087-6.764a.258.258,0,0,1,.089-.288l5.753-4.425a.266.266,0,0,0-.206-.472Z" fill="#fff"/>
      </g>
      <g id="Trusted_Service_Awards" data-name="Trusted Service Awards">
        <g id="Group_7" data-name="Group 7">
          <path id="Path_143" data-name="Path 143" d="M1450.305,831.4h-2.742v7.612h-1.12V831.4h-2.736v-.919h6.6Z" fill="#fff"/>
        </g>
        <g id="Group_8" data-name="Group 8">
          <path id="Path_144" data-name="Path 144" d="M1453.984,833.642a3.169,3.169,0,0,0-.533-.041,1.427,1.427,0,0,0-1.447.908v4.5h-1.084v-6.34h1.055l.017.732a1.69,1.69,0,0,1,1.512-.849,1.1,1.1,0,0,1,.48.082Z" fill="#fff"/>
          <path id="Path_145" data-name="Path 145" d="M1458.9,838.382a2.3,2.3,0,0,1-1.858.744,1.968,1.968,0,0,1-1.543-.589,2.551,2.551,0,0,1-.537-1.743v-4.125h1.084v4.1q0,1.441,1.172,1.441a1.622,1.622,0,0,0,1.652-.926v-4.611h1.084v6.34h-1.031Z" fill="#fff"/>
          <path id="Path_146" data-name="Path 146" d="M1465.287,837.327a.8.8,0,0,0-.33-.682,3.165,3.165,0,0,0-1.154-.419,5.5,5.5,0,0,1-1.307-.422,1.872,1.872,0,0,1-.715-.586,1.4,1.4,0,0,1-.232-.809,1.646,1.646,0,0,1,.66-1.318,2.568,2.568,0,0,1,1.684-.539,2.655,2.655,0,0,1,1.75.556,1.768,1.768,0,0,1,.67,1.424h-1.09a.975.975,0,0,0-.377-.767,1.419,1.419,0,0,0-.953-.323,1.479,1.479,0,0,0-.926.258.811.811,0,0,0-.334.674.657.657,0,0,0,.31.592,3.82,3.82,0,0,0,1.123.381,5.838,5.838,0,0,1,1.315.433,1.916,1.916,0,0,1,.748.607,1.489,1.489,0,0,1,.242.864,1.621,1.621,0,0,1-.68,1.362,2.849,2.849,0,0,1-1.763.513,3.19,3.19,0,0,1-1.348-.27,2.184,2.184,0,0,1-.916-.752,1.816,1.816,0,0,1-.332-1.046h1.084a1.124,1.124,0,0,0,.438.864,1.687,1.687,0,0,0,1.074.319,1.751,1.751,0,0,0,.988-.249A.765.765,0,0,0,1465.287,837.327Z" fill="#fff"/>
          <path id="Path_147" data-name="Path 147" d="M1469.254,831.134v1.535h1.184v.838h-1.184v3.936a.886.886,0,0,0,.158.573.666.666,0,0,0,.539.19,2.615,2.615,0,0,0,.516-.07v.874a3.19,3.19,0,0,1-.832.116,1.353,1.353,0,0,1-1.1-.439,1.89,1.89,0,0,1-.369-1.249v-3.931h-1.154v-.838h1.154v-1.535Z" fill="#fff"/>
          <path id="Path_148" data-name="Path 148" d="M1474.334,839.126a2.77,2.77,0,0,1-2.1-.847,3.141,3.141,0,0,1-.808-2.264v-.2a3.808,3.808,0,0,1,.361-1.684,2.807,2.807,0,0,1,1.008-1.16,2.524,2.524,0,0,1,1.4-.419,2.374,2.374,0,0,1,1.922.814,3.527,3.527,0,0,1,.686,2.332v.451h-4.3a2.251,2.251,0,0,0,.549,1.515,1.718,1.718,0,0,0,1.332.577,1.888,1.888,0,0,0,.972-.234,2.445,2.445,0,0,0,.7-.621l.662.515A2.663,2.663,0,0,1,1474.334,839.126Zm-.135-5.684a1.447,1.447,0,0,0-1.1.478,2.318,2.318,0,0,0-.551,1.339h3.176v-.082a2.069,2.069,0,0,0-.446-1.281A1.363,1.363,0,0,0,1474.2,833.442Z" fill="#fff"/>
          <path id="Path_149" data-name="Path 149" d="M1477.8,835.786a3.714,3.714,0,0,1,.691-2.347,2.355,2.355,0,0,1,3.575-.126v-3.3h1.083v9h-1l-.052-.68a2.209,2.209,0,0,1-1.811.8,2.166,2.166,0,0,1-1.8-.9,3.758,3.758,0,0,1-.695-2.356Zm1.084.123a2.814,2.814,0,0,0,.445,1.688,1.44,1.44,0,0,0,1.231.609,1.583,1.583,0,0,0,1.506-.926v-2.912a1.6,1.6,0,0,0-1.495-.9,1.447,1.447,0,0,0-1.242.615A3.094,3.094,0,0,0,1478.881,835.909Z" fill="#fff"/>
        </g>
        <g id="Group_9" data-name="Group 9">
          <path id="Path_150" data-name="Path 150" d="M1446.924,849.206a5.294,5.294,0,0,1-2.107-1.022,1.957,1.957,0,0,1-.659-1.5,2.063,2.063,0,0,1,.806-1.667,3.2,3.2,0,0,1,2.095-.66,3.5,3.5,0,0,1,1.567.34,2.577,2.577,0,0,1,1.066.938,2.4,2.4,0,0,1,.378,1.306h-1.131a1.558,1.558,0,0,0-.492-1.219,2,2,0,0,0-1.388-.445,2.046,2.046,0,0,0-1.3.367,1.224,1.224,0,0,0-.466,1.019,1.1,1.1,0,0,0,.442.883,4.324,4.324,0,0,0,1.506.66,7.007,7.007,0,0,1,1.664.66,2.527,2.527,0,0,1,.891.841,2.148,2.148,0,0,1,.29,1.131,1.994,1.994,0,0,1-.809,1.661,3.446,3.446,0,0,1-2.162.624,4,4,0,0,1-1.64-.337,2.758,2.758,0,0,1-1.175-.923,2.247,2.247,0,0,1-.413-1.33h1.131a1.469,1.469,0,0,0,.571,1.222,2.4,2.4,0,0,0,1.526.448,2.211,2.211,0,0,0,1.365-.363,1.178,1.178,0,0,0,.475-.99,1.158,1.158,0,0,0-.439-.97A5.07,5.07,0,0,0,1446.924,849.206Z" fill="#fff"/>
          <path id="Path_151" data-name="Path 151" d="M1453.99,853.126a2.767,2.767,0,0,1-2.1-.847,3.141,3.141,0,0,1-.809-2.264v-.2a3.808,3.808,0,0,1,.36-1.684,2.821,2.821,0,0,1,1.008-1.16,2.53,2.53,0,0,1,1.4-.419,2.373,2.373,0,0,1,1.922.814,3.527,3.527,0,0,1,.686,2.332v.451h-4.3a2.255,2.255,0,0,0,.548,1.515,1.72,1.72,0,0,0,1.333.577,1.886,1.886,0,0,0,.972-.234,2.432,2.432,0,0,0,.7-.621l.662.515A2.661,2.661,0,0,1,1453.99,853.126Zm-.135-5.684a1.447,1.447,0,0,0-1.1.478,2.318,2.318,0,0,0-.551,1.339h3.176v-.082a2.069,2.069,0,0,0-.445-1.281A1.365,1.365,0,0,0,1453.855,847.442Z" fill="#fff"/>
        </g>
        <g id="Group_10" data-name="Group 10">
          <path id="Path_152" data-name="Path 152" d="M1460.781,847.642a3.177,3.177,0,0,0-.533-.041,1.427,1.427,0,0,0-1.447.908v4.5h-1.084v-6.34h1.054l.018.732a1.689,1.689,0,0,1,1.512-.849,1.1,1.1,0,0,1,.48.082Z" fill="#fff"/>
        </g>
        <g id="Group_11" data-name="Group 11">
          <path id="Path_153" data-name="Path 153" d="M1463.989,851.538l1.571-4.869h1.107l-2.273,6.34h-.827l-2.3-6.34h1.107Z" fill="#fff"/>
          <path id="Path_154" data-name="Path 154" d="M1467.716,844.987a.65.65,0,0,1,.161-.445.605.605,0,0,1,.477-.182.616.616,0,0,1,.481.182.642.642,0,0,1,.164.445.671.671,0,0,1-1.122.44A.628.628,0,0,1,1467.716,844.987Zm1.172,8.022H1467.8v-6.34h1.084Z" fill="#fff"/>
          <path id="Path_155" data-name="Path 155" d="M1473.165,852.241a1.563,1.563,0,0,0,1.014-.351,1.238,1.238,0,0,0,.48-.879h1.026a1.974,1.974,0,0,1-.375,1.037,2.479,2.479,0,0,1-.923.785,2.668,2.668,0,0,1-1.222.293,2.614,2.614,0,0,1-2.06-.864,3.448,3.448,0,0,1-.764-2.365v-.181a3.815,3.815,0,0,1,.34-1.647,2.587,2.587,0,0,1,.975-1.119,2.777,2.777,0,0,1,1.5-.4,2.547,2.547,0,0,1,1.773.638,2.29,2.29,0,0,1,.753,1.659h-1.026a1.489,1.489,0,0,0-.466-1.011,1.447,1.447,0,0,0-1.034-.4,1.518,1.518,0,0,0-1.28.595,2.794,2.794,0,0,0-.454,1.72v.2a2.734,2.734,0,0,0,.451,1.687A1.523,1.523,0,0,0,1473.165,852.241Z" fill="#fff"/>
          <path id="Path_156" data-name="Path 156" d="M1479.534,853.126a2.767,2.767,0,0,1-2.1-.847,3.137,3.137,0,0,1-.809-2.264v-.2a3.808,3.808,0,0,1,.36-1.684,2.813,2.813,0,0,1,1.008-1.16,2.53,2.53,0,0,1,1.4-.419,2.373,2.373,0,0,1,1.922.814,3.528,3.528,0,0,1,.686,2.332v.451h-4.295a2.255,2.255,0,0,0,.548,1.515,1.72,1.72,0,0,0,1.333.577,1.885,1.885,0,0,0,.972-.234,2.443,2.443,0,0,0,.7-.621l.662.515A2.661,2.661,0,0,1,1479.534,853.126Zm-.135-5.684a1.447,1.447,0,0,0-1.1.478,2.319,2.319,0,0,0-.551,1.339h3.176v-.082a2.069,2.069,0,0,0-.445-1.281A1.365,1.365,0,0,0,1479.4,847.442Z" fill="#fff"/>
        </g>
        <g id="Group_12" data-name="Group 12">
          <path id="Path_157" data-name="Path 157" d="M1449.121,864.776h-3.574l-.8,2.233h-1.16l3.258-8.531h.984l3.264,8.531h-1.154Zm-3.234-.92h2.9l-1.453-3.99Z" fill="#fff"/>
        </g>
        <g id="Group_13" data-name="Group 13">
          <path id="Path_158" data-name="Path 158" d="M1457.441,865.515l1.219-4.846h1.084l-1.846,6.34h-.878l-1.541-4.8-1.5,4.8h-.879l-1.84-6.34h1.078l1.248,4.746,1.477-4.746h.873Z" fill="#fff"/>
          <path id="Path_159" data-name="Path 159" d="M1464.76,867.009a2.255,2.255,0,0,1-.153-.668,2.418,2.418,0,0,1-1.8.785,2.239,2.239,0,0,1-1.538-.53,1.715,1.715,0,0,1-.6-1.345,1.792,1.792,0,0,1,.753-1.538,3.551,3.551,0,0,1,2.118-.548h1.055v-.5a1.214,1.214,0,0,0-.34-.9,1.366,1.366,0,0,0-1-.337,1.577,1.577,0,0,0-.973.293.863.863,0,0,0-.392.709h-1.09a1.493,1.493,0,0,1,.337-.917,2.285,2.285,0,0,1,.914-.7,3.076,3.076,0,0,1,1.269-.258,2.5,2.5,0,0,1,1.716.548,1.977,1.977,0,0,1,.645,1.508v2.918a3.581,3.581,0,0,0,.222,1.389v.094Zm-1.8-.826a1.9,1.9,0,0,0,.967-.264,1.6,1.6,0,0,0,.662-.686v-1.3h-.85q-1.992,0-1.992,1.166a.988.988,0,0,0,.34.8A1.306,1.306,0,0,0,1462.961,866.183Z" fill="#fff"/>
          <path id="Path_160" data-name="Path 160" d="M1470.438,861.642a3.189,3.189,0,0,0-.534-.041,1.427,1.427,0,0,0-1.447.908v4.5h-1.084v-6.34h1.055l.017.732a1.69,1.69,0,0,1,1.512-.849,1.107,1.107,0,0,1,.481.082Z" fill="#fff"/>
          <path id="Path_161" data-name="Path 161" d="M1471.17,863.786a3.714,3.714,0,0,1,.691-2.347,2.355,2.355,0,0,1,3.575-.126v-3.3h1.084v9h-1l-.052-.68a2.209,2.209,0,0,1-1.811.8,2.167,2.167,0,0,1-1.8-.9,3.757,3.757,0,0,1-.694-2.356Zm1.084.123a2.814,2.814,0,0,0,.445,1.688,1.44,1.44,0,0,0,1.231.609,1.583,1.583,0,0,0,1.506-.926v-2.912a1.6,1.6,0,0,0-1.495-.9,1.447,1.447,0,0,0-1.242.615A3.094,3.094,0,0,0,1472.254,863.909Z" fill="#fff"/>
          <path id="Path_162" data-name="Path 162" d="M1481.893,865.327a.8.8,0,0,0-.331-.682,3.172,3.172,0,0,0-1.155-.419,5.487,5.487,0,0,1-1.306-.422,1.857,1.857,0,0,1-.715-.586,1.4,1.4,0,0,1-.232-.809,1.645,1.645,0,0,1,.659-1.318,2.573,2.573,0,0,1,1.685-.539,2.648,2.648,0,0,1,1.749.556,1.769,1.769,0,0,1,.671,1.424h-1.09a.976.976,0,0,0-.378-.767,1.415,1.415,0,0,0-.952-.323,1.484,1.484,0,0,0-.926.258.814.814,0,0,0-.334.674.658.658,0,0,0,.311.592,3.811,3.811,0,0,0,1.122.381,5.838,5.838,0,0,1,1.315.433,1.912,1.912,0,0,1,.747.607,1.483,1.483,0,0,1,.244.864,1.623,1.623,0,0,1-.68,1.362,2.85,2.85,0,0,1-1.764.513,3.182,3.182,0,0,1-1.347-.27,2.18,2.18,0,0,1-.917-.752,1.814,1.814,0,0,1-.331-1.046h1.083a1.126,1.126,0,0,0,.437.864,1.692,1.692,0,0,0,1.075.319,1.753,1.753,0,0,0,.988-.249A.765.765,0,0,0,1481.893,865.327Z" fill="#fff"/>
        </g>
      </g>
    </g>
  </g>
</svg>
