<svg xmlns="http://www.w3.org/2000/svg" width="125.374" height="80.765" viewBox="0 0 125.374 80.765">
  <g id="Group_2" data-name="Group 2" transform="translate(-209.766 -364.337)">
    <path id="Path_67" data-name="Path 67" d="M227.588,445.1l5.093-25.665h8.351L235.94,445.1Zm25.157-8.351h5.3l-1.426-9.471ZM241.033,445.1l12.629-25.665h8.249L267,445.1h-7.638l-.509-3.054h-8.147l-1.324,3.054Zm33.609,0,2.954-19.248h-7.332l1.222-6.518h22.4l-1.221,6.518h-6.926L282.892,445.1Zm28.008-8.351h5.3l-1.323-9.471ZM291.041,445.1l12.526-25.665h8.249L317.01,445.1h-7.844l-.3-3.054h-8.249L299.29,445.1Zm44.1-54.692H296.029c-1.425,7.232-6.415,13.242-16.395,17.416a10.072,10.072,0,0,0,8.961,6.62h21.286c3.259,0,5.806-2.749,6.825-4.991H295.112c-1.322-.2-1.322-1.221-.1-1.425H316.3c2.749,0,5.194-2.343,6.619-4.888H298.271c-1.325-.2-1.325-1.223,0-1.426h24.85c2.547,0,4.787-2.955,5.7-4.89h-27.3c-1.323-.2-1.323-1.425,0-1.527h27.805C331.576,395.3,333.611,392.956,335.14,390.41Zm-125.374,0h39.109c1.425,7.232,6.416,13.242,16.4,17.416a10.074,10.074,0,0,1-8.962,6.62H235.024c-3.259,0-5.805-2.749-6.823-4.991h21.591c1.324-.2,1.324-1.221.1-1.425H228.608c-2.749,0-5.194-2.343-6.619-4.888h24.647c1.323-.2,1.323-1.223,0-1.426H221.784c-2.546,0-4.786-2.955-5.7-4.89h27.294c1.324-.2,1.324-1.425,0-1.527h-27.8C213.331,395.3,211.294,392.956,209.766,390.41Zm50.008-21.591a18.241,18.241,0,0,0,4.786,3.055,25.218,25.218,0,0,1,5.907-7.538A19.694,19.694,0,0,0,259.774,368.819Zm-6.926,14.359h8.758a26.1,26.1,0,0,1,2.343-10.082,21.859,21.859,0,0,1-5.3-3.259A19.81,19.81,0,0,0,252.848,383.179Zm18.943-8.248v8.248h-8.759a24.4,24.4,0,0,1,2.241-9.573A20.089,20.089,0,0,0,271.791,374.931Zm13.341-6.111a18.252,18.252,0,0,1-4.786,3.055,26.526,26.526,0,0,0-5.907-7.538A19.691,19.691,0,0,1,285.132,368.819Zm6.926,14.359H283.3A28.522,28.522,0,0,0,281.06,373.1a23.371,23.371,0,0,0,5.191-3.259A19.947,19.947,0,0,1,292.059,383.179Zm-18.842-8.248v8.248h8.657a22.36,22.36,0,0,0-2.241-9.573A20.045,20.045,0,0,1,273.217,374.931Zm-13.443,23.933a17.875,17.875,0,0,1,4.786-2.954,25.2,25.2,0,0,0,5.907,7.537A19.818,19.818,0,0,1,259.774,398.864ZM252.848,384.6h8.758a26.984,26.984,0,0,0,2.343,10.083,21.864,21.864,0,0,0-5.3,3.26A20.29,20.29,0,0,1,252.848,384.6Zm18.943,8.251v-8.25h-8.759a23.126,23.126,0,0,0,2.241,9.472A19.977,19.977,0,0,1,271.791,392.855Zm13.341,6.008a18.888,18.888,0,0,0-4.786-2.954,25.192,25.192,0,0,1-5.907,7.537A19.816,19.816,0,0,0,285.132,398.864Zm6.926-14.259H283.3a26.488,26.488,0,0,1-2.241,10.083,23.376,23.376,0,0,1,5.191,3.26A20.5,20.5,0,0,0,292.059,384.6Zm-18.842,8.251v-8.25h8.657a21.923,21.923,0,0,1-2.241,9.472A19.377,19.377,0,0,0,273.217,392.855Zm-1.426-27.7a22.741,22.741,0,0,0-5.907,7.231,19.59,19.59,0,0,0,5.907,1.12Zm1.426,0a23.905,23.905,0,0,1,5.806,7.231,16.782,16.782,0,0,1-5.806,1.12Zm-1.426,37.48a22.767,22.767,0,0,1-5.907-7.232,16.876,16.876,0,0,1,5.907-1.119Zm1.426.1a25.707,25.707,0,0,0,5.806-7.333,19.568,19.568,0,0,0-5.806-1.119Z" fill="#fff"/>
  </g>
</svg>
