<?xml version="1.0" encoding="utf-8"?>
<!-- Generator: Adobe Illustrator 22.1.0, SVG Export Plug-In . SVG Version: 6.00 Build 0)  -->
<svg version="1.1" id="Layer_1" xmlns="http://www.w3.org/2000/svg" xmlns:xlink="http://www.w3.org/1999/xlink" x="0px" y="0px"
	 viewBox="0 0 24 24" style="enable-background:new 0 0 24 24;" xml:space="preserve">
<style type="text/css">
	.st0{display:none;fill:none;}
	.st1{display:none;}
	.st2{fill:#6DCFF6;}
	.st3{fill:#FFFFFF;}
</style>
<path class="st0" d="M0,0h24v24H0V0z"/>
<path class="st1" d="M11,17h2v-6h-2V17z M12,2C6.5,2,2,6.5,2,12s4.5,10,10,10s10-4.5,10-10S17.5,2,12,2z M12,20c-4.4,0-8-3.6-8-8
	s3.6-8,8-8s8,3.6,8,8S16.4,20,12,20z M11,9h2V7h-2V9z"/>
<circle class="st2" cx="12" cy="12" r="11.7"/>
<path class="st3" d="M12.2,19.1h-0.3c-1,0-1.8-0.8-1.8-1.8v-4.6c0-1,0.8-1.8,1.8-1.8h0.3c1,0,1.8,0.8,1.8,1.8v4.6
	C14,18.3,13.2,19.1,12.2,19.1z"/>
<path class="st3" d="M12.2,8.9h-0.3c-1,0-1.8-0.8-1.8-1.8V6.7c0-1,0.8-1.8,1.8-1.8h0.3c1,0,1.8,0.8,1.8,1.8v0.3
	C14,8.1,13.2,8.9,12.2,8.9z"/>
</svg>
