<svg id="klarna-logo" xmlns="http://www.w3.org/2000/svg" width="212.455" height="47.426" viewBox="0 0 212.455 47.426">
  <path id="Path_59" data-name="Path 59" d="M50.978,0H40.517A26.773,26.773,0,0,1,29.728,21.579l-4.128,3.1,16.043,21.86H54.825L40.048,26.41A36.985,36.985,0,0,0,50.978,0Z" transform="translate(-13.591)" fill="#fff"/>
  <rect id="Rectangle_4" data-name="Rectangle 4" width="10.695" height="46.535" fill="#fff"/>
  <rect id="Rectangle_5" data-name="Rectangle 5" width="10.086" height="46.535" transform="translate(44.33)" fill="#fff"/>
  <path id="Path_60" data-name="Path 60" d="M282.515,28.7c-3.847,0-7.506,1.173-9.945,4.5V29.591H263v32.18h9.71V44.884c0-4.879,3.284-7.271,7.224-7.271,4.222,0,6.661,2.533,6.661,7.224V61.818h9.617v-20.5C296.212,33.813,290.255,28.7,282.515,28.7Z" transform="translate(-139.627 -15.237)" fill="#fff"/>
  <path id="Path_61" data-name="Path 61" d="M150.951,29.591v2.064a16.752,16.752,0,0,0-9.57-2.955,16.981,16.981,0,0,0,0,33.963,16.752,16.752,0,0,0,9.57-2.955v2.064h9.617V29.591Zm-8.772,24.346a8.5,8.5,0,0,1-8.725-8.256,8.739,8.739,0,0,1,17.45,0A8.5,8.5,0,0,1,142.179,53.938Z" transform="translate(-66.044 -15.237)" fill="#fff"/>
  <path id="Path_62" data-name="Path 62" d="M222.151,34.775V30.6H212.3V62.78h9.9V47.769c0-5.066,5.488-7.787,9.288-7.787h.094V30.6A12.083,12.083,0,0,0,222.151,34.775Z" transform="translate(-112.71 -16.246)" fill="#fff"/>
  <path id="Path_63" data-name="Path 63" d="M367.551,29.591v2.064a16.752,16.752,0,0,0-9.57-2.955,16.981,16.981,0,1,0,0,33.963,16.752,16.752,0,0,0,9.57-2.955v2.064h9.617V29.591Zm-8.772,24.346a8.5,8.5,0,0,1-8.725-8.256,8.739,8.739,0,0,1,17.451,0C367.551,50.232,363.611,53.938,358.779,53.938Z" transform="translate(-181.037 -15.237)" fill="#fff"/>
  <g id="Group_1" data-name="Group 1" transform="translate(200.305 13.51)">
    <path id="Path_64" data-name="Path 64" d="M432.036,31.751a.743.743,0,0,0-.844-.751H430.3v2.439h.422v-.891h.469l.375.891h.469l-.422-.985A.728.728,0,0,0,432.036,31.751Zm-.844.375h-.469v-.751h.469c.281,0,.422.141.422.375S431.52,32.126,431.191,32.126Z" transform="translate(-428.752 -29.968)" fill="#fff"/>
    <path id="Path_65" data-name="Path 65" d="M429.3,28.8a2.3,2.3,0,0,0-2.3,2.3,2.333,2.333,0,0,0,2.3,2.3,2.3,2.3,0,0,0,0-4.6Zm0,4.175a1.842,1.842,0,0,1-1.829-1.876,1.873,1.873,0,0,1,1.829-1.876,1.842,1.842,0,0,1,1.829,1.876A1.873,1.873,0,0,1,429.3,32.975Z" transform="translate(-427 -28.8)" fill="#fff"/>
  </g>
  <path id="Path_66" data-name="Path 66" d="M433.151,74.9a6.051,6.051,0,1,0,6.051,6.051A6.066,6.066,0,0,0,433.151,74.9Z" transform="translate(-226.748 -39.764)" fill="#fff"/>
</svg>
