<svg viewBox="0 0 445 346.1" xmlns="http://www.w3.org/2000/svg"><path d="m440 339.7a2.6 2.6 0 0 1 1.3.6 2.6 2.6 0 0 0 -1.2-.6zm2.4 2.1a3.3 3.3 0 0 0 -.7-1.1 4.4 4.4 0 0 0 -.4-.4 4.4 4.4 0 0 1 .4.4 3.3 3.3 0 0 1 .7 1zm-248.2-126.5-3.5-5.4z" fill="#fff"/><path d="m43.6 237.5c31.3 30.1 69.6 41.6 112.7 36.3 24.6-3 46.7-12.6 66.2-28a162.8 162.8 0 0 1 -20.5-20.3q-4.1-4.9-7.8-10.2l-3.5-5.4-1.7-2.7a138.3 138.3 0 0 1 -17-47.5 133.4 133.4 0 0 1 -1.6-30.1 135.6 135.6 0 0 1 19-62 133 133 0 0 1 33.1-37.6.8.8 0 0 1 .1-.4l-1.7-1.2c-34.1-25.3-72.1-34.3-113.4-24.4-52.5 12.3-87.7 45.4-102 97.4s-.8 98.4 38.1 136z" fill="#e60019"/><path d="m222.5 30c9.8 7 18 15.9 25.2 25.5a135.3 135.3 0 0 1 25.3 57.8 136.8 136.8 0 0 1 1.5 36.8 134.7 134.7 0 0 1 -15.2 51.6 137.4 137.4 0 0 1 -34.2 42 17.6 17.6 0 0 0 -2 2.2 17.5 17.5 0 0 0 1.5 1.4c31.6 23.4 67 32.5 105.7 25.8a137.1 137.1 0 0 0 112.7-158.3 137.6 137.6 0 0 0 -173.3-109.3 142.7 142.7 0 0 0 -47.1 24 .8.8 0 0 0 0 .4z" fill="#f49e12"/><path d="m225 243.7a137.4 137.4 0 0 0 34.2-42 134.7 134.7 0 0 0 15.2-51.7 136.8 136.8 0 0 0 -1.4-36.7 135.3 135.3 0 0 0 -25.2-57.8 121.1 121.1 0 0 0 -25.3-25.5 133 133 0 0 0 -33 37.7 135.6 135.6 0 0 0 -19 62 133.4 133.4 0 0 0 1.5 30 138.3 138.3 0 0 0 17 47.6l1.7 2.7 3.5 5.4q3.6 5.3 7.8 10.2a162.8 162.8 0 0 0 20.5 20.2l.6.1a17.6 17.6 0 0 1 1.9-2.1z" fill="#fb5f00"/><path d="m81 318.1c-.9-6.4-5.7-10.7-12-11.3-6-.5-11.2 1-14.8 6.1-5-7-15.4-8.8-23-1.1 1.5-4.6-1-4.4-3.7-4.2a5 5 0 0 1 -1.2 0c-2.2-.3-3 .4-3 2.8.2 9.4 0 18.8 0 28.2 0 5.6 0 5.5 5.8 5.6 2 0 2.4-.5 2.4-2.5v-18.2c0-4.6 2.2-7.8 5.9-8.8 5.8-1.7 10.2 1 10.6 7.2.4 5.5.2 11 .2 16.5 0 6.2 0 6.1 6.4 5.7 1.3 0 1.7-.4 1.6-1.7v-10.2l.1-9.1c.3-4.6 2.5-7.5 6-8.5 6.2-1.7 10.7 1.7 10.8 8.3v19c0 1-.6 2.2 1.1 2.2h5.9c.9 0 1.1-.5 1.1-1.3 0-8.2.7-16.5-.3-24.7zm342.4-20.1c0-5 0-4.9-5-5.1-2.6-.1-3 .8-3 3.1.2 5 0 10 0 15.4-8.8-6.5-18.3-6-24.8 1.1s-6.6 19.2-.3 26.5 15.8 8 25.2 1.5c-.8 3.5 1 4 3.7 3.6a3.2 3.2 0 0 1 .9 0c2.5.4 3.4-.4 3.4-3.2v-42.9zm-18.6 39.5c-6.4 0-11-5-10.9-11.7s4.7-11.6 11-11.6 11.2 5.2 11 12-4.8 11.4-11.1 11.3zm-278.8-25.6c0-4.3 0-4.2-4.3-4.3-2.7-.2-4.6.1-3.5 4-8.3-6.5-17.6-6.3-24.1 0a20.6 20.6 0 0 0 -2.3 25.9 17.5 17.5 0 0 0 12.4 7.5 16.3 16.3 0 0 0 13.8-4.6c-1 3.6.7 4 3.3 3.7a7.9 7.9 0 0 1 2 0c2 .3 2.7-.4 2.7-2.5zm-18.5 25.6c-6.4 0-11-4.7-11-11.5s4.4-11.6 10.8-11.8 11 4.8 11.2 11.5c0 6.8-4.6 11.8-11 11.8zm241.8-29.7a24.8 24.8 0 0 0 -6.7 0c-1.7.3-.1 2.4-1 3.5-8.8-6.5-18.5-5.8-25 1.6s-6 19.6.6 26.6 16.3 7.4 24.8.6c-1 4 .9 4.4 3.5 4a9.6 9.6 0 0 1 2.3 0c1.6.2 2-.3 2-2v-32.6c0-.6.3-1.7-.5-1.7zm-18.2 29.7c-6.3 0-10.9-5-10.8-11.7s4.7-11.6 11-11.6 11.2 5.2 11 12-4.8 11.4-11.2 11.3zm-101.1-30a17.7 17.7 0 0 0 -22.8 12.1c-3.3 11.3 2.2 22.3 12.5 24.8a23.2 23.2 0 0 0 15.8-1.5c5-2.3 4.9-2.4 2-7-1-1.6-1.7-1.7-3.2-.7a15.4 15.4 0 0 1 -8 2.6c-5.2.4-9.4-2.1-11-6.5-.7-1.7-.6-2.5 1.5-2.4h23c1 0 1.8.1 2-1.3a18.9 18.9 0 0 0 -11.9-20zm1.6 15.2h-15c-1.4 0-2-.2-1.5-1.8a9.2 9.2 0 0 1 9-7 8.7 8.7 0 0 1 9 6.8c.5 1.5.2 2.1-1.5 2zm-71.6 1.3a24.9 24.9 0 0 0 -7-1.9 86 86 0 0 1 -7-1.2 3 3 0 0 1 -2.5-2.6 3.4 3.4 0 0 1 1.9-3.4 8.2 8.2 0 0 1 3.6-1 22 22 0 0 1 8.7 1.3c4.4 1.5 4.3 1.4 6.6-2.8 1-1.6.5-2.3-1-3a27 27 0 0 0 -12.3-2.5h-3.8a15.4 15.4 0 0 0 -7.7 2.7 10.2 10.2 0 0 0 1.6 17.8c3.8 1.8 8 1.8 12 2.6 2 .4 4.7.8 4.7 3.6s-2.4 3.5-4.8 4a22.1 22.1 0 0 1 -11.5-1.1c-1.5-.5-2.9-2.6-4.3-1.7s-2 2.9-2.9 4.4a2 2 0 0 1 -.1.2c-.7.8-.2 1.2.4 1.7 6.2 5.1 21 5.4 27.3.5s5.4-14.2-1.9-17.6zm35.2 13c-5.7 1.5-8.3-.5-8.4-6.2v-6.5-7c0-1.7.3-2.5 2.2-2.3s4 0 6 0c5 0 4.9 0 5-5.2 0-1.7-.5-2.4-2.3-2.2h-8.8c-1.6 0-2.1-.4-2-2v-7.3c0-1 0-1.6-1.3-1.8-6-.9-6.7-.3-6.7 5.5 0 5.4 0 5.5-5.4 5.5-1.7 0-2.1.5-2.1 2.2 0 5.2-.1 5.3 5.1 5.2 2 0 2.5.6 2.4 2.5v15.3c.2 8.7 4.8 12.8 13.5 12.3a23.3 23.3 0 0 0 6.6-1.4c2-.7 2.6-1.6 1.8-3.9-1.6-3.7-1.5-3.8-5.6-2.7zm109.4-2c-1.2-1.2-2.2.6-3.2 1-7.4 3.5-15 1-17-6-1.4-4.8-.9-9.4 3-13s8.3-3.2 13-1.7c1.4.5 2.7 2.4 4 1.6s1.7-2.5 2.6-3.8a3.2 3.2 0 0 1 .3-.5c.9-1.1.6-1.8-.6-2.6a18.6 18.6 0 0 0 -11-3.2c-9.5 0-16.2 4.3-19 12a20 20 0 0 0 5.6 22.2c6.4 5 17 5.6 23.8 1.2.7-.4 2-.8 1.7-1.6a19.2 19.2 0 0 0 -3.2-5.6zm76.4-28c-4.8-.8-9.2 0-12.7 4.3.7-3.9-1.5-4-4-3.7a1 1 0 0 1 -.3 0c-2.9-.5-4 .4-3.9 3.6.3 9 .1 18 .1 27 0 6 0 6 6 5.9 1.7 0 2.1-.6 2.1-2.2 0-6.5-.2-13.1 0-19.7.2-5.7 3.5-8.7 9-7.7 3.5.7 4.5-.5 5-3.3a4.5 4.5 0 0 1 .5-1.4c1.1-2-.2-2.5-1.8-2.8zm-110 0c-5-.8-9.4 0-13.3 5 1-4.3-1-4.8-3.6-4.4a4.5 4.5 0 0 1 -1.5 0c-2.3-.5-2.7.7-2.6 2.8v28.4c0 5.3 0 5.2 5.4 5.4 2 0 2.6-.5 2.6-2.6-.2-6.2-.2-12.3 0-18.5s3.3-9.6 9-8.5c3.9.7 4.5-1 5-3.7a4.8 4.8 0 0 1 .6-1.4c.9-1.6 0-2.1-1.5-2.4z" fill="#050505"/><path d="m444.4 206.7c-1.4-.9-1.1 1.6-2.3 2-1.5-3.6-4.7-1.8-7.4-2.4 0 1.2 1.5 1 1.4 2.2a2.5 2.5 0 0 0 .3 2.4c1.4-.9-.5-3.7 2-3.6 2 .2.3 2.6 1.2 3.5 1.8-.6 3.4-1.6 5.4.2-.4-1.7.6-3.6-.6-4.3z" fill="#f49e12"/><g fill="#050505"><path d="m439.9 338.8a3.8 3.8 0 0 0 -3.9 3.6 3.7 3.7 0 0 0 3.7 3.7 3.6 3.6 0 0 0 3.7-3.4 3.8 3.8 0 0 0 -3.5-4zm1.4 5.9a2.4 2.4 0 0 1 -3.6-.5c-1-1.4-1.2-2.8.6-3.9a2.3 2.3 0 0 1 1.8-.6 2.6 2.6 0 0 1 1.2.6 4.4 4.4 0 0 1 .4.4 3.3 3.3 0 0 1 .7 1 2.5 2.5 0 0 1 -1.1 3z"/><path d="m440 343.6c1.5-.1 1.1-1.5 1.3-2.5l-2.7-.5c0 1.2-1.5 3.2 1.4 3z"/></g></svg>