<svg viewBox="0 0 750 200" xmlns="http://www.w3.org/2000/svg"><path d="m107.9 8.3c-8-5.5-18.4-8.2-31.3-8.2h-49.8c-4 0-6.1 2-6.5 5.9l-20.3 127a4.2 4.2 0 0 0 .9 3.4 4 4 0 0 0 3 1.6h23.8c4 0 6.4-2 6.8-5.9l5.6-34.2a5.6 5.6 0 0 1 2.2-4 9.6 9.6 0 0 1 4.7-2 33.8 33.8 0 0 1 5.3-.5l5.9.3 4.4.3c17.8 0 31.8-5 42-15.1s15.2-24 15.2-41.9q0-18.4-12-26.7zm-25.7 38.1c-1 7.3-3.7 12-8.1 14.3s-10.6 3.4-18.7 3.4l-10.3.3 5.3-33.3a3.7 3.7 0 0 1 4-3.4h5.9q12.4 0 18 3.6c3.9 2.4 5.2 7.4 3.9 15.1z" fill="#003087"/><path d="m633.3 0h-23a3.6 3.6 0 0 0 -4 3.4l-20.3 129.5-.4.6a4.8 4.8 0 0 0 1.2 3 4.1 4.1 0 0 0 3 1.4h20.6c3.9 0 6-2 6.5-5.9l20.3-127.3v-.3c.2-2.9-1.2-4.4-4-4.4z" fill="#009cde"/><path d="m355 50.1a4.8 4.8 0 0 0 -1.1-3 3.8 3.8 0 0 0 -2.8-1.4h-24a6.4 6.4 0 0 0 -5.6 3.1l-33 48.5-13.7-46.7a6.5 6.5 0 0 0 -6.8-5h-23.3a3.8 3.8 0 0 0 -2.8 1.4 4.4 4.4 0 0 0 -1.2 3c0 .4 2 6.5 6 18.4l13.2 38.3a826 826 0 0 1 7.3 21.8c-17 23.2-25.5 35.7-25.5 37.3 0 2.7 1.3 4 4 4h24a6.5 6.5 0 0 0 5.6-3.1l79.4-114.5a4.2 4.2 0 0 0 .4-2.1z" fill="#003087"/><path d="m578.3 45.8h-23.7c-3 0-4.7 3.4-5.3 10.3-5.4-8.3-15.2-12.4-29.6-12.4q-22.4 0-38.1 16.8a55.9 55.9 0 0 0 -15.7 39.5c0 12.2 3.6 22 10.7 29.3s16.8 10.9 28.8 10.9a49.5 49.5 0 0 0 18.4-3.7 36.1 36.1 0 0 0 14.6-10l-.6 2.8a18 18 0 0 0 -.6 3.7c0 3.3 1.3 5 4 5h21.5c3.9 0 6.2-2 6.8-5.9l12.8-81.2a4.2 4.2 0 0 0 -1-3.4 3.7 3.7 0 0 0 -3-1.7zm-40.6 61.3a26.4 26.4 0 0 1 -19.1 7.8c-6 0-11-1.7-14.6-5s-5.6-7.9-5.6-13.7a26.4 26.4 0 0 1 7.8-19.4 25.9 25.9 0 0 1 19.3-7.9 21.2 21.2 0 0 1 14.5 5.1 18 18 0 0 1 5.8 14.2 26.8 26.8 0 0 1 -8.1 18.9z" fill="#009cde"/><path d="m224.8 45.8h-23.8c-3 0-4.7 3.4-5.3 10.3-5.6-8.3-15.5-12.4-29.6-12.4q-22.4 0-38.1 16.8a55.9 55.9 0 0 0 -15.7 39.5c0 12.2 3.6 22 10.7 29.3s16.8 10.9 28.8 10.9a48 48 0 0 0 18-3.7 38.7 38.7 0 0 0 14.9-10 22 22 0 0 0 -1.2 6.5c0 3.3 1.3 5 4 5h21.5c3.9 0 6.2-2 6.8-5.9l12.8-81.2a4.2 4.2 0 0 0 -1-3.4 3.4 3.4 0 0 0 -3-1.7zm-40.8 61.4a27 27 0 0 1 -19.4 7.6c-6 0-10.8-1.7-14.5-5s-5.4-7.9-5.4-13.7a26.4 26.4 0 0 1 7.8-19.4 25.9 25.9 0 0 1 19.3-7.9 21.2 21.2 0 0 1 14.5 5.1 18 18 0 0 1 5.8 14.2 25.6 25.6 0 0 1 -8.1 19.1z" fill="#003087"/><path d="m461.4 8.3c-8-5.5-18.4-8.2-31.4-8.2h-49.4c-4.2 0-6.4 2-6.8 5.9l-20.2 127a4.2 4.2 0 0 0 .9 3.4 4 4 0 0 0 3 1.6h25.6c2.5 0 4-1.3 5-4l5.6-36.1a5.6 5.6 0 0 1 2.2-4 9.6 9.6 0 0 1 4.7-2 33.8 33.8 0 0 1 5.3-.5l5.9.3 4.4.3c17.8 0 31.8-5 42-15.1s15.2-24 15.2-41.9c-.1-12.3-4.1-21.2-12.1-26.7zm-32 51.2a36.8 36.8 0 0 1 -20.4 4.7l-10 .3 5.3-33.3a3.7 3.7 0 0 1 4-3.4h5.6a77.6 77.6 0 0 1 10.9.6 15.2 15.2 0 0 1 7.8 3.9c2.5 2.2 3.7 5.3 3.7 9.5 0 8.7-2.2 14.6-6.8 17.7z" fill="#009cde"/></svg>