<svg xmlns="http://www.w3.org/2000/svg" width="262.16" height="60.928" viewBox="0 0 262.16 60.928">
  <g id="Group_26" data-name="Group 26" transform="translate(-1010.06 -801.572)">
    <g id="Group_19" data-name="Group 19">
      <g id="Group_14" data-name="Group 14" opacity="0.79">
        <path id="Path_172" data-name="Path 172" d="M1059.289,819.132a9.379,9.379,0,0,0-2.7-2.08h0c-.057.361-.12.729-.194,1.108-2.5,12.822-11.041,17.255-21.953,17.255h-5.557a2.7,2.7,0,0,0-2.666,2.287l.091-.584-2.937,18.622-.807,5.117a1.422,1.422,0,0,0,1.405,1.643h9.854a2.371,2.371,0,0,0,2.341-2l.1-.5,1.856-11.771.12-.65a2.369,2.369,0,0,1,2.341-2h1.474c9.546,0,17.021-3.878,19.2-15.094C1062.175,825.795,1061.7,821.883,1059.289,819.132Z" fill="#fff"/>
      </g>
      <g id="Group_15" data-name="Group 15">
        <path id="Path_173" data-name="Path 173" d="M1020.642,801.572a2.735,2.735,0,0,0-.49.044,2.735,2.735,0,0,1,.49-.044Z" fill="#fff"/>
      </g>
      <g id="Group_16" data-name="Group 16">
        <path id="Path_174" data-name="Path 174" d="M1018.881,802.222a2.728,2.728,0,0,1,.809-.478A2.728,2.728,0,0,0,1018.881,802.222Z" fill="#fff"/>
      </g>
      <g id="Group_17" data-name="Group 17" opacity="0.93">
        <path id="Path_175" data-name="Path 175" d="M1053.978,816.01q-.57-.168-1.178-.3t-1.25-.238a31.021,31.021,0,0,0-4.9-.356h-14.844a2.369,2.369,0,0,0-2.341,2l-3.155,20-.091.584a2.7,2.7,0,0,1,2.666-2.287h5.557c10.912,0,19.457-4.433,21.953-17.255.074-.379.137-.747.194-1.108h0a13.284,13.284,0,0,0-2.052-.867C1054.356,816.124,1054.169,816.065,1053.978,816.01Z" fill="#fff"/>
      </g>
      <g id="Group_18" data-name="Group 18">
        <path id="Path_176" data-name="Path 176" d="M1029.468,817.115a2.369,2.369,0,0,1,2.341-2h14.844a31.021,31.021,0,0,1,4.9.356q.642.1,1.25.238t1.178.3c.191.055.378.114.562.175a13.284,13.284,0,0,1,2.052.867c.743-4.74-.005-7.965-2.569-10.886-2.822-3.216-7.921-4.594-14.445-4.594h-18.936a2.735,2.735,0,0,0-.49.044,2.672,2.672,0,0,0-.462.128,2.728,2.728,0,0,0-.809.478,2.7,2.7,0,0,0-.915,1.637l-7.886,50a1.626,1.626,0,0,0,1.606,1.879h11.69l2.937-18.622Z" fill="#fff"/>
      </g>
    </g>
    <g id="Group_20" data-name="Group 20">
      <path id="Path_177" data-name="Path 177" d="M1210.438,824.243c-.83,5.455-5,5.455-9.026,5.455h-2.292l1.608-10.184a1.266,1.266,0,0,1,1.251-1.069h1.051c2.743,0,5.334,0,6.669,1.562.8.936,1.042,2.321.739,4.236Zm-1.753-14.231h-15.2a2.111,2.111,0,0,0-2.085,1.783l-6.145,38.964a1.267,1.267,0,0,0,1.251,1.465h7.8a1.48,1.48,0,0,0,1.46-1.248l1.742-11.047a2.112,2.112,0,0,1,2.086-1.782h4.808c10.01,0,15.787-4.844,17.3-14.445.68-4.2.027-7.5-1.939-9.808-2.161-2.539-5.991-3.882-11.075-3.882Z" fill="#fff"/>
    </g>
    <g id="Group_21" data-name="Group 21">
      <path id="Path_178" data-name="Path 178" d="M1102.052,824.243c-.831,5.455-5,5.455-9.026,5.455h-2.293l1.608-10.184a1.266,1.266,0,0,1,1.251-1.069h1.051c2.743,0,5.334,0,6.67,1.562.8.936,1.041,2.321.739,4.236Zm-1.754-14.231h-15.2a2.111,2.111,0,0,0-2.085,1.783l-6.145,38.964a1.268,1.268,0,0,0,1.251,1.465h7.256a2.112,2.112,0,0,0,2.086-1.783l1.658-10.512a2.111,2.111,0,0,1,2.085-1.782h4.809c10.009,0,15.786-4.844,17.3-14.445.68-4.2.028-7.5-1.938-9.808-2.162-2.539-5.992-3.882-11.076-3.882Z" fill="#fff"/>
    </g>
    <g id="Group_22" data-name="Group 22">
      <path id="Path_179" data-name="Path 179" d="M1135.577,838.232a8.113,8.113,0,0,1-8.213,6.949,5.638,5.638,0,0,1-6.026-7.076,8.143,8.143,0,0,1,8.155-7,6.131,6.131,0,0,1,4.851,1.982,6.263,6.263,0,0,1,1.233,5.146Zm10.142-14.163h-7.277a1.266,1.266,0,0,0-1.251,1.069l-.32,2.035-.509-.737c-1.576-2.288-5.088-3.052-8.6-3.052-8.039,0-14.907,6.092-16.243,14.636a13.735,13.735,0,0,0,2.709,11.179c2.22,2.613,5.389,3.7,9.164,3.7a13.932,13.932,0,0,0,10.074-4.163l-.325,2.023a1.268,1.268,0,0,0,1.252,1.465h6.553a2.111,2.111,0,0,0,2.085-1.782l3.934-24.909a1.267,1.267,0,0,0-1.251-1.464Z" fill="#fff"/>
    </g>
    <g id="Group_23" data-name="Group 23">
      <path id="Path_180" data-name="Path 180" d="M1243.964,838.232a8.113,8.113,0,0,1-8.213,6.949,5.638,5.638,0,0,1-6.026-7.076,8.142,8.142,0,0,1,8.154-7,6.131,6.131,0,0,1,4.852,1.982,6.266,6.266,0,0,1,1.233,5.146Zm10.141-14.163h-7.276a1.265,1.265,0,0,0-1.251,1.069l-.321,2.035-.508-.737c-1.576-2.288-5.088-3.052-8.595-3.052-8.039,0-14.907,6.092-16.244,14.636a13.738,13.738,0,0,0,2.709,11.179c2.221,2.613,5.39,3.7,9.165,3.7a13.932,13.932,0,0,0,10.074-4.163l-.325,2.023a1.267,1.267,0,0,0,1.251,1.465h6.553a2.112,2.112,0,0,0,2.086-1.782l3.934-24.909a1.267,1.267,0,0,0-1.252-1.464Z" fill="#fff"/>
    </g>
    <g id="Group_24" data-name="Group 24">
      <path id="Path_181" data-name="Path 181" d="M1184.475,824.069h-7.314a2.112,2.112,0,0,0-1.747.926l-10.089,14.859-4.276-14.279a2.112,2.112,0,0,0-2.023-1.506h-7.189a1.267,1.267,0,0,0-1.2,1.676l8.053,23.638-7.575,10.688a1.267,1.267,0,0,0,1.034,2h7.307a2.109,2.109,0,0,0,1.735-.909l24.324-35.1a1.267,1.267,0,0,0-1.041-1.989Z" fill="#fff"/>
    </g>
    <g id="Group_25" data-name="Group 25">
      <path id="Path_182" data-name="Path 182" d="M1262.682,811.082l-6.237,39.678a1.267,1.267,0,0,0,1.251,1.464h6.273a2.112,2.112,0,0,0,2.086-1.783l6.149-38.964a1.267,1.267,0,0,0-1.251-1.465h-7.02a1.267,1.267,0,0,0-1.251,1.07Z" fill="#fff"/>
    </g>
  </g>
</svg>
