<?xml version="1.0" encoding="utf-8"?>
<!-- Generator: Adobe Illustrator 22.1.0, SVG Export Plug-In . SVG Version: 6.00 Build 0)  -->
<svg version="1.1" id="Capa_1" xmlns="http://www.w3.org/2000/svg" xmlns:xlink="http://www.w3.org/1999/xlink" x="0px" y="0px"
	 viewBox="0 0 510 510" style="enable-background:new 0 0 510 510;" xml:space="preserve">
<style type="text/css">
	.st0{fill:#005BAA;}
	.st1{fill:#495662;}
</style>
<g>
	<g id="flights">
		<path class="st0" d="M318,117.3c-7.5-7.5-20.8-7.5-28.3,0l-51.8,51.8l-122.4-28.3l-18.8,18.8l99,51.8l-51.8,51.8l-33-4.7
			l-14.1,14.1l42.4,23.6l23.6,42.4l14.2-14.2l-4.7-33l51.8-51.8l51.8,99l18.8-18.8l-28.3-122.5l51.9-51.9
			C325.6,138.1,325.5,124.9,318,117.3z"/>
	</g>
</g>
<g>
	<path class="st1" d="M492.1,427.6l-96.2-96.1c50.6-80.9,40.9-189.6-29.6-260.1c-82-81.9-215.3-82-297.3,0
		c-82,82-81.8,215.2,0.2,297.1c70.5,70.5,178.5,80.8,260.2,29.5l96.2,96.1c18.4,18.5,48.2,18.7,66.7,0.2
		C510.7,475.8,510.5,446,492.1,427.6L492.1,427.6z M336.4,338.5C271,404,164.6,404,99.1,338.5c-65.4-65.4-65.4-171.8,0-237.2
		C164.6,36,271,36,336.4,101.3C401.7,166.7,401.7,273.1,336.4,338.5L336.4,338.5z"/>
</g>
<g id="Layer_1_1_">
</g>
</svg>
