<svg xmlns="http://www.w3.org/2000/svg" width="266.926" height="71.076" viewBox="0 0 266.926 71.076">
  <g id="TRUST_SECURE_LOGO_-_HP-02" data-name="TRUST SECURE LOGO - HP-02" transform="translate(-686 -793.724)">
    <g id="Safe_Secure" data-name="Safe Secure">
      <g id="Group_4" data-name="Group 4">
        <path id="Path_114" data-name="Path 114" d="M761.964,809.339a15.525,15.525,0,0,1-6.182-3,5.734,5.734,0,0,1-1.935-4.394,6.058,6.058,0,0,1,2.364-4.892,9.4,9.4,0,0,1,6.149-1.935,10.255,10.255,0,0,1,4.6,1,7.559,7.559,0,0,1,3.13,2.752A7.037,7.037,0,0,1,771.2,802.7H767.88a4.58,4.58,0,0,0-1.444-3.581,5.875,5.875,0,0,0-4.076-1.3,6.016,6.016,0,0,0-3.81,1.078,3.59,3.59,0,0,0-1.367,2.989,3.231,3.231,0,0,0,1.3,2.593,12.735,12.735,0,0,0,4.419,1.938,20.539,20.539,0,0,1,4.885,1.937,7.412,7.412,0,0,1,2.613,2.467,6.293,6.293,0,0,1,.851,3.319,5.853,5.853,0,0,1-2.373,4.876,10.123,10.123,0,0,1-6.345,1.831,11.761,11.761,0,0,1-4.816-.989,8.1,8.1,0,0,1-3.447-2.709,6.6,6.6,0,0,1-1.213-3.9h3.319a4.312,4.312,0,0,0,1.677,3.585,7.059,7.059,0,0,0,4.48,1.316,6.491,6.491,0,0,0,4.007-1.066,3.466,3.466,0,0,0,1.393-2.906,3.4,3.4,0,0,0-1.29-2.847A14.852,14.852,0,0,0,761.964,809.339Z" fill="#fff"/>
        <path id="Path_115" data-name="Path 115" d="M785.449,820.5a6.679,6.679,0,0,1-.448-1.961,7.1,7.1,0,0,1-5.3,2.3,6.569,6.569,0,0,1-4.515-1.557,5.032,5.032,0,0,1-1.762-3.946,5.259,5.259,0,0,1,2.21-4.515,10.423,10.423,0,0,1,6.216-1.607h3.1v-1.462a3.577,3.577,0,0,0-1-2.657,4.007,4.007,0,0,0-2.941-.989,4.633,4.633,0,0,0-2.855.86,2.534,2.534,0,0,0-1.152,2.081h-3.2a4.4,4.4,0,0,1,.989-2.692,6.742,6.742,0,0,1,2.683-2.054,9.014,9.014,0,0,1,3.723-.757,7.362,7.362,0,0,1,5.039,1.607,5.8,5.8,0,0,1,1.891,4.429v8.564a10.466,10.466,0,0,0,.654,4.076v.275Zm-5.28-2.425a5.6,5.6,0,0,0,2.838-.773,4.7,4.7,0,0,0,1.943-2.013v-3.817h-2.494q-5.847,0-5.847,3.422a2.892,2.892,0,0,0,1,2.338A3.833,3.833,0,0,0,780.169,818.075Z" fill="#fff"/>
        <path id="Path_116" data-name="Path 116" d="M793.663,820.5V804.352h-2.941v-2.459h2.941v-1.91a6.339,6.339,0,0,1,1.6-4.626,6.044,6.044,0,0,1,4.523-1.633,8.386,8.386,0,0,1,2.184.291l-.172,2.563a9.241,9.241,0,0,0-1.72-.154,3.1,3.1,0,0,0-2.39.906,3.672,3.672,0,0,0-.843,2.6v1.967h3.972v2.459h-3.972V820.5Z" fill="#fff"/>
        <path id="Path_117" data-name="Path 117" d="M811.025,820.844a8.129,8.129,0,0,1-6.157-2.485,9.224,9.224,0,0,1-2.373-6.647v-.584a11.164,11.164,0,0,1,1.057-4.944,8.263,8.263,0,0,1,2.958-3.406,7.443,7.443,0,0,1,4.119-1.229,6.971,6.971,0,0,1,5.641,2.39q2.012,2.391,2.012,6.844v1.324H805.676a6.619,6.619,0,0,0,1.608,4.447,5.056,5.056,0,0,0,3.913,1.693,5.547,5.547,0,0,0,2.854-.687,7.18,7.18,0,0,0,2.047-1.824l1.943,1.514A7.813,7.813,0,0,1,811.025,820.844Zm-.4-16.682a4.245,4.245,0,0,0-3.233,1.4,6.817,6.817,0,0,0-1.617,3.93H815.1v-.241a6.063,6.063,0,0,0-1.308-3.758A4,4,0,0,0,810.629,804.162Z" fill="#fff"/>
      </g>
      <g id="Group_5" data-name="Group 5">
        <path id="Path_118" data-name="Path 118" d="M827.595,814.538a5.2,5.2,0,0,1,.892-2.943,13.591,13.591,0,0,1,3.408-3.126,14.674,14.674,0,0,1-1.982-2.9,5.618,5.618,0,0,1,.991-6.145,5.617,5.617,0,0,1,4.056-1.434,5.469,5.469,0,0,1,3.782,1.335,4.316,4.316,0,0,1,1.494,3.362,4.746,4.746,0,0,1-.678,2.478,8.83,8.83,0,0,1-2.371,2.387l-1.632,1.2,4.941,5.9a9.36,9.36,0,0,0,1.036-4.406h2.547a10.634,10.634,0,0,1-1.875,6.45l3.171,3.8H841.99l-1.479-1.754a7.748,7.748,0,0,1-2.646,1.533,9.356,9.356,0,0,1-3.088.526,7.635,7.635,0,0,1-5.215-1.723A5.743,5.743,0,0,1,827.595,814.538Zm7.182,3.964a5.935,5.935,0,0,0,4.1-1.707l-5.413-6.482-.5.367q-2.545,1.875-2.546,3.858a3.744,3.744,0,0,0,1.167,2.882A4.509,4.509,0,0,0,834.777,818.5Zm-2.547-15.2a6.405,6.405,0,0,0,1.8,3.66l1.8-1.266a4.8,4.8,0,0,0,1.419-1.4,3.2,3.2,0,0,0,.381-1.609,2.178,2.178,0,0,0-.763-1.7,2.784,2.784,0,0,0-1.921-.678,2.491,2.491,0,0,0-1.983.845A3.168,3.168,0,0,0,832.23,803.3Z" fill="#fff"/>
      </g>
      <g id="Group_6" data-name="Group 6">
        <path id="Path_119" data-name="Path 119" d="M861.608,809.339a15.525,15.525,0,0,1-6.182-3,5.733,5.733,0,0,1-1.935-4.394,6.058,6.058,0,0,1,2.364-4.892A9.4,9.4,0,0,1,862,795.117a10.255,10.255,0,0,1,4.6,1,7.559,7.559,0,0,1,3.13,2.752,7.037,7.037,0,0,1,1.109,3.835h-3.319a4.58,4.58,0,0,0-1.444-3.581,5.875,5.875,0,0,0-4.076-1.3,6.016,6.016,0,0,0-3.81,1.078,3.59,3.59,0,0,0-1.367,2.989,3.231,3.231,0,0,0,1.3,2.593,12.736,12.736,0,0,0,4.419,1.938,20.538,20.538,0,0,1,4.885,1.937,7.412,7.412,0,0,1,2.613,2.467,6.293,6.293,0,0,1,.852,3.319,5.851,5.851,0,0,1-2.374,4.876,10.123,10.123,0,0,1-6.345,1.831,11.761,11.761,0,0,1-4.816-.989,8.1,8.1,0,0,1-3.447-2.709,6.6,6.6,0,0,1-1.213-3.9h3.319a4.312,4.312,0,0,0,1.677,3.585,7.059,7.059,0,0,0,4.48,1.316,6.491,6.491,0,0,0,4.007-1.066,3.465,3.465,0,0,0,1.393-2.906,3.4,3.4,0,0,0-1.29-2.847A14.851,14.851,0,0,0,861.608,809.339Z" fill="#fff"/>
        <path id="Path_120" data-name="Path 120" d="M881.327,820.844a8.129,8.129,0,0,1-6.157-2.485,9.225,9.225,0,0,1-2.374-6.647v-.584a11.164,11.164,0,0,1,1.058-4.944,8.256,8.256,0,0,1,2.958-3.406,7.443,7.443,0,0,1,4.119-1.229,6.972,6.972,0,0,1,5.641,2.39q2.012,2.391,2.011,6.844v1.324h-12.6a6.619,6.619,0,0,0,1.608,4.447,5.056,5.056,0,0,0,3.913,1.693,5.547,5.547,0,0,0,2.854-.687,7.162,7.162,0,0,0,2.046-1.824l1.944,1.514A7.813,7.813,0,0,1,881.327,820.844Zm-.4-16.682a4.245,4.245,0,0,0-3.233,1.4,6.817,6.817,0,0,0-1.617,3.93H885.4v-.241a6.056,6.056,0,0,0-1.307-3.758A4,4,0,0,0,880.931,804.162Z" fill="#fff"/>
        <path id="Path_121" data-name="Path 121" d="M898.706,818.247a4.581,4.581,0,0,0,2.975-1.032,3.624,3.624,0,0,0,1.41-2.579h3.01a5.771,5.771,0,0,1-1.1,3.044,7.243,7.243,0,0,1-2.708,2.3,7.807,7.807,0,0,1-3.586.86,7.666,7.666,0,0,1-6.045-2.536,10.106,10.106,0,0,1-2.244-6.94v-.533a11.2,11.2,0,0,1,1-4.832,7.594,7.594,0,0,1,2.863-3.285,8.129,8.129,0,0,1,4.411-1.169,7.467,7.467,0,0,1,5.2,1.874,6.7,6.7,0,0,1,2.21,4.867h-3.01a4.383,4.383,0,0,0-1.367-2.967,4.256,4.256,0,0,0-3.035-1.161,4.453,4.453,0,0,0-3.758,1.746,8.2,8.2,0,0,0-1.332,5.047v.6a8.03,8.03,0,0,0,1.324,4.952A4.473,4.473,0,0,0,898.706,818.247Z" fill="#fff"/>
        <path id="Path_122" data-name="Path 122" d="M920.145,818.66a6.76,6.76,0,0,1-5.452,2.184,5.779,5.779,0,0,1-4.531-1.729A7.473,7.473,0,0,1,908.588,814V801.893h3.182v12.02q0,4.23,3.439,4.231,3.645,0,4.85-2.717V801.893h3.181V820.5h-3.027Z" fill="#fff"/>
        <path id="Path_123" data-name="Path 123" d="M936.045,804.747a9.555,9.555,0,0,0-1.565-.12,4.2,4.2,0,0,0-4.248,2.666V820.5h-3.181V801.893h3.095l.052,2.149a4.955,4.955,0,0,1,4.437-2.493,3.256,3.256,0,0,1,1.41.24Z" fill="#fff"/>
        <path id="Path_124" data-name="Path 124" d="M945.67,820.844a8.127,8.127,0,0,1-6.157-2.485,9.225,9.225,0,0,1-2.374-6.647v-.584a11.164,11.164,0,0,1,1.058-4.944,8.26,8.26,0,0,1,2.957-3.406,7.448,7.448,0,0,1,4.119-1.229,6.97,6.97,0,0,1,5.641,2.39q2.013,2.391,2.012,6.844v1.324H940.32a6.62,6.62,0,0,0,1.609,4.447,5.056,5.056,0,0,0,3.913,1.693,5.54,5.54,0,0,0,2.853-.687,7.152,7.152,0,0,0,2.047-1.824l1.944,1.514A7.814,7.814,0,0,1,945.67,820.844Zm-.4-16.682a4.244,4.244,0,0,0-3.232,1.4,6.816,6.816,0,0,0-1.617,3.93h9.321v-.241a6.063,6.063,0,0,0-1.308-3.758A3.994,3.994,0,0,0,945.273,804.162Z" fill="#fff"/>
      </g>
    </g>
    <g id="Path_41" data-name="Path 41">
      <path id="Path_125" data-name="Path 125" d="M738.09,829.57a4.53,4.53,0,0,0-4.52-4.52h-5.23V818.2c.08-1.13.49-9.1-4.66-14.28-2.86-2.87-6.81-4.33-11.73-4.33s-8.86,1.46-11.73,4.33c-5.15,5.18-4.74,13.15-4.65,14.28v6.86h-5.06a4.51,4.51,0,0,0-4.51,4.51h0v30.71a4.521,4.521,0,0,0,4.51,4.52h43.08a4.529,4.529,0,0,0,4.52-4.52Zm-28.14,22.91-1.86,1.85-2.16-3.82-4-2.35,1.86-1.86,2.34,1.36,3.83-3.83-4.94-4.94,1.85-1.85,5.94,3.95,2.09-2.1a1.75,1.75,0,1,1,2.625,2.315,1.622,1.622,0,0,1-.155.155l-2.09,2.1,3.95,5.93-1.85,1.85-4.94-4.94-3.81,3.81Zm-9-34.58c0-.07-.54-6.8,3.24-10.6,1.82-1.83,4.35-2.72,7.73-2.72s5.9.88,7.72,2.7c3.83,3.83,3.26,10.56,3.26,10.62v7.16H700.99V817.9Z" fill="#fff"/>
    </g>
    <g id="Path_42" data-name="Path 42">
      <path id="Path_126" data-name="Path 126" d="M767.51,834.36l4.83,9.79,10.8,1.57-7.81,7.62,1.84,10.76-9.66-5.08-9.66,5.08,1.84-10.76-7.81-7.62,10.8-1.57Z" fill="#fff"/>
    </g>
    <g id="Path_43" data-name="Path 43">
      <path id="Path_127" data-name="Path 127" d="M808.51,834.36l4.83,9.79,10.8,1.57-7.81,7.62,1.84,10.76-9.66-5.08-9.66,5.08,1.84-10.76-7.81-7.62,10.8-1.57Z" fill="#fff"/>
    </g>
    <g id="Path_44" data-name="Path 44">
      <path id="Path_128" data-name="Path 128" d="M849.51,834.36l4.83,9.79,10.8,1.57-7.81,7.62,1.84,10.76-9.66-5.08-9.66,5.08,1.84-10.76-7.81-7.62,10.8-1.57Z" fill="#fff"/>
    </g>
    <g id="Path_45" data-name="Path 45">
      <path id="Path_129" data-name="Path 129" d="M890.51,834.36l4.83,9.79,10.8,1.57-7.81,7.62,1.84,10.76-9.66-5.08-9.66,5.08,1.84-10.76-7.81-7.62,10.8-1.57Z" fill="#fff"/>
    </g>
    <g id="Path_46" data-name="Path 46">
      <path id="Path_130" data-name="Path 130" d="M931.51,834.36l4.83,9.79,10.8,1.57-7.81,7.62,1.84,10.76-9.66-5.08-9.66,5.08,1.84-10.76-7.81-7.62,10.8-1.57Z" fill="#fff"/>
    </g>
  </g>
</svg>
