<svg xmlns="http://www.w3.org/2000/svg" width="196" height="291"><filter id="a" width="196" height="291" x="0" y="0" filterUnits="userSpaceOnUse"><feOffset dy="3"/><feGaussianBlur result="blur" stdDeviation="3"/><feFlood flood-opacity=".16"/><feComposite in2="blur" operator="in"/><feComposite in="SourceGraphic"/></filter><rect width="178" height="273" fill="#fff" filter="url(#a)" rx="8" transform="translate(9 6)"/><path fill="#fff" d="M175.14 265.98H21V19.16h154.14z"/><path fill="#006e9e" d="M174.75 197.63H21.13v-87.31h153.62z"/><path fill="#bcbbc4" d="M26.2 197.63h-5.07v-87.31h55.8z"/><g fill="#231f20"><path d="M44.54 29.18c-.35-1.67-1.33-2.28-2.32-2.28h-.03v4.53c0 4 .02 4.17.23 4.4a1.2 1.2 0 0 0 .88.25v.28h-4.8v-.28a1.2 1.2 0 0 0 .89-.26c.2-.22.23-.4.23-4.39V26.9h-.04c-.98 0-1.97.6-2.3 2.28H37v-2.74h7.81v2.74h-.28M50.51 36.36v-.28a.86.86 0 0 0 .68-.22c.24-.24.27-.46.27-4.23H48.7c0 3.77.03 4 .26 4.23a.85.85 0 0 0 .69.22v.28H45.2v-.28a.86.86 0 0 0 .69-.22c.23-.24.26-.47.26-4.46s-.03-4.22-.26-4.46a.87.87 0 0 0-.69-.22v-.28h4.46v.28a.86.86 0 0 0-.69.22c-.22.23-.26.44-.26 4.05h2.75c0-3.61-.04-3.82-.27-4.05a.87.87 0 0 0-.68-.22v-.28h4.45v.28a.86.86 0 0 0-.68.22c-.24.24-.26.46-.26 4.46s.02 4.22.26 4.46a.85.85 0 0 0 .68.22v.28zM62.7 36.36h-7.21v-.28a.86.86 0 0 0 .68-.22c.24-.24.26-.47.26-4.46s-.02-4.22-.26-4.46a.87.87 0 0 0-.68-.22v-.28h7.08l.04 2.74h-.28c-.29-1.34-.88-2.2-2.26-2.2H59v4.01h.52c1.15 0 1.72-.29 1.87-1.39h.28v3.53h-.28c-.16-1.09-.72-1.5-1.87-1.5h-.52l.02 2.5c0 1.18.2 1.7 1.38 1.7 1.24 0 1.87-.83 2.19-2.28h.28l-.16 2.82M68.9 36.49a17.64 17.64 0 0 1-2.2-.34.97.97 0 0 0-.58.2h-.23v-2.8h.27a2.46 2.46 0 0 0 2.57 2.4 1.42 1.42 0 0 0 1.63-1.45c0-2.3-4.53-2.08-4.53-5.17a2.87 2.87 0 0 1 3.15-3.02 18.17 18.17 0 0 1 2 .3.62.62 0 0 0 .5-.17h.22v2.73h-.27c-.27-1.07-.93-2.34-2.45-2.34-1 0-1.45.56-1.45 1.18 0 2.04 4.82 1.9 4.82 5.37a3.17 3.17 0 0 1-3.44 3.1M80.66 28.2v4.22c0 2.4-.87 4.07-3.58 4.07-2.58 0-3.66-1.47-3.66-3.09v-3.56c0-2-.09-2.73-.26-2.9a.87.87 0 0 0-.68-.22v-.27h4.45v.27a.87.87 0 0 0-.68.22c-.19.19-.27.89-.27 3v3.87a1.65 1.65 0 0 0 1.8 1.88c1.4 0 2.13-1.05 2.13-3.2v-4.28c0-1.05-.1-1.35-1.03-1.48v-.28h2.82v.28c-.93.13-1.04.43-1.04 1.48M90.2 28.2v8.16H88.8l-5.1-7.06v5.3c0 1.05.1 1.35 1.03 1.48v.28h-2.82v-.28c.93-.13 1.04-.43 1.04-1.48v-3.2c0-4-.03-4.22-.27-4.46a.87.87 0 0 0-.68-.22v-.27h3.26l4.18 5.85v-4.1c0-1.05-.11-1.35-1.04-1.48v-.27h2.82v.27c-.93.13-1.04.43-1.04 1.48M95.84 26.97h-.58v7.27c0 .99.17 1.58 1.3 1.58 1.3 0 1.72-1.67 1.72-4.45 0-2.44-.59-4.4-2.44-4.4zm.55 9.39h-4.64v-.28a.85.85 0 0 0 .69-.22c.23-.24.26-.47.26-4.46s-.03-4.22-.26-4.46a.86.86 0 0 0-.69-.22v-.28h4.42c3.08 0 4.78 1.83 4.78 4.97 0 2.8-1 4.95-4.56 4.95M104.3 29.32l-1.02 3.2h2.13zm.77 7.04v-.28c.8-.07 1.2-.26 1.2-.72a11.9 11.9 0 0 0-.65-2.2h-2.55a14.35 14.35 0 0 0-.57 2.08c0 .52.32.83.92.83v.28h-3.2v-.27c.99-.2 1.17-.37 1.7-1.93l2.56-7.7h1.72l2.84 8.23c.32.94.52 1.33 1.22 1.4v.27h-5.19M116.17 28.33l-1.71 3.6c0 3.48.04 3.7.26 3.93.12.12.3.21.85.22v.28h-4.79v-.28c.57 0 .74-.1.85-.22.23-.22.27-.45.27-3.93l-1.79-3.44c-.85-1.65-.92-1.7-1.68-1.77v-.28h4.69v.28c-.6.03-.83.17-.83.52 0 .16.07.35.48 1.16l1.32 2.67 1.12-2.35a4.71 4.71 0 0 0 .55-1.46c0-.28-.17-.51-.74-.54v-.28h2.7v.28c-.78.1-.9.25-1.55 1.61M127.26 29.18c-.34-1.67-1.32-2.28-2.31-2.28h-.04v4.53c0 4 .03 4.17.24 4.4a1.18 1.18 0 0 0 .88.25v.28h-4.8v-.28a1.19 1.19 0 0 0 .88-.26c.21-.22.24-.4.24-4.39V26.9h-.04c-.99 0-1.97.6-2.31 2.28h-.28v-2.74h7.82v2.74zM127.93 36.36v-.28a.86.86 0 0 0 .68-.22c.24-.24.26-.47.26-4.46s-.02-4.22-.26-4.46a.87.87 0 0 0-.68-.22v-.28h4.45v.28a.88.88 0 0 0-.68.22c-.24.24-.26.46-.26 4.46s.02 4.22.26 4.46a.87.87 0 0 0 .68.22v.28zM139.64 36.36v-.28a.86.86 0 0 0 .69-.22c.23-.24.26-.47.26-4.46v-2.67l-2.6 7.64h-.82l-2.67-7.64v5.87c0 1.05.1 1.35 1.03 1.48v.28h-2.62v-.28c.82-.12.94-.43.94-1.48v-3.2c0-4-.02-4.22-.26-4.45a.87.87 0 0 0-.68-.23v-.27h3.69l2.02 6.03 2.09-6.03h3.38v.27a.87.87 0 0 0-.68.23c-.23.23-.26.46-.26 4.45s.03 4.23.26 4.46a.86.86 0 0 0 .69.23v.27h-4.46M151.83 36.36h-7.2v-.28a.86.86 0 0 0 .67-.22c.24-.24.27-.47.27-4.46s-.03-4.22-.27-4.46a.87.87 0 0 0-.68-.22v-.28h7.08l.04 2.74h-.28c-.29-1.34-.88-2.2-2.26-2.2h-1.07v4.01h.51c1.15 0 1.72-.29 1.88-1.39h.27v3.53h-.27c-.16-1.09-.73-1.5-1.88-1.5h-.51v2.5c0 1.18.22 1.7 1.39 1.7 1.25 0 1.88-.83 2.2-2.28h.27l-.16 2.82M155.59 36.49a17.7 17.7 0 0 1-2.21-.34.97.97 0 0 0-.58.2h-.24l.16-2.8h.28a2.29 2.29 0 0 0 2.41 2.41 1.42 1.42 0 0 0 1.63-1.45c0-2.3-4.53-2.09-4.53-5.18a2.87 2.87 0 0 1 3.15-3.02 18.1 18.1 0 0 1 2 .3.62.62 0 0 0 .5-.17h.23v2.73h-.28c-.27-1.06-.93-2.33-2.45-2.33-1 0-1.45.56-1.45 1.18 0 2.03 4.82 1.9 4.82 5.37a3.17 3.17 0 0 1-3.44 3.1"/></g><path fill="#fff" d="M132.53 149.27V140c0-3.74 2.6-6.6 7.07-6.6a8.61 8.61 0 0 1 1.94.21l5.84-10.14a27.3 27.3 0 0 0-7.94-1.14c-9.82 0-19.94 4.93-20.56 16.82l13.64 10.14"/><path fill="#fff" d="M146.44 163c0 3.5-2.23 7.02-6.84 7.02-4.4 0-6.78-2.82-7.05-6.13l-13.7-10.19v9.7c0 12.98 10.9 17.6 20.74 17.6 9.77 0 20.53-5.33 20.53-17.75v-22.78a17.51 17.51 0 0 0-3.08-10.42l-10.6 18.46v14.5M93.82 181c9.64-.16 20.1-5.51 20.1-17.75v-13.21l-.57-.42L93.82 181M88.13 168a6.78 6.78 0 0 1-1.81-4.75v-23.26c0-3.74 2.61-6.6 7.07-6.6 4.38 0 6.84 2.86 6.84 6.45v8.7l9.88-15.91 3.05 2.26c-2.57-8.9-11.38-12.57-19.92-12.57-10.15 0-20.6 5.25-20.6 18v20.94l12.67 11.28 2.82-4.53M59.54 122.72h-5.55l-18.4 3.63.82 9.4 10.3-.9v35.37H35.93v9.51H52.3l7.25-11.54v-45.46M69.39 179.73v-5.2l-3.27 5.2z"/><path fill="#d82d2b" d="M41.82 196.4h13.84l10.46-16.67H52.3zM118.88 139.14l-5.72-4.25a20 20 0 0 1 .75 5.58v9.57l4.93 3.66v-13.39c0-.4.01-.79.03-1.17M132.53 163.24c0 .22 0 .44.02.65l3.54 2.63 10.35-18v-8.69a6.1 6.1 0 0 0-4.9-6.23l-9.01 15.67zM171.24 119.5l-2.86-20.57-19.34 7.6 6.04 3.53-7.7 13.4a18.08 18.08 0 0 1 9.66 6.59l8.1-14.1 6.1 3.55M72.64 163.4v-2.14l-5.62-5-7.48 11.93v2.03h9.85v4.3l.21-.34 18.3 16.34 5.92-9.52h-.43c-9.84 0-20.75-4.62-20.75-17.6M93.39 170.02c4.61 0 6.84-3.5 6.84-7.01v-14.47L88.13 168a7.06 7.06 0 0 0 5.26 2"/><path fill="#ea8a74" d="M132.53 163.25v-13.98l-13.65-10.14c-.02.39-.03.78-.03 1.18v13.4l13.7 10.18a7.3 7.3 0 0 1-.02-.64M147.38 123.46l-5.84 10.14a6.1 6.1 0 0 1 4.9 6.24v8.68l10.6-18.47a18.08 18.08 0 0 0-9.66-6.6M113.16 134.9l-3.05-2.27-9.88 15.9v14.48c0 3.5-2.23 7-6.84 7a7.06 7.06 0 0 1-5.26-2l-2.82 4.53-12.67-11.28v2.15c0 12.97 10.91 17.6 20.75 17.6l.43-.01 19.53-31.38.56.42v-9.56a20 20 0 0 0-.75-5.58M59.53 170.22v-2.03l-7.24 11.54h13.83l3.27-5.2v-4.31z"/><path fill="#d82d2b" d="M175.07 191.89H21.44v22.3h153.63z"/><path fill="none" stroke="#231f20" stroke-width="1.86" d="M174.8 266.37H21.35V19.51H174.8z"/><path fill="#fff" d="M71.56 210.94v-2.36s4.55-5.07 4.73-5.41c1.2-1.38 2.05-2.4 2.05-3.7 0-.97-.34-1.87-1.8-1.87-1.26 0-1.78.8-1.78 1.93v.45H71.1v-.76c0-3.07 2.4-4.6 5.72-4.6 3.54 0 5.37 2.03 5.37 4.75 0 2.75-2.37 4.85-4.1 6.7l-1.56 1.66v.05h5.8v3.15H71.55M93.4 199.56a1.81 1.81 0 0 0-2-1.82 1.87 1.87 0 0 0-2.07 1.87v6.58a1.89 1.89 0 0 0 2.07 1.91 1.9 1.9 0 0 0 2-1.98zm-2 11.65c-2.88 0-6.08-1.3-6.08-4.98v-6.53c0-3.61 3.06-5.1 6.04-5.1s6.06 1.47 6.06 5.14v6.45c0 3.51-3.16 5.02-6.02 5.02M100.56 210.94v-2.7h3.1V198.2l-3.03.2v-2.7l5.22-.95h1.58v13.5h2.89v2.7h-9.76M118.93 197.27a2 2 0 0 0-1.98 2.21c0 1.29.53 2.47 1.98 2.47a2.06 2.06 0 0 0 2.03-2.3 2.12 2.12 0 0 0-2.03-2.38zm-4.7 9.64a5.92 5.92 0 0 0 3.27.82c2.76 0 3.6-1.82 3.63-4.56h-.05a3.78 3.78 0 0 1-3.36 1.58 4.56 4.56 0 0 1-4.65-4.9c0-2.87 2.4-5.25 5.83-5.25 4.43 0 5.97 3.47 5.97 7.37 0 4.76-1.72 8.7-6.86 8.7a10.59 10.59 0 0 1-4.03-.71l.25-3.05"/><path fill="#231f20" d="M73.45 258.2h-2.01v-6.17H63v6.16H61v-14.16H63v6.17h8.44v-6.17h2.01v14.16M78.64 258.2h-2.01v-14.17h2.01zM89.65 246.67a5.31 5.31 0 0 0-3.47-1.16c-1.44 0-2.7.64-2.7 1.84 0 2.72 7.24 2.73 7.24 7.24 0 2.93-3 3.9-5.3 3.8a7.35 7.35 0 0 1-3.99-1.2v-2.02a7.72 7.72 0 0 0 3.71 1.33c1.48.12 3.6-.23 3.6-1.97 0-2.93-7.3-3.02-7.3-6.9 0-2.3 2.03-3.79 4.52-3.79a6.93 6.93 0 0 1 3.7.93v1.9M113.59 256.51a5.32 5.32 0 0 0 5.53-5.4 5.3 5.3 0 0 0-5.53-5.4 5.3 5.3 0 0 0-5.5 5.4 5.31 5.31 0 0 0 5.5 5.4zm0-12.67a7.21 7.21 0 0 1 7.62 7.27 7.25 7.25 0 0 1-7.66 7.27 7.24 7.24 0 0 1-7.56-7.27 7.26 7.26 0 0 1 7.6-7.27M104.12 254.61a5.52 5.52 0 0 1-4.29 1.9 5.31 5.31 0 0 1-5.5-5.4 5.3 5.3 0 0 1 5.5-5.4 5.53 5.53 0 0 1 4.21 1.8l1.06-1.79a7.77 7.77 0 0 0-5.27-1.88 7.26 7.26 0 0 0-7.6 7.27 7.24 7.24 0 0 0 7.57 7.27 7.76 7.76 0 0 0 5.4-1.98z"/><path fill="#231f20" d="M129.11 250.87l6.05 7.33h-2.45l-4.82-5.86-4.89 5.86h-2.47l6.11-7.33-5.67-6.84h2.47l4.45 5.4 4.42-5.4h2.45z"/><path fill="#ed192d" d="M96.39 238.74a1.75 1.75 0 0 1-1.41.64.48.48 0 0 1-.11 0h-.06.05-.03a1.45 1.45 0 0 0 .83-1.18 3.22 3.22 0 0 0-.05-1.38 1.72 1.72 0 0 0-1.16-1.37 1.17 1.17 0 0 0-1.55.63c-.03.22-.04.82.43.95h.02l-.02.02a1.86 1.86 0 0 1-2.47-.1 2.55 2.55 0 0 1 .56-4.04c2.26-1.38 4.05.62 4.33.95a4.49 4.49 0 0 1 1.13 2.48 3.46 3.46 0 0 1-.49 2.41M104.69 232.9c-2.27-1.38-4.05.62-4.33.95a4.5 4.5 0 0 0-1.14 2.48 3.46 3.46 0 0 0 .5 2.41 1.75 1.75 0 0 0 1.4.64.47.47 0 0 0 .12 0h.05-.04.02a1.45 1.45 0 0 1-.83-1.18 3.23 3.23 0 0 1 .05-1.38 1.72 1.72 0 0 1 1.16-1.37 1.17 1.17 0 0 1 1.55.63c.03.22.05.82-.43.95h-.02a.1.1 0 0 0 .02.02 1.87 1.87 0 0 0 2.48-.1 2.55 2.55 0 0 0-.56-4.04M100.06 224.97a11.5 11.5 0 0 0-2-2.68 11.53 11.53 0 0 0-2.02 2.68 5.8 5.8 0 0 0-.42 5.12c.19.6 1.1 2.8 1.49 3.67a18.48 18.48 0 0 1 .94 3.83 18.52 18.52 0 0 1 .94-3.83 65.1 65.1 0 0 0 1.5-3.67 5.8 5.8 0 0 0-.43-5.12"/><path fill="#bcbbc4" d="M77.38 51.47h-3.96v19.8h-5.04v-19.8h-3.96v-3.73h12.96zM85.78 51.47v6.08h6.16v3.73h-6.16v6.26h7.47v3.73h-12.5V47.74h12.5v3.73zM110.92 62.87v3.05c0 3.2-2.62 5.59-7.29 5.59s-7.31-2.4-7.31-5.59V53.08c0-3.2 2.65-5.58 7.31-5.58s7.29 2.39 7.29 5.58v3.06h-4.86v-3.06c0-1.07-1.04-1.78-2.43-1.78s-2.27.7-2.27 1.78v12.84c0 1.25.9 1.79 2.27 1.79s2.43-.54 2.43-1.79v-3.05zM129.47 47.74v23.53h-5.04V61.3h-4.7v9.98h-5.04V47.74h5.04v9.81h4.7v-9.81h5.04"/><path fill="#006e9e" d="M67.41 81.5h-3.96v19.8h-5.04V81.5h-3.96v-3.73h12.96zM75.81 81.5v6.6h2.54c1.46 0 1.8-.71 1.8-1.62v-3.36c0-.74-.34-1.61-1.8-1.61zm9.82 19.8H80.6l-.74-7.5c-.23-1.57-.98-2.01-2.28-2.01H75.8v9.51h-5.04V77.77h7.92c4.7 0 6.5 2.32 6.5 5.18v2.55a4.28 4.28 0 0 1-2.88 4.44 4.27 4.27 0 0 1 2.4 3.63l.93 7.73M97.4 92.13l-1.46-7.26-1.46 7.26zm.78 3.73h-4.44l-1.12 5.45h-5.15l6.08-23.7h5.04l5.9 23.7h-5.22l-1.09-5.45M121.26 92.9v3.06c0 3.2-2.62 5.58-7.28 5.58s-7.32-2.38-7.32-5.58V83.12c0-3.2 2.65-5.58 7.32-5.58s7.28 2.39 7.28 5.58v3.06h-4.86v-3.06c0-1.08-1.05-1.78-2.43-1.78s-2.27.7-2.27 1.78v12.84c0 1.25.9 1.78 2.27 1.78s2.43-.54 2.43-1.78V92.9h4.85M135.71 101.3l-5.63-10.41v10.42h-5.04V77.77h5.04V87.9l5.63-10.12h5.68l-6.65 11.37 6.84 12.17h-5.87"/></svg>