<svg viewBox="-30 -15 640 260" xmlns="http://www.w3.org/2000/svg"><g fill="#1a2070"><path d="m239 4-30 175h48l30-175zm-70 0-47 119-5-24-1-2v2c-11-29-33-54-65-72l42 152h51l75-175zm214 70c-17-9-27-14-27-22 0-7 9-15 27-15a88 88 0 0 1 36 6l5 2 6-38a124 124 0 0 0 -43-7c-47 0-81 24-81 58 0 25 24 39 42 48 19 8 25 14 25 22 0 11-15 17-29 17-19 0-29-3-45-10l-6-2-7 39c12 5 32 9 54 9 50 0 83-23 83-60 0-20-12-35-40-47zm170-70h-37c-11 0-20 3-25 14l-71 161h50l10-26h62l6 26h44zm-58 113 19-49 6-17 3 15 11 51z"/><path d="m116 97-16-79c-3-11-12-14-22-14h-77l-1 3a201 201 0 0 1 51 20l-1-2c30 15 56 44 66 72z"/><path d="m116 99v-2c-10-28-36-57-66-72l1 2c32 18 54 43 65 72z"/></g></svg>