<svg xmlns="http://www.w3.org/2000/svg" width="101.79" height="101.79" viewBox="0 0 101.79 101.79">
  <g id="Group_33" data-name="Group 33" transform="translate(-1161.718 -471.455)">
    <g id="Group_25" data-name="Group 25" transform="translate(1161.718 471.455)">
      <circle id="Ellipse_1" data-name="Ellipse 1" cx="50.895" cy="50.895" r="50.895" transform="translate(0 0)" fill="#005ba9"/>
    </g>
    <g id="baseline-airline_seat_recline_normal-24px" transform="translate(1196.199 501.199)">
      <path id="Path_765" data-name="Path 765" d="M9.788,7.5a3.227,3.227,0,1,1,4.563,0A3.231,3.231,0,0,1,9.788,7.5ZM7.225,24.576V10.065H4V24.576a8.065,8.065,0,0,0,8.062,8.062h9.674V29.413H12.062A4.831,4.831,0,0,1,7.225,24.576ZM29.8,31.138l-8.175-8.175h-5.53V17.03a15.353,15.353,0,0,0,8.868,3.483V17.03a10.89,10.89,0,0,1-7.53-3.289l-2.257-2.5a3.459,3.459,0,0,0-1.113-.806,3.588,3.588,0,0,0-1.548-.371h-.048a3.633,3.633,0,0,0-3.628,3.628v9.271A4.831,4.831,0,0,0,13.674,27.8h8.175l5.643,5.643Z" transform="translate(2.449 1.222)" fill="#fff"/>
      <path id="Path_766" data-name="Path 766" d="M0,0H38.7V38.7H0Z" fill="none"/>
    </g>
  </g>
</svg>
