<svg xmlns="http://www.w3.org/2000/svg" xmlns:xlink="http://www.w3.org/1999/xlink" width="101.79" height="101.79" viewBox="0 0 101.79 101.79">
  <defs>
    <filter id="Path_1074" x="8.388" y="14.278" width="84.874" height="84.874" filterUnits="userSpaceOnUse">
      <feOffset dy="6" input="SourceAlpha"/>
      <feGaussianBlur stdDeviation="9" result="blur"/>
      <feFlood flood-opacity="0.059"/>
      <feComposite operator="in" in2="blur"/>
      <feComposite in="SourceGraphic"/>
    </filter>
  </defs>
  <g id="Group_30" data-name="Group 30" transform="translate(-176.073 -469.744)">
    <circle id="Ellipse_6" data-name="Ellipse 6" cx="50.895" cy="50.895" r="50.895" transform="translate(176.073 469.744)" fill="#005ba9"/>
    <g transform="matrix(1, 0, 0, 1, 176.07, 469.74)" filter="url(#Path_1074)">
      <path id="Path_1074-2" data-name="Path 1074" d="M28.845,6.233a8.934,8.934,0,0,0,2.03-4.716,1.744,1.744,0,0,0-.239-.963.769.769,0,0,0-.14-.18.809.809,0,0,0-.165-.128A1.717,1.717,0,0,0,29.354,0a8.911,8.911,0,0,0-4.714,2.03A40.628,40.628,0,0,0,20,6.5q-.483.509-1.02,1.071L15.3,6.471l.011-.011a.825.825,0,0,0,0-1.161l-.664-.665a.827.827,0,0,0-.585-.243.813.813,0,0,0-.583.241l-.994.994-.526-.157a.823.823,0,0,0-.066-1.087l-.667-.667a.826.826,0,0,0-.585-.24.807.807,0,0,0-.579.241l-.912.911L5.41,3.508a.936.936,0,0,0-.267-.038.991.991,0,0,0-.692.28L3.136,5.065a.775.775,0,0,0-.231.542.755.755,0,0,0,.4.676l7.864,4.393a1.372,1.372,0,0,1,.191.145L13.6,13.063c-2.1,2.209-3.965,4.349-5.421,6.21-.136.173-.265.342-.391.509L1.706,19.23a.823.823,0,0,0-.1-.006,1.122,1.122,0,0,0-.754.312l-.613.613A.761.761,0,0,0,0,20.689a.748.748,0,0,0,.442.688l4.28,2.033a1,1,0,0,1,.164.118l.355.353a2.6,2.6,0,0,0-.171.823,1.08,1.08,0,0,0,.3.789l.015.013,0,0a1.083,1.083,0,0,0,.787.3,2.62,2.62,0,0,0,.816-.17l.361.36a.975.975,0,0,1,.112.161l2.028,4.27a.756.756,0,0,0,.682.449h0a.761.761,0,0,0,.541-.228l.628-.63a1.119,1.119,0,0,0,.3-.752c0-.035,0-.062,0-.076l-.554-6.106c.167-.125.335-.255.509-.39,1.864-1.458,4-3.328,6.209-5.422l2.244,2.246a1.2,1.2,0,0,1,.146.192l4.385,7.85a.764.764,0,0,0,1.224.18l1.324-1.323a1,1,0,0,0,.271-.691.946.946,0,0,0-.036-.258l-1.12-3.741.911-.913a.825.825,0,0,0,0-1.163l-.668-.668a.824.824,0,0,0-1.088-.068l-.157-.524.995-.995a.83.83,0,0,0,.24-.584.813.813,0,0,0-.24-.58l-.665-.665a.823.823,0,0,0-1.168,0l-.007.006-1.1-3.677c.381-.363.742-.708,1.087-1.033A40.475,40.475,0,0,0,28.845,6.233Z" transform="translate(35.39 35.28)" fill="#fff"/>
    </g>
  </g>
</svg>
