<svg xmlns="http://www.w3.org/2000/svg" width="101.79" height="101.79" viewBox="0 0 101.79 101.79">
  <g id="Group_35" data-name="Group 35" transform="translate(-833.556 -834.411)">
    <circle id="Ellipse_10" data-name="Ellipse 10" cx="50.895" cy="50.895" r="50.895" transform="translate(833.556 834.411)" fill="#005ba9"/>
    <g id="Group_22" data-name="Group 22" transform="translate(871.192 868.267)">
      <path id="Path_1061" data-name="Path 1061" d="M735.729,437.014h-1.5v-3a3.007,3.007,0,0,0-3-3h-.573l-2.588-5.177a1.506,1.506,0,0,0-1.9-.724l-14.751,5.9H710.2a3.008,3.008,0,0,0-3,3v18.022a3.008,3.008,0,0,0,3,3h21.025a3.007,3.007,0,0,0,3-3v-3h1.5a1.5,1.5,0,0,0,1.5-1.5v-9.011A1.5,1.5,0,0,0,735.729,437.014Zm-9.736-8.606,1.3,2.6H719.5Zm8.234,17.617h-9.89l-3-3,3-3h9.89Z" transform="translate(-707.194 -425)" fill="#fff"/>
      <circle id="Ellipse_2" data-name="Ellipse 2" cx="1.502" cy="1.502" r="1.502" transform="translate(18.022 16.52)" fill="#fff"/>
    </g>
  </g>
</svg>
