<svg xmlns="http://www.w3.org/2000/svg" width="113.48" height="45.28">
  <path fill="#fff" fill-rule="evenodd" d="M7.44 41.38c-1.4 0-2.1-.69-2.1-1.83 0-2.1 2.36-2.83 6.67-3.28 0 2.82-1.91 5.11-4.57 5.11M9.3 25.5A15.24 15.24 0 0 0 .76 28.5l1.75 3.7a10.1 10.1 0 0 1 6.29-2.62c2.13 0 3.31.71 3.31 2.15 0 .97-.78 1.46-2.26 1.65C4.33 34.09 0 35.6 0 39.87c0 3.37 2.4 5.41 6.15 5.41a7.25 7.25 0 0 0 6.2-3.45v2.9h5V32.57c0-5.02-3.5-7.07-8.05-7.07M59.42 26.05v18.68h5.34v-9c0-4.28 2.6-5.53 4.4-5.53a4.09 4.09 0 0 1 2.28.67l.98-4.94a6.1 6.1 0 0 0-2.4-.43 5.65 5.65 0 0 0-5.61 3.7v-3.15zM97.18 25.5a7.4 7.4 0 0 0-6.03 3.28 6.6 6.6 0 0 0-11.46.1v-2.83h-5.15v18.68h5.35v-9.61c0-3.46 1.8-5.1 3.5-5.1 1.52 0 2.92.98 2.92 3.53v11.18h5.34v-9.61c0-3.5 1.77-5.1 3.53-5.1 1.41 0 2.9 1.02 2.9 3.5v11.21h5.34v-12.9c0-4.2-2.83-6.32-6.24-6.32M46.41 26.05h-4.84v-1.9c0-2.47 1.41-3.17 2.63-3.17a5.32 5.32 0 0 1 2.4.6l1.64-3.77a9.15 9.15 0 0 0-4.7-1.1c-3.42 0-7.3 1.93-7.3 7.97v1.38h-8.1v-1.9c0-2.47 1.4-3.18 2.62-3.18a5.08 5.08 0 0 1 2.4.6l1.64-3.77a9.36 9.36 0 0 0-4.7-1.09c-3.42 0-7.3 1.93-7.3 7.97v1.37h-3.1v4.12h3.1v14.55h5.33V30.17h8.1v14.56h5.34V30.17h4.84zM49.6 44.73h5.34V26.05H49.6z"/>
  <path fill="#fff" fill-rule="evenodd" d="M80.72 0C66.3 0 53.44 10 49.8 22.88h5.22c3.05-9.59 13.4-18 25.7-18 14.95 0 27.88 11.38 27.88 29.1a36.45 36.45 0 0 1-1.5 10.75h5.07l.05-.18A43 43 0 0 0 113.48 34c0-19.77-14.4-34-32.76-34"/>
</svg>
