<svg xmlns="http://www.w3.org/2000/svg" viewBox="0 0 198.55 94.96"><defs><style>.cls-1{fill:#fff;}</style></defs><title>Airtel</title><g id="Layer_2" data-name="Layer 2"><g id="Layer_1-2" data-name="Layer 1"><path class="cls-1" d="M141.23,94.65a5.91,5.91,0,0,1-.35-1.9c-.18-1.4-.09-1.54.92-1.45,2.16.18,2.95-.26,3.61-1.89s.62-1.76-2.6-10.18c-1.76-4.71-3.12-8.76-3-9a3.59,3.59,0,0,1,2-.4c2.07,0,2.12.09,4.67,7.18l1.67,4.76.88-2.34c3.48-9.51,3.44-9.38,5.29-9.51a3.37,3.37,0,0,1,2,.22c.18.18-1.49,5.2-3.74,11.1C147.79,93.77,147,95,143.52,95a5.17,5.17,0,0,1-2.29-.31Z"/><path class="cls-1" d="M89.62,87.73c-5.29-2.29-6.79-10.92-2.73-15.54a7.69,7.69,0,0,1,6.47-2.78A11,11,0,0,1,97,70a9.65,9.65,0,0,1,4.75,5.64c.57,2.2.27,6.43-.66,8.19a10.1,10.1,0,0,1-4.36,4A12.62,12.62,0,0,1,89.62,87.73Zm6.82-4.44c1-1,1.1-1.5,1.1-4.41s-.08-3.39-1.19-4.49a3.66,3.66,0,0,0-3-1.23,3.53,3.53,0,0,0-3,1.23c-1.15,1.1-1.23,1.5-1.23,4.45,0,2.64.17,3.43.88,4.23a4.17,4.17,0,0,0,6.38.22Z"/><path class="cls-1" d="M126.39,87.51A8.73,8.73,0,0,1,122,81.35c-1.27-6.78,2.38-11.94,8.46-11.94,4.4,0,7.49,2.65,8.28,7.18a8.83,8.83,0,0,1,.22,3c-.18.27-2.91.44-6.65.44a44.57,44.57,0,0,0-6.34.22,10.29,10.29,0,0,0,.61,1.77,4.34,4.34,0,0,0,7.4,1.1,2.59,2.59,0,0,1,2.34-1.32c1.41,0,2.42.66,2.42,1.62s-2.78,3.75-4.27,4.36c-2.07.88-6.21.8-8.06-.22ZM134.32,76c0-2-3-3.44-5.51-2.6a3.13,3.13,0,0,0-2.42,2.6c0,.3,1.45.48,4,.48s4-.18,4-.48Z"/><path class="cls-1" d="M58.35,87.38c-.13-.35-.18-4.36-.13-8.94l.13-8.37,1.45-.13c.93-.09,1.5.09,1.68.53s.44.53,1.63-.22a7.08,7.08,0,0,1,7,.18l1.5,1,1.49-1a6.72,6.72,0,0,1,7.45.13C82.48,72.19,82.88,74,82.7,81.3l-.13,6.39h-4l-.22-6.91a46.77,46.77,0,0,0-.57-7.23c-.62-.66-3.4-.35-4.19.4-.61.66-.79,1.89-1,7.27l-.22,6.47h-4L68.26,81c-.22-6.12-.31-6.82-1.1-7.4-1.06-.79-2.73-.48-4,.75-.79.75-.92,1.63-1.1,7.14l-.22,6.25-1.67.13c-1.06.09-1.72,0-1.85-.44Z"/><path class="cls-1" d="M104.59,87.38c-.13-.35-.18-4.36-.13-8.94l.13-8.37,1.45-.13c.93-.09,1.5.09,1.68.53s.48.49,1.76-.26,2.07-.84,4.23-.71c2.37.18,2.81.35,4.09,1.76s1.45,1.85,1.76,5.69c.13,2.29.22,5.63.13,7.44l-.13,3.3h-4l-.22-6.52c-.22-6.29-.26-6.6-1.32-7.44a3.51,3.51,0,0,0-4.62.57c-.8.75-.93,1.63-1.11,7.14l-.22,6.25-1.67.13c-1.06.09-1.72,0-1.85-.44Z"/><path class="cls-1" d="M66.67,50.74c-5.24-1.63-9.33-6.91-9.42-12.11a10.44,10.44,0,0,1,3.17-7.75c2.91-3.21,5.46-4.23,11.23-4.53l4.54-.22V24.67a3.53,3.53,0,0,0-.93-2.42c-.84-.84-1.32-.92-4.31-.75a16.86,16.86,0,0,0-5.64,1.23c-2.78,1.19-3.13,1-4.54-2.42-.75-1.8-.88-2.55-.48-3,.57-.71,5.64-2.73,8.41-3.35,7.27-1.63,13.7.84,16.51,6.34l1.32,2.6.14,11.23.13,11.27L84.69,47c-5,3.79-12.69,5.38-18,3.7ZM75,43.43c1.15-.39,1.15-.48,1.15-5.11V33.66l-2.91.17c-2.51.18-3.08.35-4,1.37a5.88,5.88,0,0,0-1,5.81c.83,2.55,3.65,3.61,6.69,2.42Z"/><path class="cls-1" d="M159.42,50.39c-7.53-2.91-11.63-12.77-9.47-22.94,1.23-5.77,4.49-10.44,8.81-12.47a16.37,16.37,0,0,1,11.89,0c5.37,2.56,8.45,8.81,8.06,16.34L178.57,34l-9.42.14-9.42.08.3,2.74c.31,3.3,1.37,5.15,3.35,6.2,2.16,1.15,6.3.75,10-1,3.13-1.46,3.09-1.5,4.63,1.93.57,1.24,1.1,2.34,1.19,2.51.26.49-4.36,2.95-7.36,3.88a21.48,21.48,0,0,1-12.37-.09Zm8.8-24.09c0-1.41-1-3.57-1.76-4a3.93,3.93,0,0,0-5.55,2c-1.14,2.77-1,2.86,3.35,2.86,3.57,0,4-.09,4-.84Z"/><path class="cls-1" d="M192,50.92a9.65,9.65,0,0,1-6-3.17c-2.77-2.86-2.77-2.86-2.77-22.95,0-14.09.13-18.36.57-18.71.66-.53,8.67-1.9,9.2-1.59.18.14.36,8.64.36,18.9,0,21.44-.31,19.9,4.18,20.56.75.13.88.53,1,3.17a9.58,9.58,0,0,1-.22,3.39c-.57.53-4.18.8-6.34.4Z"/><path class="cls-1" d="M92.35,50.65c-.18-.17-.31-8-.31-17.39,0-13.17.13-17.18.57-17.44.84-.53,8.85-1.85,9.25-1.5.18.18.26,8.41.22,18.37l-.13,18-4.67.13a25.57,25.57,0,0,1-4.93-.18Z"/><path class="cls-1" d="M108.2,50.65c-.18-.17-.31-7-.31-15.23V20.53l2.56-2c5.19-4.14,10.65-5.68,16.33-4.67,1.77.31,3.31.84,3.4,1.1s-.44,1.81-1.24,3.39l-1.45,2.82-3.52.27a19,19,0,0,0-4.72.83l-1.23.58-.09,13.91L117.8,50.7l-4.67.13a25.64,25.64,0,0,1-4.93-.18Z"/><path class="cls-1" d="M138.32,50.3a12.8,12.8,0,0,1-5.9-5.24c-1-1.8-1-2.16-1.1-20.17-.09-14.62,0-18.4.44-18.76.62-.53,9.21-1.89,9.73-1.58a19.27,19.27,0,0,1,.31,4.75v4.58l2.78.14,2.73.13v7.48l-2.73.14-2.78.13V32c0,11.8-.13,11.5,4.41,12,1,.13,1.1.22,1.1,3.44v3.3l-3.75.09a19.27,19.27,0,0,1-5.24-.49Z"/><path class="cls-1" d="M12.6,49.38c-2.74-2.07-3.13-5.2-1.19-9.25,2.15-4.62,6.29-7.53,9.38-6.61,1.41.44,3,2,3,3,0,.44-1.45,2.33-3.21,4.22a48.24,48.24,0,0,0-4,4.49c-3.43,5,6.21.67,13.52-6.16,2.86-2.69,5.95-7,6.7-9.56,1.14-3.83.48-7.92-1.37-8.67C31.93,19.48,26.73,22,12.07,32.38c-4.36,3.08-7.93,3-10.75-.26A4.38,4.38,0,0,1,0,28.55C0,21.37,11.76,10.89,23.78,7.32,28.23,6,34,6.18,37.21,7.76a15.12,15.12,0,0,1,7,7.31,19.61,19.61,0,0,1,0,10.35c-2.37,8-11.4,17.57-21.49,22.64-3.34,1.72-4.22,2-6.6,2a7.68,7.68,0,0,1-3.52-.66Z"/><path class="cls-1" d="M93.89,11.77c-3.52-2.25-4.18-6.65-1.37-9.56s6.61-2.95,9.16.14c2.29,2.81,2.12,5.85-.57,8.45a6,6,0,0,1-7.22,1Z"/></g></g></svg>