<svg xmlns="http://www.w3.org/2000/svg" viewBox="0 0 161.39 81.87"><defs><style>.cls-1{fill:#fff;}</style></defs><title>AliPay</title><g id="Layer_2" data-name="Layer 2"><g id="Layer_1-2" data-name="Layer 1"><g id="Layer_1_copy" data-name="Layer 1 copy"><path class="cls-1" d="M132.4,64.07a5,5,0,0,1,1.09,3.6v8.42h-2v-8.4a3.49,3.49,0,0,0-.66-2.32,2.57,2.57,0,0,0-2.06-.77,3.33,3.33,0,0,0-2.69,1,5,5,0,0,0-.87,3.24v7.2h-2V67.69a3.53,3.53,0,0,0-.66-2.32,2.57,2.57,0,0,0-2.07-.77,3.18,3.18,0,0,0-2.69,1.1,6,6,0,0,0-.86,3.61v6.77h-2V63.17h1.59l.32,1.77h.09a4,4,0,0,1,1.56-1.47,4.83,4.83,0,0,1,2.26-.53q3,0,3.95,2.19h.1a4,4,0,0,1,1.67-1.6,5.2,5.2,0,0,1,2.49-.59A4.39,4.39,0,0,1,132.4,64.07Zm-81-47.54,0,.08h0ZM62.35,64.69a7.72,7.72,0,0,1,1.4,4.92,7.65,7.65,0,0,1-1.42,4.94,4.8,4.8,0,0,1-3.94,1.77,5.56,5.56,0,0,1-2.3-.47,4.32,4.32,0,0,1-1.75-1.43h-.15a16.32,16.32,0,0,1,.15,2.15v5.3h-2V63.17H54l.27,1.77h.1a4.54,4.54,0,0,1,1.75-1.54,5.4,5.4,0,0,1,2.3-.47A4.8,4.8,0,0,1,62.35,64.69Zm-.63,4.91a6.12,6.12,0,0,0-.95-3.71,3.13,3.13,0,0,0-2.67-1.28,3.43,3.43,0,0,0-2.86,1.09,5.59,5.59,0,0,0-.9,3.49v.43a6.51,6.51,0,0,0,.9,3.9,3.44,3.44,0,0,0,2.91,1.17,3,3,0,0,0,2.62-1.36A6.36,6.36,0,0,0,61.72,69.6Zm99.39-34c1.36,1.2-2.7,4.88-2.7,4.88-4.35,5-5.66,6.32-5.66,6.32a6.11,6.11,0,0,1-3,2.1,20.28,20.28,0,0,1-3.38.67c-63.2,6.16-91.45-3.23-91.45-3.23a131.92,131.92,0,0,1-16.12-6.89c-1.2,1.2-2,1.85-2,1.85a36.82,36.82,0,0,1-19.69,8.42l-1.2-.07c-.45,0-.88,0-1.3,0,.48,0,.77,0,.77,0l1.13.07h-.68A20.44,20.44,0,0,1,4.66,46.66C0,43.35,0,37.49,0,37.49c.15-5,5-8.41,5-8.41a17.9,17.9,0,0,1,10.15-2.93c6.76.23,17.73,5,17.73,5,1,.39,2,.79,3.1,1.17a49,49,0,0,0,4-6.21,35.56,35.56,0,0,0,2.63-6.61H16.76V16.61H28.94V10H12V7.06H28.94V1.73c0-.9,2-1.35,2-1.35l2-.15H37.5V7.06H55V10H37.5v6.61H51.39L51,18.86a40.35,40.35,0,0,1-2,6,42.9,42.9,0,0,1-6,9.94c6,2,11.11,3.44,11.11,3.44a69.05,69.05,0,0,0,8,1.72V15.18s-3.23,1.65-6,2.71L55,16.08a51.72,51.72,0,0,0,5.86-4.88s5.79-5.79,5.79-9.69c0,0,0-.91,2-1.36l2-.15h3.91L74.4,1.43,73.42,5a20.21,20.21,0,0,1-2.63,4.29V41c5.91.55,12.06.82,17.58.93V13H72.14V10H88.37V1.51c0-.9,2-1.35,2-1.35L92.35,0H97V10h4.51v3H97v29c6,0,10-.19,10-.19,5.34-.22,10.37-.53,15-.9V26.15H110.39v-3H122V15.63h-16.9v-11c0-1.2,4.06-1.5,4.06-1.5h4.06V4.81L122,4.52v-3c0-.9,2-1.35,2-1.35L126,0h4.66V4.22l13.52-.46a3.7,3.7,0,0,1,3.91,3.61l-.67,5c-.67,1.81-1.81,1.81-1.81,1.81h-.37v1.5H130.68v7.51h12.4v3h-12.4v14a269.39,269.39,0,0,0,28.48-4.24Zm-148,13.86A16.69,16.69,0,0,1,7,47.27l-.51-.36a3.59,3.59,0,0,0,.36.28A15.17,15.17,0,0,0,13.13,49.48ZM32.61,36.31l-6.68-3.39-5.18-2a14.06,14.06,0,0,0-6.69-.75h-.5c-8,2-8,7.42-8,7.42A8.18,8.18,0,0,0,9.1,44.26c2.85,1.65,7.29,1.65,7.29,1.65,6,0,15.33-8.71,15.33-8.71ZM140.08,12.7l.6-4.58a1.21,1.21,0,0,0-1.28-1.21l-8.71.3-8.64.38V7.52l-8.8.22v5ZM73.75,64a4.28,4.28,0,0,1,1.11,3.28v8.81H73.41L73,74.24h-.1A5.44,5.44,0,0,1,71,75.89a5.82,5.82,0,0,1-2.4.43,4.32,4.32,0,0,1-3-1,3.63,3.63,0,0,1-1.09-2.82c0-2.6,2.08-4,6.25-4.09l2.2-.07v-.8a3.24,3.24,0,0,0-.66-2.24,2.68,2.68,0,0,0-2.09-.73,8.5,8.5,0,0,0-3.65,1L66,64.07A9.86,9.86,0,0,1,68,63.26a8.93,8.93,0,0,1,2.28-.3A4.89,4.89,0,0,1,73.75,64Zm-.84,5.75-2,.08a6.93,6.93,0,0,0-3.37.73,2.19,2.19,0,0,0-1,2,2,2,0,0,0,.64,1.62,2.73,2.73,0,0,0,1.8.55,4,4,0,0,0,2.87-1,3.71,3.71,0,0,0,1-2.81V69.75h0Zm38.84-5a7.09,7.09,0,0,1,1.59,4.87,7.13,7.13,0,0,1-1.59,4.93,5.62,5.62,0,0,1-4.39,1.78,5.73,5.73,0,0,1-3.07-.82,5.37,5.37,0,0,1-2.08-2.33,8.26,8.26,0,0,1-.73-3.56,7.15,7.15,0,0,1,1.58-4.92,5.57,5.57,0,0,1,4.38-1.76A5.45,5.45,0,0,1,111.75,64.75Zm-.43,4.87a6,6,0,0,0-1-3.74,3.49,3.49,0,0,0-2.94-1.27,3.44,3.44,0,0,0-2.9,1.26,6.06,6.06,0,0,0-1,3.75,6.1,6.1,0,0,0,1,3.77,3.41,3.41,0,0,0,2.9,1.29,3.47,3.47,0,0,0,2.92-1.28A6.08,6.08,0,0,0,111.32,69.62ZM88.79,73.23a1.28,1.28,0,0,0-1,.41,1.73,1.73,0,0,0-.37,1.19,1.59,1.59,0,0,0,.4,1.22,1.41,1.41,0,0,0,1,.37A1.36,1.36,0,0,0,89.85,76a1.69,1.69,0,0,0,.39-1.18,1.66,1.66,0,0,0-.39-1.19A1.42,1.42,0,0,0,88.79,73.23Zm8.86-8.56a6.54,6.54,0,0,1,1.35.17,7.78,7.78,0,0,1,1.41.44l.6-1.67a5.82,5.82,0,0,0-1.46-.47,8.34,8.34,0,0,0-1.86-.2,5.65,5.65,0,0,0-4.45,1.76,7.37,7.37,0,0,0-1.56,5,7.08,7.08,0,0,0,1.54,4.89,5.53,5.53,0,0,0,4.34,1.72,7,7,0,0,0,3.26-.67V73.92a8.56,8.56,0,0,1-3.31.7,3.36,3.36,0,0,1-2.84-1.27,6,6,0,0,1-1-3.66Q93.71,64.67,97.65,64.67ZM79.51,29.23a1.24,1.24,0,0,0,1.8,0l3.16-2.85,2.78-3.24a1.23,1.23,0,0,0,0-1.87l-2.78-3.16-3.16-2.78a1.25,1.25,0,0,0-1.8,0l-3.16,2.78L73.5,21.27a1.44,1.44,0,0,0,0,1.87l2.78,3.24Zm64,0-2.41-2.1a1,1,0,0,0-1.42,0l-2.41,2.1-2.1,2.41a1.12,1.12,0,0,0,0,1.42l2.1,2.41,2.41,2.11a1,1,0,0,0,1.42,0l2.41-2.11,2.18-2.41a1.2,1.2,0,0,0,0-1.42ZM36.4,58.79l6.77,17.29H41.1L39,70.61h-6.9l-2.12,5.47h-2l6.81-17.29Zm1.93,10-2-5.34c-.26-.68-.53-1.51-.8-2.48a22.09,22.09,0,0,1-.74,2.48l-2,5.34ZM48,76.08h2V63.17H48Zm34-4c-.32,1-.54,1.66-.64,2h-.1a27.14,27.14,0,0,0-1.15-3.63l-2.82-7.37H75.15l5.21,13L79.64,78a3,3,0,0,1-2.87,2.27,7.06,7.06,0,0,1-1.45-.14v1.56a7.51,7.51,0,0,0,1.77.2,4.1,4.1,0,0,0,2.7-.91,7.39,7.39,0,0,0,1.92-3.09l5.55-14.71H85.17Q82.46,70.66,82,72.12ZM152,3.91h.45V.53h1.28V0h-3V.53H152V3.91ZM43.56,76.08h1.95V57.75H43.56ZM154.8.68l1.13,3.23h.46L157.44.75V3.91H158V0h-.67l-1.14,3.31L155,0h-.75V3.91h.53V.68ZM49,58.38a1.15,1.15,0,0,0-.82.31,1.64,1.64,0,0,0,0,2A1.12,1.12,0,0,0,49,61a1.14,1.14,0,0,0,.82-.33,1.31,1.31,0,0,0,.34-1,1.32,1.32,0,0,0-.34-1A1.13,1.13,0,0,0,49,58.38Z"/></g></g></g></svg>