<svg xmlns="http://www.w3.org/2000/svg" viewBox="0 0 281.58 81"><defs><style>.cls-1,.cls-2{fill:#fff;}.cls-1{fill-rule:evenodd;}</style></defs><title>AliPay UK</title><g id="Layer_2" data-name="Layer 2"><g id="Layer_1-2" data-name="Layer 1"><path class="cls-1" d="M19.93,44c-2.11.26-5.79,1-7.9,2.89C5.72,52.4,9.4,62.13,22.29,62.13,29.66,62.13,37,57.4,42.81,50c-8.42-3.94-15.26-6.83-22.88-6Z"/><path class="cls-1" d="M67.08,50.76C78.92,54.7,81.55,55,81.55,55V12.89A13,13,0,0,0,68.39,0H13.15A13.14,13.14,0,0,0,0,12.89V68.11A13,13,0,0,0,13.15,81H68.39A13.14,13.14,0,0,0,81.55,68.11v-.52s-21-8.68-31.83-13.94c-7.11,8.68-16.31,14.2-26,14.2-16.3,0-21.83-14.2-13.94-23.41,1.58-2.1,4.47-3.94,9-5,6.84-1.58,17.88,1,28.14,4.47A51.57,51.57,0,0,0,51.3,32.87H19.47V29.72H35.78V23.41h-20V20.25h20V12.1a1.29,1.29,0,0,1,1.31-1.32H45v9.73H64.71v2.9H45v5.78H61a66.66,66.66,0,0,1-6.84,17.1c5.26,1.84,9.73,3.42,12.89,4.47Z"/><path class="cls-1" d="M119.09,19.12l17.36,37.6h-9.21l-4.73-10H108.3l-4.73,10h-6l17.62-36.55a2,2,0,0,1,1.58-1.05Zm-9.21,24.19h11.05L115.4,31.48ZM148.21,57h-8.42V21.26c0-1.06.53-1.58,1.84-1.58h6.58ZM164,56.78h-8.41V29.69c0-1.05.52-1.58,1.84-1.58H164Zm10.3-28.11h5.52V31.3a8.89,8.89,0,0,1,3.42-1.84,11.46,11.46,0,0,1,4.47-.79,9,9,0,0,1,4.74,1.06,9.94,9.94,0,0,1,3.68,2.89,13.4,13.4,0,0,1,2.37,4.21,15.44,15.44,0,0,1,.79,5,16,16,0,0,1-1.06,6.32,15.25,15.25,0,0,1-2.89,5,14.35,14.35,0,0,1-4.47,3.42,14.13,14.13,0,0,1-5.79,1.05h-2.89a7.77,7.77,0,0,1-2.37-.52v9.46h-8.42V32.09c-.26-3.42,1.06-3.42,2.9-3.42Zm5.52,20.52a3.94,3.94,0,0,0,.26,1.84,5.76,5.76,0,0,0,1.06,1.58,5.52,5.52,0,0,0,1.57,1,5.22,5.22,0,0,0,2.11.26,3.46,3.46,0,0,0,2.1-.79,4.39,4.39,0,0,0,1.58-2.1c.26-1.05.79-1.84,1-3.16a17.38,17.38,0,0,0,.53-3.94,26,26,0,0,0-.26-4.74,13.1,13.1,0,0,0-1.06-3.41,14.83,14.83,0,0,0-1.57-2.11,3,3,0,0,0-2.11-.79,3.29,3.29,0,0,0-1.58.27,5.78,5.78,0,0,0-1.31.78c-.53.27-.79.79-1.32,1.06a4.65,4.65,0,0,0-1.05,1.31V49.19Zm35.52-20.52a29.89,29.89,0,0,1,5.26.53,9.18,9.18,0,0,1,3.68,1.58,8.66,8.66,0,0,1,2.11,2.37,7,7,0,0,1,.78,3.15V57.08h-8.41V55c-.53.53-1.05.79-1.32,1.06l-1.58.78a3.7,3.7,0,0,1-1.84.53,7.38,7.38,0,0,1-2.37.26,13.57,13.57,0,0,1-3.42-.52,5.52,5.52,0,0,1-2.63-1.58A3.87,3.87,0,0,1,204,53.13a8.14,8.14,0,0,1,0-5.78A12.45,12.45,0,0,1,205.59,45,8.12,8.12,0,0,1,208,43.14a34.39,34.39,0,0,1,3.16-1.58c1-.53,2.1-.79,3.42-1.31,1.05-.27,2.37-.79,3.42-1.06l1-.26V36a7.38,7.38,0,0,0-.26-2.37L218,32.09c-.27-.26-.79-.79-1.05-.79a3.4,3.4,0,0,0-1.58-.26,14.08,14.08,0,0,0-8.42,3.42l-1.84-2.89a20.49,20.49,0,0,1,10.26-2.9Zm2.89,13.94a10.83,10.83,0,0,0-2.37,1.32l-2.36,1.58a3.49,3.49,0,0,0-1.58,1.84,2.48,2.48,0,0,0-.53,1.84,3.4,3.4,0,0,0,.26,1.58c.27.52.27.78.53,1.31s.53.53.79.79.53.26,1,.26a6.28,6.28,0,0,0,2.11-.52L218.48,51V42.61Zm20.41,23.67H233.1l-.26-5s6.84.27,8.94-2.36a13.27,13.27,0,0,0,1.32-4l-13.68-26.3h9.21l8.68,17.1,7.63-17.1H261l-14,31c-.52,1-2.63,6.57-8.41,6.57Z"/><ellipse class="cls-2" cx="159.81" cy="20.38" rx="4.21" ry="3.73"/><path class="cls-1" d="M269.52,6.71h-2.9V6.18h6.32v.53H270v8.15h-.79V6.71Zm4.69-.53h1.06l1.84,5L277.9,13c.26-.52.52-1.31.79-1.84l1.84-5h1.05v9h-1.05V7.24l-.79,2.1L277.9,14.6h-.53l-1.84-5.26-.79-2.1v7.89H274v-9Z"/></g></g></svg>