<svg xmlns="http://www.w3.org/2000/svg" viewBox="0 0 331.39 63.45"><defs><style>.cls-1{fill:#fff;fill-rule:evenodd;}</style></defs><title>AmazonPay</title><g id="Layer_2" data-name="Layer 2"><g id="Layer_1-2" data-name="Layer 1"><g id="svgg"><path id="path0" class="cls-1" d="M131.14,38.29c-6.43.72-12.27,3.49-10.62,5a1.46,1.46,0,0,0,1.46.15,16,16,0,0,1,2.52-.34c6.85-.63,10.18-.35,11.1.94a6.2,6.2,0,0,1,.18,3.33,4.58,4.58,0,0,0-.35,1.18,73.63,73.63,0,0,1-3.14,9.19.81.81,0,0,0,.71,1.31c1.62,0,5.18-4.81,6.89-9.33,1.26-3.34,1.88-8.38,1.2-9.78-.55-1.14-6.22-2.1-10-1.68m-101,2.23c-1.52.56-.67,1.85,3.18,4.84.65.51,1.52,1.2,1.94,1.55s1,.82,1.38,1.06c4.29,2.94,5.13,3.5,5.74,3.82L44.4,53a61.44,61.44,0,0,0,7.67,3.75.14.14,0,0,1,.14.14.15.15,0,0,0,.15.14,2.34,2.34,0,0,1,.59.2,50.68,50.68,0,0,0,5.12,1.88c1.6.53,3,1,3.19,1.09A25.24,25.24,0,0,0,64.1,61a100.28,100.28,0,0,0,12.71,2.19,140.56,140.56,0,0,0,15.76.07A85.39,85.39,0,0,0,109,60.13L112.34,59a40.34,40.34,0,0,0,6-2.27c.82-.39,1.53-.71,1.57-.71s4-1.94,4.71-2.38c.4-.25,1.39-.84,2.21-1.32,4.51-2.63,5.58-4,4.18-5.31-.57-.54-1.76-.76-2.14-.4-.2.19-5.55,2.21-7.53,2.84-.42.14-.94.33-1.17.43a94.08,94.08,0,0,1-9.68,2.61c-.91.2-1.91.42-2.21.5l-.76.18a3.24,3.24,0,0,0-.41.13c-.62.26-7.48,1.22-10.92,1.53-2.21.2-3.37.27-7.33.44-6,.25-19.77-.93-23.5-2-.27-.08-1.48-.36-2.7-.62a99.63,99.63,0,0,1-12.37-3.43c-3.79-1.34-6.81-2.47-6.91-2.59a24.59,24.59,0,0,0-2.9-1.31c-1.31-.57-3.92-1.84-5.18-2.53-4.13-2.24-4.66-2.47-5.19-2.28"/><path id="path1" class="cls-1" d="M12.26.2c-2.14.3-5.74,1.54-6.1,2.1,0,.07-.12.13-.17.12H5.76A25.72,25.72,0,0,0,2.85,5.28C1.42,6.92.5,10.72,1.4,11.3c.64.42,7.1,1,7.53.68a4.56,4.56,0,0,0,.94-2.11,9.48,9.48,0,0,1,1.22-1.42,5.69,5.69,0,0,1,5.82-.78c1.43.69,2,1.86,2.08,4.64l.08,1.82-.81.08c-6.93.73-10.8,1.47-11.57,2.21a6.71,6.71,0,0,1-1.07.6c-1,.49-2.85,2-2.79,2.24,0,.1,0,.13-.1.09-.35-.22-1.9,2.47-2.38,4.14a20.77,20.77,0,0,0-.08,7.12C.72,32.28,2.61,35.46,3,35.12c0,0,.25.12.48.34,2,1.88,8.13,2.68,11,1.43a21.9,21.9,0,0,0,3.15-1.56,9.67,9.67,0,0,0,2.08-1.82c0-.06.07-.2.2-.3s.21-.15.12,0,0,.05.23-.16l.34-.36.3.61c.17.33.38.6.46.6s.11,0,.06.09c-.21.22,1.52,2.08,2.36,2.53.18.09.28.22.24.29s.41.41,1,.41c.34,0,.47-.05.4-.16s0-.12.06-.06a.45.45,0,0,0,.4,0c.14-.08.19-.15.11-.15s.15-.2.49-.45a33.72,33.72,0,0,0,3.43-3c.33-.35.55-.55.49-.43s.13,0,.4-.27c.85-.8.46-2.27-1-3.72-1.17-1.18-1.28-2.11-1.3-11.32,0-10.81-.16-11.55-2.61-14.17S17.61-.55,12.26.2M50.62.27c-.38.12-.84.24-1,.28C48,.9,46,2.73,45,4.78l-.5,1V3.55c0-2.19,0-2.2-.36-2.53L43.76.68H40.21c-4.13,0-4.35.06-4.52,1.21,0,.32-.06,8.1,0,17.29l0,16.71.41.33.42.33h7.66l.34-.34.34-.34.06-11.24c0-9.67.09-11.36.28-12.17a6.31,6.31,0,0,1,1.23-2.74c.14-.08.22-.21.16-.3s0-.12,0-.07.26,0,.45-.17a3.64,3.64,0,0,1,5.35,1.26,3.61,3.61,0,0,0,.37.68c.38.29.44,2,.45,13.24l0,11.52.38.34.39.33h3.77c3.72,0,3.78,0,4.13-.31l.36-.31.06-11.27c.06-11.6.12-12.69.64-13.32a.39.39,0,0,0,.07-.39c-.06-.1,0-.13,0-.08s.32-.19.56-.56C65.21,8,69.19,8,70.16,10.45c.51,1.3.55,2.16.56,13.94V35.93l.35.31c.84.73,8.47.4,8.7-.38.28-1,.08-29-.2-28.82-.06,0-.14-.14-.18-.38A6.13,6.13,0,0,0,78.13,3.6c-.18-.2-.3-.36-.25-.36s-.15-.26-.45-.57C74.58-.28,68.84-.84,65.06,1.46a12,12,0,0,0-2.37,2.3A7.2,7.2,0,0,0,62,4.92l-.45.85L61.12,5a12.55,12.55,0,0,0-1.53-2.33s0,.07,0,.15,0,.13-.07.06-.13-.15-.09-.21c.18-.28-2.12-2-2.93-2.15l-1-.25a15.23,15.23,0,0,0-5,0M98,.15c-.4.05-.89.15-2.64.53a13,13,0,0,0-7.11,4.58c-1,1.48-2.09,4.71-1.8,5.48s.43.75,4.23,1.14l1.86.21c.65.07,1.28.13,1.4.13.41,0,.91-.67,1.16-1.55,1.11-4,7.22-4.82,8.92-1.26.35.76.61,4.75.3,4.75-2.66,0-11.23,1.49-11.23,1.95,0,.07-.05.1-.12.06s-1,.21-.89.39,0,.11,0,.06c-.24-.23-2.87,1.46-3.74,2.4-1.07,1.15-2.65,3.93-2.49,4.37,0,.1,0,.15,0,.11-.23-.15-.5,1.8-.5,3.72s.26,3.74.53,3.57c.08-.05.1,0,0,.08-.34.56,2.53,4.85,3.25,4.85a2.37,2.37,0,0,1,.66.32,6.67,6.67,0,0,0,1,.51,2.46,2.46,0,0,1,.56.28c.44.58,5.23.81,7.31.36a13.57,13.57,0,0,0,6.65-3.83c.67-.8.65-.8,1.17.23a13.41,13.41,0,0,0,2.68,3.06s.23.11.4.28c.54.54,1.25.43,2-.33.37-.35,1-.87,1.37-1.16A21.18,21.18,0,0,0,114.62,34a15.21,15.21,0,0,1,1.47-1.26c.83-.53.88-1.45.13-2.31-2.22-2.54-2.37-3.38-2.35-13.55,0-4.6-.05-7.7-.14-8.27a8.71,8.71,0,0,0-1-3.06,1.41,1.41,0,0,1-.27-.47,12.45,12.45,0,0,0-2-2.4,14.66,14.66,0,0,0-4.19-2A27.57,27.57,0,0,0,98,.15M161,.27c-2.17.43-5.62,2.07-5.24,2.48,0,.07,0,.08-.05,0s-.75.28-.75.54-.06.17-.13.13c-.24-.15-2.82,3.14-2.82,3.6,0,.11-.05.2-.12.2a9.41,9.41,0,0,0-1.21,2.65c-.09.33-.24.81-.34,1.08a4.42,4.42,0,0,0-.2.62c0,.08-.08.36-.15.62-1.52,5.82-.28,15.1,2.53,18.87,2.47,3.31,4.09,4.6,6.87,5.46a2.35,2.35,0,0,1,.69.3c.46.64,7.12.63,7.94,0a5.6,5.6,0,0,1,.9-.36c1.45-.46,4.09-2,3.92-2.32,0-.08,0-.1.05,0,.37.23,3-3,3.91-4.85,2.69-5.42,2.95-15.57.51-20.15a2.09,2.09,0,0,1-.18-.45c-.38-2.29-5.37-7.3-7.76-7.78l-.45-.16A19.64,19.64,0,0,0,161,.27M198.87.21a6.34,6.34,0,0,0-.83.21,2.45,2.45,0,0,1-.38.13c-1.68.35-3.94,2.74-5,5.25-.07.16-.13-.55-.15-1.8-.06-3.4,0-3.35-4.47-3.38-3.34,0-3.94.07-4.26.66-.22.41-.21,34.21,0,34.62.34.63.41.64,4.43.65h3.82l.43-.4.43-.4V25.54c0-12.06.07-12.92,1.29-15,1.39-2.36,4.9-2.79,6.16-.74,1,1.67,1.12,2.82,1.12,15.58,0,10.41,0,10.59.27,10.83s.28.2.28.14.07-.05.16,0,1.19.17,3.94.17h3.76l.39-.33.39-.34V23.19c0-13-.05-14.2-.57-16.47A6.93,6.93,0,0,0,209,3.93c-.58-.63-.7-.8-.63-.86S206.67,1.4,205.71,1a12.52,12.52,0,0,0-6.84-.74m45.78.13c-.55.06-1.17.15-1.38.2s-.56.13-.79.17a18.63,18.63,0,0,0-5.62,2.46c-2.08,1.68-1.93,1.67-2.12.14-.24-1.87-.46-2-2.71-2.12s-2.8,0-3.24.5l-.34.37V25.74c0,13.73.05,23.65.12,23.61s.16,0,.2.21a.58.58,0,0,0,.36.36c.16,0,.25.13.21.19a11.86,11.86,0,0,0,2.56.13h2.63l.42-.37.41-.37V41.23c0-4.55,0-8.27.11-8.27a1.57,1.57,0,0,1,.52.43c1.44,1.53,5,3,7.83,3.24a3.84,3.84,0,0,1,1.14.21,4.73,4.73,0,0,0,2.12,0,5,5,0,0,1,1-.2,12.19,12.19,0,0,0,4.67-1.45,8.37,8.37,0,0,0,2.47-1.85c.1-.17.18-.26.18-.18s.23-.09.5-.35a10.91,10.91,0,0,0,1.71-2.26.23.23,0,0,1,.11-.2,3.36,3.36,0,0,0,.43-.73,6,6,0,0,1,.56-.94,22.31,22.31,0,0,0,1.44-4.09c0-.22.19-1,.32-1.65A40.81,40.81,0,0,0,260.4,13c-.35-1.9-1.08-4.29-1.27-4.17s-.09,0-.05-.12a1.18,1.18,0,0,0-.37-.92,7.43,7.43,0,0,1-.61-1c-.85-1.59-2.34-3.38-2.82-3.38-.11,0-.16,0-.11-.09S253.26,1.66,253,1.8c-.06,0-.11,0-.11-.06,0-.29-2.54-1.12-4-1.33a23.69,23.69,0,0,0-4.22-.07m33.77,0a38.15,38.15,0,0,0-5.71.84c-.58.15-1.2.3-1.38.33a9.75,9.75,0,0,0-3.17,1.39l-.45.45V5.28c0,2.73.05,2.76,3,2A5.15,5.15,0,0,0,272,6.81c0-.06.13-.07.24,0a1.14,1.14,0,0,0,.65-.14,4.69,4.69,0,0,1,1-.29c6.65-1,10.19-.57,11.83,1.29.66.76.83,1,.8,1a5.86,5.86,0,0,0,.23.8,16.45,16.45,0,0,1,.3,4l.07,3.28-.47-.09a1.62,1.62,0,0,1-.63-.22.61.61,0,0,0-.45-.06c-.15,0-.28,0-.28,0a13.51,13.51,0,0,0-3.45-.51c-.15,0-.28,0-.28,0a17.27,17.27,0,0,0-4.52-.13c-1.66.11-4.19.6-4.19.81a1.38,1.38,0,0,1-.59.29c-4.18,1.32-6.75,5.07-6.76,9.88,0,2.16.68,5.32,1.14,5.32.07,0,.13.08.13.18,0,1,3.19,3.66,4.91,4.09l1.17.29a5.19,5.19,0,0,1,.85.28,12.57,12.57,0,0,0,3.4.19c0-.07.25-.1.69-.08s.73,0,.68-.08.23-.17.64-.21a19.89,19.89,0,0,0,4.8-1.6,7.51,7.51,0,0,1,1-.57,9.81,9.81,0,0,0,1.65-1.08c.82-.71.85-.69,1,.7.24,1.82.61,2,3.38,2,2,0,2.47-.17,2.69-.82s.23-23.32,0-25.6C293.1,2.58,288.33-.35,278.42.34M121.92,1l-.39.33v6l.38.38.39.39,5.76.07c3.18,0,5.69.12,5.6.18a.19.19,0,0,0-.1.24c.05.07,0,.13-.05.13a2.4,2.4,0,0,0-.59.72,7.55,7.55,0,0,1-.62.87,23.34,23.34,0,0,0-2.13,3.2c0,.1,0,.18-.11.18s-.21.18-.34.39a7.25,7.25,0,0,1-.64.85c-.23.26-.38.54-.33.62s0,.1,0,0a14.57,14.57,0,0,0-1.87,2.61,1.63,1.63,0,0,1-.2.29,6.05,6.05,0,0,0-1.22,1.87c0,.08,0,.1-.05.06A8.1,8.1,0,0,0,124,22.15c-.7,1-1.4,2.05-1.56,2.24-.5.56-1.13,1.52-1,1.52s0,.07-.12.14c-.68.39-.87,1.5-.91,5.22,0,5,0,5.1,3.14,3.77a26.9,26.9,0,0,1,2.91-1c.72-.2,1.43-.42,1.59-.49,1.13-.52,5.95-.75,8.5-.41,1.75.24,2,.28,2.17.44a.57.57,0,0,0,.47.07c.16,0,.25,0,.2,0a5.4,5.4,0,0,0,1.47.55,23.74,23.74,0,0,1,2.59,1c2.64,1.24,2.91.93,2.91-3.34,0-3.78,0-3.83-1.8-4.73a5.32,5.32,0,0,1-.82-.47,21.93,21.93,0,0,0-4.32-1.35,28.73,28.73,0,0,0-4.53-.51c-.79,0-1.47-.1-1.5-.12a36.31,36.31,0,0,1,2.48-3.76c.26-.32,1-1.37,1.65-2.33s1.37-2,1.61-2.32,1.08-1.51,1.85-2.65,1.52-2.2,1.66-2.36c.34-.37,1.93-2.69,2.51-3.66l.45-.76V4c0-2.79,0-2.81-.32-3.07s-.71-.27-11.64-.27H122.31l-.39.34m176.62.39a.78.78,0,0,0-.56.52c-.1.4.1,1.55.26,1.46s.11,0,.11.11a18.77,18.77,0,0,0,1.16,2.91.57.57,0,0,1,.13.35,22.82,22.82,0,0,0,1.73,4.18c.06,0,.06,0,0,.09s0,.34.19.58a1.53,1.53,0,0,1,.29.55,3,3,0,0,0,.28.72,3.07,3.07,0,0,1,.27.71c0,.19,2.06,5.44,2.36,6s.85,2,2.49,6.18a10,10,0,0,0,1,2.16c.06,0,.11,0,.11.1s.7,2.11,1.51,4.14c.29.72.76,1.9,1,2.62a6.71,6.71,0,0,0,.66,1.41c.11.07.1.16,0,.31a.36.36,0,0,0-.1.34.11.11,0,0,1-.05.18,13.14,13.14,0,0,0-.88,2.15,21.09,21.09,0,0,1-2.23,4.67c-.13.15-.18.18-.13.07s-.14,0-.45.29c-1.17,1-3.26,1.4-6.2,1-1.56-.19-1.66-.06-1.66,2.31s.51,3.15,2.29,3.19c.36,0,.63,0,.6.1a15.64,15.64,0,0,0,2.92.25c1.26,0,4.22-.68,4.22-.94,0-.06.22-.22.49-.34a8.5,8.5,0,0,0,3.19-2.9,39.31,39.31,0,0,0,2.53-4.94l.56-1.45c.06-.15.17-.46.25-.69l.24-.69a2,2,0,0,0,.12-.35,4.16,4.16,0,0,1,.19-.38c.1-.17.14-.31.09-.31s0-.08,0-.17a6.17,6.17,0,0,0,.45-1.07,4.37,4.37,0,0,1,.43-1c.1-.07.84-2,2.29-5.88.34-.91.77-2,1-2.38a1.8,1.8,0,0,0,.25-.89c-.06-.09,0-.12,0-.07s.46-.68.54-1.15a5.91,5.91,0,0,1,.31-.73c.16-.37.3-.7.3-.73s.31-.89.7-1.89.72-1.89.73-2a4.41,4.41,0,0,1,.51-1.17,17.17,17.17,0,0,0,.75-1.8c1.22-3.21,1.9-5,1.93-5.18a7.48,7.48,0,0,1,.39-.9c.47-1,2.65-6.55,2.79-7.12,0-.08.11-.33.2-.56a2.54,2.54,0,0,0,.11-1.93c-.32-.41-5.45-.42-6.13,0-.48.29-1.12,1.46-.94,1.74.06.1.05.14,0,.1A24.53,24.53,0,0,0,322.8,7c-.67,2-1.3,3.81-1.4,4s-.84,2.3-1.65,4.77-1.55,4.57-1.62,4.66a.31.31,0,0,0,0,.33c.06.09,0,.13,0,.08A34.09,34.09,0,0,0,316.5,25c-.79,2.39-1.46,4.32-1.49,4.29s-.27-.69-.53-1.48c-1.31-3.84-2.59-7.37-2.84-7.79s-.25-.48-.2-.48,0-.27-.14-.59c-.21-.58-1.65-4.71-2.36-6.74a5.54,5.54,0,0,0-.45-1.1,2,2,0,0,1-.28-.63c-.18-.56-1.47-4.25-1.62-4.63a2.87,2.87,0,0,1-.12-.34c-.6-2.54-1.55-4-2.63-4.23a26.34,26.34,0,0,0-5.3.05M192.34,5.48c0,.7-.05.16-.05-1.21s0-1.94.05-1.28,0,1.78,0,2.49m54.77.73c.42.12.82.24.9.25a10.31,10.31,0,0,1,1.48.89,10.13,10.13,0,0,1,2,2c.14.21.29.33.35.28s.09,0,.09.21.06.3.15.3.11.06.06.13,0,.22.14.34.2.23.18.25a9,9,0,0,0,.33,1.21,27,27,0,0,1,.54,10.51,9.36,9.36,0,0,1-.77,3,6.56,6.56,0,0,0-.35,1.06c0,.65-3.34,3.71-4.22,3.87-.08,0-.48.13-.9.26a12.85,12.85,0,0,1-7.2-.48,3.61,3.61,0,0,0-1.17-.3c-.06,0-.05,0,0-.1s.05-.18-.12-.11-.21,0-.16,0-.05-.17-.19-.22a12.28,12.28,0,0,1-1.47-.83,9.54,9.54,0,0,0-1.33-.76c-.07,0-.12-4-.12-9.43V9.11l.8-.5a15.05,15.05,0,0,1,2.8-1.5c.41-.16.95-.38,1.19-.49A15.05,15.05,0,0,1,243.1,6a15.93,15.93,0,0,1,4,.26m-81.42,1s.19.17.41.26c1.26.52,2.64,3.36,2.64,5.43,0,.2,0,.38.13.4.32.11.45,7.11.19,9.79-.05.5-.09,1-.09,1.07s-.05.14-.1.11a4.39,4.39,0,0,0-.33,1.89c.06.09,0,.12-.06.06s-.16,0-.16.08A6.1,6.1,0,0,1,166,29.64c-.23.09-.38.21-.35.27s0,.12-1.25.23a2.64,2.64,0,0,1-1.66-.23,3,3,0,0,0-.7-.26,8.07,8.07,0,0,1-1.5-2,14.63,14.63,0,0,1-1-4.22,18,18,0,0,0-.28-1.8,56.23,56.23,0,0,1,.15-8.08c.1-.61.18-1.31.19-1.56s.06-.45.11-.45a3.14,3.14,0,0,0,.32-.89,6.92,6.92,0,0,1,.67-1.56,2.43,2.43,0,0,0,.4-.77c0-.07,0-.08.11,0s.14,0,.14,0,.89-.74,1.48-1a7.87,7.87,0,0,1,2.94,0M19,22c-.14,4-.94,6.21-2.77,7.53-.3.22-.49.4-.42.41a2.45,2.45,0,0,1-.71.33,3.6,3.6,0,0,1-4.77-1.56c-.11-.23-.24-.39-.3-.36s-.07,0,0-.15S10,28,9.94,28c-.4,0-.45-3.42,0-3.92a3,3,0,0,0,.29-.67,5.75,5.75,0,0,1,3.43-2.95,2.42,2.42,0,0,0,.8-.36s0-.07.17-.08l1.28-.21A18.1,18.1,0,0,1,18,19.57l1.1,0L19,22m85.43.15a15.74,15.74,0,0,1-.31,3.42c-.13.46-.25.89-.26,1a7.92,7.92,0,0,1-3.22,3.71,3.77,3.77,0,0,1-4.11-.51,3.1,3.1,0,0,0-.45-.39,2.29,2.29,0,0,1-.41-.67,6.1,6.1,0,0,1,.76-6.53,7.77,7.77,0,0,1,3.21-1.9.42.42,0,0,0,.33-.13,2.94,2.94,0,0,1,1-.27,14.74,14.74,0,0,1,2.64-.27l.88,0-.07,2.59m179.34-1.27c.94.13,2.05.3,2.47.4l.76.17,0,3.37,0,3.38-.89.58a10.63,10.63,0,0,1-1.1.68c-.12,0-.19.13-.16.19s0,.1-.1.09a5.78,5.78,0,0,0-1.21.49c-3.26,1.61-7.51,1.79-9.34.4-2.28-1.73-2.43-6.31-.28-8.28,1.69-1.55,5.14-2.06,9.78-1.47"/><path id="path2" class="cls-1" d="M192.29,4.27c0,1.37,0,1.91.05,1.21s0-1.83,0-2.49-.05-.08-.05,1.28"/></g></g></g></svg>