<svg xmlns="http://www.w3.org/2000/svg" viewBox="0 0 216.52 79"><defs><style>.cls-1{fill:#fff;fill-rule:evenodd;}</style></defs><title>AmericanExpress</title><g id="Layer_2" data-name="Layer 2"><g id="Layer_1-2" data-name="Layer 1"><path class="cls-1" d="M0,35.37H10.4l2.35-5.64H18l2.33,5.64H40.8V31.06l1.82,4.33H53.25L55.07,31v4.37h50.86l0-9.25h1c.69,0,.89.09.89,1.22v8h26.3V33.22a20.93,20.93,0,0,0,9.76,2.15h11.07l2.37-5.63h5.25l2.31,5.63h21.33V30l3.22,5.35h17.09V0H189.57V4.18L187.2,0H169.85V4.18L167.68,0H144.24c-3.93,0-7.37.55-10.16,2.07V0H117.91V2.07C116.13.5,113.72,0,111,0H51.94L48,9.13,43.9,0H25.29V4.18L23.24,0H7.37L0,16.82V35.37Zm65.65-5.1H59.41l0-19.86L50.56,30.27H45.22L36.37,10.39V30.27H24l-2.34-5.66H9L6.61,30.27H0L10.9,4.91h9l10.36,24v-24h9.93l8,17.2,7.31-17.2H65.65V30.27ZM19.57,19.35,15.4,9.24,11.26,19.35ZM90.48,30.27H70.15V4.91H90.48v5.28H76.24v4.57h13.9V20H76.24V25H90.48v5.25Zm28.66-18.53a7.15,7.15,0,0,1-4.29,6.76,7,7,0,0,1,3,2.13c.86,1.26,1,2.39,1,4.65v5h-6.14l0-3.2c0-1.53.15-3.72-1-4.94-.89-.89-2.24-1.09-4.43-1.09h-6.54v9.23H94.69V4.91h14c3.11,0,5.4.08,7.37,1.21a5.92,5.92,0,0,1,3.08,5.62Zm-7.7,3.76a5.6,5.6,0,0,1-3,.52H101V10.39h7.49a6.28,6.28,0,0,1,2.89.46,2.32,2.32,0,0,1,1.28,2.24,2.59,2.59,0,0,1-1.26,2.41ZM128.9,30.27h-6.21V4.91h6.21Zm72.1,0h-8.63l-11.53-19v19h-12.4l-2.37-5.66H153.43l-2.3,5.66H144c-2.95,0-6.7-.66-8.82-2.81s-3.25-5.07-3.25-9.68c0-3.76.66-7.2,3.28-9.92,2-2,5-2.95,9.24-2.95h5.89v5.43h-5.76c-2.23,0-3.48.33-4.69,1.5-1,1.07-1.75,3.09-1.75,5.75s.54,4.67,1.68,5.95c.93,1,2.64,1.31,4.24,1.31h2.73l8.58-19.94h9.12l10.31,24v-24h9.26l10.7,17.66V4.91H201V30.27ZM164,19.35,159.79,9.24,155.6,19.35Zm52.51,51.41C215,72.91,212.15,74,208.25,74H196.49V68.56H208.2a3.47,3.47,0,0,0,2.47-.63,2.19,2.19,0,0,0,.71-1.65,2.07,2.07,0,0,0-.74-1.68A3.12,3.12,0,0,0,208.5,64c-5.72-.19-12.85.18-12.85-7.85,0-3.68,2.35-7.55,8.73-7.55h12.13v-5H205.24a12.69,12.69,0,0,0-7.61,2.07V43.59H181c-2.66,0-5.79.66-7.27,2.07V43.59H143.94v2.07c-2.37-1.7-6.37-2.07-8.21-2.07H116.1v2.07c-1.87-1.8-6-2.07-8.58-2.07h-22l-5,5.42-4.71-5.42H43V79h32.2l5.18-5.5L85.27,79l19.84,0V70.67h2a20.76,20.76,0,0,0,8.48-1.24V79h16.37V69.76h.79c1,0,1.1,0,1.1,1V79h49.73c3.15,0,6.45-.8,8.28-2.26V79h15.77a21.26,21.26,0,0,0,8.93-1.63V70.76ZM117.92,57.14c0,7-5.28,8.5-10.6,8.5h-7.6v8.51H87.89l-7.49-8.4-7.79,8.4H48.5V48.79H73l7.49,8.31,7.74-8.31h19.45c4.83,0,10.26,1.33,10.26,8.35ZM69.53,68.82h-15v-5H67.92V58.59H54.56V54H69.82l6.66,7.39-7,7.45Zm24.11,2.9L84.29,61.39l9.35-10Zm13.82-11.28H99.59V54h7.94c2.2,0,3.72.9,3.72,3.11s-1.45,3.35-3.79,3.35Zm41.21-11.65H169V54H154.73v4.61h13.91v5.18H154.73v5.05l14.26,0v5.26H148.67V48.79Zm-7.81,13.57a6.65,6.65,0,0,1,3,2.13c.86,1.24,1,2.4,1,4.63v5h-6.11V71c0-1.53.15-3.79-1-5-.88-.91-2.24-1.12-4.46-1.12h-6.51v9.26h-6.11V48.79h14c3.08,0,5.33.13,7.32,1.19a5.93,5.93,0,0,1,3.13,5.64,7.1,7.1,0,0,1-4.31,6.74Zm-3.44-3.2a5.86,5.86,0,0,1-3,.52H127V54h7.49a6.1,6.1,0,0,1,2.91.46,2.41,2.41,0,0,1,1.26,2.28A2.74,2.74,0,0,1,137.42,59.16Zm55,1.61c1.18,1.22,1.82,2.77,1.82,5.38,0,5.45-3.42,8-9.56,8H172.77V68.71h11.81a3.6,3.6,0,0,0,2.49-.63,2.26,2.26,0,0,0,.71-1.65,2.16,2.16,0,0,0-.74-1.68,3.25,3.25,0,0,0-2.17-.56c-5.69-.19-12.82.18-12.82-7.85,0-3.68,2.32-7.55,8.71-7.55H193v5.4H181.79a4.22,4.22,0,0,0-2.44.45,2.13,2.13,0,0,0,.42,3.72,7.07,7.07,0,0,0,2.37.29l3.28.08c3.3.08,5.57.65,7,2ZM216.52,54H205.43a4.19,4.19,0,0,0-2.46.46,2,2,0,0,0-.89,1.83,1.93,1.93,0,0,0,1.33,1.89,7,7,0,0,0,2.34.28l3.3.09c3.33.08,5.55.65,6.91,2a3.62,3.62,0,0,1,.56.63V54Z"/></g></g></svg>