<svg xmlns="http://www.w3.org/2000/svg" viewBox="0 0 176.3 84.3"><defs><style>.cls-1{fill:#fff;}</style></defs><title>Apple Pay</title><g id="Layer_2" data-name="Layer 2"><g id="Layer_1-2" data-name="Layer 1"><path class="cls-1" d="M35.14,10.48A14.45,14.45,0,0,0,38.55,0a14.73,14.73,0,0,0-9.67,5c-2.13,2.46-4,6.39-3.47,10.16C29.09,15.42,32.85,13.26,35.14,10.48ZM44.65,34.9c-.07-8.32,6.79-12.32,7.1-12.52a15.39,15.39,0,0,0-12-6.5c-5.11-.51-10,3-12.57,3S20.58,16,16.33,16.05A16.06,16.06,0,0,0,2.74,24.28C-3,34.36,1.27,49.23,6.91,57.38c2.76,4,6.05,8.47,10.38,8.31C21.45,65.53,23,63,28.05,63s6.44,2.68,10.83,2.61,7.31-4.07,10.06-8.08a36.24,36.24,0,0,0,4.53-9.33,14.57,14.57,0,0,1-8.82-13.3ZM97.94,10.48a16.7,16.7,0,0,0-6.4-3.72,29.06,29.06,0,0,0-9.11-1.28,60,60,0,0,0-6.7.35q-2.78.3-5.54.77l-.54.1V65.19H75V40.55a37.56,37.56,0,0,0,6.13.47,29.7,29.7,0,0,0,8.42-1.15,18.77,18.77,0,0,0,6.74-3.52,17,17,0,0,0,4.51-5.86,18.89,18.89,0,0,0,1.65-8.1,18.31,18.31,0,0,0-1.18-6.78,15.68,15.68,0,0,0-3.32-5.13ZM93,32.82c-2.74,2.3-6.62,3.47-11.54,3.47-1.36,0-2.64-.06-3.81-.17A20.4,20.4,0,0,1,75,35.67V10.79q1.07-.19,2.61-.36a44.56,44.56,0,0,1,4.66-.21,22.4,22.4,0,0,1,6.1.79,14.05,14.05,0,0,1,4.69,2.3,10,10,0,0,1,3,3.84,13.6,13.6,0,0,1,1.06,5.59c0,4.42-1.37,7.81-4.07,10.08Zm41.33,26.89c-.06-1.65-.09-3.32-.09-5V38.48a30.75,30.75,0,0,0-.57-5.85,15,15,0,0,0-2.21-5.44,12.46,12.46,0,0,0-4.51-4,15.53,15.53,0,0,0-7.35-1.54,23.35,23.35,0,0,0-6.29.84,20,20,0,0,0-5.89,2.8l-.44.3,1.81,4.23.65-.44a17.74,17.74,0,0,1,9.74-3,9.86,9.86,0,0,1,5.27,1.2,8,8,0,0,1,2.89,3,11.18,11.18,0,0,1,1.26,3.81,24.71,24.71,0,0,1,.3,3.68v.47c-7.91,0-14.09,1.28-18.2,3.92a13.27,13.27,0,0,0-6.49,11.74A12.89,12.89,0,0,0,105,58.5a11.11,11.11,0,0,0,2.32,3.87,11.5,11.5,0,0,0,4,2.73,13.91,13.91,0,0,0,5.55,1,15.5,15.5,0,0,0,8.38-2.3,16.05,16.05,0,0,0,2.91-2.28,13.55,13.55,0,0,0,1-1.12h.21l.49,4.75H135l-.14-.76a32.58,32.58,0,0,1-.5-4.72Zm-5.43-8.33a9.14,9.14,0,0,1-.39,2.29,12,12,0,0,1-1.44,2.86,11,11,0,0,1-5.59,4.22,13.24,13.24,0,0,1-4.28.65,8.38,8.38,0,0,1-2.81-.48,6.81,6.81,0,0,1-2.37-1.42,6.9,6.9,0,0,1-1.66-2.4,9,9,0,0,1-.64-3.57A8,8,0,0,1,111.58,48a12,12,0,0,1,4.76-3.22,24.51,24.51,0,0,1,6.43-1.47,57.7,57.7,0,0,1,6.16-.27v8.32ZM170.6,22.6l-10,27.09c-.62,1.64-1.2,3.29-1.73,4.89-.26.8-.5,1.56-.74,2.28H158c-.25-.79-.51-1.58-.76-2.36-.52-1.59-1.08-3.15-1.65-4.64L144.91,22.6h-5.7l15.24,39.19a4.43,4.43,0,0,1,.47,1.56,6,6,0,0,1-.47,1.56,28.19,28.19,0,0,1-3.24,6,35.57,35.57,0,0,1-3.33,4,18.45,18.45,0,0,1-3.57,2.83,33.21,33.21,0,0,1-3.38,1.77l-.58.26,1.86,4.51.59-.21c.48-.19,1.39-.6,2.77-1.27a21.2,21.2,0,0,0,4.57-3.24A23.71,23.71,0,0,0,154,75.24a53.82,53.82,0,0,0,3.36-5.62c1.09-2.1,2.18-4.49,3.25-7.11s2.21-5.57,3.39-8.73L176.3,22.6Z"/></g></g></svg>