<svg xmlns="http://www.w3.org/2000/svg" viewBox="0 0 147.39 105.84"><defs><style>.cls-1{fill:#fff;}</style></defs><title>Credit Card</title><g id="Layer_2" data-name="Layer 2"><g id="Layer_1-2" data-name="Layer 1"><path class="cls-1" d="M129.37,45.85h0a0,0,0,0,1,0,0h0ZM62.51,67.3v7a.89.89,0,0,1-.9.88H57.73a.88.88,0,0,1-.89-.88v-7a.89.89,0,0,1,.89-.89h3.88A.88.88,0,0,1,62.51,67.3Zm-.69.54a.72.72,0,0,0-.68-.75H58.2a.72.72,0,0,0-.68.75v6a.72.72,0,0,0,.68.75h2.94a.72.72,0,0,0,.68-.75ZM58.28,88a11.26,11.26,0,0,0,.45,1.65h-.8a8.17,8.17,0,0,1-.39-1.43c-.17-.83-.5-1.14-1.2-1.16h-.73V89.6h-.78V83.7a8.1,8.1,0,0,1,1.49-.13,2.46,2.46,0,0,1,1.74.49,1.52,1.52,0,0,1,.47,1.14,1.59,1.59,0,0,1-1.13,1.52v0a1.52,1.52,0,0,1,.88,1.2Zm-.53-2.67c0-.77-.57-1.1-1.38-1.1a4,4,0,0,0-.77.06v2.18h.79c.83,0,1.36-.45,1.36-1.14Zm70.87-36.57a0,0,0,0,0,0,0s0,0,0,0Zm.52-2.3a0,0,0,0,0,0,0s0,0,0,0S129.15,46.44,129.14,46.41Zm-.1,0s0,0,0,0,0,0,0,0S129,46.45,129,46.44ZM99.31,67.3v7a.89.89,0,0,1-.89.88H94.53a.88.88,0,0,1-.89-.88v-7a.89.89,0,0,1,.89-.89h3.89A.89.89,0,0,1,99.31,67.3Zm-.69.54a.72.72,0,0,0-.68-.75H95a.72.72,0,0,0-.68.75v6a.72.72,0,0,0,.68.75h2.94a.72.72,0,0,0,.68-.75Zm30-19.18a0,0,0,0,0,0,0s0,0,0,0l0,0ZM68.81,67.3v7a.89.89,0,0,1-.9.88H64a.88.88,0,0,1-.89-.88v-7a.89.89,0,0,1,.89-.89h3.88A.89.89,0,0,1,68.81,67.3Zm-.69.54a.72.72,0,0,0-.68-.75H64.5a.72.72,0,0,0-.68.75v6a.72.72,0,0,0,.68.75h2.94a.72.72,0,0,0,.68-.75Zm60-17.38,0,0h0ZM93,67.3v7a.88.88,0,0,1-.89.88H88.23a.88.88,0,0,1-.89-.88v-7a.89.89,0,0,1,.89-.89h3.89A.88.88,0,0,1,93,67.3Zm-.69.54a.72.72,0,0,0-.68-.75H88.7a.72.72,0,0,0-.68.75v6a.72.72,0,0,0,.68.75h2.94a.72.72,0,0,0,.68-.75ZM80.41,67.3v7a.88.88,0,0,1-.89.88H75.63a.88.88,0,0,1-.89-.88v-7a.89.89,0,0,1,.89-.89h3.89A.88.88,0,0,1,80.41,67.3Zm-.69.54a.72.72,0,0,0-.68-.75h-3a.72.72,0,0,0-.67.75v6a.72.72,0,0,0,.67.75h3a.72.72,0,0,0,.68-.75Zm49.21-21.42s0,0,0,0h0v0ZM86.71,67.3v7a.88.88,0,0,1-.89.88H81.93a.88.88,0,0,1-.89-.88v-7a.89.89,0,0,1,.89-.89h3.89A.88.88,0,0,1,86.71,67.3Zm-.69.54a.72.72,0,0,0-.68-.75H82.4a.72.72,0,0,0-.68.75v6a.72.72,0,0,0,.68.75h2.94a.72.72,0,0,0,.68-.75Zm42.86-21.39s-.06,0-.06,0l0,0s0,0,0,0h0a.07.07,0,0,0,.06,0s0,0,0,0S128.94,46.46,128.88,46.45ZM109.73,42.1s0,0,0,0,0,0,0,0h0ZM120,41h0a0,0,0,0,0,0,0Zm-2.14,0,0,0s0,0,0,0l0,0S117.83,41,117.82,41Zm2.47,0s0,0,0,0h0s0,0,0,0h0s.06,0,.06,0Zm0,.6h0s0,0,0,0S120.26,41.6,120.27,41.61Zm-2.71-.52,0,0s0,0,0,0,0,0,0,0Zm9.82,11.14h0s0,0,0,0v0s0,0,0,0Zm2.54.88s0,0,0,0,0,0,0,0Zm-12.45-12h0a0,0,0,0,0,0,0S117.47,41.13,117.47,41.12ZM108.8,42h0s0,0,0,0l0,0Zm-.06.12s0,0,0,0,0,0,0,0h0Zm19.93,6.59s0,0,0,0,0,0,0,0,0,0,0,0Zm0-.07v0h0s0,0,0,0ZM51.24,86.79h2.32v-.64H51.24V84.26H53.7V83.6H50.46v6h3.38v-.65h-2.6Zm64.62-43.66a0,0,0,0,0,0,0,0,0,0,0,0,0,0,0,0,0,0,0,0,0ZM60.35,17.9a1.47,1.47,0,0,1,1.59-1.29l.39,0,.31-1.44a1.72,1.72,0,0,0-.33,0,2,2,0,0,0-1.65,1.07h0l.19-.93H59.48l-1.15,5.4h1.42Zm-3.9-1.09a.41.41,0,0,0-.22-.39,1,1,0,0,0-.56-.13,1.09,1.09,0,0,0-1.19.77H53.11a2.51,2.51,0,0,1,2.77-1.89,2.83,2.83,0,0,1,1.45.32,1,1,0,0,1,.57.88,1.13,1.13,0,0,1,0,.3l-.65,3.11a2,2,0,0,0,0,.37c0,.2.06.31.19.35l0,.21H55.81a2.64,2.64,0,0,1,0-.64,2.64,2.64,0,0,1-1.94.78,1.52,1.52,0,0,1-1.06-.34,1.23,1.23,0,0,1-.39-1,1.74,1.74,0,0,1,.54-1.3,2.34,2.34,0,0,1,1.37-.64l1.51-.2c.41-.05.62-.25.62-.58Zm-.27,1.29a3.83,3.83,0,0,1-1.33.33c-.64.08-1,.38-1,.89a.5.5,0,0,0,.16.39.68.68,0,0,0,.46.13,1.81,1.81,0,0,0,1-.3,1.15,1.15,0,0,0,.55-.69Zm-7.72,2.8a3.52,3.52,0,0,0,3.6-2.69H50.54a1.85,1.85,0,0,1-1.9,1.38,1.32,1.32,0,0,1-1-.39A1.68,1.68,0,0,1,47.26,18a4.47,4.47,0,0,1,.67-2.36,2,2,0,0,1,1.78-1.11q1.34,0,1.35,1.26h1.52c0-.13,0-.29,0-.47a1.91,1.91,0,0,0-.7-1.5,2.88,2.88,0,0,0-1.93-.6,3.79,3.79,0,0,0-3.09,1.48,5.55,5.55,0,0,0-1.2,3.6,2.48,2.48,0,0,0,.74,1.9A2.83,2.83,0,0,0,48.46,20.9Zm6.85,45.5a.89.89,0,0,1,.9.89v7a.89.89,0,0,1-.9.89H51.43a.89.89,0,0,1-.89-.89v-7a.89.89,0,0,1,.89-.89Zm-.47.69H51.9a.72.72,0,0,0-.68.75v5.94a.72.72,0,0,0,.68.75h2.94a.72.72,0,0,0,.68-.75V67.84A.72.72,0,0,0,54.84,67.09ZM39.51,20a.64.64,0,0,0,.32.59,1.82,1.82,0,0,0,1,.2,4.88,4.88,0,0,0,.81-.05l.22-1.05-.42,0a.62.62,0,0,1-.32-.06.18.18,0,0,1-.09-.17.52.52,0,0,1,0-.11l.64-3h.89l.21-1h-.88l.31-1.46H40.78l-.31,1.46h-.74l-.21,1h.73l-.7,3.28a1.76,1.76,0,0,0,0,.38Zm94.16,4.35H11.22v1.25H133.67ZM49.9,67.3v7a.88.88,0,0,1-.89.88H45.13a.88.88,0,0,1-.89-.88v-7a.89.89,0,0,1,.89-.89H49A.87.87,0,0,1,49.9,67.3Zm-.68.54a.72.72,0,0,0-.68-.75H45.6a.72.72,0,0,0-.68.75v6a.72.72,0,0,0,.68.75h2.94a.72.72,0,0,0,.68-.75ZM62.39,18.73a4,4,0,0,1,.83-2.48,2.48,2.48,0,0,1,2-1.08,1.49,1.49,0,0,1,1.46.87h0l.55-2.61h1.42l-1.55,7.28H65.77l.15-.68h0a2.12,2.12,0,0,1-1.71.82,1.64,1.64,0,0,1-1.31-.57,2.29,2.29,0,0,1-.49-1.55Zm1.49-.13a1.17,1.17,0,0,0,.26.79.86.86,0,0,0,.68.29A1.33,1.33,0,0,0,66,19a2.51,2.51,0,0,0,.45-1.45,1.48,1.48,0,0,0-.23-.89.81.81,0,0,0-.68-.29,1.35,1.35,0,0,0-1.16.67,2.63,2.63,0,0,0-.46,1.53ZM108.66,42h0s0,0,0,0h0s0,0,0,0l.08,0h-.08a.06.06,0,0,0-.06,0s0,0,0,0S108.66,42,108.66,42ZM24.33,18.81a3.82,3.82,0,0,1,.93-2.55,3,3,0,0,1,2.36-1.09,1.93,1.93,0,0,1,2.08,2.07,4.23,4.23,0,0,1-.17,1.16H25.77c0,.11,0,.2,0,.27,0,.7.31,1,.95,1a1.23,1.23,0,0,0,1.15-.58h1.46a2.86,2.86,0,0,1-2.84,1.72,2.23,2.23,0,0,1-1.55-.54A1.91,1.91,0,0,1,24.33,18.81ZM26,17.48h2.27c0-.13,0-.22,0-.3a.82.82,0,0,0-.22-.63.91.91,0,0,0-.64-.21A1.53,1.53,0,0,0,26,17.48Zm13.34-4.13H37.91l-.28,1.32h1.42ZM16.13,20.9a3.52,3.52,0,0,0,3.61-2.69H18.22a1.85,1.85,0,0,1-1.9,1.38,1.32,1.32,0,0,1-1-.39A1.68,1.68,0,0,1,14.94,18a4.47,4.47,0,0,1,.67-2.36,2,2,0,0,1,1.78-1.11q1.34,0,1.35,1.26h1.52c0-.13,0-.29,0-.47a1.91,1.91,0,0,0-.7-1.5,2.88,2.88,0,0,0-1.93-.6,3.79,3.79,0,0,0-3.09,1.48,5.55,5.55,0,0,0-1.2,3.6,2.47,2.47,0,0,0,.73,1.9A2.86,2.86,0,0,0,16.13,20.9Zm6.2-3a1.47,1.47,0,0,1,1.59-1.29l.39,0,.31-1.44a1.72,1.72,0,0,0-.33,0,2,2,0,0,0-1.65,1.07h0l.2-.93H21.46l-1.15,5.4h1.42Zm15.44,2.81,1.15-5.4H37.49l-1.15,5.4Zm-7.09-.43a2.29,2.29,0,0,1-.49-1.55A4,4,0,0,1,31,16.25a2.51,2.51,0,0,1,2.05-1.08,1.47,1.47,0,0,1,1.45.87h0l.55-2.61h1.43L35,20.71H33.57l.14-.68h0a2.11,2.11,0,0,1-1.7.82,1.63,1.63,0,0,1-1.31-.57Zm1-1.68a1.17,1.17,0,0,0,.25.79.88.88,0,0,0,.69.29A1.35,1.35,0,0,0,33.76,19a2.58,2.58,0,0,0,.44-1.45,1.48,1.48,0,0,0-.22-.89.81.81,0,0,0-.68-.29,1.37,1.37,0,0,0-1.17.67A2.7,2.7,0,0,0,31.68,18.6Zm85.41,3.67a5.84,5.84,0,0,0,3-.8,5.92,5.92,0,0,1,0-10.26,5.93,5.93,0,1,0-3,11.06Zm-86.29,26h0v-.7h6.78V44.44H30.8v-.82h6.78V40.5H30.35v-.7h6.53V37.09H30.35v-.7H26v.7H19.47V39.8H26v.7H18.77v3.12h7v.82h-7v3.12h7v.7h-7V51.5H26v.7H19.47v2.71H26v.7h4.36V54.9h6.53V52.21H30.35v-.7h7.23V48.26Zm-12.65,0h.61v-.7h-.61V44.44h.61v-.82h-.61V40.5h.61v-.7H17.45V52.21h1.31v-.7h-.61ZM39,67.3v7a.88.88,0,0,1-.89.88H34.24a.88.88,0,0,1-.89-.88v-7a.89.89,0,0,1,.89-.89h3.89A.88.88,0,0,1,39,67.3Zm-.69.54a.72.72,0,0,0-.68-.75H34.71a.72.72,0,0,0-.68.75v6a.72.72,0,0,0,.68.75h2.94a.72.72,0,0,0,.68-.75ZM49.72,83.61h-1l-1.83,2.25c-.15.19-.31.4-.47.64h0V83.61h-.77v6h.77V87.31l.58-.65,2,2.94h.92l-2.34-3.45ZM37.58,40.5h.84v3.12h-.84v.82h.84v3.12h-.84v.7h.84v3.25h-.84v.7h1.54V39.8H37.58ZM123,16.34a5.91,5.91,0,0,1-3,5.13,5.93,5.93,0,1,0,0-10.26A5.91,5.91,0,0,1,123,16.34ZM43.59,86.13c0,.92,0,1.64.09,2.44h0a15.94,15.94,0,0,0-1.06-1.94l-1.92-3h-.85v6h.73V87c0-1,0-1.72,0-2.47h0a20.17,20.17,0,0,0,1.11,2l1.91,3h.78v-6h-.73Zm-6.68-2.52,2,6h-.82l-.64-1.89H35.36l-.62,1.89h-.8l2-6Zm.42,3.5-.6-1.72c-.12-.39-.21-.75-.3-1.1h0a9.83,9.83,0,0,1-.29,1.09l-.58,1.73Zm-16.92-3.5-1.07,2.9c-.26.75-.48,1.4-.64,2h0c-.16-.62-.36-1.28-.61-2l-1-2.9h-1l-.42,6h.74L16.55,87c.05-.9.1-1.9.12-2.65h0c.17.71.4,1.48.69,2.33l1,2.85h.58L20,86.66c.3-.83.54-1.58.75-2.27h0c0,.74.06,1.74.1,2.58L21,89.6h.77l-.37-6Zm-1.19-8.39H15.34a.89.89,0,0,1-.89-.89v-7a.89.89,0,0,1,.89-.89h3.88a.89.89,0,0,1,.9.89v7A.89.89,0,0,1,19.22,75.22Zm-.47-.68a.72.72,0,0,0,.68-.75v-6a.72.72,0,0,0-.68-.75H15.81a.72.72,0,0,0-.67.75v6a.72.72,0,0,0,.67.75Zm2.89.68a.89.89,0,0,1-.89-.89v-7a.89.89,0,0,1,.89-.89h3.89a.89.89,0,0,1,.89.89v7a.88.88,0,0,1-.89.88H21.64Zm.47-.68h2.94a.72.72,0,0,0,.68-.75v-6a.72.72,0,0,0-.68-.75H22.11a.72.72,0,0,0-.68.75v6A.72.72,0,0,0,22.11,74.54ZM33.37,87.89a1.58,1.58,0,0,1-.51,1.2,3,3,0,0,1-2.06.56,10,10,0,0,1-1.2-.07V83.7A6.76,6.76,0,0,1,31,83.56a2.43,2.43,0,0,1,1.63.44,1.23,1.23,0,0,1,.51,1.06,1.41,1.41,0,0,1-1,1.31v0A1.53,1.53,0,0,1,33.37,87.89Zm-3-1.74h.7c.81,0,1.29-.44,1.29-1s-.52-1-1.3-1a4,4,0,0,0-.69,0Zm2.19,1.73c0-.8-.71-1.15-1.55-1.15h-.64V89a3.73,3.73,0,0,0,.65,0C31.82,89.05,32.56,88.75,32.56,87.88Zm-.74-12.66H27.94a.89.89,0,0,1-.89-.89v-7a.89.89,0,0,1,.89-.89h3.88a.89.89,0,0,1,.9.89v7A.89.89,0,0,1,31.82,75.22Zm-.47-.68a.72.72,0,0,0,.68-.75v-6a.72.72,0,0,0-.68-.75H28.41a.72.72,0,0,0-.67.75v6a.72.72,0,0,0,.67.75ZM26.39,88a10.85,10.85,0,0,0,.46,1.65h-.8a7.32,7.32,0,0,1-.39-1.43c-.18-.83-.51-1.14-1.21-1.16h-.73V89.6H23V83.7a8.07,8.07,0,0,1,1.48-.13,2.45,2.45,0,0,1,1.74.49,1.48,1.48,0,0,1,.47,1.14,1.58,1.58,0,0,1-1.12,1.52v0a1.51,1.51,0,0,1,.87,1.2Zm-.53-2.67c0-.77-.56-1.1-1.38-1.1a3.76,3.76,0,0,0-.76.06v2.18h.79c.83,0,1.35-.45,1.35-1.14Zm82.88-40.39s.05,0,0,0,0,0,0,0a.31.31,0,0,1-.05.07.28.28,0,0,0-.06.06l0,0,0,0s0,0,0,0a.08.08,0,0,0,0,.05s.06-.05.07-.08l.06-.07s0,0,0-.06,0-.05,0,0,.1,0,.07-.07-.06-.05-.09,0,0,0-.07,0l-.11,0c-.05,0-.06,0-.06,0a0,0,0,0,0,0,0Zm6.11-3.33h0s0,0,0,0h0S114.86,41.57,114.85,41.56Zm.07,0h0s0,0,0,0Zm0,0h0s0,0,0,0Zm.17-.78s0,0,0,0h0S115.14,40.82,115.09,40.84Zm-.28.83s0,0,0,0,0,0,0-.06,0,0,0,0-.05,0,0,0,0,0,0,0,0,0,0,0Zm-3.93-.16,0,0s0,0,0,0,0,0,0,0Zm-.56,13.92s0,0,0,0l0,0s0,0,0,0,0,0,0,0-.07,0-.07-.05,0,0,0,0,0,0,0,.08,0,0,0,0Zm-.74-13.56s0,0,0,0h0Zm9.94,8.1c.06,0,.09,0,0,0s0,0,0,0,0,0,0,0h0s0-.07,0-.08a0,0,0,0,1,0,0,.06.06,0,0,0,0,0s-.08-.05-.09,0l-.06,0s0,0-.07.17,0,.12,0,.1Zm-9.13,4.32s0,0,0,0h0l0,0Zm-.2,1.08h0s0,0,0,0S110.18,55.37,110.19,55.37Zm0,.05h0s0,0,0,0Zm-3.5-12.49a.11.11,0,0,0-.07,0s0,0,.05,0S106.67,42.93,106.64,42.93Zm5.18,9.32,0,0v0h0S111.81,52.25,111.82,52.25Zm2-11.33s0,0,0,0v0l0,0S113.81,40.92,113.83,40.92Zm-1.66.5h0s0,0,0,0Zm11.43,8h0ZM112.43,42.6h0s0,0,0,0Zm6.81,7.84s0,0,0-.06,0,0,0,0,0,0,0-.05a0,0,0,0,0,0,0,.1.1,0,0,1,0,0,.31.31,0,0,0,0-.08s0,0,0,.07a1,1,0,0,1,0,.15.15.15,0,0,1,0,.06s0,0,0,.07a.08.08,0,0,1,.05.06.17.17,0,0,0,0,.05l0,0s0,0,0,0,.05,0,0-.06a.29.29,0,0,1,0-.09.15.15,0,0,0-.05-.09Zm.41.41a.93.93,0,0,1,0,.23s0,.15,0,.16,0,0,0,0,0,0,0,0,0,0,0,0h0a0,0,0,0,0,0,0s0-.19,0-.2,0-.07,0-.08a.15.15,0,0,1,0-.08.24.24,0,0,0,0-.09s0,0,0,0l0,0Zm-9.85-9s0,0,0,0h0S109.79,41.82,109.8,41.83Zm1.36-.45h0a0,0,0,0,0,0,0S111.15,41.37,111.16,41.38Zm.81.08h0s0,0,0,0Zm-.85-.24s0,0,0,0h0Zm0,.2h0S111.14,41.41,111.14,41.42Zm0-.07a.07.07,0,0,1,0,0s0,0,0,0-.1,0-.1.05S111.11,41.38,111.14,41.35Zm.24,0c.05,0,.05,0,0,0s0,0,0,0h0s0,0,0,0S111.36,41.3,111.38,41.31Zm-2.83,6.19h0Zm-3.35-3.06v0l0,0s0,0,0,0S105.2,44.41,105.2,44.44Zm-.89-.8h0s0,0,0,0Zm.9.69,0,0s0,0,0,0,0,0,0,0Zm-.81-.27h0Zm.81.12s0,0,0,0,0,0,0,0h0s0,0,0,0a0,0,0,0,1,0,0s0,0,0,0Zm4.46,10.33s0,0,0,0l0,0h0Zm-5.87-10.2h0Zm.1,0h0S103.88,44.31,103.9,44.3Zm1.36-.15h0Zm-1.75.36s0,0,0,0h0Zm.52-.66h0s0,0,0,0S104,43.85,104,43.85Zm.24.27h0s-.06,0-.06,0l0,0Zm0,0h0S104.29,44.1,104.31,44.1Zm1,0s0,0,0,0h0S105.27,44.1,105.26,44.1ZM109,48.54l0,0a.08.08,0,0,0,0,.08.14.14,0,0,0,0,0s0,0,0-.07v0l0,0Zm-.79.13s0,0,0,0,0-.06,0-.06A0,0,0,0,0,108.21,48.67Zm-2.95-4.32h0s0,0,0,0,0,0,0,0Zm4,6.95s0,0,0,0a0,0,0,0,1,0,0s0,0,0,0a.06.06,0,0,0,0,0C109.24,51.27,109.22,51.27,109.23,51.3Zm.4,3.17s0,0,0,0l0,0S109.62,54.44,109.63,54.47Zm0-.08a0,0,0,0,0,0,0h0A.1.1,0,0,0,109.67,54.39Zm-2.08-6a0,0,0,0,0,0,0s0,0,0,0,0,0,0,0,0,0,0,0,0,0,0,0,0,0,0,0Zm-2.31-4.16s0,0,0,0l0,0s0,0,0,0l0,0h0Zm.18.68s0,0,0,0-.05,0-.05,0h0s0,0,0,.06,0,0,0,0,0,0,0,0a0,0,0,0,1,0,0s0,0,0,0a0,0,0,0,0,0,0s0,0,0,0Zm-.17-.71s0,0,0,0a.08.08,0,0,0,.08,0s0,0,0,0l0,0Zm.07.81h0s0,0,0,0,0,0,0,0Zm0-.72s0,0,0,0h0Zm6,8.74v0s0,0,0,0S111.34,53.07,111.35,53.06Zm9.55-8.71,0,0h0Zm.36.92s0,0,0,0,0,0,0,0,0-.05,0-.09,0-.11-.05-.11,0,0,0,0,0-.07-.05-.08a.09.09,0,0,1,0,0h0s0,0,0,0v0l0,0s0,0,0,0l0,0s0,0,0,0,0,0,0,0,0,0,0,0,0,0,.08,0l.07,0s0-.12,0-.15,0,0,0,0-.1,0-.1,0l-.08,0c-.08,0-.12.06-.12.09a0,0,0,0,1,0,0,.12.12,0,0,0-.11.07l0,0s0,0,0,0a.15.15,0,0,1,.08.12s0,.07.13.19a.7.7,0,0,0,.15.14l0,0s0,0,0,0h0s0,0,0,.06a.13.13,0,0,1,0,.08s0,0,0,.06a.14.14,0,0,0,.08.1l.08,0a.23.23,0,0,0,.23,0c.07,0,.09,0,.09,0a.41.41,0,0,1,0-.1c0-.09,0-.14,0-.13Zm.39-.62s0,0,0,0,0,0,0,0S121.62,44.6,121.65,44.65Zm-.05,0s0,.09,0,.09,0,0,0-.06S121.6,44.63,121.6,44.64Zm.13,0h0s0,0,0,0h0s0,0,0,0a0,0,0,0,0,0,0s0,0,0,.08,0,.07,0,.07h0a.05.05,0,0,0,0,0s0,0,0,0l0,0s0,0,0,0Zm.06-.09h0s0,0,0,0Zm-.57-1.43a1.45,1.45,0,0,0-.11-.46.73.73,0,0,1-.07-.17l.07.17A1.45,1.45,0,0,1,121.22,43.08Zm0,2h0s0,0,0,0h0l0,0a.12.12,0,0,1,0-.06s-.08,0-.08,0,0,.09,0,.09Zm-.85,2.71h0Zm-.07-3h0Zm1.82-2.58,0,0s0,0,0,0-.1,0-.09,0Zm-2.54,4.21a0,0,0,0,0,0,0s0,0,0,0v0S119.61,46.43,119.61,46.44ZM121.25,44a.6.6,0,0,0-.28,0A.6.6,0,0,1,121.25,44Zm-.34,1.18h0Zm2.72,45.8a7.44,7.44,0,0,0,0-9.77,7.47,7.47,0,0,0,0,9.77Zm2.82-11.78a7.36,7.36,0,0,0-5.63,0,7.45,7.45,0,0,1,2.81,2A7.56,7.56,0,0,1,126.45,79.15ZM123,44.61h0s0,.06,0,.08,0,0,0,0,0,0,0,0,0,0,0,0l0,0s0,0,0,0h0s-.08,0-.06,0ZM120.82,93a7.48,7.48,0,0,0,5.63,0,7.51,7.51,0,0,1-2.82-2A7.39,7.39,0,0,1,120.82,93Zm8.44-14.36a7.3,7.3,0,0,0-2.81.56,7.46,7.46,0,0,1,0,13.8,7.3,7.3,0,0,0,2.81.56,7.46,7.46,0,0,0,0-14.92ZM125.44,60h-16.7A10.12,10.12,0,0,1,98.62,49.92V46.6a10.11,10.11,0,0,1,10.12-10.11h16.7A10.11,10.11,0,0,1,135.55,46.6v3.32A10.11,10.11,0,0,1,125.44,60Zm1.71-9.62a.25.25,0,0,1,.17,0,1,1,0,0,0,.28,0h.1s.07,0,0,0,0,0,0,0a0,0,0,0,1,0,0s0,0,0,0h0l.05,0,.08,0h.09l.05,0h0a.08.08,0,0,0,.09,0h0a.75.75,0,0,0,.3,0l.08,0h.08a.18.18,0,0,0,.12,0s0,0-.15,0h-.06a.06.06,0,0,0,0,0,.08.08,0,0,1,0,0l-.17,0c-.05,0-.07,0-.08,0h0s0,0,0,0,0,0,0,0h0s0,0,0,0,0,0,0,0h-.07s-.07,0-.08,0,0,0,0,0,0,0,0,0,0,0,0,0,0,0-.06,0l0,0s0,0,0,0,0,0-.06,0-.07,0-.07,0,0,0-.09,0,0,0-.06,0h0s.11,0,.11,0h-.24s0,0-.05,0h0s0,0,0,0a.06.06,0,0,1-.06,0h-.09s0,0-.06,0l-.05,0-.07,0h0s0,0-.05,0h0s0,0,0,0,0-.07,0-.12,0-.14,0-.13a0,0,0,0,0,.06,0h0s0,0,0,0h0v0s0,0,0,0,0,0,0-.07,0,0-.08,0,0,.05,0,.05h-.06l0,0a.08.08,0,0,1,0,0s0,0,0,0l0,0s0,0,0,0,0-.07,0-.09,0,0,0,0,0,0,0,0,0,0,0,0,0,0,0,0l0,0s0,0-.06,0l0,0a0,0,0,0,0,0,0l0,0h0s0,0,0,0l0,0h0s0,0-.08-.07l-.06,0h0v0s0,0,0,0l0,0s0,0-.09,0a.24.24,0,0,1-.1,0s-.05,0-.07,0,0,.09.17.22a.18.18,0,0,1,.07.09s0,0,.06.06a.11.11,0,0,1,.06,0,.25.25,0,0,0,.06.15.49.49,0,0,1,.15.23s0,.08.1.13l0,0,.13.11c.11.1.11.1.15.09h.06s0,0,0,.05,0,0,0,0,0,0,0,0h0s.09,0,.08.05h0l.08,0Zm1.09-2.35s0,0,0,0,0,0,0,.08,0,.1.08.1a0,0,0,0,0,0,0h0a.08.08,0,0,1,0,0s0,.06,0,.05h0s-.05,0-.05,0,0,0,0,0,0,0,0,.05a.21.21,0,0,1,.06.08s0,0,.06,0,0-.07,0-.09,0,0,0,0,.08,0,.05,0,0,0,0,0,0,0,0,0,0,0,0,0h0a0,0,0,0,0,0,0c0-.05,0,0,.05,0s.06.07,0,.07,0,0,0,0l-.05-.06s0,0,0,0a.08.08,0,0,1,0,.06s0,0,0,0h0c.06,0,.06,0,0,0s0,0,0,0a.08.08,0,0,0,0,0s0,0,0,0,0,0,0,0h0s0,0,0,0,0,0,0,0-.05,0-.05,0h-.09s0,0,0,0a.08.08,0,0,0-.07,0s-.06,0-.06,0,0,0,.05,0,0,0,0,0l-.07,0s0,0,0,0,0,0,0,0,.05-.09,0-.13a.12.12,0,0,1,0-.07s0,0,0,0h-.06s-.06,0-.07,0,0,.18,0,.21Zm1.37-2.44s0,0,0,0,0,0,0,0a0,0,0,0,0,0,0s0,0,0,0,0,0,0,0,0,0,0,0,0,0-.09,0a.51.51,0,0,1-.17-.1l-.12-.07,0,0s0,0,0,0,0,0,0,0h0s.13.11.11.14,0,0,0,0,0,0,0,0-.06,0,0,0,0,0,0,0,0,0,0,0v0s.07,0,.08.06.05,0,.05,0h0s0,0,0,0-.05,0-.05,0,0,0,0,0h.05s0,0,.09,0l.09,0h0s0,0,0,0,0,0,0,0,0-.06.05,0,.08,0,.08,0,0,0,0,0,0,0,0,0Zm-.54.69H129c-.05,0-.08,0-.08,0s-.06.07-.09.07,0,0,0,0,0,0,0,0l0,0s0,0,0,0l0,0,0,0h0s0,0,0,.06l0,.06s0,0,0,0l0,0h0s0,0,0-.1v-.08s0,0,0,0,.09.06.08,0a0,0,0,0,1,0-.06h0s0,0,0,0v0s0,0,0,0h0s.06.06.09.07,0,0,0,0l0,0s0,0,0,0h0s0,0,0,0h.08c.06,0,.06,0,.06,0a0,0,0,0,1,0,0,0,0,0,0,0,0,0s.05,0,0,0,0,0,.06,0,0,0,0,0,0,0,0,0a0,0,0,0,1,0,0s0,0,0,0a.09.09,0,0,1,0-.06v0s0,0,0,0l0,0a.09.09,0,0,1,0-.05h.06a0,0,0,0,0,0,0,.12.12,0,0,1,0-.05s0-.06-.09-.14a.38.38,0,0,1-.08-.09,0,0,0,0,0,0,0h-.05s0,0,0,0a0,0,0,0,1,0,0s0,0,0,0,0,0,0,0,0,0,0,0a0,0,0,0,1,0,0s0,0,0,0a0,0,0,0,1,0,0,.16.16,0,0,1,0,.15s0,0,0,0,0,0,0,0h-.06s0,0,0,0,0,0,0,0,0,0,0,0,0,0,0,0h0s0,.05,0,.05,0,0,0,0,0,0,0,0h0s0,0-.08,0Zm.05,3.32s0,0,0,0,0,0,0,0,.08,0,.08,0,0,0,0,0,0,0,0,0,0-.08,0-.07.06,0,0,0,0,0,0,0,0-.07,0-.07l-.05,0s0,0,0,0,0-.06,0,0a.19.19,0,0,0,0,.07.1.1,0,0,1,0,0s0,0,0,0,0,0,0,0,0,0,0,0,0,0,0,0,0,0,0,0Zm0,.32s0,0,0,0,0,0,.05,0,.05,0,.05,0,0,0,0,0h0s0,0,.07,0,.06,0,.06,0-.1-.09-.24-.07h-.05s0,0,0,0h0S129.09,50,129.11,50Zm-.76-.31s0,0,.2,0,.26,0,.26,0l0,0a.15.15,0,0,0,0-.06s0,0-.09,0a.09.09,0,0,1-.06,0l-.13,0h-.1s-.05,0-.06,0l0,0s0,0,0,0-.06,0-.06.07v0s0,0,0,0,0,0,0,.06a.11.11,0,0,0,0,.06s0,.1-.05.1,0,0,0,0a.43.43,0,0,0,0,.05s0,0,0,0,0,0,0,0a.2.2,0,0,1,0,.1c0,.06,0,.07.06.06s0,0,0,0c0-.18,0-.23,0-.24s.05,0,0,0,0,0,0,.06,0,0,0,0a0,0,0,0,0,0,.05l.05,0,0,0s0,0,0,0,0,.07,0,.09,0,0,.05,0a.08.08,0,0,0,0,0s0,0,0,0,0,0,0,0,0,0,0,0a.05.05,0,0,1-.05,0s0-.05,0-.08,0-.06,0-.07l0,0a.07.07,0,0,0,.05,0s0,0,0,0,0,0,0,0,0,0-.07,0l-.08,0s-.05,0-.07,0-.06,0-.06,0a.07.07,0,0,1,0,0c-.05,0-.05,0-.05-.06Zm.47-1v0s0,0,0,0h0l0,0a.11.11,0,0,1,0-.07s0,0-.07-.06-.06,0-.06,0l0,0s0,0,0,0h0s0,0,0,0a0,0,0,0,0,0,0s0,0,0,0,0,0,0,0l0,0a0,0,0,0,0,0,0s0,0,0,0,0,0,0,0h0s0,0,0,0,0,0,0,0,0,0,0,0,0,0-.05,0,0,0,0,0,0,0,0,0l0,0h0a.14.14,0,0,1,0,0,.13.13,0,0,0,0,.05s.05,0,.05,0l0,0s0,0,0,0,0,0,0,0h0s0,0,0,0,0,0,0,0,0,0,0,.07,0,.06,0,.08l.07,0s0,0,0,0,0,0,0,0a.06.06,0,0,1,0,0s0,0,0,0,0-.05,0-.05a0,0,0,0,1,0,0,.08.08,0,0,0,0,0s0,0,0,0a.07.07,0,0,1,0-.05s0,0,0,0a.61.61,0,0,0-.06-.19s0,0,0,0,0,0,0,0,0,0,0,0,0,0,0,0,0,0,0,0,0,0,0,0Zm-.12,0s0,0,0,0h-.06s0,0,0,0,0,0,0,0l-.06,0s0,0,0,0h0a.08.08,0,0,1,0,.07c0,.06,0,.07,0,.05s0,0,0,0h0s0,0,0,0,0,0,0,0l0,0,0,0s0,0,0,0,0,0,0,0,0,0,0,0,0,0,.06,0,0,0,0-.06,0,0,0,0Zm.12,1.85-.08,0c-.05,0-.07,0-.07.06l0,0s0,0,0,0,.1,0,.15-.06a.39.39,0,0,1,.11-.06c.07,0,.16-.06.15-.08a0,0,0,0,0-.05,0h-.08c-.06,0-.09,0-.1,0Zm-.61-1.89a.25.25,0,0,1,0,.07l0,0s0,0,0,0-.12.08-.12.1,0,0,0,0,0,0,0,0l.07-.06.06-.07s.05-.06.08-.07.05,0,0,0,0,0,0,0,0,0,0,0h0s0,0,0,0Zm-.2.35a.14.14,0,0,0,0,0l0,0s0,0,0,0l-.06.05s0,0,0,0,0,0,0,0l0,0s0,0,0,0a0,0,0,0,0,0,0,.13.13,0,0,1,0,.07c-.05,0-.06.06-.11.07h-.09s0,0,0,.06a0,0,0,0,1,0,0s0,0-.05,0h-.09s-.05,0-.07,0,0,.08,0,.18,0,.1.07.1,0,0,0,0a.31.31,0,0,0,0,.09c0,.06,0,.06.1,0s.06,0,.06,0,0,0,0,0h0s0,0,0,0h0s0,0,0,0,0,0,0,0h0s.06,0,.06,0,0,0,.08,0a.09.09,0,0,0,.05,0s0,0,0,0,0,0,0,0a0,0,0,0,0,0,0,.15.15,0,0,1,0-.06s0,0,0,0,0-.05,0-.09l.06,0a.11.11,0,0,0,0-.06c0-.08,0-.11.08-.1s.07,0,0-.07-.05-.05-.05-.06a.07.07,0,0,0,0-.06s0,0,0-.06,0,0,0,0,0,0,.06-.05,0,0,0,0,0,0,0,0,.07,0,.07,0a0,0,0,0,0,0,0l-.1,0s0,0,0,0,0,0,0,0a.09.09,0,0,0,0-.05.05.05,0,0,1,0,0s0,0,0,0Zm2,4.46c0-.05,0-.06-.06,0s-.13,0-.15,0l0,0s0,0,0,0,0,0,0,0a.35.35,0,0,0-.05.08.12.12,0,0,1,0,.07s0,0,0,.06,0,.05,0,.05.14,0,.14-.06h0s0,0,0,0a.09.09,0,0,0,0-.06s0,0,0,0,0,0,0,0l0-.06Zm1.3-1.58h0s-.07.05-.07,0,0,0,0,0,0,0,0,0a0,0,0,0,0,0,0s0,0,0,0,0,0,0,0,0,0,0-.06,0,0,0,0,0,0,0,0h0s0,0,0,0a.14.14,0,0,0,0-.07s0,0,0,0,0,0,0,0l0,0a.17.17,0,0,1-.12,0s0,0,0,0h0s0,0,0,0a0,0,0,0,1,0-.06,0,0,0,0,0,0,0s0,0,0,0,0-.1,0-.12a.19.19,0,0,1,0-.15s0,0,0,0,0,0,0,0,0,0,0,0h0s0,0,0,0h-.07s0,0,0-.06,0,0,0,0,0,0,0,0v0s0,0,0,0,0,0,0,.07,0,0,0,0,0,0,0,0,0,0,0,0,0,0,0,0,0,0,0,0a0,0,0,0,1-.05,0s0,0,0,0,0,0,0,0l0,0s0,0,0,.06a.15.15,0,0,0,0,.08.2.2,0,0,1,0,0,.22.22,0,0,0,0,.08.56.56,0,0,1-.08.23.07.07,0,0,0,0,0s-.05,0-.07,0a.12.12,0,0,1-.09,0l-.07,0s0,0,0,0l0,0a0,0,0,0,1,0,0s0,0,0,0,0,0-.07,0a.1.1,0,0,1-.06-.05l0,0,0-.05,0,0a0,0,0,0,1,0,0s0,0,.06,0a0,0,0,0,0,0-.06h0s0,0,0,0,0,0,0,0,0,0,0,0,0,0,0-.06,0,0,0,0h-.06s0,0,0,0,0,0-.05,0,0,0-.05,0h-.14a0,0,0,0,1,0,0s0,0,0,0,0,0,0,0h0a0,0,0,0,1,0,0s0,0-.05,0h0s0,0,0,0a0,0,0,0,1,0,.05.15.15,0,0,1-.1,0h-.06a0,0,0,0,1,0,0s-.1.07-.09.08,0,0,0,0,0,0,0,0l0,0s0,0,0,0,0,0-.05,0H129s0,0,0,0,0,0,0,0l0,0s0,0-.05,0,0,0,0,0h-.11a0,0,0,0,0,0,0s0,0,0,0,0,0,0,0,0,0,0,0,0,0,0,0,0,0,0,0a0,0,0,0,1,0,0s-.08.05-.08.08v0h-.1s0,0,0,0a0,0,0,0,0,0,0s0,0,0,0l0,0s0,0,0,0l0,0a.12.12,0,0,0-.06,0s-.05.05-.05.08,0,0,0,.08l-.06.08a.22.22,0,0,1-.17.07.12.12,0,0,0-.08,0l-.06,0-.05,0a.1.1,0,0,1-.07,0h-.08l-.06,0s0,0-.07.06a.15.15,0,0,0-.06,0v0a0,0,0,0,1,0,0s0,0,0,0a.17.17,0,0,0,0,.11.16.16,0,0,1,0,.08s0,.06,0,.14,0,.13,0,.07l0,0,0,0v0a0,0,0,0,1,0,0s0,0,0,0a.19.19,0,0,0,0,.08.24.24,0,0,1,0,.09s0,.07,0,.09,0,.05,0,.07,0,.09,0,.17,0,.14,0,.14,0,0,0,0,0,.08-.06.08,0,0,0,0,0,.06,0,.06a0,0,0,0,1,0,0s0,0,.13,0,.13,0,.13,0l.08,0,.05,0a.6.6,0,0,1,.28-.06h.12l0-.06a.19.19,0,0,1,.08-.05h0l0,0s.05,0,.05,0h.07a1,1,0,0,0,.25-.07l.14,0c.12,0,.13,0,.16,0l0,0s.05,0,.06,0l.07,0s0,0,0,0,0,0,0,0,0,.1,0,.11,0,0,0,0,0,0,0,0a.24.24,0,0,1,.12-.1.17.17,0,0,0,.07-.06l.08,0h0l0,0,0,0-.05.06s0,0-.06,0l0,0s0,0,0,0l.05,0a.07.07,0,0,0,.05,0l0,0s0,0,0,.08,0,.06,0,0,0,0,.05,0,0,0,0,.07,0,0,0,.07a.12.12,0,0,0,.05,0h0s0,0,.06,0,0,0,0,0l.05,0a.13.13,0,0,0,.09,0l.06,0,.06,0s0,0,0,0,0,0,0,0a.53.53,0,0,1,.28-.14c.08,0,.15,0,.15-.09l0-.05a.05.05,0,0,0,0,0l.06-.06.12-.11a.86.86,0,0,1,.21-.17s.06,0,.06,0l0,0c.06,0,.09-.08.09-.1l0-.05c.08-.09.13-.15.13-.18l0-.07s0-.07,0,0v0a.3.3,0,0,1,0-.11v0l0,0c.07,0,.08,0,.08-.05ZM131,50.05s0,0,0,0l0,0s0,0,0,0h-.08l-.05,0-.09,0-.13,0-.07,0h0s0,0,0,0a.6.6,0,0,1-.14,0c-.09,0-.1,0-.14,0s-.05,0-.05,0,0,0,0,0h0l0,0,0,0,0,0s0,0-.05,0,0,0,0,0,0,0,0,0,0,0,0,0,0,0,0,0,0,0,0-.06,0-.06,0-.06,0,0-.07,0-.07,0-.14,0l-.06,0h0s-.06,0-.06,0a.17.17,0,0,0,.08.06s.06,0,.06,0,0,0,.13,0,.07,0,.06,0h-.09s0,0,0,0l-.06,0,0,0s0,0,0,0h0a0,0,0,0,0,0,.05h.06s0,0,0,0,0,0,0,0,0,0,.06,0l.07,0,.06,0a.78.78,0,0,1,.25.09l0,0a.08.08,0,0,1,0,0l0,0s0,0,0,0,0,0,0,0a.16.16,0,0,0-.08.1s.12,0,.13,0h.05c.05,0,.06,0,.1,0s.05,0,.12,0h.12s0,0,0,0l0,0h0s0,0,0-.06,0,0,0,0,0,0,0,0h0a0,0,0,0,0,0,0s.09-.09.12-.07l.06,0a.09.09,0,0,1,.06,0l0,0s0,0,0,0l0,0s0,0,0,0h0l0,0s0,0,.07,0h.27s0,0,0,0l0,0c-.06,0-.08,0,0,0s0,0,0,0,0,0,0,0,0,0,0,0,0,0,0,0a.18.18,0,0,0-.07-.08.12.12,0,0,1-.05-.06s0,0,.05,0,0,0,0,0,0,0-.07-.06H131l0,0s0,0,0,0,0,0,0,0h0s0,0,0,0Zm-4.77-7.71s0,0,.06,0,0,0,0,0,0,0,0,0,0,0,0,0h0l.15,0c.1,0,.14,0,.1,0a.88.88,0,0,0-.2-.09.15.15,0,0,1-.07,0S126.18,42.33,126.18,42.34Zm-3.85-1s0,.05.06,0h0s0,0,0,0,0,0,0,0h0l0,0s0,0,.07,0a2.37,2.37,0,0,0,.34.09c.06,0,.09,0,0,0l0,0s0,0-.13-.07-.14,0-.12,0,0,0-.06,0a.53.53,0,0,0-.19,0c-.09,0-.1,0-.07,0s0,0,0,0S122.29,41.26,122.33,41.3Zm-1.84.13s-.12,0-.14,0,0,0,0,0a.1.1,0,0,1-.06.1l0,0h0s0,0,0,0l-.07,0s0,0,0,0,0,0,0,0,0,0,0,0,0,.06.06.05,0,0,0,0a0,0,0,0,0,0,0s0,0,0,0,0,0,0,0,0,0,.13.06.18,0,.19,0,0,0,0,0h0l0,0,0,0,0,0s-.06-.1,0-.1h0a.66.66,0,0,1,.15-.14l.05,0s.09,0,.26-.06.27,0,.16-.09a.14.14,0,0,0-.11,0l-.06,0h-.2c-.14,0-.2,0-.21,0Zm-.63-.42s0,0,0,0h0l0,0s0,0,0,0,0,0,0,0,0,0,0,0h0s0,0,0,0,0,0,.11,0h.08s0,0,0,0,0,0,.06,0h0s.07,0,.07,0h0s0,0,0,0l-.17,0s0,0,0,0,0,0,0,0h-.06l0,0a.43.43,0,0,0-.19.06s0,0,0,0Zm-.42,0c-.07,0,0,0,0,0h0v0c.07,0,.16,0,.16,0h0s0,0,.11,0,0,0,0,0h-.06s0,0,0,0h.07l0,0h0s0,0-.06,0,0,0,0,0,0,0,0,0l0,0a.54.54,0,0,0-.2,0Zm-2.11.11,0,0s0,0-.05,0l.05,0c.07,0,.08,0,.06,0s.06,0,.1.06l0,0,.08,0q.11.06.12,0s0-.05,0-.05.1-.06.07-.06h0a.1.1,0,0,1,.12,0s0,0,0,0,0,0,0,0H118s.06,0,.09,0l0,0s0,0,0,0h0s0,0,0,0,0,0,0,0h0s-.12-.07-.15-.06,0,0,0,0,0,0,.09,0,.27,0,.27,0,0,0,0,0,0,0,0,0a.55.55,0,0,0-.21,0s0,0,0,0-.07,0-.07,0,0,0,0,0a.46.46,0,0,0-.26,0h-.06s0,0,0,0,0,0,0,0,0,0,0,0,0,0,0,0a.07.07,0,0,0-.06,0h-.23s0,0,0,0l0,.06,0,0ZM116,43s-.06.09-.09.08h0s0,0,0,0v0h0s0,0,0,0l0,0h0s0,0,0,0l0,0s0,0,0,0l0,0s0,0,.05,0,0,0,0,0h0s0,0,0,0,0,0,0,0,0,0,0,0v0s0,0,0,0,0,0,0,0,.11,0,.1,0a.08.08,0,0,0,0,0,.07.07,0,0,1,0,.09H116s0,0,0,0,0,0,0,0l0,0h0s0,0,0,.06-.07.06,0,.07.1,0,0,0-.09,0-.09.07l-.05,0s0,0,0,0a.08.08,0,0,0,.08,0,.07.07,0,0,1,.06,0s0,0,.06,0,0,0,.11,0,.09,0,.09,0h.06s.17,0,.17-.06,0,0,0,0,0,0,0,0a.09.09,0,0,0,0-.1.09.09,0,0,0-.11,0s0,0,0,0,0,0,0-.06a.17.17,0,0,1,0-.05s0,0-.07-.07l0-.06c0-.05,0-.09-.07-.09s0,0,0-.07,0,0,0,0v0s0,0-.07,0h-.08s0,0,0,0l0,0s0,0,0,0l0,0a.1.1,0,0,0,0-.05s0,0-.07,0,0,0,0,0-.06,0-.1,0a.06.06,0,0,0-.07,0Zm-.45.57s0,0,0,.08-.07.09,0,.09,0,0,0,0h0s.11,0,.17,0l.1,0s0,0,.06,0a.41.41,0,0,0,0-.11s0-.05,0-.06,0-.06,0-.1a.3.3,0,0,0-.19,0s-.09.09-.07.09h-.05s-.06,0-.07,0,0,0,0,0,0,0,0,0S115.48,43.59,115.51,43.6Zm.38-1h0s0,.05,0,0h0a0,0,0,0,1,0,0s0,0,0,0,0,0,0,0,0,0,0,0v0a0,0,0,0,0,0,0h0s0,0,0,0Zm-6.11-1h.28s.06,0,.07,0,0,0,0,0H110l-.09,0s-.06,0-.06,0l0,0,0,0Zm-.45.09-.07,0c-.07,0-.09,0-.1,0s0,0,.1,0,.15-.06.12-.07h.07s0,0,0,0l0,0s0,0,0,0l-.17,0c-.1,0-.14.06-.06,0Zm.16.33,0,0s0,0,0,.06,0,0,0,0,0,0-.08,0,0,0,0,.07.05,0,0,0,0,0,.16,0a.46.46,0,0,0,.15-.09.43.43,0,0,0,.06-.09s0,0,0,0,0,0,0,0h-.08l-.12,0Zm-1.17,0h.05s0,0,0,0l0,0s0,0,0,0,0,0,0,0,0,0,0,0a.08.08,0,0,0,.07,0h0l0,0s0,0,0,0h.07s.06,0,0,0,.07,0,.24,0l.27-.07a.42.42,0,0,0,.19-.07c.08-.05.07-.07,0-.05h-.06l0,0s0,0,0,0,0,0,0,0h0l-.07,0c-.09,0-.08,0-.06,0s0,0,0,0-.05,0,0,0h-.12s0-.05-.13,0-.08,0,0,0l0,0h0l0,0s0,0-.18,0a1.37,1.37,0,0,0-.29.12l-.07,0a.11.11,0,0,0-.07,0c-.08,0-.09,0,0,0Zm-4.4,2.3v0l-.07,0-.08,0s0,0,0,0l0,0,0,0s-.09,0-.1,0,0,.05,0,0l.05,0,0,0,.08,0s0,0,0-.07h0s0,0,0,0Zm7.41,10.93-.08,0h-.18s0,0,0,0,0,0,0,0,0,0,0,0,0,0,.08,0,0,0,0,0,0,.06,0,.07l.09,0c.06,0,.06,0,0,0Zm1.35-4.93a.87.87,0,0,1-.05-.13l-.09,0c-.08,0-.08,0-.19-.11a.72.72,0,0,0-.15-.11c-.06,0-.07,0-.13,0H112l0,0s0,0-.06,0-.11,0-.1,0,0,0,0,0-.06,0,0-.06l0,0,0,0h0s-.09,0-.11,0h0a.19.19,0,0,0-.11,0,.12.12,0,0,0-.1.07c0,.05,0,0,0,0s0-.08,0-.09a.09.09,0,0,1-.06,0s0,0,0,0,0,0,0-.09a.06.06,0,0,0,0-.07l-.05,0a.32.32,0,0,1,0-.15s0-.12,0-.09a.22.22,0,0,1-.07-.06l-.1-.07,0,0a.44.44,0,0,0-.22,0s-.11,0-.16-.06l-.07-.05s0,0,0,0a.09.09,0,0,0,0-.06s-.15-.1-.17-.09,0,0,0,0,0,0,0-.06l0,0h0a.05.05,0,0,1,0,0h0s0,0,0,0,0,0,0,0,0,0,0,0l0,0s0,0-.09,0h-.15a0,0,0,0,0,0,0l0,0s-.13,0-.13,0,0,0-.11,0h-.12v0s-.06-.08-.11-.08,0,0,0,0,0,0,0,0,0,0,0,0,0,0,0,.06l-.08,0s0,0,0,0a0,0,0,0,0,0,0,0,0,0,0,1,0,0,0,0,0,0,1,0,0,.06.06,0,0,0,.05,0s0,0-.08,0,0,0,0,0a0,0,0,0,1,0,0,.07.07,0,0,0-.05,0l-.08,0s0,0,0,0,0,0,0,0-.12.09-.12.16h0a.07.07,0,0,0-.06,0l0,0s0,0,0,0,0,0-.06,0a.31.31,0,0,0-.17-.09h0l-.09,0c-.1,0-.11,0-.15,0s0,0,0,0h0l0,0s0,0,0,0l0,0s0,0,0,0a0,0,0,0,1,0,0l0-.06a0,0,0,0,1,0,0,.11.11,0,0,0,0-.05s0,0,0,0a.22.22,0,0,0,0-.06.36.36,0,0,1,0-.11.11.11,0,0,0,0-.07s0,0,0,0,0,0,0,0l0,0a.38.38,0,0,0-.21,0,.37.37,0,0,1-.15,0h-.12l0,0a.12.12,0,0,0,0-.08l0-.06s0,0,0,0l0,0a.05.05,0,0,0,0,0l0-.06a.11.11,0,0,0,0,0,0,0,0,0,1,0,0s0,0,0,0l0,0h0s0,0,0,0,0,0,0,0,0,0,0,0a.13.13,0,0,0,0-.06s0,0-.09,0l-.17,0c-.06,0-.09,0-.1.06a.08.08,0,0,0,0,0,.17.17,0,0,1,0,.07.2.2,0,0,1-.17.12.74.74,0,0,0-.19,0s0,0-.06,0a.11.11,0,0,0-.07,0s-.05,0-.07-.1a.09.09,0,0,0,0,0s0-.05,0-.07,0-.06,0-.08a0,0,0,0,1,0-.05.8.8,0,0,1,.11-.29.18.18,0,0,0,0-.11c0-.1,0-.14.21-.24s.27-.14.3-.12h.14s0,0,0,0a.15.15,0,0,0,.11,0s0,0,0,0a0,0,0,0,0,0,0s0,0,0,0,0,0,0,0,0,0,0,0l0,0a.69.69,0,0,1,.33,0l0,0s0,0,.07,0,.08,0,.1,0l0,0s0,.05,0,.09a.19.19,0,0,0,0,.07.26.26,0,0,0,0,.13s0,0,0,0a.05.05,0,0,0,0,0,.09.09,0,0,1,0,0s0,0,0,0,0,0,0,0,0,0,0,0,0,0,0,0l0,0a.21.21,0,0,0,0-.19c0-.05,0-.08,0-.09l0-.08a.33.33,0,0,1,.2-.38l.09-.08a.21.21,0,0,1,.09,0s.05,0,.05,0a.31.31,0,0,1,.15-.08s.07,0,0,0,0,0,0,0,.06,0,0,0l0,0h0s0,0,0-.1,0-.09,0-.09,0,0,0-.05,0,0,0-.06,0-.05,0,0,0,.05,0,.05a.06.06,0,0,0,0,0s0,0,0,0a.06.06,0,0,0,0-.05h0s0,0,0,0,0,0,0-.07,0,0,0,0h0s0,0,.07,0l.07-.09s0-.05.09-.06.16-.07.13-.06,0,0,0,0h.12l0,0s0,0,0,0h0s0,0,0,0,0,0,0,0l0,0s.08-.1.2-.15l.14-.07.07,0s.05,0,0,0,0,0,.07,0l.07,0s0,0,0,0l-.09.06c-.07,0-.08.05-.09.08a.11.11,0,0,0,0,.06s.06,0,.06,0,0,0,0,0,0,0,0,0,.1-.09.11-.08h0a.89.89,0,0,1,.24-.09l0,0,0,0s.09,0,.09-.07h0s0,0,0,0,0,0,0,0,0,0-.09.07-.08.08-.08.07,0,0,0,0-.15,0-.13,0,.06,0,.06,0h.06s0,0,0,0,0,0,0,0-.11,0-.1,0,0,0,0,0,0,0,0,0h0s0,0,0,0,0,0,0,0a.08.08,0,0,1,0-.08l.06-.07,0-.05h0s0,0,0,0,.08-.12,0-.1a1.19,1.19,0,0,0-.34.13c-.07,0-.08,0,0,0a.5.5,0,0,1,.19-.1l.06,0,.06-.06.32,0,.29,0s0,0,0,0l.06,0a.4.4,0,0,1,.16-.08h.05s-.05,0-.06.06a1,1,0,0,0-.16.19h0l0,0,0,0s-.06,0-.06,0h0s0,0,0,0-.06.07.12.06c.34,0,.31,0,.28,0s0,.06,0,.06a0,0,0,0,0,0,0,0,0,0,0,1,0,0h0s0,.06,0,.05.14-.14.09-.14,0,0,0,0h0v0h0l0,0s0,0,0,0a.09.09,0,0,0,0,0l0,0,0,0s0,0,0,0h0s0,0,0,0,0,0,0,0,0,0,0,0,0,0,0,0,0,0,0,0,0,0,0,0,0,0,0,0h0a0,0,0,0,0,0,0h-.06s0,0,0,0l0,0s0,0,0,0h-.05a.1.1,0,0,1,.05,0s0,0,0,0,0,0,0,0v0l0,0s0,0,0,0,0,0,0,0,0,0,0,0h0l.06,0s.06,0,.07-.1,0-.11,0-.11-.07,0,0-.07,0,0-.06,0h0s-.06,0-.1,0,0,0,0,0,0,0,0-.07,0,0,0,0,0-.07,0-.08a0,0,0,0,1,0,0s0,0,0,0,0,0,0-.05a.24.24,0,0,0,0-.08.2.2,0,0,1,0-.09s0,0,0,0,0,0,0,0,0,0,0,0l-.1.07a.25.25,0,0,1-.09.08l-.06,0c-.05,0-.06,0-.08,0s-.07,0-.07-.07,0-.12,0-.13,0,0,0,0h0s0,0,0,0h-.07s0,0,0,0,0,0,0,0l-.1-.07,0,0a0,0,0,0,0,0,0s0,0,0,0a.61.61,0,0,1-.21,0c-.07,0-.08,0-.11,0a.15.15,0,0,0,0,.06s0,.07-.08.1,0,0,0,0,0,0,0,0a.11.11,0,0,0,0,0,0,0,0,0,1,0,0l-.07,0-.06.05a.12.12,0,0,0,0,0h0s.08,0,.08.07a.31.31,0,0,1-.08.15.92.92,0,0,1-.27.16.15.15,0,0,0-.08,0,.09.09,0,0,0,0,0s0,0,0,0,0,0,0,0,0,0,0,0a.2.2,0,0,0,0,.05s0,0,0,.08,0,0,0,0h0s0,0,0,0-.06,0-.06,0a0,0,0,0,0,0,0s0,0,0,0a0,0,0,0,0,0,0s0,0,0,0,.08,0,.08,0,0,0,0,0,0,0,0,0,0,0,0,0,0,0,0,0v0s0-.08,0-.08h-.24l-.08,0s0,0,0,0a.09.09,0,0,0-.08-.06l-.07,0a.09.09,0,0,0-.09,0l-.06,0s0-.07,0-.12,0-.05,0-.05h0a1.09,1.09,0,0,1,.13-.17l.09-.06a.49.49,0,0,1,.12-.08l0,0,.06,0,0,0h0s0,0,0,0,0,0,.07,0,0,0,0,0,0,0,0,0,0,0,0-.05l0,0,0,0,.07,0a.84.84,0,0,0,.26-.15.63.63,0,0,1,.14-.09s0,0-.07.08a.18.18,0,0,0-.07.09l-.06,0c-.07,0-.07.05,0,0s0,0,0,0,0,0,.09,0l.07,0a.05.05,0,0,0,0,0s.09,0,.08,0,.08,0,.15,0,0,0,0,0,0,0,0,0l0,0a.2.2,0,0,0-.12-.07s0,0,0,0l0,0s0,0,0,0,0,0,0,0l0,0c0-.07,0-.07,0,0s0,0,0,0l0,0,.05,0,.06,0s0,0,0,0,0,0,0,0,0-.05.07-.08,0,0,0,0,0,0,0,0,0,0,0,0h.16s.07,0,0,0-.08.06,0,0,0,0,0,0,0,0,0,0h0l0,0s0,0,0,0h0a.33.33,0,0,0,.13-.09h0s-.07,0-.07,0,0,0,0,0a0,0,0,0,0,.05,0h0s0,0,0,0,0,0,0,0h0l0,0,0,0h-.07s0,0,0,0,0,0,0,0,0,0,0,0h.09s0,0-.06,0-.18.08-.15.12.19,0,.19-.07l0,0h0s0,0,0,0,.05,0,.05,0,0,0,0,0,0,0,0,0h0s0,0,0,0h0s0,0,0,0a.13.13,0,0,0,0,.06s0,0,0,0a.05.05,0,0,0,0,0l-.08,0c-.09,0-.1.05-.08.06s0,0,0,0l-.07,0h-.12a.14.14,0,0,0-.11,0c-.08,0-.1.07-.08.09s.07,0,.14,0l.09,0h.11s0,0,0,0a0,0,0,0,1,0,0s0,0,0,0,0,0,0,.06,0,0,.05,0,0,0,.07,0,0,0,.06,0l.1,0h.07l0,0h0s0,0,0,0,0,0,0,0h0s0,0,0,0,0,0,0,0l0,0h0a0,0,0,0,1,0,0s0,0,0,0h.06s0,0,0,0h0s0,0,0,0,0,0,0,0,0,0,0,0,0,0,0,0,0,0,0,0a0,0,0,0,0,0,0s0,0,0,0,0,0,0,0,0,0,0,0,0,0,0-.06,0,0,0,0,0,0-.05-.06,0,0,0,0,0,0,0,0,0,0,0,0,0,0,0,0,.07,0,.08.06,0,0,.05,0h0a.06.06,0,0,0,.08,0s0,0,.06,0,0,0,0,0a.1.1,0,0,1,.06-.05l0,0,0,0,0,0h0s0,0,0,0,0,0,0,0a.07.07,0,0,1,0,0s0,0-.06,0h0l-.05,0a.08.08,0,0,1,0,0s.06-.05.08-.05,0,0,0,0,0,0,0,0,0-.09-.09-.1h-.07s0,0,0,0,0,0,0,0,0,0-.05,0l-.08,0s0,0,0,0,0,0,0,0h0s0,0,0,0l0,0h-.06s0,0,0,0l0,0s0-.05-.15,0a.24.24,0,0,0-.13,0s0,0,0,0-.07,0-.18,0-.13,0-.08,0l0,0h0a.69.69,0,0,0-.46.19l0,0s-.06.07-.06.07h.07c-.09,0-.1,0,0,.06s0,0,0,0h0s0,0,.08,0,0,0,0,0a.08.08,0,0,0,0,.08l0,0-.06.05c-.06,0-.07,0-.06,0s0,0,0,0,0,0,0,0h0s0,0,0,0,0,0,0,0,0,0,0,0,0,0,0-.07,0-.12,0-.09,0,0,0,0,0,0,0,0,0,0,0,0,0,0,0,0a0,0,0,0,1,0-.05s0-.07,0-.06,0,0,0,0,.06,0,.06-.05l.09,0c.09,0,.29-.14.26-.15a.08.08,0,0,0-.07,0h-.11c-.06,0-.16,0-.16.06s0,0,0,0a.05.05,0,0,0,0,0l-.06,0a0,0,0,0,0,0,0s0,.07-.1.1l0,0,0,0a.11.11,0,0,0-.09.07.07.07,0,0,1,0,0,.05.05,0,0,0,0,0s0,0,0,0,0,0,0,0h-.06l-.06,0-.06,0s-.06.05,0,.05l0,0s0,0,0,0,0,0,0,0,0,0-.18.05-.16,0-.16,0h0s-.07,0,0,0,0,0,0,0h0s0,0,0,0l0,0h0s0,0,0,0h0l0,0s0,0,.05,0,0,0,0,0h0l0,0h.19s0,0,0,0l.05,0s0,0,0,0,0,0,0,0,0,0,0,0,0,0,0,0,.09-.06.09-.08a.26.26,0,0,0-.13,0s0,0,0,0l0,0s.06-.11.13-.15l.07,0s0,0-.08,0-.12,0-.09,0a0,0,0,0,1,0,0h0a.13.13,0,0,0-.15,0,.32.32,0,0,0-.06.07s0,0,0,0,0,0,0,0,0,0,0,0-.08,0-.08,0,0,0-.1,0a.1.1,0,0,0-.09,0h0s0,0,0,0,0,0,0,0-.05,0-.15,0l-.2,0a.4.4,0,0,0-.16,0,0,0,0,0,0,0,0,.05.05,0,0,1,0,0l-.07.05-.08,0,0,0-.09.06s0,0,0,0h0s.07,0,.06,0,0,0,.08,0l.11,0a.15.15,0,0,0,.08,0,.73.73,0,0,1,.21-.1s0,0,0,0l-.07,0s0,0,0,0,0,0,0,0-.06,0,0,0,0,0,.15,0l.18,0h0l-.16,0c-.2,0-.26.06-.26.09s0,.05.12,0h.05s0,0,0,0,0,0,.11,0l.18,0,.13,0h.06l0,0c-.11,0-.14.05-.13.1h0s-.07,0,0,0h0s0,0,0,0h-.06a.53.53,0,0,1-.28.06h0s0,0-.05,0,0,0,0,0,.09,0,.05-.06h-.36s-.13,0-.18,0l-.06,0s0,0,0,0h0s0,0,0,0l0,0s-.06,0-.09,0l-.1,0s0,0,0,0,0,0,0-.06h0a.16.16,0,0,1-.11.07s0,0,0,0,0,0,0,0l0,0a1.6,1.6,0,0,0-.27.11h0s0,0,0,0,0,0,0,0a.34.34,0,0,0-.16,0s0,0,0,0l0,0c-.05,0-.2.06-.18,0h-.3l-.18,0-.19,0h-.11s0,0-.07,0-.07,0-.08,0h-.06s0,0-.09,0a.44.44,0,0,1-.16.06l-.17.06-.11.05a.9.9,0,0,0-.26.12l-.18.08-.16.06-.06,0s0,0,0,0,0,0,0,0,0,0,0,0,0,0,0,0a.13.13,0,0,1-.08.07s-.1,0-.08,0a.05.05,0,0,0,0,0s0,0-.11,0l-.26.11c-.08,0-.12.05-.08.05s0,0,0,0,0,0,.1,0,.09,0,.1,0a.08.08,0,0,0,.06,0l.06,0s0,0,0,0-.05.06-.08.08h-.08l0,0a.24.24,0,0,1-.14.05s-.07,0-.15.07l-.05,0a.83.83,0,0,0-.13.07l0,0s-.06.07,0,.08,0,0,0,0,0,0,0,.05,0,0,0,0l.09,0s0,0,0,0l0,0-.05,0a.09.09,0,0,1,0,0s0,0,0,0,0,0,0,0,0,0,0,0l0,0s.11,0,.1,0,0,0,0,0a.06.06,0,0,1,0,0s0,0,0,.05l-.13.08-.08,0-.13.06c-.11,0-.16.09-.16.1h0a.59.59,0,0,0-.21.09l-.16.06a.44.44,0,0,0-.15.09h0l.06,0,.08,0,.06,0,0,0,0,0h0s.07,0,.08,0,0,0,0,0h0s0,0,0,0,0,0,0,0h0s0,0,0,0l.07,0,0,0a.45.45,0,0,0,.14-.07,0,0,0,0,1,0,0h0s0,0,0,0h0s0,0,0,0l.08,0,.16-.08,0,0,.06,0,.08-.05.07,0s.07,0,0,0,0,0,0,0h0l0,0s0,0,0,0l0,0h0l.06,0s.07,0,.07,0l0,0a0,0,0,0,0,0,0s0,0,0,0l-.05,0s.07,0,.16,0l.09-.05s0,0,0,0a.19.19,0,0,1,.13,0,.16.16,0,0,0,.09,0s.07,0,0,0,0,0,0,0h0s0,0,0,0l0,0s0,0,0,0h0s0,0,0,0a0,0,0,0,0,0,0s0,0,0,0l.08,0s0,0,0,0l0,0h0l.11,0,.14,0a.11.11,0,0,0,.08,0h0s0,0,0,0a.12.12,0,0,1,0,.05l0,0s0,.08,0,.11,0,0,0,0,0,0,0,0,0,0,0,0h0s0,0,0,0,0,0,0,0,0,0,0,0,0,0,0,0h0s0,0,0,0,0,0,0,0a.06.06,0,0,0,.06,0s0,0,0,0,0,0,0,0l0,0s0,0,0,0,0,0,0,0,0,0,0,0h0s0,0,0,0h0s0,0,0,0,0,0,0,0,0,0,0,0,0,0,0,0h0s0,0,0,0,0,0,0,0,0,0,0,0,0,0,0,0,0,0,0,0,0,0,0,0h0s0,0,0,0,0,0,0,0,0,0-.09,0h0s0,0,0,0h0s0,0,0,0,0,0,0,0l0,0h0s0,0,0,0,0,0,0,0h.06s0,0,0,0,0,0-.08.1a1.42,1.42,0,0,1-.13.22l0,.06a.73.73,0,0,1-.09.1.77.77,0,0,0-.12.17.37.37,0,0,1-.07.12c0,.05,0,.06,0,.07s0,0,0,.06,0,0,0,.07v.08s0,0,0,0,0,0,0,.05,0,0,0,0,0,0,0,.07a.44.44,0,0,1,0,.1s0,0,0,0,.06,0,.06,0,0,0,0,0,0,0,0,0,0,0,0,0a.07.07,0,0,1,.07.08.82.82,0,0,0,0,.18.18.18,0,0,0,0,0c0,.05,0,.06,0,.07l0,.05s0,0,0,.07,0,0-.07,0h0s.11.1.12.09.11.06.11.08a.09.09,0,0,1,0,.05.11.11,0,0,0,0,0,0,0,0,0,0,0,0s.12.08.12.11,0,0,0,0l0,0s0,0,0,0a.13.13,0,0,1,0-.06h0s0,0,0,0,0,0,0,0,0,0,0,0,0,0,0,0,0,0,0,0,0,0,0,0,0-.07,0-.07l0,0s0,0,0,0,0,0,0,0-.05-.12-.07-.12,0-.06,0-.08v0h0s0,0,0,0l0,0s0,0,0,0h0s0,0,0,0,0-.05,0,0,0,0,0,0,0,0,0-.09,0-.09.06-.08a0,0,0,0,0,0,0s.06,0,.05.05v.08a.14.14,0,0,1,0,.09s0,0,0,0v0s0,0,0,0l0,.05s0,0,0,0,0,0,0,0,0,0,0,0,0,0,0,0,0,0,0,0,0,0,0,0,0,0,0,0a.05.05,0,0,0,0,0,.13.13,0,0,0,.07,0s0,0,0,0l0,.05s0,0,0,.07l.06.07s0,.05,0,.15,0,.07,0,.08,0,0,0,.09a.18.18,0,0,0,.07.05l.06,0s.08,0,.13,0l.06,0a.64.64,0,0,0,.21.09h0l.12,0h.06s.07,0,.15,0l.06,0a.24.24,0,0,1,.17.09c.08.09.12.12.19.13l.09,0a.33.33,0,0,0,.19,0c.05,0,.05,0,0,0s0,0,0,.06.14.16.11.2,0,.06,0,.08,0,0,0,0,0,0,0,0,0,0,0,0,.08.05.06.06,0,0,0,0l0,0s0,0,0,0,0,0,0,0h0s0,0,0,0,0,0,0,0,0,0,0,0,0,0,0,0,0,0,.06,0,.06,0,0-.07,0,0,0-.06l0,0s0,0,0,0,0,0,0,0l0,0s0,0,0,0h0s0,0,0,0,0,.07,0,.09l0,0a.58.58,0,0,1,0,.26s0,0,0,0,0,.1,0,.1a0,0,0,0,0,0,0l0,0s0,0,0,0,0,0,0,0,0,0,0,0,0,0,0,.06-.07,0-.07.06,0,0,0,0,0,0,0,0,0,0,0,0l0,0s0,.1,0,.1l0,0,0,0a0,0,0,0,0,0,0,0,0,0,0,0,0,0h0s0,.05,0,.05,0,0-.07,0,0,.06,0,.1,0,.06,0,.07,0,0,0,0,0,0,0,.06a.19.19,0,0,1,.09.09l.07.1a.53.53,0,0,1,.06.13l.08.12a.17.17,0,0,1,0,.05.05.05,0,0,0,0,0l0,0s0,0,0,0,.11.15.1.17,0,.07.08.14a1.32,1.32,0,0,0,.32.2l0,0s0,0,0,0l0,0a.12.12,0,0,0,0,.05s.07.06.09.11a1.21,1.21,0,0,1,0,.42.1.1,0,0,0,0,0,.1.1,0,0,0,0,0,2.35,2.35,0,0,1,0,.54,0,0,0,0,0,0,.06.19.19,0,0,1,0,.11.18.18,0,0,0,0,.12l0,.08v0s0,0,0,0,0,.06,0,.07,0,.17,0,.27a.31.31,0,0,0,0,.09s0,0,0,0,0,0,0,0,0,0,0,0,0,0,0,0l0,.07a.19.19,0,0,1,0,.09.25.25,0,0,0,0,.19s0,0,0,0,0,0,0,0,0,.06,0,.08.06.1.09,0a0,0,0,0,0,0,0s0,0,0,0,0,0,0,0v0s0,0,0,0,0,0,0,0,0,0,0,0,0,0,0,0a0,0,0,0,1,0,0v0h0a.13.13,0,0,0,0,.05s0,.08,0,.11a.2.2,0,0,0,0,.07s0,0,0,0h0v0s0-.05,0-.05,0,0,0,0,0,.05,0,.05l0,0s0,.05,0,0,.06,0,.06.05a0,0,0,0,1,0,0s0,0,0,0a0,0,0,0,1,0,0s0,0,0,0,0,0,0,0,0,0,0,0h.05s0,0,0,0,0,.07,0,.08,0,0,0,0h0s0,.07,0,.07h0a.24.24,0,0,0,0,.1l0,0a.11.11,0,0,0,0,.05h0s0,0,0,0v0a.07.07,0,0,1,0,0s0,0,.06,0l.06,0,0,0h0s0,0-.07,0,0,0,0,0,0,0,0,0,0,0,0,0,0,0,0,0a.07.07,0,0,1,0,0s0,0,0,0,0,0,0,0,0,0,0,0h0a.06.06,0,0,1,0,0l0,0,0,0s0,0,0,0h0s0,0,0,0l.06,0,0,0s0,0,0,0h0s0,0,0,0a.08.08,0,0,1,.07,0h0s0,0,0,0,0,0,0,0,.08,0,.07,0,0,0,0,0,0,0,0,0h0s0,0,0,0,0,0,0,0,0,0,0,0,0,0,0,0a.64.64,0,0,1-.29-.17c0-.05-.06-.08-.06-.09a.08.08,0,0,0,0,0,.35.35,0,0,1-.11-.16s0,0,0,0,0,0,0-.08,0,0,0-.1.05,0,0,0a.06.06,0,0,1,0,0,.08.08,0,0,0-.07-.07.24.24,0,0,1-.15-.09s0-.12.09-.11,0,0,0,0,0,0,0,0,0,0,0-.07a.08.08,0,0,1,0,0l0,0a.11.11,0,0,1,0,0s0,0,0-.06,0,0-.07,0h-.06a.21.21,0,0,0,0-.07s0-.07,0-.07l.06,0a.19.19,0,0,0,.16,0s0-.06,0-.07,0,0,0,0a.06.06,0,0,0,0-.07s0,0,0,0h0s0,0,0,0,.32,0,.32-.08,0,0,0,0,0-.15,0-.15,0,0,0-.07,0-.06-.09-.1l-.05,0s0,0,0,0a.11.11,0,0,0,.06,0h0s.06,0,.15.05.16,0,.17-.08,0,0,0,0a.19.19,0,0,0,0-.11s0-.06.05-.08,0-.05,0-.06,0,0,0,0,0,0,0,0,0,0,0,0a.21.21,0,0,0,0-.07,0,0,0,0,1,0,0s0,0,0,0,0,0,0,0,0,0,0-.06,0-.13.07-.16a.21.21,0,0,0,0-.21s0-.19,0-.18a.43.43,0,0,0,.11-.12h0l0,0H112s0,0,0,0a.57.57,0,0,1,.26,0c.07,0,.07,0,.08,0s0,0,0-.05,0,0,0,0a.61.61,0,0,1,.1-.23.25.25,0,0,0,0-.1c0-.05,0-.07,0-.08a.43.43,0,0,0,0-.23,1.23,1.23,0,0,0,0-.17c0-.13,0-.17,0-.17s0,0,.06-.1.06-.11.1-.14a.72.72,0,0,0,.15-.22.35.35,0,0,1-.19-.31Zm-7.53-5.54h0s0,0,0,0h0s0,0,0,0h0Zm3,2.46a0,0,0,0,0,0,0,.25.25,0,0,0,.12,0l.08,0a.14.14,0,0,0,.1,0s0,0,0,0a.08.08,0,0,0,0,0l0,0s0,0,0,0,0,0,0,0a1,1,0,0,0,.33,0l0,0,0,0s0,0-.07,0,0,0,0,0,0,0,0,0-.14-.07-.14-.1h0s-.06,0,0,0,0,0,0,0h-.05s0,0,0,0-.23-.07-.3,0l-.11,0-.08,0,0,0s0,0,0,0,0,0,0,0,0,0,0,0l.06,0,0,0,0,0a.16.16,0,0,1,.09,0Zm.69.39s0,0,0,0h.06s0,0,.07,0,.08,0,.11,0l0,0,0,0s.05,0,.05,0,0,0,0,0,.12,0,.13,0h0s0,0,0,0,0,0,0,0a.13.13,0,0,0-.07,0s0,0,0,0-.11,0-.18,0-.06,0-.08,0,0,0-.06,0,0,0,0,0,0,0,0,0a.43.43,0,0,0,0,.05s0,0-.1,0-.08,0-.09,0Zm5.39-5.58a2,2,0,0,0,.44-.13l.06,0,.1,0,.09,0h-.07c-.11,0-.21,0-.17,0s0,0,0,0,0,0,0,0a.06.06,0,0,1,.05,0s0,0,0,0,.15,0,.16,0,0,0,0-.06,0-.06,0-.08,0,0,0,0,.08,0,0,0,0,0,0,0,0,0,0,0,0,0,.08,0,.08-.05,0-.06,0,0,0,0h0a.37.37,0,0,0,.14-.07s0,0,0,0h0s0,0,0,0,0,0,0,0-.06,0,0,.05-.05,0-.06,0,0,0,0,0a.08.08,0,0,0,0-.12s0,0,0,0,0,0,0,0,0,0,0,0,0,0,0,0,0,0,0,0,0,0,0,0,0,0,0,0,0,0,0,0h0s0,0,0,0l0,0s0,0,0,0,0,0,0,0,0,0,.08,0,.06,0,.05,0,0,0,0,0,0,0,0,0,0,0,.07,0l.06,0,.06,0,0,0s0,0,0,0h.06l.1,0c.14,0,.1,0-.08,0h-.17s-.09,0-.07,0h0v0s0,0,0,0h0s0,0,0,0h0s0,0-.05,0-.08,0,0,0a0,0,0,0,0,0,0s0,0,0,0h0s0,0-.08,0l-.15,0a4.65,4.65,0,0,0-.71,0c-.1,0-.26,0-.36,0l-.22,0h-.11l0,0s0,0,0,0h-.07a0,0,0,0,1,0,0s0,0,0,0,0,0,0,0,0,0,0,0,0,0,0,0-.12,0-.13,0,0,0,0,0,0,0-.15,0L113,41h-.06s0,0,0,0-.06,0-.07,0l-.47,0a3,3,0,0,0-.7.11s-.07,0-.11,0a.32.32,0,0,0-.13,0l-.18,0a.74.74,0,0,0-.24.07h0s0,0,0,0l0,0s0,0,0,0l0,0s0,0,0,0,0,0,0,0l-.06,0s0,0-.08,0-.07,0-.07,0l-.06,0s0,0,0,0h0l-.08,0c-.06,0-.06,0-.06.06s0,0,0,0,0,0,0,0,0,0,0,0,0,0,.2,0,.27,0,.22,0h0a.36.36,0,0,0-.14,0s0,0,0,0,0,0,0,0l-.11,0-.07,0s-.06,0-.06,0h0s0,0,0,0h-.15s0,0,0,0h0l-.13,0,0,0s0,0,0,0,.05,0,0,.06l-.1,0-.09,0,0,0s0,0,0-.05H110s-.08,0-.16,0-.07,0-.07.05h0s0,0,0,0,0,0-.08,0-.07.07-.05.07,0,0,0,0,.05,0,.1,0,0,0,0,0,0,0,.1,0,.1,0,.11,0a0,0,0,0,1,0,0s0,0,0,0,0,0,0,0,0,0,0,0,0,0,0,0a0,0,0,0,0,0,0h.07a.12.12,0,0,0,.1,0s0,0,0-.05,0,0,0,0,0,0,0,0,.12,0,.13,0v0l0,0s-.06.07,0,.07a1.39,1.39,0,0,0,.31,0l.26,0h0s.15,0,.23,0a.1.1,0,0,0,.08-.07s-.18,0-.36,0l-.12,0h-.07c-.06,0-.12,0-.06,0h0a.5.5,0,0,1,.17,0l.26,0,.1,0s0,0,0,0h.11s0,0,0,0,0,0,0,0,0,0,0,0,.12,0,.12-.06h0s0,0,0,0h0l.07,0,.11,0c.09,0,.12,0,.09,0s0,0,0,0,0,0,0,0h0s0,0,0,0,.06-.05.22-.08a.49.49,0,0,0,.11,0l.06,0c.27-.08.35-.1.34-.11h0l.06,0,.22-.06s0,0,0,0a.13.13,0,0,1-.1,0,2,2,0,0,0-.38.11s0,0,.06,0h.06s-.06.05-.19.07a3.23,3.23,0,0,0-.44.12l0,0h.06s-.07,0-.07,0h0s0,0,0,0,.09.08.17.08.06,0,.06,0h.09a.9.9,0,0,1,.31,0c.11,0,.14,0,.1,0s0,0,0,0,0,0,0,0,0,0,0,0,0,0,0,0h0a0,0,0,0,0,0,0s0,0,0,0l0,0h0s0,0,0,0,0,0,0,0,0,0,0,0,0,0,0,0,0,0,0,0,0,0,0,0,0,0,.06,0h.06s0,0,0,0a0,0,0,0,0,0,0s0,0,0,0,0,0,0,0,0,0,0,0,0,0,0,0,0,0,0,0,0,0,0,0,0,0,0,0a.33.33,0,0,0-.17,0h0s0,0,0,0h0a.09.09,0,0,1,0,0l0,0,0,0a.15.15,0,0,0,.11,0c.08,0,.09-.05,0-.07s0,0,0,0h.07s0,0,0,.09,0,0-.09,0-.07,0-.1,0l0,.05s-.09.07-.09.09a0,0,0,0,0,0,0s0,0,0,0-.07.06,0,.07a0,0,0,0,1,0,0s0,0,0,0,0,0,0,0,0,0,0,0,0,0,0,.05,0,0,0,.06,0,0,0,0,0,.08,0,.08,0,0,0,0,0,0,0,0,0,0,0,.05,0,.06,0,.06,0,0,0,0,0,0,0,0,.15,0,.15,0,0,0,0,0l.05,0A.12.12,0,0,0,113,43a0,0,0,0,1,0,0,0,0,0,0,0,0,0l0-.07a.28.28,0,0,0,.05-.09.12.12,0,0,1,0,0l.07-.05,0,0a0,0,0,0,0,0,0l0,0a.17.17,0,0,0,0-.05s0,0,0,0,.09,0,.08-.05h.06s0,0,0,0,0,0,0,0,.09,0,.09,0a0,0,0,0,1,0,0h.07l.09,0a.45.45,0,0,0,.14-.1l.1-.07s0,0,0,0,0,0,0,0,0,0,0,0Zm.53.31s0,0,0,0,0,0,0,0h.16a.41.41,0,0,0,.22,0,1.21,1.21,0,0,1,.2-.07c.08,0,.16-.09.16-.12l0,0s0,0,0,0h0s0,0,0,0,0,0,0,0h0s-.06,0-.06,0,0,0,0,0H115c-.06,0-.07,0-.09,0s0,0,0,0a0,0,0,0,0-.05,0s0,0,0,0,0,0,0,0,0,0,0,0,0,0,0,0-.05,0-.08,0l-.05,0s0,0,0,0v0l0,0s0,0,0,0,.13,0,0,0-.08,0-.06,0,0,0,0,0,0,0,0,0a.21.21,0,0,1,.13,0Zm6.55,8.94a.15.15,0,0,1,0-.08s0-.08,0-.1a.68.68,0,0,0-.08-.17,0,0,0,0,0,0,0l0,.07c0,.06,0,.07,0,.05s0,0,0,0a0,0,0,0,0,0,0h0s0,0,0,0a.06.06,0,0,1,0,0,0,0,0,0,0,0,0s0,0,0,0,0,0,0,0-.09.1-.16.13l-.06,0h0s0,0,0,0a.11.11,0,0,1,0,.08s0,.07,0,.22,0,.09,0,.16l0,.09a.23.23,0,0,0,0,.21.13.13,0,0,1,0,.09s0,.06,0,.07,0,0,0,0a.08.08,0,0,0,.07.07,0,0,0,0,1,0,0s.06,0,.09,0l.06,0a.13.13,0,0,0,.09-.1l0,0a.34.34,0,0,0,0-.1s0-.09,0-.12a.49.49,0,0,0,0-.11,1.6,1.6,0,0,1,.07-.19.71.71,0,0,0,0-.18c0-.1,0-.11,0-.11s0,0,0-.1,0,0,0-.06l0,0,0,0a.05.05,0,0,1,0,0s0,0,0-.07Zm2.36-2s0,0,0,0a0,0,0,0,1,0,0s0-.1,0-.09,0,0,0,0,0,0,0,0a0,0,0,0,0,0,0s0,0,0,0,0,0,0,0,0,0,0,0l0,0h0s0,0,0,0v0h.06Zm.84-.51a.34.34,0,0,0-.09-.19l0,0a.16.16,0,0,0-.08-.08h0s0,0,0,0,0,0,0,0,0,0,0,0,0,0,0,0h0s0,0,0,.07a.72.72,0,0,0,0,.23s.06,0,.11,0,.08,0,.08-.11Zm.94-1.38,0,.05s0,0,0,0,.06,0,0,0a0,0,0,0,0,0,0s0,0,0,0,0,0,0,0,0,0,0,0,0,0,.06.06,0,.07,0,.15a.22.22,0,0,0,0,.08l0,0c.07,0,.1,0,.12,0l.06-.05s0,0,0,0,.08.13.1.19l0,.08a.14.14,0,0,1,0,.06s0,0,0,0,0,0,0,0,0,.05,0,.05,0,0,0,0l0,0v0l0,0h0a0,0,0,0,0,.05,0,0,0,0,0,1,0,.06h0s0,0,0,0,0,.1,0,.16,0,.16,0,.14.06,0,.06,0,0,0,0,0h0l0,.06s0,.05,0,.06,0,0,0,0,0,0,0,0,0,0,0,0a.14.14,0,0,1,0,.07s0,0,0,.06a.09.09,0,0,1,0,.06.2.2,0,0,0,0,.08s0,0,0,.06,0,0,.09.08.14.08.13.1,0,0,0,0,0,0,0,0h0s0,0,0,0v0s0,0,0,0,0,0,0,0h0s0,0,0,0h0l0,0h0s0,0,0,0a.17.17,0,0,0,0-.07s0,0,0-.12a1,1,0,0,0,0-.12s-.12-.14-.15-.14,0,0,0,0,0,0-.05,0-.07,0-.1-.09a.22.22,0,0,0,0-.08s0-.08,0-.08,0,0,0-.05v0s0,0-.06,0a.54.54,0,0,1,0-.2.28.28,0,0,0,0-.13c0-.07,0-.07,0-.07s0,0,0,0,0,.05,0,.05.1,0,.1,0h0l0,0,0,0s0,.07.06.07,0,0,0,0h0s0,0,0,.05,0,0,0,0,0,0,0,0l.06,0s0,0,0,0,0,.14,0,.14l0,0,.06-.06s0,0,0,0h0s0,0,0-.06,0,0,0,0a.33.33,0,0,0,.14-.06l0,0s0-.06,0-.1,0,0,0,0,0,0,0,0,0,0,0,0l0-.06a.24.24,0,0,0,0-.09.11.11,0,0,1,0-.06l0,0,0,0a0,0,0,0,0,0,0,.74.74,0,0,1-.18-.17l0,0a.1.1,0,0,1,0-.1s0,0,0,0a.14.14,0,0,0,0-.05l0,0h0s0,0,0,0,.09,0,.13,0h0s0,0,0,0,0,.1.06.11.05,0,0-.06v0s0,0,0,0l0,0h.06s0,0,0,0,0,0,0,0,0,0,0,0h0s.06,0,0,0h0s0,0,0-.05,0,0,0,0,.06.06.06,0l0,0h0s0,0,0,0h0c.05,0,.07,0,.09,0a0,0,0,0,1,0,0l0,0,0,0s.05,0,0,0,0,0,0,0,.05,0,0,0,0,0,0,0,0,0,0,0v0s0,0,0,0,0,0,0,0h0a0,0,0,0,0,0,0s0,0,0,0,0,0,0,0,0-.06,0-.06,0,0,0,0a.06.06,0,0,0,0-.07s0,0,0,0,0,0,0-.07,0-.07,0-.07h0v0s0,0,0,0l-.06,0s0,0,0,0,0,0,0,0h0s0,0,0,0-.05-.05,0-.05h0a0,0,0,0,0,0,0h0a.4.4,0,0,0-.11-.09l0,0a.39.39,0,0,0-.17-.17c-.05,0-.06,0-.05-.07s0,0,.05,0,0,0,0,0,0,0,0,0a.13.13,0,0,1,.08,0s0,0,0,0,0,0-.08-.05l-.09,0s-.09,0-.08,0,0,0,0,0,0,0,0,0a.05.05,0,0,1,0,0,.09.09,0,0,0-.08-.06c-.06,0-.11-.05-.11-.08s0,0,0,0,.08,0,.09,0a.07.07,0,0,1,0,0l0,0s0,0,.06,0,.07,0,0,.07,0,0,0,.07,0,0,0,0,0,0,0,0l.06,0a.17.17,0,0,1,.11,0l.09,0h.07s0,0,0,.09,0,.07,0,.06h0s.06,0,.07,0h.06l0,0s0,0,0,0,0,0,0,.06.07.07.06.08,0,.06,0,.07,0,0,0,0,0,0,.05,0h.1a0,0,0,0,0,0,0h0s.08,0,.08,0a.48.48,0,0,0-.15-.23l-.08-.08-.08-.06a.14.14,0,0,1-.07-.06s0,0,0,0l.07,0s0,0,0-.07,0-.09,0-.08a0,0,0,0,0,0,0s0,0,0,0,0,0,0,0h0s0,0,0,0,.09,0,.13,0,.13-.07.13-.1a.38.38,0,0,1,.05-.15s0,0,0-.1a.35.35,0,0,1,0-.13s0,0,0-.09l0-.08h0s0,0,0,0-.1-.16,0-.15a.38.38,0,0,1,.14.11l.05.07a.36.36,0,0,1,.07.1l.07.09a.12.12,0,0,1,.05.07l0,0,0,0a.22.22,0,0,0,0,.08l.05,0s0,0,0,0,0,0,0,0l.06,0s0,0,0,0,0-.07-.06-.07l0,0s-.05,0-.06-.06a.12.12,0,0,1-.05-.07s0-.06,0-.07,0,0,.11,0,.06,0,.06,0l-.05,0-.1-.08-.16-.16-.14-.14a.3.3,0,0,0-.09-.1.09.09,0,0,1,0,0c-.05,0-.07-.07-.09-.06s0,0,0,0,.05,0,0,0,0,0,0,0,.07.08.06.09-.08-.07-.08-.09a.26.26,0,0,0-.08-.05l-.11-.07c-.05,0-.17-.06-.16,0a0,0,0,0,1,0,.06s0,0,0,0l0,0s0,0,0,0a0,0,0,0,0,0,0s0,0,0,0,0-.06-.06-.05H128s0,0,.1,0,0,0,0,0,0,0,0,0a0,0,0,0,1,0,0s0,0,0,0,0,0,0,0a.12.12,0,0,0-.1-.06c-.11,0-.11,0-.06-.08s.07-.09.06-.1.05-.1.05-.1,0,0,0,0,0,0,0,0a0,0,0,0,0,0,0,0,0,0,0,1,0,0,.75.75,0,0,1,.24,0l0,0s0,0,0,0h.1c.1,0,.11,0,.1,0s0,0,0,0l.13,0h0s0,0,0,0,0,0,0,0l.14,0h.12s0,0-.06-.06-.06,0,0-.08,0,0,0-.06,0,0,.06,0h.13s0,0,0,0,0,.08.06.07,0,0,0,0,0,0,0,0h0s0,0,0,0a0,0,0,0,1,.05,0s0,0,0,0l0,0s0,0,0,0,.07,0,.06,0,0,.1.08.1,0,0,0,.06,0,0,0,0,0,0,0,0,0,0,0,0,0,.09,0,.08h-.05s0,0,0,0,0,0,0,.06.05.13.21.26l.12.11.12.1.09.08.07.06,0,0,0,0a.08.08,0,0,0,0-.11s0,0,0,0h.05s0,0,0,0-.05-.06-.05-.07,0,0,.05,0h0s0,0,0-.06-.11-.13-.05-.09h.05s-.05-.07-.07-.07-.1-.07-.1-.09,0-.05-.08-.05-.1,0-.09-.09a.07.07,0,0,0,0-.07s0,0,0,0h.06s0,0,0,0,0,0,0,0,0,0,.06,0,.05,0,.05,0,.12,0,.23,0,.09,0,.06,0,0,0,0,0l0,0s0,0,.05,0h0s0,0,0,0h0s.08,0,.18,0,0,0,0,0,0,0,0,0l0,0-.05,0-.2-.13,0,0s0,0-.06-.08l-.05,0,.08,0a.44.44,0,0,0,.17.07.59.59,0,0,1,.16.06.28.28,0,0,0,.09.05l.11,0c.07,0,.08,0,.09,0h0s0,0,.06,0,0,0,0,0l0,0s0,0,0,0l-.05,0s0,0,0,0h.05s0,0,0,0h0a.05.05,0,0,0,0,0,2.42,2.42,0,0,0-.39-.16.39.39,0,0,1-.15-.06c-.07,0-.67-.29-.86-.36l-.23-.07a2.36,2.36,0,0,1-.36-.1s0,0,0,0l.05,0,.06,0,0,0h0l-.06,0-.08,0s-.06,0-.06,0H129v0h0c-.08,0-.09,0-.09,0s0,0-.06,0l-.36-.08s-.16-.05-.16-.07-.06-.05-.16-.1a1.1,1.1,0,0,0-.3-.07l-.26-.06-.11,0c-.09,0-.12,0-.11-.05s-.24-.11-.28-.09h0s0,0-.26-.09l-.21,0,0,0h0s0,0,0,0l0,0h0s0,0,0,0l0,0,0,0h-.06l-.11,0h-.12a.15.15,0,0,1-.08,0l-.09,0h0s0,0,0,0,0,.09,0,.07a.83.83,0,0,1-.22-.14l-.07,0s0,0,0,0a.54.54,0,0,0-.26-.11h0l-.06,0-.09,0s0,0,0,0,0,0,0,0,0,0,0,0l0,0,0,0-.24,0-.16,0s0,0,0,0,0,0,0,0l-.36-.06s-.11-.05-.11-.08,0,0-.06,0,0,0-.06,0,0,0,0,0,0,0,0,0,0,0,0,0,0,0,0,0-.14,0-.13,0h.1s0,0,.12-.06l.07,0s0-.08-.09-.08,0,0,0,0,0,0,0,0,0,0,0,0,0,0,0,0-.05,0-.18-.06a.69.69,0,0,0-.19,0s0,0,0,0a.06.06,0,0,0,0-.07s0,0,0,0,0,0-.08,0a.8.8,0,0,0-.26,0s0,0,0,.06,0,0,0,0h-.12s0,0,0,0a.59.59,0,0,0-.27,0,.15.15,0,0,1-.11,0l-.12,0h-.11l0,0h0s-.06,0-.07,0v0h0s0,0,0,0l0,0h0s-.09,0-.11,0h0s0,0,0,0,0,0-.15,0h-.11s0,0,0,0a.12.12,0,0,1,.06.06.25.25,0,0,0,.09,0l.06,0h0s0,0,0,0-.06,0-.07,0a1.16,1.16,0,0,0-.26-.08,0,0,0,0,0,0,0s0,0,0,0,0,0,0,0,0,0,0,0l.06,0s0,0,0,0-.1-.05-.1-.09-.05-.08-.07-.08l0,0s0,0,0,0,0,0,0,0h0s0,0,0,0a0,0,0,0,0,0,0s0,0,0,0,0,0,0,0l0,0a.17.17,0,0,0,.06.05c.07,0,.07,0,.06.09s0,0,0,.06a.05.05,0,0,1,0,0l.1,0c.08,0,.09,0,0,0s-.07,0,0,.07,0,0,0,0a.07.07,0,0,0,0,.05s0,0,0,0,0,0,0,0,0,0,0,0-.06,0-.06,0h0s0,0,0,0a.14.14,0,0,1,0,0s0,0,0,0,0-.05,0-.07-.06,0-.06-.05a.3.3,0,0,1,0-.06l0-.07a.11.11,0,0,0-.08-.07s0,0,0,0a.1.1,0,0,0,0-.09s0,0-.11-.05h0s0,0,0,0-.13,0-.12,0,0,0,0,0,0,0,0,.07,0,0,0,.07,0,.05,0,.07,0,0,0,.05a.07.07,0,0,0,.06.07s0,0,0,0l.06.05s0,0,0,0l-.11,0c-.14-.06-.15-.06-.09,0v0l0,0a.49.49,0,0,0-.3-.13.52.52,0,0,1-.23-.07s-.06,0-.07,0,0,0,0,0l0,0s.12,0,.14.08,0,0,0,0,0,0,0,0,0,0,0,0h0a.07.07,0,0,0-.05-.08s0,0,0,0h0l-.07,0h-.15s0,0,0,0-.05,0,0,0h-.12l-.06,0a.19.19,0,0,0-.1,0l-.08,0s-.08,0-.08.06,0,0,0,0a.16.16,0,0,1-.12,0l0,0s0,0,0,0H120l-.05,0s-.06,0-.14-.06-.15,0-.07,0,0,0,0,.07,0,.06,0,.07,0,0,0,.07h0l0,0s0,0,0,0,0,0,0,0l0,0a.11.11,0,0,0-.06,0l0,0,0,0s0,.06-.07,0l-.1,0a.06.06,0,0,0-.06,0s0,0,0,0h0s0,0,0,0l0,0s-.07,0-.14,0l-.07,0,0,0a.08.08,0,0,0,0,0s0,0,0-.05,0-.06-.07-.08,0,0,0,0h.11c.27.07.35.07.43,0s0-.06,0-.1-.11-.08-.13-.07a.08.08,0,0,1,0,0l0,0-.11,0-.18-.05c-.07,0-.12,0-.12,0s-.09,0-.11,0h-.08s0,0,0,0a.48.48,0,0,0-.17,0h0s0,0,0,0-.06,0-.07,0,0,0,0,0l0,0s0,0-.06,0,0,0,0,0l-.06,0h0s0,0,0,0-.11,0-.1,0,0,0-.09,0,0,0,0,0,0,0,0,0-.12,0-.12,0,0,0,0,0-.07,0-.06,0,0,0,0,0,0,0,0,0,0,0,0,0,0,0,0,0,0,0-.07,0,0,0,0,.05,0,0,0,0-.17,0-.17,0,0,0,0,0h.1s0,0,0,0h0s0,0,0,0l-.07.07s-.06,0-.06.06,0,0,0,0,0,0,0,0a.1.1,0,0,1-.08.09s0,0,0,0,0,0,0,0l-.07.06s0,0-.08,0,0,0,0,0,0,0,0,0,0,0,0,0,0,0,0,0l0,0s0,0,0,0,0,0,0,0h0a.08.08,0,0,0-.05,0s0,0,0,.13,0,.09,0,.09,0,0,0,0,0,.09,0,.09a0,0,0,0,1,0,0s0,0,.05.06a.17.17,0,0,0,.2,0l.1-.06s.06,0,.06-.06,0,0,0,0,0,0,0,0a.08.08,0,0,1,0,0,.11.11,0,0,0,0,.07l0,0,.06.07s0,0,0,0v0l-.1,0s-.07,0-.08,0,0,0,0,0,0,0,0,0,0,0,0,0,0,0,0,0v0s0,0,0,0,0,0,0,0,0-.09,0-.09v0h0a.05.05,0,0,0,0,0l-.06,0c-.06,0-.11.14-.06.19s0,0,0,.06,0,0,0,0,0,0,0,0h0s0,0,0,0,0,0,0,0,0,.07-.07.06h-.08a.1.1,0,0,1-.07,0c-.06,0-.13,0-.13.08a.34.34,0,0,1-.2.19c-.06,0-.07,0-.08.06s0,.06-.06.07a.12.12,0,0,0-.07,0s0,0-.09,0a.09.09,0,0,0,0,0s0,0,0,0,0,.1,0,.1h-.06a.27.27,0,0,0-.15,0s0,.08,0,.08h0s0,0,0,0,.08,0,.07,0,0,0,0,0,0,0,0,0,0,0,.06,0l0,0s0,0,0,0a.08.08,0,0,1,0,0h0s0,0,0,0h0l0,0v0s0,.15,0,.2,0,.08-.09.07l-.37,0h-.08s0,0-.08,0l0,0s-.06,0,0,.08,0,.07,0,.12a.31.31,0,0,1-.07.24v0s0,0,0,0,0,0,0,0,0,0,0,0,0,0,0,0,0,.06,0,.12,0,0,0,0h.09c.05,0,.07,0,.1.06s.07.08.1.05a.26.26,0,0,1,.19-.07h.1l0,0a.06.06,0,0,1,.06-.05.08.08,0,0,0,0-.06s0-.05,0-.05l0,0s0,0,0,0,0-.05,0-.09.13-.16.15-.16l.09,0c.07,0,.11-.09.08-.11a.43.43,0,0,1,0,0c0-.06.15-.09.22,0s.07,0,.13,0a.1.1,0,0,1,.07-.05s0,0,0,0,0,0,0,0,.14,0,.14.07l0,.05s0,0,0,0,0,0,0,0,0,0,0,0h0l0,0a0,0,0,0,0,0,0h0a.46.46,0,0,0,.16.11.08.08,0,0,1,.06,0l.06,0,0,0,0,0a.09.09,0,0,1,.06.07s0,.06,0,.07,0,0,0,0-.13,0-.22,0-.11,0-.11,0,.13.09.16.09l0,0s0,0,0,0,.06,0,0-.06v-.06s0,0,0,0,.08,0,.08-.07l0,0s0-.06,0-.08,0,0,0-.05a0,0,0,0,1,.06,0h0l0,0s0,0,0,0,0-.08-.14-.13-.09-.06-.08-.08,0,0,0,0h-.06a.15.15,0,0,1-.1-.06.13.13,0,0,1-.05-.07.22.22,0,0,0-.08-.1c-.06,0-.07-.07,0-.1a0,0,0,0,0,0,0s0,0,0-.06.09,0,.06,0,0,0,0,0,0,.07,0,0,0,0,0,0,0,0,0,0,0,0,0,0l0,0s0,0,0,0a0,0,0,0,0,0,0s0,0,0,0,0,.07.07.07a.05.05,0,0,1,0,0l0,0h0s0,0,0,0h.06s0,0,0,0l.09,0,.07.05a.22.22,0,0,0,0,.08c0,.08,0,.09,0,.11s0,0,0,0,0,.06,0,.06l0,0s0,0,0,.09,0,0,0,0l0,0s0,0,0,0,0,0,0,.08,0,0,.05,0h0v0s0,0,0,0h0s0,0,0,0,0,0,0,0,0-.07,0-.13,0,0,0,0l.05,0s0,0,0,0,0,0,0,0,0,0,0,0,0,0,0,0h0a.08.08,0,0,1,0,.05s0,0,0,0,0,0,0-.05,0,0,0,0,0,0,0-.05a0,0,0,0,0,0,0s0,0,0,0l0,0s-.06-.09-.06-.1,0,0,0,0,.07,0,.06,0,0,0,0,0,0,0,0,0,0,0,0,0,0,0,0,0,0,0,0,0h0s0,0,0,0h0s0,0,0,0,0,0,0,0l.07,0a.09.09,0,0,0,.12,0s0,0,.07,0l0,0s0,0,0,0-.1-.13-.07-.15a.06.06,0,0,0,0,0s0,0,0,0,0,0,0-.07,0-.06,0-.08a0,0,0,0,0,0-.05.1.1,0,0,1,0-.07l0-.06s0,0,0,0,0,0,0,0,.06,0,.14,0,.05,0,0,0h0s-.07,0-.06,0l.07,0s0,0,0,0,0,0,0,0,0,0,0,0,0,0,0,0h.1s.05,0,.05,0,0,0,.07,0l0,0,0,0,0,0,.05,0a0,0,0,0,0,.06,0h0l0,0,.1.07a.26.26,0,0,1,.11.08c0,.1,0,.14-.2.14s-.13,0-.13,0h-.13s0,0,0,0,0,0,0,0,0,0,0,0,0,0-.14,0a.3.3,0,0,0-.22.09h-.11c-.1,0-.14,0-.11,0s0,0-.14,0l-.13,0h0s0,0,0,0,0,0,0,0,0,0,0,0,0,0,0,0,0,0,0,0v0h0s0,0,0,0a.08.08,0,0,0,.06,0l0,0s0,0,0,0,0,0,0,0l0,0s0,0,0,0,0,0,0,0,0,0,0,0H119s.06,0,.09,0a.12.12,0,0,0,.08,0s.06,0,0-.06.1,0,.16.06a.15.15,0,0,0,.18,0s0,0,.09,0,0,0,0,0,0,0,0,0a0,0,0,0,0,0,0s0,0,0,0a0,0,0,0,0,0,0,.17.17,0,0,1,0,.12,1,1,0,0,0-.09.24c0,.08-.05.12-.09.12h-.07s0,0,0,.05h0a.13.13,0,0,0,0-.08.23.23,0,0,0-.25,0s0,0,0,0l-.08,0-.09,0a.38.38,0,0,0-.17,0s0,0,0,0,0,0,0,0-.14,0-.15-.06,0,0,0,0h0s-.15,0-.21,0a.11.11,0,0,0,0,.14s0,.11-.08.11a.13.13,0,0,1-.07,0,.37.37,0,0,0-.2-.07.1.1,0,0,1-.09-.09.08.08,0,0,0-.05,0l-.07,0-.11,0a.24.24,0,0,1-.12,0c-.06,0-.09-.06-.07-.08h0s0,0,0,0,0,0,0-.06l0,0s0,0,0,0h0s0,0,0,0,0,0,0-.06,0,0,0-.08a.06.06,0,0,0,0,0s0,0,0,0,0,0,0,0,0,0,0,0,0,0,0,0,0,0-.07,0l0,0a.16.16,0,0,1-.15,0s0,0,0,0,0,0,0,0,0,0,0,0l0,0h-.08s-.07,0-.25,0-.25.06-.25.09h0s0,0,0,0h0l0,0-.05,0H116s-.05,0-.08,0-.14,0-.15-.05,0,0,0,0l0,.09a.32.32,0,0,1-.16.18c-.07,0-.16.11-.16.15a.21.21,0,0,1,0,.06.16.16,0,0,0,0,.13.22.22,0,0,1,0,.1l0,0s0,0-.06.05a.19.19,0,0,0-.06.07.32.32,0,0,1-.15.06s0,0-.07.1l-.05.06s-.11.11-.11.17,0,.08-.09.14a.3.3,0,0,0-.05.1.44.44,0,0,1,0,.09s0,0,0,.07a.15.15,0,0,1,0,.08s0,0,0,0a.05.05,0,0,1,0,0s0,.06,0,.06,0,.07,0,.1a.34.34,0,0,1,0,.24.54.54,0,0,0,0,.1s-.06.15-.09.15h0s0,0,0,0,0,0,0,0,0,0,0,.06,0,0,0,0,0,0,0,.07,0,.07,0,.1.05.07,0,.06,0,0,0,0,0,.05,0,0,0,0,0,0,0,0,0,0a0,0,0,0,1,0,0,.07.07,0,0,0,0,0,0,0,0,0,1,0,0s0,0,0,0h0a.5.5,0,0,0,.06.08.2.2,0,0,1,.07.11c0,.06,0,.09,0,.1v0s0,0,0,0,0,0,.06,0a1.34,1.34,0,0,1,.26.21c.15.14.2.15.32.09a.61.61,0,0,1,.44,0h.06a.62.62,0,0,1,.24-.1l0,0s.11-.05.24-.05.09,0,.12,0a.25.25,0,0,1,.08.14.07.07,0,0,0,0,0s0,0,.07,0h.2s0,0,0,0l0,0,0,0s0,0,0,0a.3.3,0,0,1,0,.22.18.18,0,0,0,0,0s0,0,0,0a.17.17,0,0,0,0,.08c0,.06,0,.09-.06.08s0,0,0,.06a.46.46,0,0,1,.05.1.61.61,0,0,0,.07.1,1.36,1.36,0,0,1,.18.32s0,0,0,0v0s0,.05,0,.09a.34.34,0,0,1,0,.14c0,.07,0,.07,0,.09s0,0,0,.13a.35.35,0,0,1,0,.17c0,.07,0,.13,0,.13s-.09.11-.1.18a1.34,1.34,0,0,1,0,.2.92.92,0,0,0,0,.29l0,0a1.05,1.05,0,0,1,.12.26l.06.11a.35.35,0,0,1,0,.16.76.76,0,0,0,0,.16s0,.12,0,.19a.42.42,0,0,0,.12.25.35.35,0,0,1,.07.15.68.68,0,0,0,.1.2l0,.07s0,.06,0,.06,0,0,0,0,0,.06,0,.07,0,0,0,0,0,.07,0,.05,0,0,0,0h0l0,0s.05,0,.09,0l.08,0,.08,0a.35.35,0,0,1,.21,0h.12s0,0,0,0l.05,0a.61.61,0,0,0,.27-.19l.09-.08a.63.63,0,0,0,.13-.21s.09-.11.11-.11,0,0,.07-.15,0-.17,0-.16,0,0,0,0a.34.34,0,0,1,.12-.08.49.49,0,0,0,.13-.08s0,0,0-.06v-.05a.22.22,0,0,0,0-.16v0h0s0,0,0,0,0,0,0,0,0,0,0,0,0,0,0,0,0,0,0,0,.12-.17.16-.17h0l0,0a.36.36,0,0,1,.16-.14s.09,0,.09,0l0,0a.6.6,0,0,0,.14-.2.09.09,0,0,0,0-.1,1.42,1.42,0,0,1,0-.23c0-.22,0-.21,0-.23s0,0,0-.1,0-.13,0-.14l0,0h0s0,0,0-.06,0,0,0-.06l0-.07a.59.59,0,0,1,.06-.16s.06-.15.08-.19a.09.09,0,0,1,0-.05.5.5,0,0,0,.15-.14,1.23,1.23,0,0,1,.34-.38,1.51,1.51,0,0,0,.28-.3l0-.09a.21.21,0,0,0,.05-.09.54.54,0,0,1,.1-.2v0a.27.27,0,0,1,0-.08.25.25,0,0,0,0-.11s0,0,0,0,0,0,0,0a.21.21,0,0,1,0-.12s0,0-.08,0a.37.37,0,0,1-.17,0H121s0,0-.06,0a.12.12,0,0,1-.08,0,.11.11,0,0,0-.08,0c-.07.05-.12,0-.17,0a.15.15,0,0,0-.06-.05h0s0-.07,0-.13l-.07-.09,0,0s0,0,0,0l0-.05a.09.09,0,0,1-.05,0h0a0,0,0,0,1,0,0s0,0,0,0,0,0,0,0,0,0,0,0,0,0,0,0a.2.2,0,0,1,0-.08c0-.15,0-.19-.12-.24s-.1-.1-.1-.23,0-.09,0-.1a.09.09,0,0,1,0-.06v0l-.07-.05c-.06-.06-.09-.15,0-.15s0,0,0,0a.52.52,0,0,1-.07-.11l-.06-.13a.17.17,0,0,1,0-.07s0,0,0-.05a.11.11,0,0,1,0,0,.33.33,0,0,0-.06-.08.31.31,0,0,1,0-.09.08.08,0,0,0,0,0l0-.09a.23.23,0,0,0,0,.12.06.06,0,0,1,0,0,.37.37,0,0,0,.12.13l0,0,0,0s0,0,0,0,0,0,0,0l0,0,0,0a.13.13,0,0,1,0,.07l0,.08s.07.1.06.11,0,.08,0,.08l0,0s0,0,0,0,0,0,0,0a.08.08,0,0,0,0,.05.09.09,0,0,1,0,0l0,0s0,0,0,0,0,.06,0,.07l0,0s0,0,0,0,0,0,0,.05l0,0,0,0s0,0,0,0a0,0,0,0,1,0,0,.06.06,0,0,0,0,.06l0,0,.06.07,0,.06s0,0,0,0,0,0,0,0,0,0,0,0,0,0,0,0h0s0,0,0,0,0,0,0,0,0,0,0,0,0,0,0,0h0s0,.12.06.11.07,0,.07.07v0a1.39,1.39,0,0,1,.06.19c0,.06,0,.09.06.1h.09a.09.09,0,0,0,.06,0s0,0,.08,0a.26.26,0,0,0,.15-.05h0a.06.06,0,0,0,.06,0,.34.34,0,0,1,.15-.07c.12,0,.19-.08.18-.11s0-.06.07-.08a.31.31,0,0,1,.15,0s.07,0,.07-.06,0,0,0,0,.08,0,.08,0a.08.08,0,0,1,.08-.06s0,0,0-.08,0-.11,0-.07,0,0,0,0,0-.06,0-.05,0,0,0,0a.3.3,0,0,0,.07-.14s0,0,0,0a0,0,0,0,1,0,0s0,0,0,0l0,0s0-.05-.1-.06a.21.21,0,0,1-.18-.23c0-.08,0-.09,0,0a.84.84,0,0,1-.2.19h-.12a0,0,0,0,0,0,0,0,0,0,0,0,0,0s0,0,0,0l0,0s0,0,0,0a.24.24,0,0,0,0-.17s-.06,0-.07,0,0,0,0,.06l0,0s0,0,0,0,0,0,0,0h0s0-.05,0-.05l0,0v0s0,0,0,0l0,0h0s0,0,0,0,0,0,0,0v0s-.07-.13-.06-.15,0,0,0,0h0s0,0,0,0l0,0s0-.06.08,0h0s0,0,0,0a.11.11,0,0,1,0,.06l0,0a.3.3,0,0,1,0,.07.23.23,0,0,0,.09.08l.08,0,0,0s0,0,0,0,0,0,0,0,.05,0,.05,0,0,0,0,0h0s0,0,0,0h0l.05,0c.06,0,.09,0,.08,0s0,0,0,0,0,0,0,.07.06.09.18.1a.54.54,0,0,1,.19,0h.17s0,0,.05,0,.06,0,.06,0h.05a.32.32,0,0,0,.14,0c.09,0,.12,0,.12,0a0,0,0,0,0,0,0,0,0,0,0,1,0,0s0,.09.07.09a.09.09,0,0,1,.06,0,.19.19,0,0,0,.15.07s0,0,0,0a.12.12,0,0,1-.08,0s0,0,0,0a.65.65,0,0,0,.21.19c.06,0,.16-.08.13-.1s0-.06,0-.06,0,0,0,0,0,0,0,0h0s0,0,0,.05a.15.15,0,0,1,0,.09.11.11,0,0,0,0,.08c0,.12.06.21.08.28a1.66,1.66,0,0,0,.06.16.87.87,0,0,0,.08.14s0,.07,0,.11a.84.84,0,0,0,.06.14.83.83,0,0,1,.12.26.36.36,0,0,0,.1.15.07.07,0,0,0,.1-.06.08.08,0,0,1,.1,0s0,0,0,0h0s0,0,0-.06,0,0,0,0,0,0,0,0a.33.33,0,0,1,0-.18.38.38,0,0,0,0-.22c0-.13,0-.17,0-.15s0,0,0,0l0,0a.06.06,0,0,0,.08-.06,0,0,0,0,1,0,0,.63.63,0,0,0,.2-.18.18.18,0,0,1,.1-.07l.07-.05s0,0,0-.1,0,0,0,0l0,0s0,0,0,0,.06,0,.13,0h.08s.09,0,.08-.06,0,0,0,0,0,0,0,0,0,0,0,0,0,0,0,.06,0,.08.06.15Zm-8.3-2.59s0,0,0,0,0,0,0,0,0,0,0,0a.11.11,0,0,0,0,.05s0,0,0,0,0,.11,0,.13,0,0,0,0,0,0,0,0,0,0,0-.13,0-.1,0-.11,0,0,0-.07,0-.17,0-.14a.09.09,0,0,1,0,0l0,0s0,.1,0,.11Zm1.44.74.07,0h.07s0,0,0,0h0s0,0,0,0h0l-.09,0-.08,0h0a0,0,0,0,0,0,0s0,0,0,0Zm.83.07s0,0,.07,0l.06,0s0,0,0,0,0,0,0,0,0,0,0,0l0,0-.07,0h-.09s0,0,0,.07ZM116.18,86a7.45,7.45,0,0,1,4.64-6.9,7.33,7.33,0,0,0-2.81-.55,7.45,7.45,0,1,0,0,14.9,7.34,7.34,0,0,0,2.81-.56A7.42,7.42,0,0,1,116.18,86Zm7.18-41.43h0Zm0,0h0l0,0s0,0,0,0Zm2.22-.35s0,0,0,0a.09.09,0,0,0,.07,0s0,0,0,0,0,0,0,0,0,0,0,0,0,0,0,0v0s0,0,0,0,0,0,0-.16-.06-.05-.05,0,0,.19,0,.21a0,0,0,0,0,0,0s0,0,0,0l0,0s0,0-.08,0-.05,0,0,0a.08.08,0,0,0,.07,0c.07,0,.07,0,.07,0Zm-2.41.31h0S123.11,44.57,123.12,44.57Zm1.58,3h0s0,0,0,0S124.7,47.55,124.7,47.56Zm-.42-5.5s0,0,0,0-.06,0-.06,0l0,0Zm2.61,6.56s0,0,0,0l0,0s0,0,0,0Zm-9.65-6.18s0,0,0,0,0,0,0,0,.08-.06.08-.07,0,0,0,0l0,0Zm-.2.12h0s0,0,0,0S117,42.55,117,42.56Zm13.44,1.28s0,0,0,0,0,0,0,0Zm-3.84,4.68s0,0,0,0h0s0,0,0,0Zm-9.84-4.85h0s0,0,0,0A0,0,0,0,0,116.8,43.67Zm1.73,1.59h0l0,0S118.54,45.27,118.53,45.26Zm.86.92v0h0Zm10.8-2.24s0,0,0,0,0,0,0,0Zm-10.27.73Zm1.48-2.44,0,0Zm-.23.16c.12,0,.23-.12.23-.16S121.29,42.34,121.17,42.39Zm-2.7,2.94s0,0,0,0h0S118.47,45.34,118.47,45.33Zm1.61-.6-.08,0,0,0,0,0,.08,0Zm-1.7-2.95h0s0,0,0,0Zm-.73.22s0,0,0,0,0,0,0,0S117.65,42,117.65,42Zm-.34,1.41h0a0,0,0,0,0,0,0l0,0s0,0,0,0h0s0,0,0,0Zm-.06,0s0,0,0,0,.08,0,.06,0,0,0,0,0Zm.9,0v0s0,0,0,0S118.14,43.41,118.15,43.4Zm.09,1.87s0,0,0,0,0,0,0,0h0l0,0s0,0,0,0l0,0Zm.26-2.42h0a.39.39,0,0,0-.12,0h-.1l0,0s0,0,0,0h0s0,0,0-.07,0-.08,0-.09l0,0s0,0,0,0,0,0,0,0,0,0,0,0h0s.1,0,.1,0h0s.11-.09.1-.11h0s0,0,0,0l0,0h-.19l0,0s0,.05,0,.06,0,0,0,0a.12.12,0,0,1-.06.05s-.12,0-.12.06l0,0a.07.07,0,0,0,0,.06s0,0,0,.06,0,.07,0,.09.08,0,.1.07,0,0,0,0a.05.05,0,0,0,0,0l0,0h-.11a1,1,0,0,0,0,.12s0,0,0,0,0,0,0,0a.84.84,0,0,1,0,.12l0,0s0,0,0,0,0,0,0,0a.09.09,0,0,0-.1.06s0,0-.06,0-.06,0-.07,0h0l0,0s0,0,0,0a0,0,0,0,1,0,0s0,0,0,0h0s0,0,0,0a0,0,0,0,0,0,0l0,0s-.07,0-.06.05a.08.08,0,0,0,.06,0c.12,0,.16-.06.16,0s0,0,.12,0l.09,0s.23-.05.2,0,0,0,.07,0l0,0s0,0,0,0,.06,0,.06-.11a.17.17,0,0,1,.07-.18s0,0,.09,0l0,0s.06-.14,0-.14h-.09s0,0,0,0,0,0,0,0,0,0,0,0,0,0,0,0,0,0,0,0,0,0,0,0,0,0,0,0a0,0,0,0,0,0,0s0,0,0,0,.11-.09.18-.08.19,0,.19,0l0,0s0,0,0,0,0,0-.13,0l-.06,0Zm-.58-1,0,0h0Zm1.66,2.47-.07,0,0,0s0,0,0,0,0,0,0,0h.09c.07,0,.08,0,.08,0s0,0,0,0,0,0,0,0a0,0,0,0,1,0,0h.06s0,0,0,0a.66.66,0,0,0-.15,0ZM117.73,42s0,0,0,0h0S117.75,42,117.73,42Zm.77-.21h0Zm-.71.14h0s0,0,0,0S117.79,41.92,117.79,41.91Zm.63,3.39s0,0,0,0h0s0,0,0,0Zm-10-2.48h-.05s0,0,0,0Zm3.12-.62h.1s0,0,0,0Zm0-.06h0Zm-1.06.14s0,0,0,0l0,0S110.45,42.26,110.42,42.28Zm-5.17,2.31s0,0,0,0h0Zm6.56-2.17h0s0,0,0,0Zm-1,.41a0,0,0,0,0,0,0h0s0,0,0,0Zm-.19-.58h0Zm-.15-.21.06-.07,0,0-.07,0,0,0s0,0,0,0a.1.1,0,0,1,0,0S110.48,42.06,110.48,42Zm.48.36s0,0,0,0h0s0,0,0,0Zm-.92.11s0,0,0,0h0s0,0,0,0a0,0,0,0,0,0,0Zm1.27,1.27s0,0-.06,0,0,0,0,0l0,0Zm-.07-.8h0Zm-1.57-.2s0,0,0,0h0S109.7,42.79,109.67,42.78Zm.81,1.67s0,0,0,0,0,0,0,0Zm-.68-2.07s0,0,0,0a0,0,0,0,0,0,0s0,0,0,0Zm0,0s0,.06,0,.07,0,0,0,0S109.85,42.43,109.84,42.43Zm.11.28h0s0,0,0,0,0,0,0,0,0,0,0,0,0,0,0,0Zm-1.42,2.17-.06,0s0,0,0,0,0,0,0,0,0,0,0,0a.54.54,0,0,0-.16.3s0,0,.1,0,.06-.06.06-.08a.22.22,0,0,1,.08-.16c0-.05.05-.07.1-.08l.1-.1a.21.21,0,0,0-.13,0Zm2.32-2.56h0s0,0,0,0S110.85,42.31,110.85,42.32Zm-1.63.31h0Zm1.24-.25s0,0,0,0h0a0,0,0,0,0,0,0,0,0,0,0,0,0,0Zm-1.08.22.17-.08s0,0,0,0,0,0,0,0,0,0,0,0,0,0,0,0h0s0,0,0,0,0,0,0,0h0s0,0,0,0,0,0,0,0,0,0-.06,0h0s0,0,0,0,0,0,0,0,0,0,0,0,0,0,0,0Zm1.27,2h-.05s0,0,0,0,0,0,0,0Zm-1.38-1.93s0,0,0,0h0S109.29,42.69,109.27,42.69Zm1.4.07h0s0,0,0,0Zm-2.47,2.05s0,0,0,0l.07,0a.18.18,0,0,0,.09,0l0,0h0l0,0c.06,0,.06,0,0,0s0,0,0,0h0s.06,0,.1,0l.07,0h.06s0,0,0,0,0,0,0,0l0-.06a0,0,0,0,0,0,0s0,0,0,0,0,0,0,0-.08,0-.08,0,0,0,0,0-.07,0-.15,0l-.08,0s0,0,0,0h0a.15.15,0,0,1-.09,0s0,0,0,0,0,0,0,0h0l-.07,0-.2.11h.06s0,0,0,0Zm2-2.52h0s0,0,0,0Zm1-.29s0,0,0,0l0,0s0,0,0,0Zm-2.48,3.23s0,0,0,0,0,0,0,0h0s0,0,0,0Zm.2-.43s-.11,0-.11,0h.11Zm0,0h0s0,0,0,0,0,0,0,0Zm-1-.38s0,0,0,0l0,0s0,0,0,0Zm-.69-1.33a.05.05,0,0,0,0,0l0,0s0,0,0,0h0s0,0,0,0,0,0,.06,0,.16-.07.15-.05h0a.19.19,0,0,0-.12.05.08.08,0,0,0,.06,0s0,0,0,0,.06,0,0,0,0,0,.11,0a.18.18,0,0,0,.09,0l0,0-.06,0s-.08,0-.09,0,0,0,0,0,0,0,.07,0,0,0-.09,0l-.19.06-.11,0h.11s.11,0,0,0,0,0,0,0Zm-.19-.31h0Zm.37.6s0,0,0,0,0,0,0,0-.06,0-.07,0l-.07,0h0s0,0,0,0a.56.56,0,0,0,.25,0l.07,0a.39.39,0,0,0,.13-.06l0,0a.29.29,0,0,1-.18,0l0,0Zm.53.89s0,0,0,0,0,0,0,0h0s.05-.18,0-.19,0,0-.09,0,0,0,0,0h0l0,0s0,0,0,0a.06.06,0,0,1,0,0Zm-.41,2.25s0,0,0,0h0A0,0,0,0,1,107.49,46.56Zm1.56-.93v0s0,0,0,0Zm-2.17-2.77s0,0,0,0l0,0S106.91,42.84,106.88,42.86Zm4.7-.73s0,0,0,0,0,0,0,0,0,0,0,0a.1.1,0,0,0,0,0l0,0c-.09,0-.07,0,0,0s.08,0,.07,0ZM111,42h0s-.06,0-.06,0,0,0,0,0,0,0,0,0a.06.06,0,0,1,0,0s0,0,0,0l.1,0Zm-1.66,3s0,0,0,0h0l-.08,0a.33.33,0,0,0-.15,0q-.09.06,0,0h.12c.09,0,.17,0,.17-.07Zm1.82-2.5s0,0,0,0,0,0,0,.05,0,0,0,0,.09,0,0,0Zm-2.1,3.35h0s0,0,0,0,0,0,0,0Zm1.35-3.76s0,0,0,0a0,0,0,0,0,0,.06s0,0,0,0A0,0,0,0,1,110.42,42.08ZM109,45.14s0,0,0,0,0,0,0,0a.3.3,0,0,0-.14,0l-.09.06h0s0,0,0,0,.09,0,.22-.06l.2-.11H109Zm2-2.82h0s0,0,0,0,0,0,0,0Zm.42-.24s0,0,0,0l0,0S111.4,42.06,111.36,42.08ZM147.39,6V99.84a6.12,6.12,0,0,1-6.22,6H6.22a6.12,6.12,0,0,1-6.22-6V6A6.12,6.12,0,0,1,6.22,0h135A6.12,6.12,0,0,1,147.39,6ZM145,6a3.68,3.68,0,0,0-3.78-3.56H6.22A3.68,3.68,0,0,0,2.44,6V99.84a3.69,3.69,0,0,0,3.78,3.57h135A3.69,3.69,0,0,0,145,99.84Z"/></g></g></svg>