<svg xmlns="http://www.w3.org/2000/svg" viewBox="0 0 113.93 90.44"><defs><style>.cls-1{fill:#fff;}</style></defs><title>DinersClub</title><g id="Layer_2" data-name="Layer 2"><g id="Layer_1-2" data-name="Layer 1"><path class="cls-1" d="M66.75,0H45.51C20.55,0,0,18.64,0,45.61c0,24.68,20.55,45,45.51,44.83H66.75c24.67.12,47.18-20.16,47.18-44.83C113.93,18.64,91.42,0,66.75,0ZM45.65,86.62A41.4,41.4,0,1,1,87,45.22,41.35,41.35,0,0,1,45.65,86.62Z"/><path class="cls-1" d="M36.34,69.6a26.25,26.25,0,0,1,0-49Zm18.74,0v-49a26.25,26.25,0,0,1,0,49Z"/></g></g></svg>