<svg xmlns="http://www.w3.org/2000/svg" viewBox="0 0 164.54 105.24"><defs><style>.cls-1{fill:#fff;}</style></defs><title>Discover</title><g id="Layer_2" data-name="Layer 2"><g id="Layer_1-2" data-name="Layer 1"><path class="cls-1" d="M163.34,1.19c0,1.17,0,101.68,0,102.86H1.19V1.2Zm.6-1.19H0V105.24H164.54V0Z"/><path class="cls-1" d="M163.34,58.47S118.71,90,37,104.05H163.34Z"/><path class="cls-1" d="M22.41,44.24c-1.4,1.27-3.21,1.82-6.08,1.82H15.14V31h1.19c2.87,0,4.61.51,6.08,1.84a7.65,7.65,0,0,1,2.46,5.67A7.78,7.78,0,0,1,22.41,44.24Zm-5.19-17.1H10.69V49.91h6.5a11.86,11.86,0,0,0,8.12-2.62,11.45,11.45,0,0,0,4.13-8.75c0-6.73-5-11.4-12.22-11.4"/><path class="cls-1" d="M31.49,49.91h4.44V27.14H31.49Z"/><path class="cls-1" d="M46.8,35.88c-2.67-1-3.46-1.64-3.46-2.87,0-1.43,1.4-2.53,3.32-2.53a4.64,4.64,0,0,1,3.59,1.84l2.31-3a9.93,9.93,0,0,0-6.69-2.53c-4,0-7.1,2.8-7.1,6.52,0,3.14,1.43,4.75,5.6,6.25a17.45,17.45,0,0,1,3.07,1.3,2.73,2.73,0,0,1,1.34,2.36,3.25,3.25,0,0,1-3.46,3.21,5.26,5.26,0,0,1-4.85-3l-2.86,2.77a8.84,8.84,0,0,0,7.89,4.33c4.61,0,7.85-3.07,7.85-7.48,0-3.62-1.5-5.26-6.55-7.1"/><path class="cls-1" d="M54.75,38.54a11.8,11.8,0,0,0,12,11.89,12.28,12.28,0,0,0,5.57-1.33V43.87A7.1,7.1,0,0,1,67,46.36c-4.48,0-7.65-3.24-7.65-7.85a7.57,7.57,0,0,1,7.44-7.82,7.42,7.42,0,0,1,5.57,2.56V28a11.28,11.28,0,0,0-5.46-1.39A12,12,0,0,0,54.75,38.54"/><path class="cls-1" d="M108.33,42.44l-6.08-15.3H97.4l9.67,23.36h2.39l9.84-23.36h-4.82Z"/><path class="cls-1" d="M121.32,49.91h12.6V46.06h-8.17V39.91h7.85V36.05h-7.85V31h8.17V27.14h-12.6Z"/><path class="cls-1" d="M142.58,37.62h-1.29v-6.9h1.36c2.78,0,4.28,1.17,4.28,3.38s-1.5,3.52-4.35,3.52Zm8.92-3.76c0-4.26-2.94-6.72-8.06-6.72h-6.59V49.91h4.44V40.76h.58L148,49.91h5.46l-7.18-9.59a6.06,6.06,0,0,0,5.2-6.46"/><path class="cls-1" d="M153.79,29.11h-.09v-.52h.1c.23,0,.35.08.35.25s-.12.27-.36.27Zm.84-.27c0-.4-.27-.62-.75-.62h-.65v2h.47v-.78l.57.78h.59l-.67-.83a.55.55,0,0,0,.44-.56"/><path class="cls-1" d="M154,30.66a1.44,1.44,0,1,1,1.38-1.44A1.42,1.42,0,0,1,154,30.66Zm0-3.19a1.75,1.75,0,1,0,1.73,1.75A1.75,1.75,0,0,0,154,27.47"/><path class="cls-1" d="M50.5,55.9l6,6.22v-5.9h.85v8L51.35,58v5.87H50.5Z"/><path class="cls-1" d="M50.58,56.1c.27.27,6,6.22,6,6.22v-6h.69V64l-5.94-6.22v6h-.7Zm-.16-.2v8h1V58.17l5.94,6.21V56.14h-1v5.79L50.42,55.7Z"/><path class="cls-1" d="M61.41,56.22h4V57h-3.1v2.27h3v.78h-3v3h3.1v.78h-4Z"/><path class="cls-1" d="M65.28,56.3v.63h-3.1v2.43h3V60h-3v3.15h3.1v.63H61.49V56.3Zm.08-.16h-4v7.78h4.11V63h-3.1V60.14h3V59.2h-3V57.1h3.1v-1h-.08"/><path class="cls-1" d="M71.35,63.84h-.84V57H68.67v-.79h4.54V57H71.36v6.83Z"/><path class="cls-1" d="M73.13,56.3v.63H71.27v6.83h-.69V56.93H68.75V56.3Zm.08-.16H68.58v1h1.84v6.82h1V57.1h1.86v-1Z"/><path class="cls-1" d="M78.89,61.93l2.47-6.1,2.46,6.1,2-5.71h.93l-2.93,8L81.36,58.1l-2.47,6.14-2.92-8h.92Z"/><path class="cls-1" d="M79,62,81.36,56l2.47,6.12,2-5.86h.75c-.07.2-2.67,7.35-2.81,7.72l-2.46-6.13L78.89,64c-.13-.37-2.73-7.52-2.8-7.72h.74c0,.1,2.06,5.86,2.06,5.86Zm2.32-6.16S79,61.34,78.9,61.71l-2-5.57H75.86l3,8.32,2.47-6.15,2.47,6.15,3-8.32H85.77l-2,5.57-2.46-6.09Z"/><path class="cls-1" d="M90.62,60a3.13,3.13,0,1,0,3.13-3.15A3.15,3.15,0,0,0,90.62,60Zm7.1,0a4,4,0,1,1-4-3.95,4,4,0,0,1,4,3.95"/><path class="cls-1" d="M89.85,60a3.9,3.9,0,1,1,3.9,3.86A3.89,3.89,0,0,1,89.85,60Zm-.15,0a4.05,4.05,0,1,0,4-4,4,4,0,0,0-4,4"/><path class="cls-1" d="M90.7,60a3,3,0,1,1,3,3.08A3.07,3.07,0,0,1,90.7,60Zm-.16,0a3.21,3.21,0,1,0,3.21-3.23A3.22,3.22,0,0,0,90.54,60"/><path class="cls-1" d="M102.25,59.75h.26c1,0,1.93-.18,1.93-1.36S103.52,57,102.5,57h-.25Zm0,4.09h-.85V56.22h1.1c1.45,0,2.79.39,2.79,2.11a2,2,0,0,1-1.91,2.1l2.43,3.41h-1l-2.3-3.34h-.21Z"/><path class="cls-1" d="M102.5,56.3c1.85,0,2.71.64,2.71,2a1.91,1.91,0,0,1-1.84,2h-.14l2.42,3.4h-.89s-2.24-3.31-2.24-3.31l-.27,0h-.08v3.34h-.69V56.3Zm-1.1-.16h-.08v7.78h1V60.58h.13c0,.05,2.24,3.31,2.24,3.31l1.1,0H106s-2.33-3.27-2.45-3.45a2,2,0,0,0,1.86-2.14c0-1.48-.94-2.19-2.87-2.19h-1.1"/><path class="cls-1" d="M102.5,57.1c1,0,1.86.09,1.86,1.29s-.93,1.28-1.85,1.28h-.18V57.1Zm-.25-.17h-.08v2.9h.34c.94,0,2-.17,2-1.44s-1-1.46-2-1.46Z"/><path class="cls-1" d="M113.5,56.22h1.14l-3.58,3.55,3.7,4.07h-1.17l-3.13-3.49-.21.2v3.29h-.85V56.22h.85v3.27Z"/><path class="cls-1" d="M114.44,56.3c-.25.26-3.49,3.47-3.49,3.47l3.63,4h-1s-3.07-3.47-3.07-3.47l0-.06-.28.27s0,3.11,0,3.26h-.69V56.3h.69v3.38l3.36-3.38Zm.2-.16h-1.17l-3.14,3.16V56.14h-1v7.78h1V60.57l.13-.11,3.07,3.44,1.23,0h.18l-3.77-4.14,3.66-3.64Z"/><circle class="cls-1" cx="84.99" cy="38.34" r="11.58"/></g></g></svg>