<svg xmlns="http://www.w3.org/2000/svg" viewBox="0 0 179.98 71.23"><defs><style>.cls-1{fill:#fff;}</style></defs><title>Fly now pay later</title><g id="Layer_2" data-name="Layer 2"><g id="Layer_1-2" data-name="Layer 1"><g id="layer1"><path class="cls-1" d="M95.68,69.44V67.65h.84a5.3,5.3,0,0,0,1.63-.32c.73-.31.73-.33.65-1.32a58.73,58.73,0,0,0-2.17-6.47c-1.12-3-2.09-5.65-2.15-5.84-.11-.34.1-.38,2.34-.38h2.42l.36,1.22,1.22,4.22.89,3,.88-3.14c.49-1.71,1-3.62,1.2-4.21l.34-1.1h2.3a7.09,7.09,0,0,1,2.32.19c0,.55-5.55,15.36-6,16.08-.86,1.28-1.83,1.64-4.68,1.64H95.68V69.44Z"/><path class="cls-1" d="M150.37,67.29a3.8,3.8,0,0,1-2.7-1.52c-.42-.71-.46-1-.52-4.91l-.09-4.17h-2.27V53.74h2.29l.07-2,.06-2,2.21,0,2.22,0,.06,2,.06,2h2.72v2.95h-2.74v6.75l.59.23a3.51,3.51,0,0,0,1.37.14l.78-.08v3.44l-1.28.14A9.52,9.52,0,0,1,150.37,67.29Z"/><path class="cls-1" d="M0,58.06V48.89H21.71v.72a20.59,20.59,0,0,1-1,4.76A19.6,19.6,0,0,1,7.21,66.72a15.9,15.9,0,0,1-4.6.51H0V58.06Z"/><path class="cls-1" d="M65.12,57.94V48.66l5.54.07c5.27.06,5.57.08,6.62.56a6.36,6.36,0,0,1,3,3,9.56,9.56,0,0,1,0,5.2,6.17,6.17,0,0,1-3,3.16,12.26,12.26,0,0,1-3.94.47l-3.12.08v6.07H65.12V57.94ZM75,56.61c.51-.45.59-.68.59-1.56,0-1.79-.94-2.36-3.83-2.36H70.18v4.42h2.09C74.18,57.11,74.42,57.07,75,56.61Z"/><path class="cls-1" d="M83.14,66.83a4,4,0,0,1-.46-7.06c.95-.55,2-.82,4.68-1.2,1.91-.28,2.21-.42,2.21-1.25S89.15,56.25,88,56.1a2,2,0,0,0-2.21,1.14c-.19.48-.28.51-2.34.51H81.29l.12-.87c.28-2,2-3.37,4.87-3.81s5.59.23,6.81,1.56c.84.9,1,1.6,1.09,6.59a26.33,26.33,0,0,0,.41,5.31,2.19,2.19,0,0,1,.25.59,12,12,0,0,1-2.36.07l-2.36-.07-.19-.65-.19-.67-.74.5a7,7,0,0,1-1.52.72A8.09,8.09,0,0,1,83.14,66.83Zm5.42-2.78a3.15,3.15,0,0,0,1-2.41c0-.75,0-.75-.68-.63-.37.07-1.18.28-1.79.44-1.62.45-2.21,1.52-1.32,2.41A3.05,3.05,0,0,0,88.56,64.05Z"/><path class="cls-1" d="M115.07,58V48.68h5.06V62.8h8.64v4.43h-13.7V58Z"/><path class="cls-1" d="M132.67,66.83A4.13,4.13,0,0,1,130.88,61c.78-1.27,1.91-1.75,5.48-2.28a12.66,12.66,0,0,0,2.48-.55,1.35,1.35,0,0,0-.06-1.64,3,3,0,0,0-1.27-.38,2,2,0,0,0-2.21,1.14c-.19.48-.27.51-2.32.51h-2.1v-.57a4.64,4.64,0,0,1,1.53-2.87c1.21-.91,2.57-1.26,4.89-1.28,3,0,4.58.56,5.67,2,.4.55.45,1,.59,5.58a48.54,48.54,0,0,0,.36,5.74c.13.4.23.76.23.78a20.26,20.26,0,0,1-2.32.06h-2.29l-.13-.72-.15-.71-.73.5A7.2,7.2,0,0,1,137,67,8.09,8.09,0,0,1,132.67,66.83Zm5.27-2.76a2.73,2.73,0,0,0,1.16-2.43c0-.4,0-.73-.13-.73A12.75,12.75,0,0,0,135.41,62c-1.1.87-.38,2.3,1.14,2.3A4.73,4.73,0,0,0,137.94,64.07Z"/><path class="cls-1" d="M159.24,66.7a5.92,5.92,0,0,1-3.5-3.16,5.36,5.36,0,0,1-.73-3.35,5.4,5.4,0,0,1,.59-3.1,7.87,7.87,0,0,1,3.68-3.52,7.68,7.68,0,0,1,5.95,0,6.79,6.79,0,0,1,4,6.09l.11,1.67h-4.89c-3.21,0-4.87.08-4.87.21a3.31,3.31,0,0,0,1.3,2.11c1.18.71,3.21.38,3.76-.61.21-.4.42-.45,2.34-.45h2.12l-.14.59a5.9,5.9,0,0,1-4,3.73A9.87,9.87,0,0,1,159.24,66.7Zm5.36-8.55a2.31,2.31,0,0,0-.72-1.16,1.85,1.85,0,0,0-1.67-.72A2.56,2.56,0,0,0,159.77,58l-.21.63h2.53C164.49,58.59,164.6,58.57,164.6,58.15Z"/><path class="cls-1" d="M170.5,60.48V53.74h4.42v1.75l.45-.57a4.82,4.82,0,0,1,4.06-1.47c.55.12.55.14.55,2.19v2l-1.41-.08c-1.27-.09-1.52,0-2.17.4-1.18.8-1.27,1.14-1.27,5.39v3.84H170.5V60.48Z"/></g><g id="layer2"><path class="cls-1" d="M87,46.37v-1.9H88.2c1,0,1.26-.09,1.69-.51.69-.69.67-.71-1.86-7.48-1.14-3.08-2.13-5.77-2.19-6s.1-.38,2.21-.38c1.62,0,2.38.08,2.51.25s.7,2.07,1.35,4.26l1.18,4,1.14-4c.63-2.17,1.24-4.09,1.35-4.26s.73-.27,2.44-.23l2.26.06L97.39,38.1C94.16,47,93.93,47.38,92.06,48a12.91,12.91,0,0,1-3.06.31H87V46.37Z"/><path class="cls-1" d="M127.38,44.05a7.3,7.3,0,0,1-5.17-4.41,8.58,8.58,0,0,1,.24-5.81,7.42,7.42,0,0,1,3.73-3.48,8.9,8.9,0,0,1,5.79.17,7.28,7.28,0,0,1,3.54,3.75,8.8,8.8,0,0,1-.19,5.94,7.09,7.09,0,0,1-5.08,3.84A6,6,0,0,1,127.38,44.05Zm2.82-3.92c.72-.47,1.1-1.56,1.1-3.14,0-2.41-.78-3.48-2.49-3.48a1.7,1.7,0,0,0-1.52.63c-.65.7-.84,1.41-.84,3.14C126.45,39.94,128.3,41.35,130.2,40.13Z"/><path class="cls-1" d="M65.12,34.56V25.29h13.7v4H70.18v3.59h7.59v1.89c0,1.37-.07,1.9-.26,1.9s-1.85,0-3.79,0l-3.54,0v7.19H65.12V34.56Z"/><path class="cls-1" d="M80.09,34.56V25.29h4.63V43.84H80.09Z"/><path class="cls-1" d="M104.11,34.56V25.29h5.19l1.45,2.59c.8,1.41,2.19,3.9,3.1,5.52l1.64,2.93v-11h4.74l0,9.21-.06,9.23-2.51.06-2.49.07-3-5.48-3-5.48L109,38.38l0,5.46h-4.85V34.56Z"/><path class="cls-1" d="M140,43.58c-.35-1-4.11-13.21-4.11-13.32s4.37-.12,4.58.15a28.92,28.92,0,0,1,1,3.31c1.39,5.42,1.11,5.27,2,1.12.44-2,.86-3.88.93-4.18.12-.52.17-.52,2.23-.52,2.51,0,2.13-.55,3.27,4.65l.82,3.69,1-4c.55-2.21,1.1-4.11,1.18-4.2a11.26,11.26,0,0,1,2.38-.1l2.24.06-2.13,6.81-2.13,6.81L151,43.79l-2.31-.06-1-4.21-1-4.22L146.09,38c-.36,1.52-.8,3.44-1,4.28l-.36,1.52h-2.29C140.78,43.84,140.11,43.75,140,43.58Z"/><path class="cls-1" d="M0,42.4C0,40.21,1.5,36,3.18,33.55a25,25,0,0,1,4.74-4.8,22.2,22.2,0,0,1,6.5-3c1.64-.4,2.23-.42,21.56-.42H55.85l-.13.91a19.87,19.87,0,0,1-5.14,11.17,21.31,21.31,0,0,1-8.85,5.45l-1.58.49-20.06.06L0,43.44v-1Z"/><path class="cls-1" d="M0,23.14c0-7.8.13-8.66,1.69-12A19.7,19.7,0,0,1,14.14.59L15.7.11,44.32,0l28.6,0V.78a19.07,19.07,0,0,1-3.18,8.89,21.07,21.07,0,0,1-5.12,5.27,24.26,24.26,0,0,1-6.14,2.8c-1.66.47-1.85.47-21.28.6-17.37.12-19.77.16-21.08.48A24.86,24.86,0,0,0,5.8,23.71a22.52,22.52,0,0,0-4.64,4.76c-.55.74-1,1.39-1.08,1.44S0,26.91,0,23.14Z"/></g></g></g></svg>