<svg xmlns="http://www.w3.org/2000/svg" viewBox="0 0 183.1 74.39"><defs><style>.cls-1{fill:none;}.cls-2{fill:#fff;}</style></defs><title>giropay</title><g id="Layer_2" data-name="Layer 2"><g id="Layer_1-2" data-name="Layer 1"><g id="layer1"><path class="cls-1" d="M140.94,41.17c0,1.52,1.35,2.4,3.11,2.4,2.87,0,4.68-2.61,4.68-5.17-1,0-2.07-.13-3.2-.13C143,38.27,140.94,39.07,140.94,41.17Z"/><path class="cls-1" d="M118.19,31.49c-2.78,0-4.63,2.44-4.63,5.73s2.1,5.59,4.63,5.59c2.86,0,4.59-2.4,4.59-5.89C122.78,34,121.14,31.49,118.19,31.49Z"/><path class="cls-2" d="M22.79,42.31c2.69,0,4.83-2.27,4.83-5.64,0-2.44-1.43-5.18-4.83-5.18-2.82,0-4.3,2.49-4.3,5.48C18.49,40.37,20.52,42.31,22.79,42.31Z"/><path class="cls-2" d="M81.87,43.32c3.49,0,4.92-2.91,4.92-6.14S85.36,31,81.87,31,77,33.89,77,37.18,78.38,43.32,81.87,43.32Z"/><path class="cls-2" d="M155.79,34.78c0-6.69-4.83-9.09-10.43-9.09a22.53,22.53,0,0,0-8.75,1.56l.13,5.13a14.18,14.18,0,0,1,7-1.64c2.73,0,5,.8,5,3.79a22.07,22.07,0,0,0-3.54-.3c-4,0-11.32.8-11.32,7.49,0,4.75,3.87,6.9,8.21,6.9a7.51,7.51,0,0,0,6.94-4h.08c0,1.14.13,2.27.17,3.45h6.94a27.33,27.33,0,0,1-.42-5.17Zm-11.74,8.79c-1.76,0-3.11-.88-3.11-2.4,0-2.1,2-2.9,4.59-2.9,1.13,0,2.23.08,3.2.13C148.73,41,146.92,43.57,144.05,43.57Z"/><path class="cls-2" d="M0,9.78V64.62a9.8,9.8,0,0,0,9.83,9.77H99.59V0H9.83A9.81,9.81,0,0,0,0,9.78ZM47.74,48.11H40.17V26.19h7.57ZM81.87,25.69c7.24,0,12.75,4.2,12.75,11.49S89.11,48.62,81.87,48.62,69.12,44.41,69.12,37.18,74.63,25.69,81.87,25.69Zm-29.07.5h6.9v4h.09c1.3-2.78,3.19-4.54,6.48-4.54a16.83,16.83,0,0,1,2.56.25l-.38,6.31A8.77,8.77,0,0,0,65.89,32c-3.54,0-5.52,2.57-5.52,6.86v9.25H52.8ZM40.17,17.07h7.57v5.55H40.17ZM20.56,25.69A8.57,8.57,0,0,1,28,30.15h.08v-4H35V45.55c0,9-4.38,11.91-13.21,11.91a25.6,25.6,0,0,1-8.38-1.39l.38-6a15,15,0,0,0,7.41,1.81c4.37,0,6.73-2.06,6.73-6.35V44.37h-.09a8.53,8.53,0,0,1-7.36,3.74c-6,0-9.76-4.54-9.76-11S13.74,25.69,20.56,25.69Z"/><path class="cls-2" d="M121.22,25.69c-3.45,0-6.65,1.39-8.16,4.46H113v-4h-7V57h7.57V45h.08c1.44,2.61,4.3,3.58,7,3.58,6.52,0,10-5.39,10-11.87C130.6,31.45,127.28,25.69,121.22,25.69Zm-3,17.12c-2.53,0-4.63-2.4-4.63-5.59s1.85-5.73,4.63-5.73c3,0,4.59,2.53,4.59,5.43C122.78,40.41,121.05,42.81,118.19,42.81Z"/><path class="cls-2" d="M175.52,26.19,171,40.5h-.09l-4.71-14.31h-8.16l8.88,22.43a3.86,3.86,0,0,1-3.83,3,9.2,9.2,0,0,1-3-.46l-.5,5.76a21.92,21.92,0,0,0,4.71.51c6.94,0,8.58-5.35,10.73-10.86l8-20.41Z"/></g></g></g></svg>