<svg xmlns="http://www.w3.org/2000/svg" viewBox="0 0 158.66 63"><defs><style>.cls-1{fill:#fff;}</style></defs><title>Google pay</title><g id="Layer_2" data-name="Layer 2"><g id="Layer_1-2" data-name="Layer 1"><path class="cls-1" d="M75,30.78V49.25H69.18V3.64H84.72a14,14,0,0,1,10.06,4A12.68,12.68,0,0,1,99,17.21a12.63,12.63,0,0,1-4.2,9.68,14,14,0,0,1-10.06,3.89ZM75,9.26V25.18h9.82a7.93,7.93,0,0,0,6-13.35l-.15-.16a7.66,7.66,0,0,0-5.8-2.42H75ZM112.48,17q6.49,0,10.26,3.47T126.49,30V49.25h-5.6V44.92h-.26A11.2,11.2,0,0,1,111,50.27a12.56,12.56,0,0,1-8.62-3.06,9.77,9.77,0,0,1-3.48-7.64,9.25,9.25,0,0,1,3.66-7.7C105,30,108.21,29,112.29,29a17.2,17.2,0,0,1,8.59,1.91V29.57a6.64,6.64,0,0,0-2.42-5.19,8.27,8.27,0,0,0-5.65-2.13A9,9,0,0,0,105,26.39l-5.16-3.25Q104.14,17,112.48,17ZM104.9,39.7a4.68,4.68,0,0,0,1.95,3.82,7.13,7.13,0,0,0,4.55,1.53A9.37,9.37,0,0,0,118,42.31a8.57,8.57,0,0,0,2.91-6.43c-1.83-1.46-4.37-2.18-7.64-2.18a9.91,9.91,0,0,0-6,1.72,5.14,5.14,0,0,0-2.4,4.28ZM158.66,18,139.1,63h-6l7.26-15.73L127.45,18h6.36l9.3,22.42h.13l9-22.42Z"/><path class="cls-1" d="M51.36,26.8a31.69,31.69,0,0,0-.45-5.33H26.2V31.56H40.35a12.11,12.11,0,0,1-5.23,8v6.55h8.45C48.51,41.52,51.36,34.77,51.36,26.8Z"/><path class="cls-1" d="M26.2,52.4c7.07,0,13-2.32,17.37-6.32l-8.45-6.55a15.9,15.9,0,0,1-23.63-8.31H2.79V38A26.2,26.2,0,0,0,26.2,52.4Z"/><path class="cls-1" d="M11.49,31.22a15.66,15.66,0,0,1,0-10V14.44H2.79A26.2,26.2,0,0,0,2.79,38Z"/><path class="cls-1" d="M26.2,10.37A14.21,14.21,0,0,1,36.25,14.3l7.48-7.48A25.21,25.21,0,0,0,26.2,0,26.21,26.21,0,0,0,2.79,14.44l8.7,6.75A15.68,15.68,0,0,1,26.2,10.37Z"/></g></g></svg>