<svg xmlns="http://www.w3.org/2000/svg" viewBox="0 0 149.49 112"><defs><style>.cls-1{fill:#fff;}</style></defs><title>JCB</title><g id="Layer_2" data-name="Layer 2"><g id="Layer_1-2" data-name="Layer 1"><path class="cls-1" d="M112.54,52.72h-.1V43.63h10.23l.18,0H123l.18,0,.13,0h0l.18,0,.18,0,.19.05.18.06.18.07.18.08.18.08.18.1.17.1.18.12a1.4,1.4,0,0,1,.18.13.7.7,0,0,1,.19.15,1.37,1.37,0,0,1,.18.16,1.53,1.53,0,0,1,.18.18,1.71,1.71,0,0,1,.18.2l.18.23c.07.09.12.18.18.27a2.68,2.68,0,0,1,.18.33,3.12,3.12,0,0,1,.18.42,2.52,2.52,0,0,1,.18.61,4,4,0,0,1,.11,1,5,5,0,0,1-.11,1,2.74,2.74,0,0,1-.18.62,2.13,2.13,0,0,1-.18.41,2.68,2.68,0,0,1-.18.33c-.06.09-.11.18-.18.27a2,2,0,0,1-.18.23,1.71,1.71,0,0,1-.18.2c-.06.06-.11.12-.18.18a1.37,1.37,0,0,1-.18.16,1,1,0,0,1-.19.15,1.4,1.4,0,0,1-.18.13A1.08,1.08,0,0,1,125,52l-.17.11c-.07,0-.12.07-.18.09l-.18.09-.18.07-.18.07-.18.06-.19.05-.18,0-.18,0h0l-.13,0-.18,0h-.18l-.18,0H112.54Zm-.09,15.4h11.1l.18,0h.36l.18,0,.18,0,.1,0,.08,0,.18,0,.18-.06.18-.06.18-.08.18-.08.19-.09.18-.09.18-.1.18-.11.18-.13.18-.13.18-.16a1.66,1.66,0,0,1,.19-.18l.18-.19.18-.22.17-.25a3.23,3.23,0,0,0,.18-.28,2.68,2.68,0,0,0,.18-.33,3.38,3.38,0,0,0,.18-.44,3.17,3.17,0,0,0,.18-.62,4.27,4.27,0,0,0,.13-1.15,4.69,4.69,0,0,0-.13-1.14,3.38,3.38,0,0,0-.18-.62,3.79,3.79,0,0,0-.18-.42,2.79,2.79,0,0,0-.18-.34,2.29,2.29,0,0,0-.18-.29l-.17-.25c-.07-.07-.11-.14-.18-.21l-.18-.2c-.07-.06-.12-.12-.19-.17l-.18-.16-.18-.14-.18-.12-.18-.12-.18-.1c-.07,0-.12-.07-.18-.09a1.63,1.63,0,0,1-.19-.09l-.18-.08a1.34,1.34,0,0,0-.18-.07L125,58.5l-.18-.06-.18,0-.08,0h-.1l-.18,0-.18,0h-.18l-.18,0-.18,0h-11.1ZM97.39,0H69.16L69,.07H68.8l-.18,0h-.18l-.18,0-.18,0-.18,0-.18,0-.18,0-.18,0-.18,0L67,.31l-.19,0-.18,0-.18,0-.18,0-.18,0-.18,0-.18,0-.18.05-.18.05-.18,0L65,.78l-.18.06-.18.05L64.47,1,64.29,1l-.19.07-.18.07a1.89,1.89,0,0,0-.18.06l-.18.07-.18.07-.18.08L63,1.5l-.18.08-.18.08-.18.08-.18.09-.18.09L61.94,2l-.18.09-.18.09-.19.09a1,1,0,0,1-.18.1,1.51,1.51,0,0,1-.18.09l-.18.11-.18.11-.18.11-.18.11L60.13,3,60,3.14l-.18.12-.19.13a.81.81,0,0,1-.18.12.86.86,0,0,1-.18.14l-.17.13-.18.14-.19.15-.18.15-.18.15c-.06,0-.12.1-.18.15L58,4.68l-.18.16L57.6,5l-.18.16-.18.18-.18.18-.18.19-.18.19a1.62,1.62,0,0,0-.18.19l-.18.2-.18.2L56,6.71l-.18.22-.18.23-.18.23-.18.25-.18.24-.18.26-.18.27-.18.28L54.35,9c-.06.09-.12.2-.18.3L54,9.6l-.18.33-.18.34c-.07.12-.12.24-.18.37s-.13.25-.19.38l-.18.42c-.06.14-.12.28-.18.44l-.18.48-.18.52-.18.58-.18.66c-.06.26-.13.52-.18.78a19,19,0,0,0-.38,3.79V43.12L52,42.8l.18-.14.18-.14.18-.14.18-.14.18-.12.18-.13.18-.12a1.22,1.22,0,0,1,.19-.12l.18-.12a1.08,1.08,0,0,1,.18-.11l.18-.11.18-.11.18-.11.18-.1.18-.11.18-.09.18-.1.18-.1.18-.09.18-.09.18-.09.18-.09.19-.09.18-.08.18-.08L56.7,40l.18-.08.18-.08.18-.07.18-.08.18-.07.18-.07.18-.07.18-.07.18-.06.18-.07.18-.06.19-.07.18-.06.17-.06L59.4,39l.18,0,.19-.06.18,0,.18-.05.18-.06.18-.05.18,0,.18-.05.18,0,.22,0,.18,0,.19,0,.18,0,.18,0,.18-.05.18,0,.18,0,.18,0,.18,0,.18,0,.18,0,.18,0,.18,0,.18,0,.18,0,.18,0,.19,0,.18,0,.18,0,.18,0,.18,0,.18,0,.18,0,.18,0,.18,0,.18,0,.18,0,.18,0,.18,0,.18,0,.18,0,.19,0,.18,0,.18,0h.18l.18,0h.18l.18,0h.18l.17,0,.18,0h.73l.18,0h9.93l.18,0H80l.18,0,.18,0h.18l.18,0h.19l.18,0,.18,0,.18,0h.18l.18,0H82l.18,0,.18,0,.18,0,.17,0,.18,0,.19,0,.18,0,.18,0,.18,0,.18,0,.19,0,.18,0,.18,0,.18,0,.18,0,.18,0,.18,0,.18,0,.18,0,.18,0,.19,0L86,38l.17,0,.18,0,.18,0,.18,0,.18,0,.18,0,.18,0,.18,0,.18,0,.18,0,.18,0,.18,0,.18,0,.18,0,.18,0,.18,0,.18,0,.18,0,.19,0,.18,0,.18,0,.18,0,.18,0,.18,0,.19,0,.18,0,.18,0,.18,0,.18,0,.18,0,.18,0,.18,0,.18,0,.19,0,.18,0,.18,0,.18,0v7.9l-.18-.1L92.33,47l-.18-.1L92,46.86l-.18-.09-.18-.09-.18-.09-.18-.09-.18-.08-.18-.08-.18-.09-.18-.08-.19-.08L90.15,46,90,45.93l-.18-.08-.18-.07-.18-.08-.19-.07-.18-.08-.18-.07-.18-.08-.18-.07-.18-.07-.18-.07L88,45.13l-.18-.07L87.62,45l-.18-.06-.18-.06-.18-.06-.18-.06-.18-.06-.18-.06-.18-.06-.18,0L86,44.46l-.18-.06-.19,0-.18-.05-.18-.06-.18-.05-.18,0-.18,0-.18-.05-.18,0-.18,0-.18,0-.19-.05-.18,0-.18,0-.18,0-.18,0-.19,0-.18,0-.17,0-.18,0-.18,0-.18,0-.19,0-.18,0-.18,0-.18,0-.18,0-.18,0-.19,0-.18,0-.18,0-.18,0-.18,0-.18,0-.18,0-.18,0-.26,0-.18,0h-.18l-.18,0h-.36l-.18,0H74.71l-.18,0h-.18l-.17,0H74l-.18,0h-.18l-.18,0-.18,0-.18,0-.19,0-.18,0-.18,0-.18,0-.18,0-.18,0-.18,0-.18,0-.18,0-.18,0-.19.05-.18,0-.18.05a1,1,0,0,1-.18.06l-.18.06L70.2,44l-.18.07-.18.07-.18.07-.18.07-.18.08-.18.07-.18.09a.76.76,0,0,0-.18.09l-.18.08-.18.1-.18.09A.77.77,0,0,0,68,45l-.18.1a6422668708406.71,6422668708406.71,0,0,1-.36.22l-.18.12-.18.12-.18.13-.19.13-.18.14-.18.14-.18.15-.18.16-.18.16-.18.18-.18.17-.18.2-.18.2L65,47.5l-.18.22-.18.23-.18.24-.18.27-.19.28c-.06.09-.11.2-.17.3a2.68,2.68,0,0,0-.18.33,2.31,2.31,0,0,0-.18.35c-.07.12-.13.26-.19.39l-.18.42L63,51l-.18.55c-.06.21-.13.43-.18.66s-.13.56-.18.85-.14.86-.18,1.32-.08,1.06-.08,1.62,0,1.1.08,1.61.1.89.18,1.32.11.57.18.85.12.44.18.66L63,61l.18.48.18.43c.06.12.12.26.19.39a3.91,3.91,0,0,0,.18.35,3.58,3.58,0,0,0,.18.32l.17.3c.07.09.12.19.19.27s.12.18.18.27l.18.25.18.23.18.23.18.2a1.8,1.8,0,0,0,.18.2l.18.2c.06.06.12.11.18.18l.18.17.18.16.18.16.18.15.18.14.18.13.19.13a.75.75,0,0,0,.18.13l.18.12a.64.64,0,0,0,.18.1c.06,0,.11.08.18.11s.11.08.18.11L68,67a.77.77,0,0,0,.18.1l.18.09a1,1,0,0,0,.18.09l.18.08.18.1.18.08.18.08a.76.76,0,0,0,.18.09l.18.08a.67.67,0,0,1,.18.07l.18.07.18.06.18.07.18.06.18.06.18.06.18.05.19,0,.18,0,.18,0,.18,0,.18,0,.18,0,.18,0a1.13,1.13,0,0,0,.18,0l.18,0,.18,0,.19,0,.18,0,.18,0,.18,0h.18l.18,0,.18,0,.17,0,.18,0h.18l.18,0h.18l.18,0h2.18l.18,0h1.08l.18,0,.18,0h.18l.18,0,.18,0,.18,0H80l.18,0,.18,0,.18,0,.18,0,.18,0,.18,0,.18,0,.18,0,.18,0,.18,0,.19,0,.18,0,.18,0,.18,0,.18,0,.18,0,.18,0,.18,0,.18,0,.18-.05.18,0,.19-.05.18,0,.18,0,.18-.06.18,0,.18,0,.18-.06.18,0,.18-.06.18,0,.19-.06.18,0,.18-.06.18-.06.18-.06.18-.06.18-.07.18-.06.18-.06.18-.07.18-.06.18-.07.18-.07.18-.07.18-.07.18-.08.18-.07.18-.07.18-.08.18-.07.18-.08.18-.09L89.7,66l.18-.08.18-.08.18-.09.19-.08.18-.09.18-.09.18-.08.18-.09.18-.09.18-.09.18-.09.18-.09.19-.08.18-.1.18-.09.18-.09v7.89l-.18.05-.18,0-.18,0-.19,0-.18,0-.18,0-.18,0-.18,0-.18,0-.18,0-.24.14-.18,0-.18,0-.18,0-.18,0-.18,0-.19,0-.18,0-.18,0-.18,0-.18,0-.18,0-.18,0-.18,0-.18,0-.18,0-.18,0-.18,0-.18,0-.18,0-.18,0-.18,0-.18,0-.18,0-.18,0-.18,0-.18,0h-.18l-.18,0-.18,0-.18,0-.18,0-.18,0-.19,0-.18,0-.18,0-.18.07-.18,0-.18,0-.18,0-.19,0h-.18l-.18,0-.18,0H82.6l-.18,0-.18,0-.18,0-.18,0H81.7l-.18,0-.18,0-.18,0-.19,0-.18,0h-.18l-.18,0h-.35l-.18,0h-.36l-.18,0h-.18l-.18,0H70.41l-.17,0H69.7l-.19,0H69l-.18,0h-.19l-.18,0h-.36l-.18,0-.18,0-.18,0-.18,0-.18,0-.18,0-.18,0h-.18l-.18,0-.18,0-.18,0-.18,0-.18,0h-.18l-.18,0-.18,0-.18,0-.18,0-.18,0-.19,0-.18,0-.18,0-.18,0-.18,0-.18,0-.18,0-.18,0L63,74l-.18,0-.18,0-.18,0-.19,0-.18,0-.18,0-.18-.05-.18,0-.18,0-.18-.05-.18,0-.18-.06-.19,0-.18-.06-.18,0-.18,0-.18-.05-.18-.07-.18,0-.18,0a.64.64,0,0,0-.18-.06L59,72.92l-.13-.09-.18-.06-.18-.07-.18-.07-.18-.07L58,72.49l-.18-.07-.18-.08-.18-.07-.18-.09-.18-.08L56.93,72l-.18-.08-.18-.09-.18-.08-.18-.09L56,71.59l-.18-.09-.18-.09-.18-.09a3218508316485.62,3218508316485.62,0,0,1-.36-.18l-.18-.1L54.76,71l-.18-.08-.18-.1a1.62,1.62,0,0,0-.18-.1l-.18-.1a.87.87,0,0,0-.18-.11.72.72,0,0,0-.19-.11l-.18-.12a1.08,1.08,0,0,0-.18-.11L53.13,70,53,69.87l-.18-.12-.18-.13-.18-.14-.18-.13-.18-.14-.39-.33V112H80.58l.18,0,.19,0,.18,0,.18,0,.18,0,.18,0,.18,0,.18,0,.18,0,.18,0,.18,0,.18,0,.18,0,.19,0,.18,0,.18,0,.18,0,.18,0,.19,0,.18,0,.18-.05.18-.06.18-.06.18,0a1,1,0,0,1,.18-.06l.18-.08.18-.06a1,1,0,0,1,.18-.06,1,1,0,0,1,.18-.08l.18-.07.18-.08.18-.08.18-.07.18-.09a1,1,0,0,0,.18-.09,1,1,0,0,0,.18-.08.76.76,0,0,1,.18-.09l.18-.09.18-.1a1.51,1.51,0,0,0,.18-.09l.18-.09.18-.09.18-.1a1,1,0,0,1,.18-.09,1.25,1.25,0,0,1,.18-.11l.18-.1.18-.11c.07,0,.12-.08.18-.11a.93.93,0,0,1,.19-.11,1.88,1.88,0,0,1,.18-.12c.06,0,.11-.08.18-.12a1.88,1.88,0,0,1,.18-.12l.18-.13c.07,0,.12-.09.18-.13l.19-.13a1.18,1.18,0,0,1,.18-.13,1.24,1.24,0,0,1,.18-.14l.18-.15c.06-.06.12-.09.18-.15s.12-.09.18-.15l.18-.16.18-.16a1.37,1.37,0,0,0,.18-.16l.19-.18.18-.18.18-.18.18-.18.18-.18.18-.2.18-.2c.06-.07.12-.13.18-.21l.18-.21.18-.23.18-.23.18-.23a8228849330659.62,8228849330659.62,0,0,1,.36-.5c.06-.09.11-.18.18-.27s.11-.18.18-.27.11-.18.18-.27a2.82,2.82,0,0,0,.18-.29c.07-.1.12-.2.18-.3a3.3,3.3,0,0,0,.18-.32,3.47,3.47,0,0,0,.18-.33c.07-.11.12-.24.18-.35s.12-.25.18-.37.12-.27.18-.39.12-.28.18-.42.12-.3.18-.46.12-.33.18-.49.13-.36.18-.54a5.26,5.26,0,0,0,.18-.6q.1-.35.18-.69c.08-.27.13-.56.19-.84s.13-.73.18-1.11a19,19,0,0,0,.16-2.4V0h-.52ZM45.76,0H17.53l-.18,0H17l-.19,0-.18,0-.18,0-.18,0-.18,0-.18,0-.18,0-.18,0-.18,0-.18,0L15,.38l-.19,0-.18,0-.18,0-.18,0-.18,0-.18,0-.18.05-.18,0-.18.06-.18,0L13,.9,12.83,1,12.64,1l-.18.07-.18.06-.18.07L12,1.29l-.18.07-.18.07-.18.08-.18.08-.19.08-.18.08-.18.09-.18.09L10.33,2l-.18.09-.18.1-.18.09-.18.1-.18.1-.18.11-.18.1-.18.11-.18.11-.18.12a1.08,1.08,0,0,0-.18.11,1.4,1.4,0,0,0-.18.13L8,3.41l-.18.13-.18.13-.18.14-.18.13-.18.15-.18.14-.18.15-.18.16-.19.16-.18.15L6,5l-.18.17-.18.18-.18.18-.18.18-.18.19-.18.19-.18.2-.19.21-.18.21-.18.21L4,7.17l-.18.23-.18.24-.18.25a2.7,2.7,0,0,1-.18.25c-.06.1-.13.18-.18.28s-.12.18-.19.27-.11.2-.18.29-.11.2-.18.3l-.18.31-.18.34L2,10.27l-.18.37L1.65,11l-.18.41-.18.44c-.07.16-.12.32-.18.48l-.18.52c-.07.2-.12.39-.18.59s-.13.44-.18.66-.13.52-.18.78A18.35,18.35,0,0,0,0,18.7V64.78L.39,65l.18.09.18.09.18.09.18.09.18.08.18.09.18.08.18.09.18.07.18.09.18.08.18.08.18.09.18.07.19.08.18.07.18.09.18.07.18.08L4,66.6l.18.07.18.08.18.06.19.08.18.06.18.06.18.08.18.06.18.07.18.07.18.06.18.05.18.07.19.06.18.06.18.06.18,0,.18,0,.18.06.18,0,.18.06L8,68l.19,0,.18,0,.18,0,.18,0,.18.06.18.05.18,0,.18,0,.18,0,.18,0,.18,0,.18,0,.18,0,.18,0,.18,0,.18,0,.18,0,.19,0,.18,0,.18,0,.18,0,.18,0,.18,0,.18,0,.18,0,.18,0,.19,0,.18,0,.18,0,.18,0,.18,0,.18,0h.54l.18,0h2.72l.18,0h.18l.18,0h.18l.18,0a.57.57,0,0,0,.18,0l.18,0,.18,0,.18,0,.18,0,.18,0,.18,0,.18,0,.18,0,.18-.06.19-.06.18-.06a1.27,1.27,0,0,1,.18-.06l.18-.07.18-.07.18-.08.18-.09a1.51,1.51,0,0,0,.18-.09l.18-.08.18-.1.18-.1a1.51,1.51,0,0,0,.18-.09l.18-.1c.07,0,.12-.08.18-.11s.12-.09.18-.12l.18-.12.18-.14a1.24,1.24,0,0,0,.18-.14l.18-.14.19-.16c.06-.07.12-.11.18-.18s.12-.11.18-.18l.18-.19c.06-.08.12-.14.18-.21s.13-.14.19-.23l.18-.25a2.93,2.93,0,0,0,.18-.26L25,64.9l.18-.31.18-.35c.06-.12.12-.27.18-.39a4.85,4.85,0,0,1,.18-.54l.18-.55c.07-.24.13-.47.18-.72a12.16,12.16,0,0,0,.18-1.21c0-.33,0-.66,0-1V38.17h16V59.83q0,.95-.09,1.86c0,.43-.1.86-.18,1.28s-.11.57-.18.84a6.55,6.55,0,0,1-.18.67,5.05,5.05,0,0,1-.18.55,3.94,3.94,0,0,1-.18.48,4.07,4.07,0,0,1-.18.44c-.06.13-.12.27-.18.39s-.12.25-.18.36-.12.23-.18.33-.12.21-.18.3-.12.2-.18.29l-.18.27c-.07.09-.12.18-.18.26l-.18.25-.18.23-.18.21-.18.22-.18.2-.19.18a1.53,1.53,0,0,1-.18.18,1,1,0,0,1-.18.18,1.45,1.45,0,0,1-.18.17l-.18.17-.18.15c-.06,0-.12.09-.18.15l-.18.14-.18.13a.68.68,0,0,1-.18.13A1,1,0,0,1,37,71a.76.76,0,0,1-.19.12.57.57,0,0,1-.18.12,1.13,1.13,0,0,1-.18.12.78.78,0,0,1-.18.11,1,1,0,0,1-.18.1.64.64,0,0,1-.18.1,1.08,1.08,0,0,1-.18.11l-.18.1-.18.09a1.51,1.51,0,0,1-.18.09l-.18.09-.18.09-.18.08a.76.76,0,0,1-.18.09l-.18.09-.19.09s-.12,0-.18.09l-.18.07-.18.09-.18.08-.18.07A.67.67,0,0,1,33,73l-.18.07-.19.07-.18.07-.18.07-.18,0-.18.06-.18.06-.18,0-.18.06a1.27,1.27,0,0,0-.18.06l-.18.06-.18,0-.19.06-.18,0-.18.05-.18.06L30,74l-.18,0-.18,0-.18,0-.18.05-.18,0-.18,0-.18,0-.18,0-.18,0-.18,0a1,1,0,0,0-.18,0l-.19,0-.17,0-.18,0-.18,0-.18,0-.19-.09-.18,0-.18,0h-.18l-.18,0-.18,0-.18,0-.18,0-.18,0-.18,0-.18,0-.18,0-.18,0h-.36l-.19,0-.18,0h-.54l-.18,0h-.18l-.16,0H15.35l-.15,0h-.73l-.18,0h-.73l-.18,0h-.54l-.18,0h-.18l-.18,0h-.18l-.16,0-.18,0H11.6l-.18,0-.18,0-.19,0-.18,0-.18,0-.18,0-.18,0h-.18l-.18,0-.18,0-.18,0-.18,0-.18,0-.18,0-.18,0-.18,0-.18,0-.18,0-.18,0-.19,0-.18,0-.18,0-.18,0-.18,0-.18,0L6.9,74l-.18,0-.18,0-.19,0-.18,0-.18,0-.18,0-.18,0-.18,0-.18,0-.18,0-.18,0-.18,0-.19,0-.18,0-.18,0-.18,0-.18,0-.18,0-.18,0-.18,0-.18,0-.19,0-.18,0-.18,0-.18,0-.18,0-.18,0-.18,0-.18,0-.18,0-.18,0-.18,0-.18,0-.18,0-.18,0-.18,0L0,72.63V112H28.87l.18,0h.18l.18,0,.18,0,.18,0,.18,0,.18,0,.18,0,.18,0,.18,0,.19,0,.18,0,.18,0,.18,0,.18,0,.18,0,.18,0,.18,0,.18,0a1.21,1.21,0,0,1,.18,0l.18-.06.19,0,.18-.06.18-.06.18-.06.18-.07.18-.07.18-.06.18-.08.19-.06.18-.08.18-.09.18-.07.18-.08.18-.09.18-.08.18-.1.18-.09.18-.09.18-.09.18-.1.18-.1a.91.91,0,0,1,.18-.08l.18-.11.19-.1.18-.11.18-.11.18-.1.18-.12.18-.11.18-.12a.94.94,0,0,1,.18-.12l.18-.13a1.4,1.4,0,0,1,.18-.12l.18-.14L39,108l.18-.14.18-.15.18-.14.18-.16.18-.16.18-.16.18-.17.18-.16.18-.18c.06-.06.11-.12.18-.18s.12-.11.18-.18l.18-.19.18-.19.18-.21.18-.21a1.24,1.24,0,0,0,.18-.22l.18-.22.18-.23.18-.24c.06-.07.12-.16.18-.24l.18-.26c.06-.09.13-.17.18-.26s.13-.18.18-.28l.19-.27.18-.29.18-.29.18-.33q.09-.15.18-.33l.18-.35.18-.37.18-.39.18-.42.18-.45.18-.49.18-.54.18-.6c.07-.24.13-.46.18-.69s.13-.56.18-.84S46,96,46,95.66a19.06,19.06,0,0,0,.16-2.39V0h-.43ZM149.1,0H120.45l-.18,0-.18,0h-.19l-.18,0-.18,0-.18,0-.18,0-.19,0-.18,0-.18,0-.18,0-.18,0-.18,0-.18,0-.18,0-.17,0-.18,0-.18,0L117,.66a1,1,0,0,0-.18.06l-.18.05-.18,0-.18.06-.19.05-.18.07-.18.06a1.89,1.89,0,0,1-.18.06l-.18.07-.18.07-.19.07-.18.07-.18.08-.18.08a1.42,1.42,0,0,0-.18.08,1.42,1.42,0,0,0-.18.08l-.18.09-.18.09-.18.09-.18.09-.19.09-.18.1-.18.1-.18.1-.18.1-.18.11-.18.11-.18.11-.19.12-.18.11-.18.13-.18.12-.18.13-.18.13-.18.13-.18.14-.18.14-.18.15-.18.15c-.06.06-.12.1-.18.15l-.19.16c-.06,0-.11.11-.18.16l-.17.16-.19.17-.18.18c-.06,0-.12.12-.18.18s-.12.12-.18.18l-.18.19-.18.19-.18.2-.19.21c-.06.07-.11.14-.18.21a1.92,1.92,0,0,1-.18.22c-.06.07-.11.15-.18.22s-.11.16-.18.24a2,2,0,0,1-.18.23,2.27,2.27,0,0,1-.18.25,2.4,2.4,0,0,1-.18.26c-.06.09-.11.18-.18.27s-.12.19-.18.28A1.69,1.69,0,0,0,106,9a2.49,2.49,0,0,0-.19.3c-.07.1-.12.21-.18.31s-.12.22-.19.33-.11.23-.18.35-.11.24-.18.36-.12.26-.18.39-.11.27-.18.41-.12.29-.18.44-.12.32-.18.48-.12.35-.18.53-.12.38-.19.58-.11.44-.18.66-.12.52-.18.78a19.08,19.08,0,0,0-.38,3.81V38.05h28.64l.18,0h.36l.18,0,.18,0,.18,0,.19,0,.18,0,.18,0,.18,0,.18,0,.18,0,.18,0,.18,0a1.08,1.08,0,0,0,.19,0l.18,0,.17.05.18,0,.18,0,.18.06.18,0,.18.06.19.07a1.27,1.27,0,0,1,.18.06l.18.07.18.07.18.08.19.08.18.08.18.09.18.09.18.09.18.1.18.1.18.11.18.12.18.12a1.57,1.57,0,0,0,.19.12.83.83,0,0,0,.18.13l.18.15c.06,0,.11.1.17.15a1.37,1.37,0,0,1,.18.16c.07.05.12.11.18.16s.12.12.18.18.12.13.18.19l.19.2c.07.07.12.14.18.21s.12.16.18.24a1.44,1.44,0,0,1,.18.25c.07.09.12.19.18.28a2.38,2.38,0,0,1,.18.3,3,3,0,0,1,.18.36,2,2,0,0,1,.18.4,5.1,5.1,0,0,1,.19.5,6,6,0,0,1,.18.64,7.61,7.61,0,0,1,.18,1.08,8.92,8.92,0,0,1,.05.91,8.46,8.46,0,0,1-.05.87,6.18,6.18,0,0,1-.18,1.06,4.67,4.67,0,0,1-.18.64,5.1,5.1,0,0,1-.19.5,2.85,2.85,0,0,1-.18.41,3,3,0,0,1-.18.36,2.48,2.48,0,0,1-.18.31c-.06.1-.11.19-.18.29a1.51,1.51,0,0,1-.18.26,2.15,2.15,0,0,1-.18.24l-.18.23a1.19,1.19,0,0,1-.19.2,1.12,1.12,0,0,1-.18.2l-.18.19-.18.17a1.37,1.37,0,0,1-.18.16l-.17.17a1.24,1.24,0,0,0-.18.14,1.24,1.24,0,0,0-.18.14l-.19.12-.18.13-.18.12-.18.11-.18.1-.18.1a.76.76,0,0,1-.18.09l-.18.1-.18.09-.18.09-.19.08-.18.08-.18.08-.18.07-.18.07-.19.06-.18.06-.18.06-.18,0-.18.06-.18,0-.17,0-.18,0-.19,0-.18.05-.18,0-.18,0-.18,0-.17,0v.21l.17,0h.18l.18,0,.18,0h.18l.19,0,.18,0,.18,0,.18,0,.18,0,.18,0,.18,0,.18,0,.19,0,.18.05.18,0,.18,0,.18,0c.06,0,.12,0,.19.06l.18,0,.18.06.18.06.18.06a1,1,0,0,0,.18.06l.18.07.18.08.18.07.18.08.18.08a1,1,0,0,1,.18.09,1.42,1.42,0,0,1,.18.08l.18.1.18.09.17.09.19.1.18.11.18.11a1.08,1.08,0,0,1,.18.11c.07,0,.13.08.19.11l.18.13.18.13.18.13.18.16a1.19,1.19,0,0,1,.18.15l.18.15.18.18c.07.07.13.11.19.18l.18.19c.07.07.12.14.18.21l.18.21.18.25a2.27,2.27,0,0,1,.18.25c.07.09.12.19.18.28a3,3,0,0,1,.18.3c.07.11.12.23.19.34s.11.27.18.4.12.3.18.46.12.39.18.59a8.73,8.73,0,0,1,0,4.22c-.06.21-.11.41-.18.62s-.11.32-.18.48-.11.27-.18.41a3.9,3.9,0,0,1-.19.35,3.3,3.3,0,0,1-.18.32c-.06.09-.11.2-.18.29s-.11.17-.18.26l-.18.25-.18.23-.18.21-.18.2-.19.19-.18.18-.18.16-.18.16-.18.14c-.06.06-.12.09-.18.15l-.18.13-.18.14a1.22,1.22,0,0,1-.19.12.78.78,0,0,1-.18.11A1.08,1.08,0,0,1,140,72l-.18.11-.19.1a.91.91,0,0,1-.17.09c-.07,0-.12.07-.18.09l-.18.1a1.51,1.51,0,0,1-.18.09l-.18.09a1.42,1.42,0,0,0-.18.08l-.18.08-.18.08L138,73l-.18.07-.18.07-.18.06a1.89,1.89,0,0,1-.18.06l-.18,0-.18,0a1.39,1.39,0,0,1-.19.06l-.18.05-.18,0a1.21,1.21,0,0,0-.18,0l-.18,0-.19,0-.18.05-.18,0-.18,0-.18,0-.18,0-.18,0-.18,0-.19,0h-.18l-.18,0h-.72l-.25,0H103.32v38h28.91l.18,0a1,1,0,0,0,.18,0h.18l.18,0,.19,0,.18,0,.18,0,.18,0,.18,0,.18,0,.18,0,.18,0,.19,0,.18,0,.17,0,.18,0,.18,0,.18,0,.18,0,.18-.06.19,0,.18,0,.18-.06.18-.06.18-.06.19-.07.18-.07.18-.06.18-.08.18-.07.18-.08.18-.08.18-.08.18-.09.18-.08.19-.1.18-.08a1,1,0,0,1,.18-.09l.18-.09a1.4,1.4,0,0,1,.17-.09l.18-.09a1.12,1.12,0,0,1,.18-.1l.18-.1.19-.1.18-.09a1.25,1.25,0,0,1,.18-.11c.07,0,.12-.08.18-.11s.12-.08.18-.11l.18-.12c.07,0,.12-.08.18-.11l.18-.12a2,2,0,0,1,.19-.12,1,1,0,0,1,.18-.13c.07,0,.12-.09.18-.13l.18-.14.18-.14.19-.14a1.1,1.1,0,0,1,.18-.14,1.3,1.3,0,0,1,.18-.15l.18-.16a1.37,1.37,0,0,0,.18-.16l.18-.16.18-.17.18-.17.18-.17.18-.19.18-.18a1.7,1.7,0,0,1,.19-.19.86.86,0,0,1,.18-.2c.06-.08.12-.14.18-.21l.18-.21.18-.22.18-.22c.06-.09.12-.15.18-.24l.18-.24c.06-.09.12-.16.19-.25s.11-.17.18-.26a3.16,3.16,0,0,1,.18-.27,2.11,2.11,0,0,1,.18-.27l.17-.28c.07-.1.12-.2.18-.3s.11-.21.18-.3.11-.22.18-.33a2.71,2.71,0,0,0,.18-.34c.07-.11.12-.24.18-.35s.12-.26.18-.38.12-.27.18-.41.12-.29.19-.44.11-.31.18-.46.12-.34.17-.51a5.4,5.4,0,0,0,.18-.57c.07-.21.13-.42.18-.64s.13-.49.18-.75.13-.62.19-.93c.08-.47.14-.94.18-1.42a15.25,15.25,0,0,0,.08-1.66V0h-.39V0Z"/></g></g></svg>