<svg xmlns="http://www.w3.org/2000/svg" viewBox="0 0 502.69 87.57"><defs><style>.cls-1{fill:#fff;}</style></defs><title>Masterpass</title><g id="Layer_2" data-name="Layer 2"><g id="Layer_1-2" data-name="Layer 1"><path class="cls-1" d="M502,31.69c-3-2-7.25-3-11.88-3C482.73,28.65,478,32.18,478,38c0,4.75,3.54,7.67,10,8.58l3,.43c3.47.49,5.12,1.4,5.12,3.05,0,2.25-2.32,3.53-6.64,3.53a15.56,15.56,0,0,1-9.69-3l-3,4.93a21,21,0,0,0,12.61,3.77c8.41,0,13.28-4,13.28-9.5,0-5.12-3.84-7.8-10.17-8.71l-3-.43c-2.74-.37-4.94-.91-4.94-2.86,0-2.14,2.07-3.41,5.54-3.41a18.79,18.79,0,0,1,9.08,2.49L502,31.69Zm-30.39,0a21.79,21.79,0,0,0-11.88-3c-7.37,0-12.12,3.53-12.12,9.32,0,4.75,3.53,7.67,10.05,8.58l3,.43c3.47.49,5.12,1.4,5.12,3.05,0,2.25-2.32,3.53-6.64,3.53a15.54,15.54,0,0,1-9.69-3l-3,4.93A21,21,0,0,0,459,59.22c8.4,0,13.27-4,13.27-9.5,0-5.12-3.83-7.8-10.16-8.71l-3-.43c-2.75-.37-4.94-.91-4.94-2.86,0-2.14,2.07-3.41,5.55-3.41a18.81,18.81,0,0,1,9.07,2.49l2.74-5.11ZM399,43.81c0,5.11-3.35,9.32-8.83,9.32-5.24,0-8.77-4-8.77-9.32s3.53-9.32,8.77-9.32C395.68,34.49,399,38.69,399,43.81Zm-23.57,0V68.9h6.34V54.84A11,11,0,0,0,391,59.1c8.17,0,14.56-6.4,14.56-15.3S399.16,28.52,391,28.52a11,11,0,0,0-9.19,4.26V29.25h-6.34Zm41.24.06c0-5.12,3.35-9.32,8.83-9.32,5.23,0,8.77,4,8.77,9.32s-3.54,9.32-8.77,9.32C420,53.19,416.7,49,416.7,43.87Zm23.57,0V29.31h-6.34v3.54a11,11,0,0,0-9.19-4.26c-8.16,0-14.56,6.39-14.56,15.28s6.39,15.29,14.56,15.29a11,11,0,0,0,9.19-4.26v3.53h6.34V43.88Zm-211.18,0c0-5.12,3.35-9.32,8.84-9.32,5.23,0,8.77,4,8.77,9.32s-3.53,9.32-8.77,9.32C232.44,53.19,229.09,49,229.09,43.87Zm23.58,0V29.31h-6.34v3.54a11,11,0,0,0-9.2-4.26c-8.16,0-14.56,6.39-14.56,15.28s6.4,15.29,14.56,15.29a11,11,0,0,0,9.2-4.26v3.53h6.34V43.88Zm78.57-9.62c4.08,0,6.7,2.56,7.37,7.06h-15.1C324.17,37.11,326.74,34.25,331.24,34.25Zm.12-5.66c-8.52,0-14.5,6.21-14.5,15.28,0,9.26,6.21,15.29,14.93,15.29a17.7,17.7,0,0,0,11.93-4.08l-3.11-4.69a13.91,13.91,0,0,1-8.46,3c-4.09,0-7.8-1.9-8.72-7.13h21.63l.12-2.44c-.06-9.07-5.66-15.28-13.82-15.28Zm-47.38,3a21.79,21.79,0,0,0-11.88-3c-7.37,0-12.12,3.53-12.12,9.31,0,4.75,3.53,7.68,10,8.59l3,.43c3.46.49,5.11,1.4,5.11,3,0,2.26-2.31,3.54-6.64,3.54a15.47,15.47,0,0,1-9.68-3l-3,4.93a21,21,0,0,0,12.61,3.78c8.4,0,13.27-4,13.27-9.5,0-5.12-3.83-7.8-10.17-8.71l-3-.43c-2.74-.37-4.94-.92-4.94-2.86,0-2.14,2.07-3.41,5.55-3.41a18.81,18.81,0,0,1,9.07,2.49L284,31.62h0Zm81.68-3A8.58,8.58,0,0,0,358,32.85V29.31h-6.27V58.43h6.34V42.1c0-4.81,2.07-7.49,6.21-7.49a10.21,10.21,0,0,1,3.95.73l2-6a13.84,13.84,0,0,0-4.51-.79Zm-54,.73H301.27V20.49h-6.4v8.83H289V35.1h5.9V48.38c0,6.76,2.62,10.78,10.11,10.78a14.87,14.87,0,0,0,7.92-2.25l-1.82-5.43a11.65,11.65,0,0,1-5.61,1.64c-3.17,0-4.2-1.94-4.2-4.87V35.1h10.35V29.31ZM217,58.43V40.16c0-6.88-4.39-11.51-11.45-11.57a11.27,11.27,0,0,0-10.24,5.18,10.69,10.69,0,0,0-9.62-5.18,9.62,9.62,0,0,0-8.52,4.33v-3.6h-6.34V58.43h6.39V42.3c0-5.06,2.81-7.74,7.13-7.74s6.33,2.74,6.33,7.67v16.2h6.4V42.3c0-5.06,2.92-7.74,7.13-7.74s6.39,2.74,6.39,7.67v16.2Z"/><path class="cls-1" d="M54.11,43.78A43.7,43.7,0,0,1,70.84,9.36a43.79,43.79,0,1,0,0,68.85A43.71,43.71,0,0,1,54.11,43.78"/><path class="cls-1" d="M141.67,43.78A43.78,43.78,0,0,1,70.83,78.21a43.78,43.78,0,0,0,0-68.85,43.78,43.78,0,0,1,70.84,34.42"/></g></g></svg>