<svg xmlns="http://www.w3.org/2000/svg" viewBox="0 0 344.45 173.2"><defs><style>.cls-1,.cls-2{fill:#fff;}.cls-1{stroke:#fff;stroke-miterlimit:10;}</style></defs><title>MPesa</title><g id="Layer_2" data-name="Layer 2"><g id="Layer_1-2" data-name="Layer 1"><path class="cls-1" d="M146.17,5.74a5.25,5.25,0,0,0-10.49,0v9.8a11.9,11.9,0,0,0-1.59-.11H88.66A12.11,12.11,0,0,0,76.59,27.51V160.63A12.1,12.1,0,0,0,88.66,172.7h45.43a12.11,12.11,0,0,0,12.08-12.07V27.51a11.91,11.91,0,0,0-.43-3.18,5.08,5.08,0,0,0,.43-2.07ZM139.81,92a15.29,15.29,0,0,1-15.25,15.25H98.19A15.3,15.3,0,0,1,82.94,92V48.16A15.3,15.3,0,0,1,98.19,32.91h26.37a15.29,15.29,0,0,1,15.25,15.25Z"/><path class="cls-1" d="M185.84,35.59l-29,.11h0v70.53h15.41L172,74.41l10.53.21c11-1,17.56-6.67,18.36-18.27C201.29,44.84,196.41,36.93,185.84,35.59ZM172.42,67.24V42.93c7.16-1,12.65,1,13,12.23C185.21,65.23,179.86,67.77,172.42,67.24Z"/><path class="cls-1" d="M227.78,34.82l18.36-.08L246,42.62l-14.38-.07c-8.3,1.54-6.44,10.39-6.84,16.79L244.12,59l.07,9.67-18.74-.2-.09,23.42c.74,6.07,3.93,9.12,9.33,9.47l10.29-.11,3.14.07-.1,7.31-3.21.12-19.57-.2c-6.74-.23-12.19-3.58-14.69-14l-.48-45.44c.27-9.31,6.42-13.88,17.71-14.3Z"/><path class="cls-1" d="M252.88,54.76c-1.16-15.22,7.32-18.65,17.63-19.86,12.07-.71,19.65,4.32,21.13,17.16l-14.25,0c-.9-6.48-5.94-9-10.55-5.89-6.58,8,13.94,22.19,20.09,27.44,10.63,8.41,8.83,31.71-7.55,36l-10,.35c-10.14.24-16.18-6.16-17.92-18l14.35-.25c.78,5.07,2.95,8.22,7.54,8,7.15-1.36,9.12-7.65,4-15.68C266.76,75,254.16,66.47,252.88,54.76Z"/><path class="cls-1" d="M.5,32.52H15.59l.16,4.69c9.12-3.94,16-6.73,23.19-.24,12.88-6.08,22.62-5.39,27.45,5.9l.67,63.36H51.85V45.79c-1.13-5.17-5.23-6.06-10.17-5.72v66.16H26.11V45.79c-1.13-5.17-5.22-6.06-10.17-5.72v66.16H.5Z"/><path class="cls-1" d="M315.75,48.51c.52-4.15,1.87-5.82,6.43-6.27,4.63.12,6.28,2.79,6.6,6.91V60.43h-13V48.51ZM300.1,108.08h15.65V69.16h13v38.92H344V52.49c-.31-11.31-9-18.39-21.29-18.43-14-.13-22,6.53-22.56,17.79Z"/><path class="cls-1" d="M95.09,62.57c2.61,6.11,6.17,8.91,10.47,9.08A60.51,60.51,0,0,1,84,81.66a69.51,69.51,0,0,1-13.71-2.72C81.46,76.73,89.77,71.34,95.09,62.57Z"/><path class="cls-2" d="M95.09,62.57c2.61,6.11,6.17,8.91,10.47,9.08A60.51,60.51,0,0,1,84,81.66a69.51,69.51,0,0,1-13.71-2.72C81.46,76.73,89.77,71.34,95.09,62.57Z"/><path class="cls-1" d="M124.32,46.85l31.46,15.88c-16,21.08-43,21.63-71.81,18.91C103.21,76.9,116.53,65.14,124.32,46.85Z"/><path class="cls-2" d="M124.32,46.85l31.46,15.88c-16,21.08-43,21.63-71.81,18.91C103.21,76.9,116.53,65.14,124.32,46.85Z"/></g></g></svg>