<svg xmlns="http://www.w3.org/2000/svg" viewBox="0 0 135.29 52.77"><defs><style>.cls-1{fill:#fff;}</style></defs><title>Asset 5</title><g id="Layer_2" data-name="Layer 2"><g id="Layer_1-2" data-name="Layer 1"><path class="cls-1" d="M67.65,0C30.29,0,0,11.82,0,26.39S30.29,52.77,67.65,52.77,135.29,41,135.29,26.39,105,0,67.65,0ZM47.58,39.21l4.5-16.81H52L43.07,39.21H37.21V22.4h-.12l-4.5,16.81H25L32,13H43.07V28.42h.07L50.66,13H61.92l-7,26.2ZM72,39.73H63.89l1-3.72H73ZM73.25,35H65.17l4.09-15.24H61.92L63.71,13H86.47l-1.8,6.71H77.33Zm30.67,4.25H96.37L92.49,24.9h-.07L88.59,39.21H81.25l7-26.2H96.2l3.58,14h.07l3.76-14h7.33Z"/></g></g></svg>