<svg id="Group_4767" data-name="Group 4767" xmlns="http://www.w3.org/2000/svg" width="24.532" height="43.517" viewBox="0 0 24.532 43.517">
  <g id="Group_4741" data-name="Group 4741" transform="translate(9.6 11.218)">
    <path id="Path_3659" data-name="Path 3659" d="M2764.493,1329.24c-.069.03-.134.061-.195.092h5.211c-.062-.031-.125-.062-.195-.092A7.085,7.085,0,0,0,2764.493,1329.24Z" transform="translate(-2764.298 -1328.817)" fill="none"/>
  </g>
  <g id="Group_4742" data-name="Group 4742" transform="translate(7.701 41.889)">
    <rect id="Rectangle_2960" data-name="Rectangle 2960" width="9.208" height="0.025" fill="none"/>
  </g>
  <g id="Group_4743" data-name="Group 4743" transform="translate(8.752 1.823)">
    <path id="Path_3660" data-name="Path 3660" d="M2769.08,1322.936a2.917,2.917,0,0,1,.788.48v-7.776h-.2v-1.868q-3.3.15-6.6,0v1.871l-.13,0v7.749a2.988,2.988,0,0,1,.764-.459A7.741,7.741,0,0,1,2769.08,1322.936Z" transform="translate(-2762.941 -1313.772)" fill="none"/>
  </g>
  <g id="Group_4744" data-name="Group 4744" transform="translate(8.752 11.733)">
    <path id="Path_3661" data-name="Path 3661" d="M2763.764,1329.653h-.823l0,.034h6.928v-.034h-.847l-.024-.012h-5.212Z" transform="translate(-2762.941 -1329.641)" fill="none"/>
  </g>
  <g id="Group_4745" data-name="Group 4745" transform="translate(0 11.733)">
    <path id="Path_3662" data-name="Path 3662" d="M2770.489,1329.687h-4.867v-.046h-1.886l.024.012h.847v.034h-6.927l0-.034h.823l.025-.012h-1.858v.047H2751.9a2.97,2.97,0,0,0-2.979,2.961v24.178a2.97,2.97,0,0,0,2.97,2.97h2.354v.024h2.377v-.024h9.208v.024h2.377v-.024h2.277a2.97,2.97,0,0,0,2.97-2.97v-24.17A2.97,2.97,0,0,0,2770.489,1329.687Z" transform="translate(-2748.925 -1329.641)" fill="#e1e8ee"/>
  </g>
  <g id="Group_4746" data-name="Group 4746" transform="translate(7.313)">
    <path id="Path_3663" data-name="Path 3663" d="M2763.118,1322.493a7.086,7.086,0,0,1,4.822,0c.069.03.133.061.195.092h1.886v-8.038h.155v-2.015a.448.448,0,0,0,.2-.371v-.717a.473.473,0,0,0-.459-.459,73.49,73.49,0,0,0-8.821,0,.473.473,0,0,0-.459.459v.717a.448.448,0,0,0,.2.373v2.015h.229v8.036h1.858C2762.984,1322.554,2763.049,1322.523,2763.118,1322.493Zm-1.042-.195v-7.749l.13,0v-1.872q3.3.15,6.6,0v1.868h.2v7.776a2.917,2.917,0,0,0-.789-.479,7.739,7.739,0,0,0-5.375,0A2.981,2.981,0,0,0,2762.075,1322.3Z" transform="translate(-2760.636 -1310.852)" fill="#2990e6"/>
  </g>
  <g id="Group_4747" data-name="Group 4747" transform="translate(5.323 41.914)">
    <path id="Path_3664" data-name="Path 3664" d="M2758.639,1379.575a1.188,1.188,0,0,0,1.188-1.188v-.414h-2.378v.414A1.189,1.189,0,0,0,2758.639,1379.575Z" transform="translate(-2757.45 -1377.973)" fill="#d47780"/>
  </g>
  <g id="Group_4748" data-name="Group 4748" transform="translate(16.909 41.914)">
    <path id="Path_3665" data-name="Path 3665" d="M2776,1378.387a1.188,1.188,0,1,0,2.377,0v-.414H2776Z" transform="translate(-2776.003 -1377.973)" fill="#d47780"/>
  </g>
</svg>
