<svg id="Group_4770" data-name="Group 4770" xmlns="http://www.w3.org/2000/svg" width="37.543" height="49.356" viewBox="0 0 37.543 49.356">
  <g id="Group_4719" data-name="Group 4719" transform="translate(0.487 12.298)">
    <path id="Path_3645" data-name="Path 3645" d="M2437.935,1340.4a18.541,18.541,0,0,1-24.792,17.445,18.261,18.261,0,0,1-3.329-1.592s-.008,0-.012-.009c-.222-.131-.439-.272-.652-.417a18.541,18.541,0,0,1-5.585-5.819s0,0,0-.009a18.522,18.522,0,0,1-.464-18.39v0a18.538,18.538,0,0,1,22.988-8.489,18.356,18.356,0,0,1,5,2.9c.127.1.251.2.375.31.328.281.643.571.949.872a18.549,18.549,0,0,1,3.423,4.628A18.412,18.412,0,0,1,2437.935,1340.4Z" transform="translate(-2400.878 -1321.874)" fill="#2990e6"/>
  </g>
  <g id="Group_4720" data-name="Group 4720" transform="translate(3.53 15.341)">
    <circle id="Ellipse_385" data-name="Ellipse 385" cx="15.487" cy="15.487" r="15.487" fill="#fff"/>
  </g>
  <g id="Path_4063" data-name="Path 4063" transform="translate(4.033)">
    <path id="Path_3646" data-name="Path 3646" d="M2424.556,1320.14l-2.667-7.71s4.25-4.451,4.476-6.666c.107-1.034-.247-1.175-.488-1.4-.192-.264-.366-.593-1.4-.488-2.215.226-6.666,4.477-6.666,4.477l-7.711-2.667c-1.169.619-2.2,2.228-.857,2.7a49.337,49.337,0,0,1,5.812,3.672l-4.873,5.344a3.789,3.789,0,0,0-2.851-1.1c-1.545.226-1.23,1.363-1.23,1.363s3.23,1.013,2.673,1.9a2.97,2.97,0,0,0-.221,2.1l-.006.012.011,0,0,.01.012-.006a2.968,2.968,0,0,0,2.1-.221c.887-.557,1.9,2.673,1.9,2.673s1.135.316,1.363-1.231a3.78,3.78,0,0,0-1.1-2.85l5.343-4.873a49.235,49.235,0,0,1,3.672,5.812C2422.328,1322.336,2423.937,1321.308,2424.556,1320.14Z" transform="translate(-2406.073 -1303.854)" fill="#dcdcdc"/>
  </g>
  <g id="Path_4064" data-name="Path 4064" transform="translate(0 15.024)">
    <path id="Path_3647" data-name="Path 3647" d="M2407.341,1325.868c-16.417,18.717.472,30.268.472,30.268s-13.893-6.576.652-29.145Z" transform="translate(-2400.165 -1325.868)" fill="#dcdcdc"/>
  </g>
  <g id="Group_4650" data-name="Group 4650" transform="translate(6.514 0.495)">
    <g id="Path_4065" data-name="Path 4065">
      <path id="Path_3648" data-name="Path 3648" d="M2425.722,1320.369l-2.669-7.717s4.253-4.454,4.48-6.671c.105-1.035-.248-1.175-.489-1.4l-17.335,17.335h0l0,.01.014-.006a2.972,2.972,0,0,0,2.1-.221c.888-.558,1.9,2.674,1.9,2.674s1.135.317,1.362-1.23a3.782,3.782,0,0,0-1.1-2.853l5.348-4.876a49.234,49.234,0,0,1,3.674,5.816C2423.492,1322.567,2425.1,1321.538,2425.722,1320.369Z" transform="translate(-2409.71 -1304.579)" fill="#ededed"/>
    </g>
  </g>
  <g id="Group_4721" data-name="Group 4721" transform="translate(11.371 23.474)">
    <path id="Path_3649" data-name="Path 3649" d="M2436.368,1345.944l-10.389,0a1.818,1.818,0,0,0-1.506-.8c-.065,0-.128.013-.191.019l-5.9-6.917-1.559,1.328,5.9,6.916a1.818,1.818,0,0,0,3.258,1.5h10.388Z" transform="translate(-2416.827 -1338.249)" fill="#d47780"/>
  </g>
</svg>
