<svg id="Group_4768" data-name="Group 4768" xmlns="http://www.w3.org/2000/svg" width="41.03" height="24.002" viewBox="0 0 41.03 24.002">
  <g id="Group_4752" data-name="Group 4752" transform="translate(0 4.545)">
    <g id="Group_4750" data-name="Group 4750" transform="translate(0 0)">
      <path id="Path_3666" data-name="Path 3666" d="M2778.25,1446.827a1.482,1.482,0,0,0-1.482-1.482h-29.092a1.482,1.482,0,0,0-1.481,1.482v2.027h32.055Z" transform="translate(-2746.195 -1445.345)" fill="#e1e8ee"/>
    </g>
    <g id="Group_4751" data-name="Group 4751" transform="translate(0 3.509)">
      <rect id="Rectangle_2961" data-name="Rectangle 2961" width="32.056" height="3.828" fill="#2990e6"/>
    </g>
  </g>
  <g id="Group_4753" data-name="Group 4753" transform="translate(0 11.881)">
    <path id="Path_3667" data-name="Path 3667" d="M2746.2,1455.748v10.639a1.482,1.482,0,0,0,1.481,1.482h29.092a1.482,1.482,0,0,0,1.482-1.482v-10.639Z" transform="translate(-2746.195 -1455.748)" fill="#e1e8ee"/>
  </g>
  <g id="Group_4656" data-name="Group 4656" transform="translate(27.188)">
    <g id="Path_4071" data-name="Path 4071">
      <path id="Path_3668" data-name="Path 3668" d="M2794.956,1438.9a3.443,3.443,0,0,1-6.574,0,3.634,3.634,0,0,0-3.633,3.633c0,4.08,4.116,5.15,6.921,9.186,2.652-4.01,6.921-5.235,6.921-9.186a3.634,3.634,0,0,0-3.634-3.633Z" transform="translate(-2784.748 -1438.9)" fill="#d47780"/>
    </g>
  </g>
  <g id="Group_4754" data-name="Group 4754" transform="translate(2.267 14.896)">
    <rect id="Rectangle_2962" data-name="Rectangle 2962" width="5.42" height="4.623" rx="1" transform="translate(0)" fill="#ededed"/>
  </g>
</svg>
