<svg xmlns="http://www.w3.org/2000/svg" width="68.216" height="68.216" viewBox="0 0 68.216 68.216"><defs><style>.a{fill:#fff;}.b{fill:#005baa;}.c{fill:none;}</style></defs><rect class="a" width="68.216" height="68.216"/><g transform="translate(4.705 4.705)"><g transform="translate(21.171)"><rect class="b" width="2.352" height="2.352"/></g><g transform="translate(23.523)"><rect class="b" width="2.352" height="2.352"/></g><g transform="translate(25.875)"><rect class="b" width="2.352" height="2.352"/></g><g transform="translate(30.58)"><rect class="b" width="2.352" height="2.352"/></g><g transform="translate(37.637)"><rect class="b" width="2.352" height="2.352"/></g><g transform="translate(18.818 2.352)"><rect class="b" width="2.352" height="2.352"/></g><g transform="translate(25.875 2.352)"><rect class="b" width="2.352" height="2.352"/></g><g transform="translate(28.227 2.352)"><rect class="b" width="2.352" height="2.352"/></g><g transform="translate(30.58 2.352)"><rect class="b" width="2.352" height="2.352"/></g><g transform="translate(32.932 2.352)"><rect class="b" width="2.352" height="2.352"/></g><g transform="translate(37.637 2.352)"><rect class="b" width="2.352" height="2.352"/></g><g transform="translate(18.818 4.705)"><rect class="b" width="2.352" height="2.352"/></g><g transform="translate(21.171 4.705)"><rect class="b" width="2.352" height="2.352"/></g><g transform="translate(32.932 4.705)"><rect class="b" width="2.352" height="2.352"/></g><g transform="translate(37.637 4.705)"><rect class="b" width="2.352" height="2.352"/></g><g transform="translate(18.818 7.057)"><rect class="b" width="2.352" height="2.352"/></g><g transform="translate(21.171 7.057)"><rect class="b" width="2.352" height="2.352"/></g><g transform="translate(23.523 7.057)"><rect class="b" width="2.352" height="2.352"/></g><g transform="translate(25.875 7.057)"><rect class="b" width="2.352" height="2.352"/></g><g transform="translate(30.58 7.057)"><rect class="b" width="2.352" height="2.352"/></g><g transform="translate(32.932 7.057)"><rect class="b" width="2.352" height="2.352"/></g><g transform="translate(25.875 9.409)"><rect class="b" width="2.352" height="2.352"/></g><g transform="translate(32.932 9.409)"><rect class="b" width="2.352" height="2.352"/></g><g transform="translate(21.171 11.761)"><rect class="b" width="2.352" height="2.352"/></g><g transform="translate(23.523 11.761)"><rect class="b" width="2.352" height="2.352"/></g><g transform="translate(30.58 11.761)"><rect class="b" width="2.352" height="2.352"/></g><g transform="translate(18.818 14.114)"><rect class="b" width="2.352" height="2.352"/></g><g transform="translate(23.523 14.114)"><rect class="b" width="2.352" height="2.352"/></g><g transform="translate(28.227 14.114)"><rect class="b" width="2.352" height="2.352"/></g><g transform="translate(32.932 14.114)"><rect class="b" width="2.352" height="2.352"/></g><g transform="translate(37.637 14.114)"><rect class="b" width="2.352" height="2.352"/></g><g transform="translate(18.818 16.466)"><rect class="b" width="2.352" height="2.352"/></g><g transform="translate(23.523 16.466)"><rect class="b" width="2.352" height="2.352"/></g><g transform="translate(25.875 16.466)"><rect class="b" width="2.352" height="2.352"/></g><g transform="translate(37.637 16.466)"><rect class="b" width="2.352" height="2.352"/></g><g transform="translate(0 18.818)"><rect class="b" width="2.352" height="2.352"/></g><g transform="translate(14.114 18.818)"><rect class="b" width="2.352" height="2.352"/></g><g transform="translate(18.818 18.818)"><rect class="b" width="2.352" height="2.352"/></g><g transform="translate(23.523 18.818)"><rect class="b" width="2.352" height="2.352"/></g><g transform="translate(28.227 18.818)"><rect class="b" width="2.352" height="2.352"/></g><g transform="translate(30.58 18.818)"><rect class="b" width="2.352" height="2.352"/></g><g transform="translate(35.284 18.818)"><rect class="b" width="2.352" height="2.352"/></g><g transform="translate(37.637 18.818)"><rect class="b" width="2.352" height="2.352"/></g><g transform="translate(39.989 18.818)"><rect class="b" width="2.352" height="2.352"/></g><g transform="translate(42.341 18.818)"><rect class="b" width="2.352" height="2.352"/></g><g transform="translate(49.398 18.818)"><rect class="b" width="2.352" height="2.352"/></g><g transform="translate(51.75 18.818)"><rect class="b" width="2.352" height="2.352"/></g><g transform="translate(54.103 18.818)"><rect class="b" width="2.352" height="2.352"/></g><g transform="translate(0 21.171)"><rect class="b" width="2.352" height="2.352"/></g><g transform="translate(21.171 21.171)"><rect class="b" width="2.352" height="2.352"/></g><g transform="translate(25.875 21.171)"><rect class="b" width="2.352" height="2.352"/></g><g transform="translate(28.227 21.171)"><rect class="b" width="2.352" height="2.352"/></g><g transform="translate(35.284 21.171)"><rect class="b" width="2.352" height="2.352"/></g><g transform="translate(37.637 21.171)"><rect class="b" width="2.352" height="2.352"/></g><g transform="translate(44.693 21.171)"><rect class="b" width="2.352" height="2.352"/></g><g transform="translate(47.046 21.171)"><rect class="b" width="2.352" height="2.352"/></g><g transform="translate(49.398 21.171)"><rect class="b" width="2.352" height="2.352"/></g><g transform="translate(51.75 21.171)"><rect class="b" width="2.352" height="2.352"/></g><g transform="translate(54.103 21.171)"><rect class="b" width="2.352" height="2.352"/></g><g transform="translate(9.409 23.523)"><rect class="b" width="2.352" height="2.352"/></g><g transform="translate(14.114 23.523)"><rect class="b" width="2.352" height="2.352"/></g><g transform="translate(16.466 23.523)"><rect class="b" width="2.352" height="2.352"/></g><g transform="translate(21.171 23.523)"><rect class="b" width="2.352" height="2.352"/></g><g transform="translate(25.875 23.523)"><rect class="b" width="2.352" height="2.352"/></g><g transform="translate(30.58 23.523)"><rect class="b" width="2.352" height="2.352"/></g><g transform="translate(32.932 23.523)"><rect class="b" width="2.352" height="2.352"/></g><g transform="translate(35.284 23.523)"><rect class="b" width="2.352" height="2.352"/></g><g transform="translate(42.341 23.523)"><rect class="b" width="2.352" height="2.352"/></g><g transform="translate(44.693 23.523)"><rect class="b" width="2.352" height="2.352"/></g><g transform="translate(47.046 23.523)"><rect class="b" width="2.352" height="2.352"/></g><g transform="translate(49.398 23.523)"><rect class="b" width="2.352" height="2.352"/></g><g transform="translate(54.103 23.523)"><rect class="b" width="2.352" height="2.352"/></g><g transform="translate(56.455 23.523)"><rect class="b" width="2.352" height="2.352"/></g><g transform="translate(0 25.875)"><rect class="b" width="2.352" height="2.352"/></g><g transform="translate(2.352 25.875)"><rect class="b" width="2.352" height="2.352"/></g><g transform="translate(9.409 25.875)"><rect class="b" width="2.352" height="2.352"/></g><g transform="translate(16.466 25.875)"><rect class="b" width="2.352" height="2.352"/></g><g transform="translate(18.818 25.875)"><rect class="b" width="2.352" height="2.352"/></g><g transform="translate(28.227 25.875)"><rect class="b" width="2.352" height="2.352"/></g><g transform="translate(37.637 25.875)"><rect class="b" width="2.352" height="2.352"/></g><g transform="translate(39.989 25.875)"><rect class="b" width="2.352" height="2.352"/></g><g transform="translate(42.341 25.875)"><rect class="b" width="2.352" height="2.352"/></g><g transform="translate(44.693 25.875)"><rect class="b" width="2.352" height="2.352"/></g><g transform="translate(49.398 25.875)"><rect class="b" width="2.352" height="2.352"/></g><g transform="translate(56.455 25.875)"><rect class="b" width="2.352" height="2.352"/></g><g transform="translate(0 28.227)"><rect class="b" width="2.352" height="2.352"/></g><g transform="translate(2.352 28.227)"><rect class="b" width="2.352" height="2.352"/></g><g transform="translate(7.057 28.227)"><rect class="b" width="2.352" height="2.352"/></g><g transform="translate(9.409 28.227)"><rect class="b" width="2.352" height="2.352"/></g><g transform="translate(11.761 28.227)"><rect class="b" width="2.352" height="2.352"/></g><g transform="translate(14.114 28.227)"><rect class="b" width="2.352" height="2.352"/></g><g transform="translate(16.466 28.227)"><rect class="b" width="2.352" height="2.352"/></g><g transform="translate(23.523 28.227)"><rect class="b" width="2.352" height="2.352"/></g><g transform="translate(28.227 28.227)"><rect class="b" width="2.352" height="2.352"/></g><g transform="translate(32.932 28.227)"><rect class="b" width="2.352" height="2.352"/></g><g transform="translate(35.284 28.227)"><rect class="b" width="2.352" height="2.352"/></g><g transform="translate(39.989 28.227)"><rect class="b" width="2.352" height="2.352"/></g><g transform="translate(42.341 28.227)"><rect class="b" width="2.352" height="2.352"/></g><g transform="translate(56.455 28.227)"><rect class="b" width="2.352" height="2.352"/></g><g transform="translate(0 30.58)"><rect class="b" width="2.352" height="2.352"/></g><g transform="translate(11.761 30.58)"><rect class="b" width="2.352" height="2.352"/></g><g transform="translate(21.171 30.58)"><rect class="b" width="2.352" height="2.352"/></g><g transform="translate(28.227 30.58)"><rect class="b" width="2.352" height="2.352"/></g><g transform="translate(32.932 30.58)"><rect class="b" width="2.352" height="2.352"/></g><g transform="translate(35.284 30.58)"><rect class="b" width="2.352" height="2.352"/></g><g transform="translate(44.693 30.58)"><rect class="b" width="2.352" height="2.352"/></g><g transform="translate(54.103 30.58)"><rect class="b" width="2.352" height="2.352"/></g><g transform="translate(0 32.932)"><rect class="b" width="2.352" height="2.352"/></g><g transform="translate(4.705 32.932)"><rect class="b" width="2.352" height="2.352"/></g><g transform="translate(14.114 32.932)"><rect class="b" width="2.352" height="2.352"/></g><g transform="translate(16.466 32.932)"><rect class="b" width="2.352" height="2.352"/></g><g transform="translate(18.818 32.932)"><rect class="b" width="2.352" height="2.352"/></g><g transform="translate(23.523 32.932)"><rect class="b" width="2.352" height="2.352"/></g><g transform="translate(28.227 32.932)"><rect class="b" width="2.352" height="2.352"/></g><g transform="translate(35.284 32.932)"><rect class="b" width="2.352" height="2.352"/></g><g transform="translate(37.637 32.932)"><rect class="b" width="2.352" height="2.352"/></g><g transform="translate(39.989 32.932)"><rect class="b" width="2.352" height="2.352"/></g><g transform="translate(44.693 32.932)"><rect class="b" width="2.352" height="2.352"/></g><g transform="translate(47.046 32.932)"><rect class="b" width="2.352" height="2.352"/></g><g transform="translate(49.398 32.932)"><rect class="b" width="2.352" height="2.352"/></g><g transform="translate(54.103 32.932)"><rect class="b" width="2.352" height="2.352"/></g><g transform="translate(56.455 32.932)"><rect class="b" width="2.352" height="2.352"/></g><g transform="translate(0 35.284)"><rect class="b" width="2.352" height="2.352"/></g><g transform="translate(4.705 35.284)"><rect class="b" width="2.352" height="2.352"/></g><g transform="translate(7.057 35.284)"><rect class="b" width="2.352" height="2.352"/></g><g transform="translate(9.409 35.284)"><rect class="b" width="2.352" height="2.352"/></g><g transform="translate(16.466 35.284)"><rect class="b" width="2.352" height="2.352"/></g><g transform="translate(18.818 35.284)"><rect class="b" width="2.352" height="2.352"/></g><g transform="translate(21.171 35.284)"><rect class="b" width="2.352" height="2.352"/></g><g transform="translate(23.523 35.284)"><rect class="b" width="2.352" height="2.352"/></g><g transform="translate(25.875 35.284)"><rect class="b" width="2.352" height="2.352"/></g><g transform="translate(28.227 35.284)"><rect class="b" width="2.352" height="2.352"/></g><g transform="translate(35.284 35.284)"><rect class="b" width="2.352" height="2.352"/></g><g transform="translate(44.693 35.284)"><rect class="b" width="2.352" height="2.352"/></g><g transform="translate(49.398 35.284)"><rect class="b" width="2.352" height="2.352"/></g><g transform="translate(51.75 35.284)"><rect class="b" width="2.352" height="2.352"/></g><g transform="translate(56.455 35.284)"><rect class="b" width="2.352" height="2.352"/></g><g transform="translate(0 37.637)"><rect class="b" width="2.352" height="2.352"/></g><g transform="translate(4.705 37.637)"><rect class="b" width="2.352" height="2.352"/></g><g transform="translate(7.057 37.637)"><rect class="b" width="2.352" height="2.352"/></g><g transform="translate(9.409 37.637)"><rect class="b" width="2.352" height="2.352"/></g><g transform="translate(11.761 37.637)"><rect class="b" width="2.352" height="2.352"/></g><g transform="translate(14.114 37.637)"><rect class="b" width="2.352" height="2.352"/></g><g transform="translate(16.466 37.637)"><rect class="b" width="2.352" height="2.352"/></g><g transform="translate(18.818 37.637)"><rect class="b" width="2.352" height="2.352"/></g><g transform="translate(23.523 37.637)"><rect class="b" width="2.352" height="2.352"/></g><g transform="translate(30.58 37.637)"><rect class="b" width="2.352" height="2.352"/></g><g transform="translate(37.637 37.637)"><rect class="b" width="2.352" height="2.352"/></g><g transform="translate(39.989 37.637)"><rect class="b" width="2.352" height="2.352"/></g><g transform="translate(42.341 37.637)"><rect class="b" width="2.352" height="2.352"/></g><g transform="translate(44.693 37.637)"><rect class="b" width="2.352" height="2.352"/></g><g transform="translate(47.046 37.637)"><rect class="b" width="2.352" height="2.352"/></g><g transform="translate(51.75 37.637)"><rect class="b" width="2.352" height="2.352"/></g><g transform="translate(18.818 39.989)"><rect class="b" width="2.352" height="2.352"/></g><g transform="translate(25.875 39.989)"><rect class="b" width="2.352" height="2.352"/></g><g transform="translate(28.227 39.989)"><rect class="b" width="2.352" height="2.352"/></g><g transform="translate(32.932 39.989)"><rect class="b" width="2.352" height="2.352"/></g><g transform="translate(37.637 39.989)"><rect class="b" width="2.352" height="2.352"/></g><g transform="translate(47.046 39.989)"><rect class="b" width="2.352" height="2.352"/></g><g transform="translate(21.171 42.341)"><rect class="b" width="2.352" height="2.352"/></g><g transform="translate(23.523 42.341)"><rect class="b" width="2.352" height="2.352"/></g><g transform="translate(25.875 42.341)"><rect class="b" width="2.352" height="2.352"/></g><g transform="translate(28.227 42.341)"><rect class="b" width="2.352" height="2.352"/></g><g transform="translate(30.58 42.341)"><rect class="b" width="2.352" height="2.352"/></g><g transform="translate(37.637 42.341)"><rect class="b" width="2.352" height="2.352"/></g><g transform="translate(42.341 42.341)"><rect class="b" width="2.352" height="2.352"/></g><g transform="translate(47.046 42.341)"><rect class="b" width="2.352" height="2.352"/></g><g transform="translate(56.455 42.341)"><rect class="b" width="2.352" height="2.352"/></g><g transform="translate(28.227 44.693)"><rect class="b" width="2.352" height="2.352"/></g><g transform="translate(32.932 44.693)"><rect class="b" width="2.352" height="2.352"/></g><g transform="translate(37.637 44.693)"><rect class="b" width="2.352" height="2.352"/></g><g transform="translate(47.046 44.693)"><rect class="b" width="2.352" height="2.352"/></g><g transform="translate(21.171 47.046)"><rect class="b" width="2.352" height="2.352"/></g><g transform="translate(25.875 47.046)"><rect class="b" width="2.352" height="2.352"/></g><g transform="translate(30.58 47.046)"><rect class="b" width="2.352" height="2.352"/></g><g transform="translate(35.284 47.046)"><rect class="b" width="2.352" height="2.352"/></g><g transform="translate(37.637 47.046)"><rect class="b" width="2.352" height="2.352"/></g><g transform="translate(39.989 47.046)"><rect class="b" width="2.352" height="2.352"/></g><g transform="translate(42.341 47.046)"><rect class="b" width="2.352" height="2.352"/></g><g transform="translate(44.693 47.046)"><rect class="b" width="2.352" height="2.352"/></g><g transform="translate(47.046 47.046)"><rect class="b" width="2.352" height="2.352"/></g><g transform="translate(51.75 47.046)"><rect class="b" width="2.352" height="2.352"/></g><g transform="translate(21.171 49.398)"><rect class="b" width="2.352" height="2.352"/></g><g transform="translate(23.523 49.398)"><rect class="b" width="2.352" height="2.352"/></g><g transform="translate(25.875 49.398)"><rect class="b" width="2.352" height="2.352"/></g><g transform="translate(28.227 49.398)"><rect class="b" width="2.352" height="2.352"/></g><g transform="translate(30.58 49.398)"><rect class="b" width="2.352" height="2.352"/></g><g transform="translate(35.284 49.398)"><rect class="b" width="2.352" height="2.352"/></g><g transform="translate(37.637 49.398)"><rect class="b" width="2.352" height="2.352"/></g><g transform="translate(39.989 49.398)"><rect class="b" width="2.352" height="2.352"/></g><g transform="translate(42.341 49.398)"><rect class="b" width="2.352" height="2.352"/></g><g transform="translate(54.103 49.398)"><rect class="b" width="2.352" height="2.352"/></g><g transform="translate(56.455 49.398)"><rect class="b" width="2.352" height="2.352"/></g><g transform="translate(23.523 51.75)"><rect class="b" width="2.352" height="2.352"/></g><g transform="translate(28.227 51.75)"><rect class="b" width="2.352" height="2.352"/></g><g transform="translate(49.398 51.75)"><rect class="b" width="2.352" height="2.352"/></g><g transform="translate(51.75 51.75)"><rect class="b" width="2.352" height="2.352"/></g><g transform="translate(56.455 51.75)"><rect class="b" width="2.352" height="2.352"/></g><g transform="translate(21.171 54.103)"><rect class="b" width="2.352" height="2.352"/></g><g transform="translate(23.523 54.103)"><rect class="b" width="2.352" height="2.352"/></g><g transform="translate(25.875 54.103)"><rect class="b" width="2.352" height="2.352"/></g><g transform="translate(37.637 54.103)"><rect class="b" width="2.352" height="2.352"/></g><g transform="translate(39.989 54.103)"><rect class="b" width="2.352" height="2.352"/></g><g transform="translate(44.693 54.103)"><rect class="b" width="2.352" height="2.352"/></g><g transform="translate(47.046 54.103)"><rect class="b" width="2.352" height="2.352"/></g><g transform="translate(56.455 54.103)"><rect class="b" width="2.352" height="2.352"/></g><g transform="translate(18.818 56.455)"><rect class="b" width="2.352" height="2.352"/></g><g transform="translate(21.171 56.455)"><rect class="b" width="2.352" height="2.352"/></g><g transform="translate(25.875 56.455)"><rect class="b" width="2.352" height="2.352"/></g><g transform="translate(32.932 56.455)"><rect class="b" width="2.352" height="2.352"/></g><g transform="translate(37.637 56.455)"><rect class="b" width="2.352" height="2.352"/></g><g transform="translate(42.341 56.455)"><rect class="b" width="2.352" height="2.352"/></g><g transform="translate(49.398 56.455)"><rect class="b" width="2.352" height="2.352"/></g><g transform="translate(56.455 56.455)"><rect class="b" width="2.352" height="2.352"/></g><rect class="c" width="11.526" height="11.526" transform="translate(2.47 2.47)"/><path class="b" d="M14,0H0V16.466H16.466V0Zm0,14H2.47V2.47H14Z"/><g transform="translate(42.341)"><rect class="c" width="11.526" height="11.526" transform="translate(2.47 2.47)"/><path class="b" d="M14,0H0V16.466H16.466V0Zm0,14H2.47V2.47H14Z"/></g><g transform="translate(0 42.341)"><rect class="c" width="11.526" height="11.526" transform="translate(2.47 2.47)"/><path class="b" d="M14,0H0V16.466H16.466V0Zm0,14H2.47V2.47H14Z"/></g><g transform="translate(4.705 4.705)"><rect class="b" width="7.057" height="7.057"/></g><g transform="translate(47.046 4.705)"><rect class="b" width="7.057" height="7.057"/></g><g transform="translate(4.705 47.046)"><rect class="b" width="7.057" height="7.057"/></g></g></svg>